0
SECTION
2
HEADER
9
$INSUNITS
70
4
9
$ACADVER
1
AC1014
9
$HANDSEED
5
FFFF
0
ENDSEC
0
SECTION
2
TABLES
0
TABLE
2
VPORT
5
8
100
AcDbSymbolTable
0
ENDTAB
0
TABLE
2
LTYPE
5
5
100
AcDbSymbolTable
0
LTYPE
5
14
100
AcDbSymbolTableRecord
100
AcDbLinetypeTableRecord
2
BYBLOCK
70
0
0
LTYPE
5
15
100
AcDbSymbolTableRecord
100
AcDbLinetypeTableRecord
2
BYLAYER
70
0
0
LTYPE
5
16
100
AcDbSymbolTableRecord
100
AcDbLinetypeTableRecord
2
DASHED
70
0
3
Dashed __ __ __ __ __ __ __ __ __ __ __ __ __ _
72
65
73
2
40
0.75
49
0.5
74
0
49
-0.25
74
0
0
ENDTAB
0
TABLE
2
LAYER
5
2
100
AcDbSymbolTable
70
2
0
LAYER
5
50
100
AcDbSymbolTableRecord
100
AcDbLayerTableRecord
2
0
70
0
62
7
6
CONTINUOUS
0
ENDTAB
0
TABLE
2
STYLE
5
3
100
AcDbSymbolTable
70
1
0
STYLE
5
11
100
AcDbSymbolTableRecord
100
AcDbTextStyleTableRecord
2
STANDARD
70
0
0
ENDTAB
0
TABLE
2
VIEW
5
6
100
AcDbSymbolTable
70
0
0
ENDTAB
0
TABLE
2
UCS
5
7
100
AcDbSymbolTable
70
0
0
ENDTAB
0
TABLE
2
APPID
5
9
100
AcDbSymbolTable
70
2
0
APPID
5
12
100
AcDbSymbolTableRecord
100
AcDbRegAppTableRecord
2
ACAD
70
0
0
ENDTAB
0
TABLE
2
DIMSTYLE
5
A
100
AcDbSymbolTable
70
1
0
ENDTAB
0
TABLE
2
BLOCK_RECORD
5
1
100
AcDbSymbolTable
70
1
0
BLOCK_RECORD
5
1F
100
AcDbSymbolTableRecord
100
AcDbBlockTableRecord
2
*MODEL_SPACE
0
BLOCK_RECORD
5
1B
100
AcDbSymbolTableRecord
100
AcDbBlockTableRecord
2
*PAPER_SPACE
0
ENDTAB
0
ENDSEC
0
SECTION
2
BLOCKS
0
BLOCK
5
20
100
AcDbEntity
100
AcDbBlockBegin
2
*MODEL_SPACE
0
ENDBLK
5
21
100
AcDbEntity
100
AcDbBlockEnd
0
BLOCK
5
1C
100
AcDbEntity
100
AcDbBlockBegin
2
*PAPER_SPACE
0
ENDBLK
5
1D
100
AcDbEntity
100
AcDbBlockEnd
0
ENDSEC
0
SECTION
2
ENTITIES
0
LWPOLYLINE
5
100
100
AcDbEntity
8
0
100
AcDbPolyline
90
232
70
1
43
0.0
10
-367.05599999999998
20
-70.775000000000006
10
-366.92200000000003
20
-70.766999999999996
10
-366.78300000000002
20
-70.763999999999996
10
-366.64600000000002
20
-70.768000000000001
10
-366.51099999999997
20
-70.778999999999996
10
-366.37699999999995
20
-70.796999999999997
10
-366.24599999999998
20
-70.823999999999998
10
-366.11600000000004
20
-70.856999999999999
10
-365.98800000000006
20
-70.897999999999996
10
-365.86300000000006
20
-70.945999999999998
10
-365.73900000000003
20
-71.001999999999995
10
-365.61599999999999
20
-71.064999999999998
10
-365.49599999999998
20
-71.136000000000024
10
-365.37900000000002
20
-71.213000000000022
10
-365.26599999999996
20
-71.296999999999997
10
-365.15899999999999
20
-71.387
10
-365.05500000000006
20
-71.483000000000004
10
-364.95699999999999
20
-71.585000000000008
10
-364.86300000000006
20
-71.692999999999998
10
-364.77300000000008
20
-71.807000000000002
10
-364.68900000000008
20
-71.926999999999992
10
-364.60900000000004
20
-72.052999999999997
10
-364.53300000000007
20
-72.186000000000007
10
-364.46300000000002
20
-72.323999999999998
10
-364.40100000000001
20
-72.467000000000013
10
-364.346
20
-72.614999999999995
10
-364.29900000000004
20
-72.768000000000001
10
-364.25900000000007
20
-72.925000000000011
10
-364.226
20
-73.088000000000022
10
-364.20000000000005
20
-73.256
10
-364.18200000000002
20
-73.427999999999997
10
-364.17099999999999
20
-73.606000000000023
10
-364.16699999999997
20
-73.787999999999997
10
-364.17099999999999
20
-73.974999999999994
10
-364.18200000000002
20
-74.156000000000006
10
-364.20000000000005
20
-74.331999999999994
10
-364.226
20
-74.501999999999995
10
-364.25900000000007
20
-74.667000000000002
10
-364.29900000000004
20
-74.826000000000022
10
-364.346
20
-74.980000000000018
10
-364.40100000000001
20
-75.128
10
-364.46300000000002
20
-75.271000000000015
10
-364.53300000000007
20
-75.408000000000015
10
-364.60900000000004
20
-75.539000000000001
10
-364.68900000000008
20
-75.664000000000001
10
-364.77300000000008
20
-75.783000000000001
10
-364.86300000000006
20
-75.894999999999996
10
-364.95699999999999
20
-76.001000000000005
10
-365.05500000000006
20
-76.099999999999994
10
-365.15899999999999
20
-76.192999999999998
10
-365.26599999999996
20
-76.280000000000001
10
-365.37900000000002
20
-76.359999999999999
10
-365.49599999999998
20
-76.433999999999997
10
-365.61599999999999
20
-76.501000000000005
10
-365.73900000000003
20
-76.561000000000007
10
-365.86300000000006
20
-76.615000000000009
10
-365.98800000000006
20
-76.661000000000001
10
-366.11600000000004
20
-76.700000000000003
10
-366.24599999999998
20
-76.731000000000023
10
-366.37699999999995
20
-76.756
10
-366.51099999999997
20
-76.774000000000001
10
-366.64600000000002
20
-76.783999999999992
10
-366.78300000000002
20
-76.787999999999997
10
-366.87900000000008
20
-76.786999999999992
10
-366.97300000000007
20
-76.782000000000011
10
-367.06600000000003
20
-76.775000000000006
10
-367.15600000000001
20
-76.763999999999996
10
-367.24400000000003
20
-76.751000000000005
10
-367.33100000000002
20
-76.735000000000014
10
-367.41500000000002
20
-76.716000000000008
10
-367.49699999999996
20
-76.694000000000003
10
-367.57800000000003
20
-76.668999999999997
10
-367.65600000000001
20
-76.64100000000002
10
-367.73199999999997
20
-76.609999999999999
10
-367.80699999999996
20
-76.578000000000003
10
-367.87900000000002
20
-76.543000000000006
10
-367.95000000000005
20
-76.506
10
-368.01800000000009
20
-76.466000000000008
10
-368.08500000000004
20
-76.424999999999997
10
-368.149
20
-76.381
10
-368.21199999999999
20
-76.334999999999994
10
-368.27199999999999
20
-76.286000000000001
10
-368.33099999999996
20
-76.236000000000004
10
-368.38800000000003
20
-76.183999999999997
10
-368.44199999999995
20
-76.129999999999995
10
-368.495
20
-76.075000000000003
10
-368.54599999999999
20
-76.018999999999991
10
-368.59399999999999
20
-75.960999999999999
10
-368.64100000000002
20
-75.902000000000001
10
-368.68600000000004
20
-75.841000000000008
10
-368.72800000000007
20
-75.778999999999996
10
-368.76900000000001
20
-75.716000000000008
10
-368.80800000000011
20
-75.65100000000001
10
-368.84500000000003
20
-75.584999999999994
10
-368.88
20
-75.519000000000005
10
-368.91199999999998
20
-75.451999999999998
10
-368.9430000000001
20
-75.384
10
-368.97199999999998
20
-75.316000000000003
10
-368.99900000000002
20
-75.247
10
-369.024
20
-75.176999999999992
10
-369.04699999999997
20
-75.106999999999999
10
-369.06800000000004
20
-75.036000000000001
10
-369.08700000000005
20
-74.963999999999999
10
-368.12700000000001
20
-74.879999999999995
10
-368.09500000000008
20
-74.978000000000009
10
-368.05900000000003
20
-75.070999999999998
10
-368.01900000000001
20
-75.159999999999997
10
-367.97500000000008
20
-75.245000000000005
10
-367.92699999999996
20
-75.326000000000008
10
-367.875
20
-75.403000000000006
10
-367.81900000000002
20
-75.475999999999999
10
-367.75800000000004
20
-75.543999999999997
10
-367.69400000000007
20
-75.609000000000009
10
-367.62599999999998
20
-75.669000000000011
10
-367.55400000000003
20
-75.72399999999999
10
-367.4790000000001
20
-75.774000000000001
10
-367.40200000000004
20
-75.816999999999993
10
-367.32099999999997
20
-75.855000000000004
10
-367.23700000000002
20
-75.887
10
-367.14999999999998
20
-75.913000000000011
10
-367.06000000000006
20
-75.933999999999997
10
-366.96600000000001
20
-75.948000000000008
10
-366.87000000000006
20
-75.956999999999994
10
-366.77099999999996
20
-75.960000000000008
10
-366.68599999999998
20
-75.957999999999998
10
-366.60300000000001
20
-75.950000000000003
10
-366.51999999999998
20
-75.938000000000002
10
-366.43800000000005
20
-75.921000000000006
10
-366.35800000000006
20
-75.899000000000001
10
-366.27800000000002
20
-75.873000000000005
10
-366.19999999999999
20
-75.841000000000008
10
-366.12199999999996
20
-75.804000000000002
10
-366.04599999999999
20
-75.763000000000005
10
-365.97000000000003
20
-75.716999999999999
10
-365.89599999999996
20
-75.665999999999997
10
-365.82600000000002
20
-75.609999999999999
10
-365.7580000000001
20
-75.549999999999997
10
-365.69300000000004
20
-75.483999999999995
10
-365.63
20
-75.414000000000001
10
-365.57099999999997
20
-75.338999999999999
10
-365.51400000000001
20
-75.259
10
-365.45999999999998
20
-75.174999999999997
10
-365.40899999999999
20
-75.084999999999994
10
-365.36099999999999
20
-74.991
10
-365.31699999999995
20
-74.891999999999996
10
-365.27700000000004
20
-74.787999999999997
10
-365.24200000000002
20
-74.680000000000007
10
-365.21100000000001
20
-74.566999999999993
10
-365.18500000000006
20
-74.449000000000012
10
-365.16399999999999
20
-74.326000000000008
10
-365.14800000000002
20
-74.198999999999998
10
-365.13599999999997
20
-74.066999999999993
10
-365.12900000000002
20
-73.930000000000007
10
-365.12699999999995
20
-73.787999999999997
10
-365.12900000000002
20
-73.657000000000011
10
-365.13599999999997
20
-73.528999999999996
10
-365.14599999999996
20
-73.403999999999996
10
-365.161
20
-73.283999999999992
10
-365.18000000000001
20
-73.165999999999997
10
-365.20400000000001
20
-73.052999999999997
10
-365.23099999999999
20
-72.942000000000007
10
-365.26300000000003
20
-72.835999999999999
10
-365.30000000000001
20
-72.733000000000004
10
-365.33999999999997
20
-72.632999999999996
10
-365.38400000000001
20
-72.536999999999992
10
-365.43200000000002
20
-72.445999999999998
10
-365.48200000000003
20
-72.358999999999995
10
-365.53600000000006
20
-72.277000000000001
10
-365.59300000000002
20
-72.198999999999998
10
-365.65300000000002
20
-72.125
10
-365.71600000000001
20
-72.056000000000012
10
-365.78300000000007
20
-71.991
10
-365.85199999999998
20
-71.930000000000007
10
-365.92500000000001
20
-71.873999999999995
10
-366
20
-71.823000000000008
10
-366.07800000000003
20
-71.777000000000001
10
-366.15699999999998
20
-71.736000000000004
10
-366.23900000000003
20
-71.701000000000022
10
-366.322
20
-71.671000000000021
10
-366.40800000000007
20
-71.646999999999991
10
-366.49599999999998
20
-71.628000000000014
10
-366.58499999999998
20
-71.615000000000009
10
-366.67699999999996
20
-71.606999999999999
10
-366.77099999999996
20
-71.603999999999999
10
-366.90100000000001
20
-71.606999999999999
10
-367.02499999999998
20
-71.617000000000004
10
-367.142
20
-71.632999999999996
10
-367.25199999999995
20
-71.656000000000006
10
-367.35700000000003
20
-71.686000000000007
10
-367.45499999999998
20
-71.722000000000008
10
-367.54600000000005
20
-71.763999999999996
10
-367.63100000000003
20
-71.813000000000002
10
-367.71000000000004
20
-71.869
10
-367.78199999999998
20
-71.930999999999997
10
-367.84800000000007
20
-71.998999999999995
10
-367.90600000000006
20
-72.072000000000003
10
-367.95800000000008
20
-72.150000000000006
10
-368.00300000000004
20
-72.233000000000004
10
-368.041
20
-72.322000000000003
10
-368.07199999999995
20
-72.415000000000006
10
-368.096
20
-72.51400000000001
10
-368.11300000000011
20
-72.617000000000019
10
-368.12400000000002
20
-72.725999999999999
10
-368.12700000000001
20
-72.840000000000003
10
-369.08700000000005
20
-72.840000000000003
10
-369.084
20
-72.721000000000004
10
-369.07599999999996
20
-72.605000000000004
10
-369.06200000000001
20
-72.492000000000004
10
-369.04199999999997
20
-72.381
10
-369.017
20
-72.272999999999996
10
-368.98500000000007
20
-72.168000000000006
10
-368.94900000000001
20
-72.064999999999998
10
-368.90700000000004
20
-71.963999999999999
10
-368.85900000000004
20
-71.867000000000004
10
-368.80500000000006
20
-71.771999999999991
10
-368.74599999999998
20
-71.680000000000007
10
-368.68300000000005
20
-71.593000000000004
10
-368.61400000000003
20
-71.509
10
-368.54100000000005
20
-71.429000000000002
10
-368.46400000000006
20
-71.353000000000009
10
-368.38099999999997
20
-71.281999999999996
10
-368.2940000000001
20
-71.213999999999999
10
-368.202
20
-71.150000000000006
10
-368.10500000000002
20
-71.090000000000003
10
-368.00400000000002
20
-71.033999999999992
10
-367.89800000000008
20
-70.983000000000004
10
-367.78899999999999
20
-70.936999999999998
10
-367.67600000000004
20
-70.896000000000015
10
-367.56
20
-70.861000000000004
10
-367.43900000000002
20
-70.831999999999994
10
-367.31500000000005
20
-70.807000000000002
10
-367.1880000000001
20
-70.787999999999997
0
LWPOLYLINE
5
101
100
AcDbEntity
8
0
100
AcDbPolyline
90
12
70
1
43
0.0
10
-374.67900000000009
20
-76.643999999999991
10
-375.98700000000002
20
-76.643999999999991
10
-373.34717526545364
20
-74.49774022998632
10
-376.11900000000003
20
-70.908000000000001
10
-374.96699999999998
20
-70.908000000000001
10
-372.67781228494079
20
-73.953527268492934
10
-371.89500000000004
20
-73.317076487252152
10
-371.89500000000004
20
-70.908000000000001
10
-370.959
20
-70.908000000000001
10
-370.959
20
-79.091999999999999
10
-371.89500000000004
20
-79.091999999999999
10
-371.89500000000004
20
-74.316393442622967
0
LWPOLYLINE
5
102
100
AcDbEntity
8
0
100
AcDbPolyline
90
216
70
1
43
0.0
10
-360.00699999999995
20
-70.77600000000001
10
-359.88400000000007
20
-70.766999999999996
10
-359.75699999999995
20
-70.763999999999996
10
-359.61800000000005
20
-70.766999999999996
10
-359.48400000000004
20
-70.774000000000001
10
-359.3540000000001
20
-70.786999999999992
10
-359.23000000000002
20
-70.804000000000002
10
-359.11099999999999
20
-70.826999999999998
10
-358.99599999999998
20
-70.855000000000004
10
-358.88599999999997
20
-70.887
10
-358.78199999999998
20
-70.924999999999997
10
-358.68199999999996
20
-70.968000000000004
10
-358.58699999999999
20
-71.01600000000002
10
-358.49699999999996
20
-71.067999999999998
10
-358.41200000000003
20
-71.123000000000019
10
-358.33099999999996
20
-71.180999999999997
10
-358.255
20
-71.242000000000004
10
-358.18300000000011
20
-71.305000000000007
10
-358.11699999999996
20
-71.372
10
-358.05500000000001
20
-71.441999999999993
10
-357.99800000000005
20
-71.515000000000001
10
-357.94499999999999
20
-71.591000000000008
10
-357.89700000000005
20
-71.670000000000002
10
-357.85400000000004
20
-71.751000000000005
10
-357.815
20
-71.831999999999994
10
-357.78100000000001
20
-71.91500000000002
10
-357.75100000000003
20
-71.998000000000005
10
-357.72600000000006
20
-72.081999999999994
10
-357.70499999999998
20
-72.168000000000006
10
-357.69
20
-72.253000000000014
10
-357.67800000000011
20
-72.340000000000003
10
-357.67099999999999
20
-72.427999999999997
10
-357.6690000000001
20
-72.516000000000005
10
-357.67199999999997
20
-72.629999999999995
10
-357.68099999999998
20
-72.739999999999995
10
-357.69499999999999
20
-72.846000000000004
10
-357.71600000000001
20
-72.947000000000003
10
-357.74200000000002
20
-73.043999999999997
10
-357.774
20
-73.137
10
-357.81200000000001
20
-73.224999999999994
10
-357.85500000000008
20
-73.308999999999997
10
-357.90500000000003
20
-73.388999999999996
10
-357.95999999999998
20
-73.463999999999999
10
-358.01999999999998
20
-73.534999999999997
10
-358.08500000000004
20
-73.603000000000009
10
-358.15400000000005
20
-73.665999999999997
10
-358.22699999999998
20
-73.725999999999999
10
-358.30400000000003
20
-73.781000000000006
10
-358.38599999999997
20
-73.832999999999998
10
-358.47199999999998
20
-73.881
10
-358.56199999999995
20
-73.924999999999997
10
-358.65600000000001
20
-73.965000000000003
10
-358.755
20
-74.001000000000005
10
-358.85699999999997
20
-74.033000000000001
10
-358.96199999999999
20
-74.063000000000002
10
-359.06900000000002
20
-74.088000000000008
10
-359.17800000000005
20
-74.109999999999999
10
-359.291
20
-74.128999999999991
10
-359.40499999999997
20
-74.14500000000001
10
-359.52199999999999
20
-74.156999999999996
10
-359.642
20
-74.165000000000006
10
-359.76400000000007
20
-74.170000000000002
10
-359.88900000000001
20
-74.171999999999997
10
-359.9790000000001
20
-74.171000000000021
10
-360.06900000000002
20
-74.168000000000006
10
-360.15899999999999
20
-74.164000000000001
10
-360.24900000000002
20
-74.158000000000015
10
-360.33999999999997
20
-74.150000000000006
10
-360.43000000000001
20
-74.140000000000001
10
-360.51999999999998
20
-74.128000000000014
10
-360.61100000000005
20
-74.11399999999999
10
-360.70099999999996
20
-74.09899999999999
10
-360.79200000000003
20
-74.081999999999994
10
-360.88199999999995
20
-74.063000000000002
10
-360.97199999999998
20
-74.043000000000006
10
-361.06199999999995
20
-74.021999999999991
10
-361.15100000000007
20
-73.998999999999995
10
-361.24000000000001
20
-73.974999999999994
10
-361.32800000000003
20
-73.950000000000003
10
-361.41600000000005
20
-73.923999999999992
10
-361.5030000000001
20
-73.896000000000001
10
-361.58999999999997
20
-73.867000000000019
10
-361.59300000000002
20
-73.865931034482756
10
-361.59300000000002
20
-74.628
10
-361.58999999999997
20
-74.778000000000006
10
-361.58000000000004
20
-74.920000000000016
10
-361.5630000000001
20
-75.052999999999997
10
-361.54000000000002
20
-75.177999999999997
10
-361.51000000000005
20
-75.293000000000006
10
-361.47399999999999
20
-75.400000000000006
10
-361.43099999999998
20
-75.498000000000019
10
-361.38199999999995
20
-75.588000000000022
10
-361.32599999999996
20
-75.669000000000011
10
-361.26300000000009
20
-75.741
10
-361.19400000000007
20
-75.805000000000007
10
-361.11800000000011
20
-75.863
10
-361.03500000000003
20
-75.914000000000001
10
-360.94600000000003
20
-75.957999999999998
10
-360.85100000000006
20
-75.995000000000005
10
-360.74800000000005
20
-76.02600000000001
10
-360.63900000000001
20
-76.048999999999992
10
-360.524
20
-76.066000000000003
10
-360.40199999999999
20
-76.076999999999998
10
-360.27300000000002
20
-76.080000000000013
10
-360.19900000000001
20
-76.078999999999994
10
-360.12699999999995
20
-76.076000000000022
10
-360.05600000000004
20
-76.069999999999993
10
-359.98600000000005
20
-76.063000000000017
10
-359.91800000000006
20
-76.052999999999997
10
-359.851
20
-76.040999999999997
10
-359.786
20
-76.027000000000001
10
-359.72199999999998
20
-76.01100000000001
10
-359.65899999999999
20
-75.992999999999995
10
-359.59800000000001
20
-75.971999999999994
10
-359.53899999999999
20
-75.948999999999998
10
-359.48199999999997
20
-75.923999999999992
10
-359.42800000000005
20
-75.896999999999991
10
-359.37599999999998
20
-75.867000000000004
10
-359.32700000000006
20
-75.834999999999994
10
-359.27999999999997
20
-75.799999999999997
10
-359.23599999999999
20
-75.763000000000005
10
-359.19400000000002
20
-75.72399999999999
10
-359.15500000000003
20
-75.683000000000007
10
-359.11800000000005
20
-75.63900000000001
10
-359.084
20
-75.593000000000004
10
-359.05400000000009
20
-75.543999999999997
10
-359.02800000000008
20
-75.492000000000004
10
-359.005
20
-75.438000000000017
10
-358.98500000000007
20
-75.382000000000005
10
-358.96900000000005
20
-75.323000000000008
10
-358.95699999999999
20
-75.26100000000001
10
-358.94800000000004
20
-75.195999999999998
10
-358.9430000000001
20
-75.129999999999995
10
-358.94100000000003
20
-75.060000000000002
10
-357.89700000000005
20
-75.060000000000002
10
-357.89999999999998
20
-75.182000000000002
10
-357.90899999999999
20
-75.299999999999997
10
-357.92500000000007
20
-75.412999999999997
10
-357.94599999999997
20
-75.519999999999996
10
-357.97400000000005
20
-75.623000000000005
10
-358.00700000000001
20
-75.721000000000004
10
-358.04699999999997
20
-75.814999999999998
10
-358.09300000000002
20
-75.903000000000006
10
-358.14500000000004
20
-75.986000000000018
10
-358.20300000000003
20
-76.064999999999998
10
-358.26700000000005
20
-76.138999999999996
10
-358.33500000000004
20
-76.209000000000003
10
-358.40699999999998
20
-76.275000000000006
10
-358.48500000000001
20
-76.335999999999999
10
-358.56699999999995
20
-76.393999999999991
10
-358.65300000000002
20
-76.447000000000003
10
-358.74500000000006
20
-76.495000000000005
10
-358.84000000000003
20
-76.540000000000006
10
-358.94100000000003
20
-76.581000000000017
10
-359.04600000000005
20
-76.617000000000004
10
-359.15500000000003
20
-76.649000000000001
10
-359.26700000000005
20
-76.679000000000002
10
-359.38199999999995
20
-76.703999999999994
10
-359.5
20
-76.725999999999999
10
-359.62099999999998
20
-76.745000000000005
10
-359.745
20
-76.761000000000024
10
-359.87300000000005
20
-76.772999999999996
10
-360.00300000000004
20
-76.781000000000006
10
-360.13699999999994
20
-76.786000000000001
10
-360.27300000000002
20
-76.787999999999997
10
-360.404
20
-76.786000000000001
10
-360.53100000000001
20
-76.778999999999996
10
-360.65600000000006
20
-76.768000000000001
10
-360.77699999999999
20
-76.75200000000001
10
-360.89599999999996
20
-76.733000000000004
10
-361.01099999999997
20
-76.707999999999998
10
-361.12300000000005
20
-76.679000000000002
10
-361.233
20
-76.646000000000001
10
-361.33900000000006
20
-76.608000000000004
10
-361.4430000000001
20
-76.566000000000003
10
-361.54300000000001
20
-76.518999999999991
10
-361.63800000000003
20
-76.466999999999999
10
-361.72900000000004
20
-76.408999999999992
10
-361.815
20
-76.346999999999994
10
-361.89700000000005
20
-76.278999999999996
10
-361.97500000000002
20
-76.206000000000003
10
-362.048
20
-76.12700000000001
10
-362.11700000000002
20
-76.043999999999997
10
-362.18099999999998
20
-75.954999999999998
10
-362.24099999999999
20
-75.861000000000004
10
-362.29599999999999
20
-75.76100000000001
10
-362.34500000000003
20
-75.656000000000006
10
-362.38800000000003
20
-75.545000000000016
10
-362.42500000000001
20
-75.427999999999997
10
-362.45699999999999
20
-75.305000000000007
10
-362.483
20
-75.176999999999992
10
-362.50300000000004
20
-75.042000000000002
10
-362.517
20
-74.902000000000001
10
-362.52600000000001
20
-74.756
10
-362.52900000000005
20
-74.603999999999999
10
-362.52900000000005
20
-70.908000000000001
10
-361.71300000000002
20
-70.908000000000001
10
-361.61424050632917
20
-71.944974683544316
10
-361.57199999999995
20
-71.856000000000009
10
-361.51999999999998
20
-71.760000000000005
10
-361.464
20
-71.667000000000002
10
-361.40300000000002
20
-71.578000000000003
10
-361.33900000000006
20
-71.492999999999995
10
-361.27000000000004
20
-71.411999999999992
10
-361.19699999999995
20
-71.334999999999994
10
-361.11900000000003
20
-71.26100000000001
10
-361.03699999999998
20
-71.191999999999993
10
-360.95099999999996
20
-71.126000000000005
10
-360.86099999999999
20
-71.063999999999993
10
-360.76700000000005
20
-71.007000000000005
10
-360.66900000000004
20
-70.956000000000017
10
-360.56800000000004
20
-70.911000000000001
10
-360.46300000000002
20
-70.872
10
-360.35400000000004
20
-70.838999999999999
10
-360.24200000000002
20
-70.811999999999998
10
-360.12599999999998
20
-70.790999999999997
0
LWPOLYLINE
5
103
100
AcDbEntity
8
0
100
AcDbPolyline
90
123
70
1
43
0.0
10
-353.80900000000003
20
-70.915000000000006
10
-353.66800000000006
20
-70.909999999999997
10
-353.52300000000008
20
-70.908000000000001
10
-350.70300000000003
20
-70.908000000000001
10
-350.70300000000003
20
-78.444000000000003
10
-353.52300000000008
20
-78.444000000000003
10
-353.68600000000004
20
-78.441000000000003
10
-353.84300000000002
20
-78.433000000000007
10
-353.99400000000009
20
-78.418999999999997
10
-354.13999999999999
20
-78.400000000000006
10
-354.28100000000001
20
-78.376000000000005
10
-354.41500000000008
20
-78.346000000000004
10
-354.5440000000001
20
-78.310000000000002
10
-354.66699999999997
20
-78.268999999999991
10
-354.78500000000003
20
-78.222999999999999
10
-354.89699999999999
20
-78.171000000000006
10
-355.00300000000004
20
-78.114999999999995
10
-355.10400000000004
20
-78.055000000000007
10
-355.20000000000005
20
-77.992000000000004
10
-355.29000000000002
20
-77.925000000000011
10
-355.37400000000002
20
-77.855000000000004
10
-355.45300000000003
20
-77.781000000000006
10
-355.52600000000007
20
-77.703999999999994
10
-355.59400000000005
20
-77.623000000000005
10
-355.65600000000006
20
-77.539000000000001
10
-355.71300000000002
20
-77.451000000000008
10
-355.76400000000001
20
-77.361000000000004
10
-355.81000000000006
20
-77.268999999999991
10
-355.85100000000006
20
-77.176000000000016
10
-355.88599999999997
20
-77.079999999999998
10
-355.916
20
-76.983999999999995
10
-355.94
20
-76.885000000000019
10
-355.959
20
-76.786000000000001
10
-355.97199999999998
20
-76.683999999999997
10
-355.98000000000008
20
-76.581000000000017
10
-355.983
20
-76.475999999999999
10
-355.97900000000004
20
-76.347999999999999
10
-355.96899999999999
20
-76.22399999999999
10
-355.95099999999996
20
-76.103000000000009
10
-355.92599999999999
20
-75.984999999999999
10
-355.89400000000006
20
-75.871000000000009
10
-355.85400000000004
20
-75.760000000000005
10
-355.80800000000005
20
-75.653000000000006
10
-355.755
20
-75.549000000000007
10
-355.69400000000002
20
-75.448000000000008
10
-355.62599999999998
20
-75.350999999999999
10
-355.55100000000004
20
-75.259
10
-355.46899999999999
20
-75.171999999999997
10
-355.38000000000005
20
-75.091999999999999
10
-355.28300000000002
20
-75.018000000000001
10
-355.18000000000001
20
-74.950000000000017
10
-355.06900000000002
20
-74.888000000000005
10
-354.95100000000002
20
-74.831999999999994
10
-354.82599999999996
20
-74.781999999999996
10
-354.69400000000002
20
-74.738
10
-354.55500000000001
20
-74.700000000000003
10
-354.64599999999996
20
-74.683999999999997
10
-354.73500000000001
20
-74.664000000000001
10
-354.822
20
-74.640000000000001
10
-354.90699999999998
20
-74.613
10
-354.98900000000003
20
-74.581999999999994
10
-355.06900000000002
20
-74.548000000000002
10
-355.14699999999999
20
-74.510000000000005
10
-355.22300000000001
20
-74.468000000000004
10
-355.29699999999997
20
-74.421999999999997
10
-355.36800000000005
20
-74.373000000000005
10
-355.43699999999995
20
-74.320999999999998
10
-355.50199999999995
20
-74.266000000000005
10
-355.565
20
-74.209999999999994
10
-355.62400000000002
20
-74.15100000000001
10
-355.68100000000004
20
-74.090000000000003
10
-355.73400000000004
20
-74.02600000000001
10
-355.78399999999999
20
-73.959999999999994
10
-355.83199999999999
20
-73.891999999999996
10
-355.87600000000003
20
-73.822000000000003
10
-355.91699999999997
20
-73.748999999999995
10
-355.95500000000004
20
-73.674999999999997
10
-355.98800000000006
20
-73.59899999999999
10
-356.01800000000003
20
-73.522999999999996
10
-356.04400000000004
20
-73.445999999999998
10
-356.06500000000005
20
-73.367000000000004
10
-356.08300000000008
20
-73.287999999999997
10
-356.09699999999998
20
-73.206999999999994
10
-356.10700000000003
20
-73.126000000000005
10
-356.11300000000006
20
-73.043000000000006
10
-356.11500000000001
20
-72.959999999999994
10
-356.11400000000003
20
-72.882999999999996
10
-356.11000000000001
20
-72.807000000000002
10
-356.10300000000001
20
-72.731000000000009
10
-356.09399999999999
20
-72.656000000000006
10
-356.08300000000008
20
-72.581000000000003
10
-356.06900000000002
20
-72.506
10
-356.05199999999996
20
-72.430999999999997
10
-356.03200000000004
20
-72.356999999999999
10
-356.01099999999997
20
-72.283000000000015
10
-355.98599999999999
20
-72.210000000000008
10
-355.95800000000003
20
-72.138000000000005
10
-355.92800000000005
20
-72.066000000000003
10
-355.89300000000003
20
-71.997
10
-355.85500000000002
20
-71.929000000000002
10
-355.81400000000002
20
-71.861999999999995
10
-355.76999999999998
20
-71.796999999999997
10
-355.72200000000004
20
-71.733000000000004
10
-355.67000000000002
20
-71.670000000000002
10
-355.61500000000001
20
-71.609999999999999
10
-355.55699999999996
20
-71.549999999999997
10
-355.495
20
-71.492000000000004
10
-355.42900000000003
20
-71.436999999999998
10
-355.35900000000004
20
-71.384000000000015
10
-355.28500000000003
20
-71.334000000000003
10
-355.20699999999999
20
-71.286000000000001
10
-355.12599999999998
20
-71.239999999999995
10
-355.04000000000008
20
-71.197000000000003
10
-354.94999999999999
20
-71.156000000000006
10
-354.85700000000003
20
-71.117999999999995
10
-354.75900000000001
20
-71.081999999999994
10
-354.65699999999998
20
-71.048999999999992
10
-354.55000000000007
20
-71.018999999999991
10
-354.43900000000008
20
-70.992999999999995
10
-354.32199999999995
20
-70.971000000000004
10
-354.20099999999996
20
-70.951000000000008
10
-354.07499999999999
20
-70.936000000000007
10
-353.94400000000007
20
-70.923999999999992
0
LWPOLYLINE
5
104
100
AcDbEntity
8
0
100
AcDbPolyline
90
172
70
1
43
0.0
10
-480
20
-142.5
10
-480
20
-150
10
-475.50000000000006
20
-150
10
-475.50000000000006
20
-147
10
-466.50000000000006
20
-147
10
-466.50000000000006
20
-150
10
-457.5
20
-150
10
-457.5
20
-147
10
-448.5
20
-147
10
-448.5
20
-150
10
-439.5
20
-150
10
-439.5
20
-147
10
-430.50000000000006
20
-147
10
-430.50000000000006
20
-150
10
-421.50000000000006
20
-150
10
-421.50000000000006
20
-147
10
-412.5
20
-147
10
-412.5
20
-150
10
-403.5
20
-150
10
-403.5
20
-147
10
-394.5
20
-147
10
-394.5
20
-150
10
-385.50000000000006
20
-150
10
-385.50000000000006
20
-147
10
-376.5
20
-147
10
-376.5
20
-150
10
-367.5
20
-150
10
-367.5
20
-147
10
-358.5
20
-147
10
-358.5
20
-150
10
-349.5
20
-150
10
-349.5
20
-147
10
-340.50000000000006
20
-147
10
-340.50000000000006
20
-150
10
-331.5
20
-150
10
-331.5
20
-147
10
-322.5
20
-147
10
-322.5
20
-150
10
-313.5
20
-150
10
-313.5
20
-147
10
-304.5
20
-147
10
-304.5
20
-150
10
-295.5
20
-150
10
-295.5
20
-147
10
-286.5
20
-147
10
-286.5
20
-150
10
-277.5
20
-150
10
-277.5
20
-147
10
-268.5
20
-147
10
-268.5
20
-150
10
-259.5
20
-150
10
-259.5
20
-147
10
-250.5
20
-147
10
-250.5
20
-150
10
-246
20
-150
10
-246
20
-142.5
10
-243
20
-142.5
10
-243
20
-133.5
10
-246
20
-133.5
10
-246
20
-124.50000000000001
10
-243
20
-124.50000000000001
10
-243
20
-115.5
10
-246
20
-115.5
10
-246
20
-106.5
10
-243
20
-106.5
10
-243
20
-97.5
10
-246
20
-97.5
10
-246
20
-88.5
10
-243
20
-88.5
10
-243
20
-79.5
10
-246
20
-79.5
10
-246
20
-70.5
10
-243
20
-70.5
10
-243
20
-61.5
10
-246
20
-61.5
10
-246
20
-52.5
10
-243
20
-52.5
10
-243
20
-43.500000000000007
10
-246
20
-43.500000000000007
10
-246
20
-34.5
10
-243
20
-34.5
10
-243
20
-25.500000000000007
10
-246
20
-25.500000000000007
10
-246
20
-16.500000000000004
10
-243
20
-16.500000000000004
10
-243
20
-7.5
10
-246
20
-7.5
10
-246
20
0
10
-250.5
20
0
10
-250.5
20
-2.9999999999999982
10
-259.5
20
-2.9999999999999982
10
-259.5
20
0
10
-268.5
20
0
10
-268.5
20
-2.9999999999999982
10
-277.5
20
-2.9999999999999982
10
-277.5
20
0
10
-286.5
20
0
10
-286.5
20
-2.9999999999999982
10
-295.5
20
-2.9999999999999982
10
-295.5
20
0
10
-304.5
20
0
10
-304.5
20
-2.9999999999999982
10
-313.5
20
-2.9999999999999982
10
-313.5
20
0
10
-322.5
20
0
10
-322.5
20
-2.9999999999999982
10
-331.5
20
-2.9999999999999982
10
-331.5
20
0
10
-340.50000000000006
20
0
10
-340.50000000000006
20
-2.9999999999999982
10
-349.5
20
-2.9999999999999982
10
-349.5
20
0
10
-358.5
20
0
10
-358.5
20
-2.9999999999999982
10
-367.5
20
-2.9999999999999982
10
-367.5
20
0
10
-376.5
20
0
10
-376.5
20
-2.9999999999999982
10
-385.50000000000006
20
-2.9999999999999982
10
-385.50000000000006
20
0
10
-394.5
20
0
10
-394.5
20
-2.9999999999999982
10
-403.5
20
-2.9999999999999982
10
-403.5
20
0
10
-412.5
20
0
10
-412.5
20
-2.9999999999999982
10
-421.50000000000006
20
-2.9999999999999982
10
-421.50000000000006
20
0
10
-430.50000000000006
20
0
10
-430.50000000000006
20
-2.9999999999999982
10
-439.5
20
-2.9999999999999982
10
-439.5
20
0
10
-448.5
20
0
10
-448.5
20
-2.9999999999999982
10
-457.5
20
-2.9999999999999982
10
-457.5
20
0
10
-466.50000000000006
20
0
10
-466.50000000000006
20
-2.9999999999999982
10
-475.50000000000006
20
-2.9999999999999982
10
-475.50000000000006
20
0
10
-480
20
0
10
-480
20
-7.5
10
-483.00000000000006
20
-7.5
10
-483.00000000000006
20
-16.500000000000004
10
-480
20
-16.500000000000004
10
-480
20
-25.500000000000007
10
-483.00000000000006
20
-25.500000000000007
10
-483.00000000000006
20
-34.5
10
-480
20
-34.5
10
-480
20
-43.500000000000007
10
-483.00000000000006
20
-43.500000000000007
10
-483.00000000000006
20
-52.5
10
-480
20
-52.5
10
-480
20
-61.5
10
-483.00000000000006
20
-61.5
10
-483.00000000000006
20
-70.5
10
-480
20
-70.5
10
-480
20
-79.5
10
-483.00000000000006
20
-79.5
10
-483.00000000000006
20
-88.5
10
-480
20
-88.5
10
-480
20
-97.5
10
-483.00000000000006
20
-97.5
10
-483.00000000000006
20
-106.5
10
-480
20
-106.5
10
-480
20
-115.5
10
-483.00000000000006
20
-115.5
10
-483.00000000000006
20
-124.50000000000001
10
-480
20
-124.50000000000001
10
-480
20
-133.5
10
-483.00000000000006
20
-133.5
10
-483.00000000000006
20
-142.5
0
ENDSEC
0
SECTION
2
OBJECTS
0
DICTIONARY
5
C
100
AcDbDictionary
3
ACAD_GROUP
350
D
3
ACAD_MLINESTYLE
350
17
0
DICTIONARY
5
D
100
AcDbDictionary
0
DICTIONARY
5
1A
330
C
100
AcDbDictionary
0
DICTIONARY
5
17
100
AcDbDictionary
0
ENDSEC
0
EOF
