0
SECTION
2
HEADER
9
$INSUNITS
70
4
9
$ACADVER
1
AC1014
9
$HANDSEED
5
FFFF
0
ENDSEC
0
SECTION
2
TABLES
0
TABLE
2
VPORT
5
8
100
AcDbSymbolTable
0
ENDTAB
0
TABLE
2
LTYPE
5
5
100
AcDbSymbolTable
0
LTYPE
5
14
100
AcDbSymbolTableRecord
100
AcDbLinetypeTableRecord
2
BYBLOCK
70
0
0
LTYPE
5
15
100
AcDbSymbolTableRecord
100
AcDbLinetypeTableRecord
2
BYLAYER
70
0
0
LTYPE
5
16
100
AcDbSymbolTableRecord
100
AcDbLinetypeTableRecord
2
DASHED
70
0
3
Dashed __ __ __ __ __ __ __ __ __ __ __ __ __ _
72
65
73
2
40
0.75
49
0.5
74
0
49
-0.25
74
0
0
ENDTAB
0
TABLE
2
LAYER
5
2
100
AcDbSymbolTable
70
2
0
LAYER
5
50
100
AcDbSymbolTableRecord
100
AcDbLayerTableRecord
2
0
70
0
62
7
6
CONTINUOUS
0
ENDTAB
0
TABLE
2
STYLE
5
3
100
AcDbSymbolTable
70
1
0
STYLE
5
11
100
AcDbSymbolTableRecord
100
AcDbTextStyleTableRecord
2
STANDARD
70
0
0
ENDTAB
0
TABLE
2
VIEW
5
6
100
AcDbSymbolTable
70
0
0
ENDTAB
0
TABLE
2
UCS
5
7
100
AcDbSymbolTable
70
0
0
ENDTAB
0
TABLE
2
APPID
5
9
100
AcDbSymbolTable
70
2
0
APPID
5
12
100
AcDbSymbolTableRecord
100
AcDbRegAppTableRecord
2
ACAD
70
0
0
ENDTAB
0
TABLE
2
DIMSTYLE
5
A
100
AcDbSymbolTable
70
1
0
ENDTAB
0
TABLE
2
BLOCK_RECORD
5
1
100
AcDbSymbolTable
70
1
0
BLOCK_RECORD
5
1F
100
AcDbSymbolTableRecord
100
AcDbBlockTableRecord
2
*MODEL_SPACE
0
BLOCK_RECORD
5
1B
100
AcDbSymbolTableRecord
100
AcDbBlockTableRecord
2
*PAPER_SPACE
0
ENDTAB
0
ENDSEC
0
SECTION
2
BLOCKS
0
BLOCK
5
20
100
AcDbEntity
100
AcDbBlockBegin
2
*MODEL_SPACE
0
ENDBLK
5
21
100
AcDbEntity
100
AcDbBlockEnd
0
BLOCK
5
1C
100
AcDbEntity
100
AcDbBlockBegin
2
*PAPER_SPACE
0
ENDBLK
5
1D
100
AcDbEntity
100
AcDbBlockEnd
0
ENDSEC
0
SECTION
2
ENTITIES
0
LWPOLYLINE
5
100
100
AcDbEntity
8
0
100
AcDbPolyline
90
108
70
1
43
0.0
10
-124.03500000000001
20
-229.602
10
-125.22300000000001
20
-229.602
10
-125.22300000000001
20
-228.95400000000001
10
-124.03500000000001
20
-228.95400000000001
10
-124.03500000000001
20
-223.86600000000001
10
-123.09899999999999
20
-223.86600000000001
10
-123.09899999999999
20
-228.95400000000001
10
-122.16300000000001
20
-228.95400000000001
10
-122.16300000000001
20
-229.602
10
-123.09899999999999
20
-229.602
10
-123.09899999999999
20
-230.49000000000004
10
-123.101
20
-230.60200000000003
10
-123.108
20
-230.71000000000001
10
-123.11900000000001
20
-230.81299999999999
10
-123.13400000000001
20
-230.91300000000001
10
-123.154
20
-231.00799999999998
10
-123.178
20
-231.09900000000005
10
-123.206
20
-231.18700000000004
10
-123.239
20
-231.27000000000004
10
-123.27600000000002
20
-231.34799999999998
10
-123.31800000000001
20
-231.42300000000003
10
-123.36300000000001
20
-231.49400000000003
10
-123.41200000000001
20
-231.56099999999998
10
-123.46299999999999
20
-231.62400000000005
10
-123.51700000000001
20
-231.68300000000002
10
-123.57500000000002
20
-231.73900000000003
10
-123.63500000000002
20
-231.79100000000003
10
-123.69799999999999
20
-231.83900000000006
10
-123.76400000000001
20
-231.88299999999998
10
-123.83400000000002
20
-231.92300000000003
10
-123.90600000000001
20
-231.96000000000001
10
-123.98100000000001
20
-231.99299999999999
10
-124.05700000000002
20
-232.02300000000002
10
-124.13500000000001
20
-232.04900000000004
10
-124.21500000000002
20
-232.071
10
-124.29700000000003
20
-232.09000000000003
10
-124.38000000000001
20
-232.10599999999999
10
-124.465
20
-232.11799999999999
10
-124.55200000000002
20
-232.12700000000001
10
-124.64100000000002
20
-232.13200000000001
10
-124.73100000000002
20
-232.13400000000004
10
-124.78000000000002
20
-232.13400000000004
10
-124.83000000000001
20
-232.13300000000001
10
-124.87899999999999
20
-232.13099999999997
10
-124.97900000000001
20
-232.12500000000003
10
-125.029
20
-232.12099999999998
10
-125.08000000000001
20
-232.11600000000001
10
-125.13
20
-232.11100000000002
10
-125.18100000000001
20
-232.10499999999999
10
-125.23200000000003
20
-232.09800000000001
10
-125.334
20
-232.08200000000002
10
-125.38500000000001
20
-232.07300000000001
10
-125.43600000000001
20
-232.06299999999999
10
-125.486
20
-232.053
10
-125.53700000000001
20
-232.042
10
-125.58799999999999
20
-232.03000000000003
10
-125.63800000000001
20
-232.01700000000002
10
-125.68899999999999
20
-232.00400000000002
10
-125.739
20
-231.99000000000001
10
-125.55900000000001
20
-231.24600000000001
10
-125.52300000000001
20
-231.26000000000002
10
-125.45100000000002
20
-231.286
10
-125.41500000000001
20
-231.29800000000003
10
-125.38
20
-231.30900000000003
10
-125.30799999999999
20
-231.32900000000004
10
-125.273
20
-231.33800000000002
10
-125.23700000000002
20
-231.346
10
-125.20200000000003
20
-231.35400000000004
10
-125.167
20
-231.36099999999999
10
-125.13200000000001
20
-231.36700000000005
10
-125.09700000000002
20
-231.37200000000004
10
-125.06299999999999
20
-231.37700000000001
10
-125.029
20
-231.38099999999997
10
-124.995
20
-231.38400000000004
10
-124.96200000000002
20
-231.387
10
-124.92800000000001
20
-231.38900000000004
10
-124.89600000000002
20
-231.38999999999999
10
-124.863
20
-231.38999999999999
10
-124.82500000000002
20
-231.38900000000004
10
-124.786
20
-231.387
10
-124.748
20
-231.38400000000004
10
-124.709
20
-231.37799999999999
10
-124.67100000000002
20
-231.37200000000004
10
-124.63300000000001
20
-231.36400000000003
10
-124.59400000000001
20
-231.35500000000002
10
-124.55600000000001
20
-231.34400000000002
10
-124.51700000000002
20
-231.33200000000002
10
-124.47900000000001
20
-231.31799999999998
10
-124.441
20
-231.30200000000002
10
-124.405
20
-231.28400000000002
10
-124.37
20
-231.26300000000001
10
-124.336
20
-231.24000000000001
10
-124.30300000000001
20
-231.21400000000006
10
-124.27200000000001
20
-231.18600000000001
10
-124.24300000000001
20
-231.155
10
-124.214
20
-231.12200000000001
10
-124.18700000000001
20
-231.08599999999998
10
-124.161
20
-231.048
10
-124.137
20
-231.00700000000003
10
-124.116
20
-230.96200000000005
10
-124.09700000000001
20
-230.91400000000004
10
-124.08000000000001
20
-230.86200000000002
10
-124.06700000000001
20
-230.80600000000001
10
-124.05500000000002
20
-230.74799999999999
10
-124.04600000000002
20
-230.68600000000001
10
-124.04000000000002
20
-230.62
10
-124.036
20
-230.55099999999999
10
-124.03500000000001
20
-230.47799999999998
0
LWPOLYLINE
5
101
100
AcDbEntity
8
0
100
AcDbPolyline
90
182
70
1
43
0.0
10
-118.85899999999999
20
-223.73099999999999
10
-118.73899999999999
20
-223.72400000000002
10
-118.617
20
-223.72200000000004
10
-118.47000000000001
20
-223.72600000000003
10
-118.32600000000001
20
-223.73699999999999
10
-118.185
20
-223.75599999999997
10
-118.04700000000003
20
-223.78299999999999
10
-117.913
20
-223.81700000000001
10
-117.78100000000002
20
-223.85900000000004
10
-117.65299999999999
20
-223.90900000000002
10
-117.52800000000001
20
-223.96600000000001
10
-117.40700000000002
20
-224.03099999999998
10
-117.288
20
-224.10300000000001
10
-117.173
20
-224.18200000000002
10
-117.06400000000001
20
-224.267
10
-116.95900000000002
20
-224.358
10
-116.85900000000001
20
-224.45500000000004
10
-116.76400000000001
20
-224.55799999999999
10
-116.67500000000001
20
-224.66700000000003
10
-116.59
20
-224.78200000000001
10
-116.509
20
-224.90300000000002
10
-116.434
20
-225.02900000000005
10
-116.364
20
-225.16200000000001
10
-116.30000000000001
20
-225.30000000000001
10
-116.24200000000002
20
-225.441
10
-116.19100000000002
20
-225.58700000000002
10
-116.14700000000001
20
-225.73700000000002
10
-116.11000000000001
20
-225.89100000000002
10
-116.07900000000001
20
-226.04900000000001
10
-116.05600000000001
20
-226.21099999999998
10
-116.03900000000002
20
-226.37700000000001
10
-116.02800000000001
20
-226.548
10
-116.02500000000001
20
-226.72200000000004
10
-116.02800000000001
20
-226.90799999999999
10
-116.038
20
-227.08799999999999
10
-116.05500000000001
20
-227.26300000000003
10
-116.07900000000001
20
-227.43300000000002
10
-116.10900000000001
20
-227.59799999999998
10
-116.14600000000002
20
-227.75700000000001
10
-116.19
20
-227.911
10
-116.24000000000001
20
-228.06
10
-116.29700000000001
20
-228.20400000000004
10
-116.361
20
-228.34200000000004
10
-116.43100000000001
20
-228.47400000000005
10
-116.50500000000001
20
-228.60100000000003
10
-116.58500000000001
20
-228.72
10
-116.67000000000002
20
-228.834
10
-116.759
20
-228.94099999999997
10
-116.85400000000001
20
-229.04200000000003
10
-116.953
20
-229.13700000000003
10
-117.05799999999999
20
-229.22499999999999
10
-117.16700000000002
20
-229.30700000000002
10
-117.28200000000001
20
-229.38299999999998
10
-117.40100000000001
20
-229.452
10
-117.523
20
-229.51400000000004
10
-117.64800000000001
20
-229.56800000000001
10
-117.77600000000001
20
-229.61500000000001
10
-117.90799999999999
20
-229.65500000000003
10
-118.04299999999999
20
-229.68800000000002
10
-118.18200000000002
20
-229.71299999999999
10
-118.324
20
-229.73100000000002
10
-118.46899999999999
20
-229.74200000000002
10
-118.617
20
-229.74599999999998
10
-118.74600000000001
20
-229.74299999999999
10
-118.87100000000002
20
-229.73500000000001
10
-118.992
20
-229.72200000000001
10
-119.10899999999999
20
-229.70400000000001
10
-119.223
20
-229.68000000000004
10
-119.33300000000001
20
-229.65100000000001
10
-119.43899999999999
20
-229.61700000000005
10
-119.541
20
-229.57700000000003
10
-119.63900000000001
20
-229.53200000000004
10
-119.733
20
-229.482
10
-119.824
20
-229.42700000000002
10
-119.91100000000002
20
-229.36900000000006
10
-119.99400000000001
20
-229.30700000000002
10
-120.07400000000001
20
-229.24099999999999
10
-120.15000000000001
20
-229.17200000000003
10
-120.22300000000001
20
-229.09800000000001
10
-120.29200000000002
20
-229.02100000000002
10
-120.35700000000003
20
-228.94099999999997
10
-120.419
20
-228.85599999999999
10
-120.477
20
-228.76800000000003
10
-120.53200000000002
20
-228.67700000000002
10
-120.58300000000001
20
-228.583
10
-120.631
20
-228.48700000000002
10
-120.67500000000001
20
-228.38900000000001
10
-120.71600000000002
20
-228.28900000000004
10
-120.754
20
-228.18600000000001
10
-120.78800000000001
20
-228.08099999999999
10
-120.81900000000002
20
-227.97300000000001
10
-120.84600000000002
20
-227.863
10
-120.87000000000002
20
-227.75099999999998
10
-120.89100000000002
20
-227.637
10
-120.908
20
-227.52300000000002
10
-120.92200000000003
20
-227.40700000000004
10
-120.93299999999999
20
-227.29100000000003
10
-120.941
20
-227.17400000000001
10
-120.946
20
-227.05700000000004
10
-120.94700000000002
20
-226.93799999999999
10
-120.946
20
-226.81900000000002
10
-120.941
20
-226.69900000000001
10
-120.93299999999999
20
-226.57800000000003
10
-116.96120168067227
20
-226.57800000000003
10
-116.96300000000001
20
-226.47099999999998
10
-116.96799999999999
20
-226.35500000000002
10
-116.977
20
-226.24099999999999
10
-116.98999999999999
20
-226.13
10
-117.00700000000001
20
-226.02200000000005
10
-117.027
20
-225.91499999999999
10
-117.05100000000002
20
-225.81200000000001
10
-117.07799999999999
20
-225.71100000000001
10
-117.10900000000001
20
-225.61199999999999
10
-117.14399999999999
20
-225.51600000000002
10
-117.18200000000002
20
-225.423
10
-117.22499999999999
20
-225.334
10
-117.27000000000001
20
-225.24900000000002
10
-117.31999999999999
20
-225.16800000000003
10
-117.37299999999999
20
-225.09100000000001
10
-117.429
20
-225.01800000000003
10
-117.49000000000001
20
-224.94900000000001
10
-117.55400000000002
20
-224.88400000000001
10
-117.62200000000001
20
-224.82299999999998
10
-117.69300000000001
20
-224.76600000000002
10
-117.768
20
-224.71400000000003
10
-117.84700000000001
20
-224.66700000000003
10
-117.93000000000001
20
-224.62500000000003
10
-118.01700000000002
20
-224.58900000000003
10
-118.10700000000003
20
-224.55900000000003
10
-118.20100000000002
20
-224.53400000000002
10
-118.29900000000001
20
-224.51499999999999
10
-118.40100000000001
20
-224.50099999999998
10
-118.50700000000002
20
-224.49299999999999
10
-118.617
20
-224.49000000000001
10
-118.72700000000002
20
-224.49299999999999
10
-118.83200000000002
20
-224.50099999999998
10
-118.934
20
-224.51400000000004
10
-119.03200000000001
20
-224.53299999999999
10
-119.126
20
-224.55799999999999
10
-119.21500000000002
20
-224.58700000000005
10
-119.30100000000002
20
-224.62200000000001
10
-119.383
20
-224.66300000000001
10
-119.46100000000001
20
-224.709
10
-119.535
20
-224.75999999999999
10
-119.604
20
-224.81700000000004
10
-119.66799999999999
20
-224.87799999999999
10
-119.726
20
-224.94500000000002
10
-119.77800000000001
20
-225.017
10
-119.82500000000002
20
-225.09500000000003
10
-119.86499999999999
20
-225.17700000000005
10
-119.90100000000001
20
-225.26400000000001
10
-119.931
20
-225.35700000000003
10
-119.955
20
-225.45500000000004
10
-119.97300000000001
20
-225.55800000000002
10
-120.94499999999999
20
-225.55800000000002
10
-120.92500000000001
20
-225.44600000000003
10
-120.90000000000002
20
-225.33600000000001
10
-120.87000000000002
20
-225.22999999999999
10
-120.837
20
-225.12700000000001
10
-120.79799999999999
20
-225.02800000000002
10
-120.755
20
-224.93099999999998
10
-120.70700000000002
20
-224.83800000000002
10
-120.655
20
-224.74800000000002
10
-120.59800000000001
20
-224.66099999999997
10
-120.53700000000001
20
-224.57700000000003
10
-120.47200000000002
20
-224.49700000000004
10
-120.40300000000001
20
-224.42000000000002
10
-120.33100000000002
20
-224.34700000000004
10
-120.25500000000001
20
-224.27800000000002
10
-120.175
20
-224.21300000000002
10
-120.09299999999999
20
-224.15200000000002
10
-120.00700000000002
20
-224.09400000000005
10
-119.91700000000002
20
-224.03999999999999
10
-119.824
20
-223.99000000000001
10
-119.72700000000002
20
-223.94400000000005
10
-119.62700000000001
20
-223.90200000000004
10
-119.52500000000001
20
-223.86400000000003
10
-119.42
20
-223.83099999999999
10
-119.313
20
-223.80200000000002
10
-119.20400000000001
20
-223.77800000000002
10
-119.09100000000002
20
-223.75799999999998
10
-118.976
20
-223.74200000000002
0
LWPOLYLINE
5
102
100
AcDbEntity
8
0
100
AcDbPolyline
90
6
70
1
43
0.0
10
-115.31100000000002
20
-223.86600000000001
10
-111.01500000000001
20
-223.86600000000001
10
-111.01500000000001
20
-231.40200000000004
10
-111.95100000000002
20
-231.40200000000004
10
-111.95100000000002
20
-224.68200000000002
10
-115.31100000000002
20
-224.68200000000002
0
LWPOLYLINE
5
103
100
AcDbEntity
8
0
100
AcDbPolyline
90
89
70
1
43
0.0
10
-127.941
20
-229.602
10
-129.75299999999999
20
-229.602
10
-129.75299999999999
20
-228.95400000000001
10
-127.941
20
-228.95400000000001
10
-127.941
20
-225.36599999999999
10
-127.949
20
-225.197
10
-127.97399999999999
20
-225.04599999999999
10
-128.01600000000002
20
-224.91299999999998
10
-128.07299999999998
20
-224.798
10
-128.148
20
-224.69999999999999
10
-128.23900000000003
20
-224.62000000000003
10
-128.34700000000001
20
-224.55799999999999
10
-128.471
20
-224.51400000000004
10
-128.61199999999999
20
-224.48700000000002
10
-128.76900000000001
20
-224.47800000000001
10
-128.86700000000002
20
-224.48000000000002
10
-128.91500000000002
20
-224.48300000000003
10
-128.96299999999999
20
-224.48700000000002
10
-129.059
20
-224.49700000000004
10
-129.10599999999999
20
-224.50400000000002
10
-129.19999999999999
20
-224.52200000000005
10
-129.24600000000001
20
-224.53200000000004
10
-129.29300000000001
20
-224.54300000000003
10
-129.34100000000001
20
-224.55600000000001
10
-129.38999999999999
20
-224.56900000000005
10
-129.44
20
-224.584
10
-129.49100000000001
20
-224.60000000000002
10
-129.54399999999998
20
-224.61600000000001
10
-129.59700000000001
20
-224.63400000000004
10
-129.65200000000004
20
-224.65299999999999
10
-129.708
20
-224.673
10
-129.76499999999999
20
-224.69400000000005
10
-129.89700000000002
20
-224.02200000000005
10
-129.83600000000001
20
-223.99599999999998
10
-129.77500000000001
20
-223.97099999999998
10
-129.714
20
-223.947
10
-129.65299999999999
20
-223.92400000000004
10
-129.59200000000004
20
-223.90200000000004
10
-129.53100000000001
20
-223.88099999999997
10
-129.47
20
-223.86099999999999
10
-129.40899999999999
20
-223.84200000000004
10
-129.34899999999999
20
-223.82300000000001
10
-129.28799999999998
20
-223.80600000000001
10
-129.227
20
-223.79000000000002
10
-129.166
20
-223.77600000000001
10
-129.10399999999998
20
-223.76300000000001
10
-129.042
20
-223.75200000000004
10
-128.97999999999999
20
-223.74300000000002
10
-128.917
20
-223.73500000000004
10
-128.85399999999998
20
-223.73000000000002
10
-128.78999999999999
20
-223.72500000000002
10
-128.726
20
-223.72299999999998
10
-128.661
20
-223.72200000000004
10
-128.56799999999998
20
-223.72400000000002
10
-128.47800000000001
20
-223.72900000000001
10
-128.38900000000001
20
-223.73800000000003
10
-128.30200000000002
20
-223.751
10
-128.21700000000001
20
-223.767
10
-128.13399999999999
20
-223.78700000000003
10
-128.053
20
-223.81
10
-127.97399999999999
20
-223.83700000000005
10
-127.896
20
-223.86799999999999
10
-127.821
20
-223.90200000000004
10
-127.74799999999999
20
-223.94000000000003
10
-127.67800000000001
20
-223.98099999999999
10
-127.61200000000002
20
-224.02600000000001
10
-127.548
20
-224.07499999999999
10
-127.48800000000001
20
-224.12700000000001
10
-127.431
20
-224.18300000000002
10
-127.37700000000002
20
-224.24200000000002
10
-127.32600000000002
20
-224.30500000000001
10
-127.27800000000001
20
-224.37200000000004
10
-127.233
20
-224.44200000000001
10
-127.19200000000001
20
-224.51599999999999
10
-127.155
20
-224.59299999999999
10
-127.12299999999999
20
-224.67400000000001
10
-127.095
20
-224.75900000000001
10
-127.071
20
-224.84700000000004
10
-127.05200000000002
20
-224.93900000000002
10
-127.03600000000002
20
-225.03400000000002
10
-127.02600000000002
20
-225.13300000000001
10
-127.01900000000001
20
-225.23600000000002
10
-127.01700000000002
20
-225.34200000000001
10
-127.01700000000002
20
-228.95400000000001
10
-126.09299999999999
20
-228.95400000000001
10
-126.09299999999999
20
-229.602
10
-127.01700000000002
20
-229.602
10
-127.01700000000002
20
-231.19799999999998
10
-127.941
20
-231.19799999999998
0
LWPOLYLINE
5
104
100
AcDbEntity
8
0
100
AcDbPolyline
90
172
70
1
43
0.0
10
-240
20
-295.5
10
-240
20
-303
10
-232.5
20
-303
10
-232.5
20
-300
10
-223.5
20
-300
10
-223.5
20
-303
10
-214.50000000000003
20
-303
10
-214.50000000000003
20
-300
10
-205.5
20
-300
10
-205.5
20
-303
10
-196.50000000000003
20
-303
10
-196.50000000000003
20
-300
10
-187.5
20
-300
10
-187.5
20
-303
10
-178.5
20
-303
10
-178.5
20
-300
10
-169.5
20
-300
10
-169.5
20
-303
10
-160.5
20
-303
10
-160.5
20
-300
10
-151.5
20
-300
10
-151.5
20
-303
10
-142.5
20
-303
10
-142.5
20
-300
10
-133.5
20
-300
10
-133.5
20
-303
10
-124.50000000000001
20
-303
10
-124.50000000000001
20
-300
10
-115.5
20
-300
10
-115.5
20
-303
10
-106.5
20
-303
10
-106.5
20
-300
10
-97.5
20
-300
10
-97.5
20
-303
10
-88.5
20
-303
10
-88.5
20
-300
10
-79.5
20
-300
10
-79.5
20
-303
10
-70.5
20
-303
10
-70.5
20
-300
10
-61.5
20
-300
10
-61.5
20
-303
10
-52.5
20
-303
10
-52.5
20
-300
10
-43.500000000000014
20
-300
10
-43.500000000000014
20
-303
10
-34.499999999999993
20
-303
10
-34.499999999999993
20
-300
10
-25.500000000000007
20
-300
10
-25.500000000000007
20
-303
10
-16.500000000000004
20
-303
10
-16.500000000000004
20
-300
10
-7.5
20
-300
10
-7.5
20
-303
10
0
20
-303
10
0
20
-295.5
10
-3.0000000000000071
20
-295.5
10
-3.0000000000000071
20
-286.5
10
0
20
-286.5
10
0
20
-277.5
10
-3.0000000000000071
20
-277.5
10
-3.0000000000000071
20
-268.5
10
0
20
-268.5
10
0
20
-259.5
10
-3.0000000000000071
20
-259.5
10
-3.0000000000000071
20
-250.5
10
0
20
-250.5
10
0
20
-241.50000000000003
10
-3.0000000000000071
20
-241.50000000000003
10
-3.0000000000000071
20
-232.5
10
0
20
-232.5
10
0
20
-223.5
10
-3.0000000000000071
20
-223.5
10
-3.0000000000000071
20
-214.50000000000003
10
0
20
-214.50000000000003
10
0
20
-205.5
10
-3.0000000000000071
20
-205.5
10
-3.0000000000000071
20
-196.50000000000003
10
0
20
-196.50000000000003
10
0
20
-187.5
10
-3.0000000000000071
20
-187.5
10
-3.0000000000000071
20
-178.5
10
0
20
-178.5
10
0
20
-169.5
10
-3.0000000000000071
20
-169.5
10
-3.0000000000000071
20
-160.5
10
0
20
-160.5
10
0
20
-153
10
-7.5
20
-153
10
-7.5
20
-156
10
-16.500000000000004
20
-156
10
-16.500000000000004
20
-153
10
-25.500000000000007
20
-153
10
-25.500000000000007
20
-156
10
-34.499999999999993
20
-156
10
-34.499999999999993
20
-153
10
-43.500000000000014
20
-153
10
-43.500000000000014
20
-156
10
-52.5
20
-156
10
-52.5
20
-153
10
-61.5
20
-153
10
-61.5
20
-156
10
-70.5
20
-156
10
-70.5
20
-153
10
-79.5
20
-153
10
-79.5
20
-156
10
-88.5
20
-156
10
-88.5
20
-153
10
-97.5
20
-153
10
-97.5
20
-156
10
-106.5
20
-156
10
-106.5
20
-153
10
-115.5
20
-153
10
-115.5
20
-156
10
-124.50000000000001
20
-156
10
-124.50000000000001
20
-153
10
-133.5
20
-153
10
-133.5
20
-156
10
-142.5
20
-156
10
-142.5
20
-153
10
-151.5
20
-153
10
-151.5
20
-156
10
-160.5
20
-156
10
-160.5
20
-153
10
-169.5
20
-153
10
-169.5
20
-156
10
-178.5
20
-156
10
-178.5
20
-153
10
-187.5
20
-153
10
-187.5
20
-156
10
-196.50000000000003
20
-156
10
-196.50000000000003
20
-153
10
-205.5
20
-153
10
-205.5
20
-156
10
-214.50000000000003
20
-156
10
-214.50000000000003
20
-153
10
-223.5
20
-153
10
-223.5
20
-156
10
-232.5
20
-156
10
-232.5
20
-153
10
-240
20
-153
10
-240
20
-160.5
10
-237.00000000000003
20
-160.5
10
-237.00000000000003
20
-169.5
10
-240
20
-169.5
10
-240
20
-178.5
10
-237.00000000000003
20
-178.5
10
-237.00000000000003
20
-187.5
10
-240
20
-187.5
10
-240
20
-196.50000000000003
10
-237.00000000000003
20
-196.50000000000003
10
-237.00000000000003
20
-205.5
10
-240
20
-205.5
10
-240
20
-214.50000000000003
10
-237.00000000000003
20
-214.50000000000003
10
-237.00000000000003
20
-223.5
10
-240
20
-223.5
10
-240
20
-232.5
10
-237.00000000000003
20
-232.5
10
-237.00000000000003
20
-241.50000000000003
10
-240
20
-241.50000000000003
10
-240
20
-250.5
10
-237.00000000000003
20
-250.5
10
-237.00000000000003
20
-259.5
10
-240
20
-259.5
10
-240
20
-268.5
10
-237.00000000000003
20
-268.5
10
-237.00000000000003
20
-277.5
10
-240
20
-277.5
10
-240
20
-286.5
10
-237.00000000000003
20
-286.5
10
-237.00000000000003
20
-295.5
0
ENDSEC
0
SECTION
2
OBJECTS
0
DICTIONARY
5
C
100
AcDbDictionary
3
ACAD_GROUP
350
D
3
ACAD_MLINESTYLE
350
17
0
DICTIONARY
5
D
100
AcDbDictionary
0
DICTIONARY
5
1A
330
C
100
AcDbDictionary
0
DICTIONARY
5
17
100
AcDbDictionary
0
ENDSEC
0
EOF
