0
SECTION
2
HEADER
9
$INSUNITS
70
4
9
$ACADVER
1
AC1014
9
$HANDSEED
5
FFFF
0
ENDSEC
0
SECTION
2
TABLES
0
TABLE
2
VPORT
5
8
100
AcDbSymbolTable
0
ENDTAB
0
TABLE
2
LTYPE
5
5
100
AcDbSymbolTable
0
LTYPE
5
14
100
AcDbSymbolTableRecord
100
AcDbLinetypeTableRecord
2
BYBLOCK
70
0
0
LTYPE
5
15
100
AcDbSymbolTableRecord
100
AcDbLinetypeTableRecord
2
BYLAYER
70
0
0
LTYPE
5
16
100
AcDbSymbolTableRecord
100
AcDbLinetypeTableRecord
2
DASHED
70
0
3
Dashed __ __ __ __ __ __ __ __ __ __ __ __ __ _
72
65
73
2
40
0.75
49
0.5
74
0
49
-0.25
74
0
0
ENDTAB
0
TABLE
2
LAYER
5
2
100
AcDbSymbolTable
70
2
0
LAYER
5
50
100
AcDbSymbolTableRecord
100
AcDbLayerTableRecord
2
0
70
0
62
7
6
CONTINUOUS
0
ENDTAB
0
TABLE
2
STYLE
5
3
100
AcDbSymbolTable
70
1
0
STYLE
5
11
100
AcDbSymbolTableRecord
100
AcDbTextStyleTableRecord
2
STANDARD
70
0
0
ENDTAB
0
TABLE
2
VIEW
5
6
100
AcDbSymbolTable
70
0
0
ENDTAB
0
TABLE
2
UCS
5
7
100
AcDbSymbolTable
70
0
0
ENDTAB
0
TABLE
2
APPID
5
9
100
AcDbSymbolTable
70
2
0
APPID
5
12
100
AcDbSymbolTableRecord
100
AcDbRegAppTableRecord
2
ACAD
70
0
0
ENDTAB
0
TABLE
2
DIMSTYLE
5
A
100
AcDbSymbolTable
70
1
0
ENDTAB
0
TABLE
2
BLOCK_RECORD
5
1
100
AcDbSymbolTable
70
1
0
BLOCK_RECORD
5
1F
100
AcDbSymbolTableRecord
100
AcDbBlockTableRecord
2
*MODEL_SPACE
0
BLOCK_RECORD
5
1B
100
AcDbSymbolTableRecord
100
AcDbBlockTableRecord
2
*PAPER_SPACE
0
ENDTAB
0
ENDSEC
0
SECTION
2
BLOCKS
0
BLOCK
5
20
100
AcDbEntity
100
AcDbBlockBegin
2
*MODEL_SPACE
0
ENDBLK
5
21
100
AcDbEntity
100
AcDbBlockEnd
0
BLOCK
5
1C
100
AcDbEntity
100
AcDbBlockBegin
2
*PAPER_SPACE
0
ENDBLK
5
1D
100
AcDbEntity
100
AcDbBlockEnd
0
ENDSEC
0
SECTION
2
ENTITIES
0
LWPOLYLINE
5
100
100
AcDbEntity
8
0
100
AcDbPolyline
90
102
70
1
43
0.0
10
-611.01499999999999
20
-359.8180000000001
10
-610.94900000000007
20
-359.91000000000008
10
-610.923
20
-359.95177049180342
10
-610.923
20
-356.41199999999998
10
-609.98699999999997
20
-356.41199999999998
10
-609.98699999999997
20
-364.96800000000002
10
-610.76699999999994
20
-364.96800000000002
10
-610.8683942905941
20
-364.09444918872748
10
-610.92099999999994
20
-364.185
10
-610.9860000000001
20
-364.28400000000005
10
-611.05499999999995
20
-364.37800000000004
10
-611.12900000000002
20
-364.46600000000001
10
-611.20500000000004
20
-364.54900000000004
10
-611.28599999999994
20
-364.62600000000003
10
-611.37100000000009
20
-364.69800000000009
10
-611.46000000000004
20
-364.76400000000007
10
-611.553
20
-364.82400000000007
10
-611.649
20
-364.87900000000002
10
-611.74700000000007
20
-364.92800000000011
10
-611.84800000000007
20
-364.971
10
-611.95000000000005
20
-365.00800000000004
10
-612.05600000000004
20
-365.04000000000008
10
-612.16300000000001
20
-365.06599999999997
10
-612.27199999999993
20
-365.08600000000001
10
-612.38400000000001
20
-365.10000000000002
10
-612.49900000000002
20
-365.10900000000004
10
-612.61500000000001
20
-365.11199999999997
10
-612.74900000000002
20
-365.10800000000006
10
-612.88
20
-365.09800000000007
10
-613.00999999999999
20
-365.08000000000004
10
-613.13800000000003
20
-365.05400000000003
10
-613.26400000000012
20
-365.02200000000005
10
-613.38900000000001
20
-364.98199999999997
10
-613.51199999999994
20
-364.93600000000004
10
-613.63300000000004
20
-364.88200000000001
10
-613.75199999999995
20
-364.81999999999999
10
-613.86900000000003
20
-364.75199999999995
10
-613.98300000000006
20
-364.67700000000002
10
-614.09300000000007
20
-364.596
10
-614.19799999999998
20
-364.5080000000001
10
-614.29899999999998
20
-364.41399999999999
10
-614.39499999999998
20
-364.31400000000002
10
-614.48700000000008
20
-364.20800000000008
10
-614.57500000000005
20
-364.09500000000003
10
-614.65800000000002
20
-363.97600000000006
10
-614.73699999999997
20
-363.851
10
-614.81100000000004
20
-363.72000000000008
10
-614.87900000000002
20
-363.58300000000008
10
-614.94100000000003
20
-363.44099999999997
10
-614.995
20
-363.29300000000001
10
-615.04099999999994
20
-363.13999999999999
10
-615.08100000000002
20
-362.98200000000003
10
-615.11300000000006
20
-362.81900000000002
10
-615.13900000000012
20
-362.64999999999998
10
-615.15699999999993
20
-362.476
10
-615.16699999999992
20
-362.29700000000003
10
-615.17100000000005
20
-362.11199999999997
10
-615.16699999999992
20
-361.92500000000001
10
-615.15599999999995
20
-361.74400000000003
10
-615.13800000000003
20
-361.56699999999995
10
-615.11300000000006
20
-361.39699999999999
10
-615.08000000000015
20
-361.23099999999999
10
-615.03999999999996
20
-361.072
10
-614.99300000000005
20
-360.91699999999997
10
-614.93899999999996
20
-360.76800000000003
10
-614.87699999999995
20
-360.62400000000002
10
-614.80799999999999
20
-360.48599999999999
10
-614.73300000000006
20
-360.35400000000004
10
-614.654
20
-360.22800000000007
10
-614.57000000000005
20
-360.10800000000006
10
-614.48199999999997
20
-359.99400000000003
10
-614.38900000000001
20
-359.88699999999994
10
-614.29099999999994
20
-359.78699999999998
10
-614.19000000000005
20
-359.69300000000004
10
-614.08300000000008
20
-359.60500000000002
10
-613.97199999999998
20
-359.52300000000002
10
-613.85699999999997
20
-359.44800000000009
10
-613.73900000000003
20
-359.38
10
-613.61800000000005
20
-359.31800000000004
10
-613.49599999999998
20
-359.26400000000001
10
-613.37199999999996
20
-359.21800000000007
10
-613.24600000000009
20
-359.17800000000005
10
-613.11900000000014
20
-359.14600000000002
10
-612.99000000000001
20
-359.12
10
-612.85900000000004
20
-359.10199999999998
10
-612.726
20
-359.09199999999998
10
-612.59100000000001
20
-359.08800000000008
10
-612.4670000000001
20
-359.09100000000001
10
-612.346
20
-359.10000000000002
10
-612.22800000000007
20
-359.11400000000009
10
-612.11300000000006
20
-359.13400000000001
10
-612.00199999999995
20
-359.16000000000003
10
-611.89400000000001
20
-359.19199999999995
10
-611.78999999999996
20
-359.22900000000004
10
-611.68899999999996
20
-359.27199999999999
10
-611.59100000000001
20
-359.32099999999997
10
-611.49599999999998
20
-359.37599999999998
10
-611.40499999999997
20
-359.43599999999998
10
-611.31899999999996
20
-359.50199999999995
10
-611.23599999999999
20
-359.57300000000004
10
-611.15800000000013
20
-359.649
10
-611.08400000000006
20
-359.73099999999999
0
LWPOLYLINE
5
101
100
AcDbEntity
8
0
100
AcDbPolyline
90
8
70
1
43
0.0
10
-599.67899999999997
20
-359.23200000000003
10
-598.74300000000005
20
-359.23200000000003
10
-598.74300000000005
20
-365.96400000000006
10
-596.28300000000002
20
-365.96400000000006
10
-596.28300000000002
20
-366.76800000000009
10
-602.15099999999995
20
-366.76800000000009
10
-602.15099999999995
20
-365.96400000000006
10
-599.67899999999997
20
-365.96400000000006
0
LWPOLYLINE
5
102
100
AcDbEntity
8
0
100
AcDbPolyline
90
120
70
1
43
0.0
10
-605.80600000000004
20
-359.10199999999998
10
-605.65699999999993
20
-359.09100000000001
10
-605.505
20
-359.08800000000008
10
-605.35200000000009
20
-359.09100000000001
10
-605.202
20
-359.10199999999998
10
-605.05600000000004
20
-359.11900000000003
10
-604.91300000000001
20
-359.14300000000003
10
-604.774
20
-359.17300000000006
10
-604.63800000000003
20
-359.21100000000001
10
-604.50500000000011
20
-359.25599999999997
10
-604.37599999999998
20
-359.30699999999996
10
-604.25
20
-359.36500000000001
10
-604.12800000000004
20
-359.43000000000006
10
-604.00999999999999
20
-359.50199999999995
10
-603.89699999999993
20
-359.57999999999998
10
-603.78899999999999
20
-359.66500000000002
10
-603.68600000000004
20
-359.75599999999997
10
-603.58900000000006
20
-359.85400000000004
10
-603.49599999999998
20
-359.959
10
-603.40900000000011
20
-360.06999999999999
10
-603.32600000000002
20
-360.18800000000005
10
-603.24900000000002
20
-360.3130000000001
10
-603.17700000000002
20
-360.44400000000002
10
-603.11099999999999
20
-360.58199999999999
10
-603.05200000000002
20
-360.72500000000002
10
-603
20
-360.875
10
-602.95400000000006
20
-361.03200000000004
10
-602.91599999999994
20
-361.19400000000007
10
-602.88499999999999
20
-361.36300000000006
10
-602.86000000000001
20
-361.53800000000001
10
-602.84300000000007
20
-361.71899999999999
10
-602.83199999999999
20
-361.90600000000006
10
-602.82900000000018
20
-362.10000000000002
10
-602.83199999999999
20
-362.29500000000002
10
-602.84300000000007
20
-362.483
10
-602.86000000000001
20
-362.66500000000002
10
-602.88499999999999
20
-362.84100000000001
10
-602.91599999999994
20
-363.00999999999999
10
-602.95400000000006
20
-363.17200000000003
10
-603
20
-363.32900000000001
10
-603.05200000000002
20
-363.47900000000004
10
-603.11099999999999
20
-363.62199999999996
10
-603.17700000000002
20
-363.75900000000001
10
-603.24900000000002
20
-363.89000000000004
10
-603.32600000000002
20
-364.01400000000001
10
-603.40900000000011
20
-364.13099999999997
10
-603.49599999999998
20
-364.24199999999996
10
-603.58900000000006
20
-364.346
10
-603.68600000000004
20
-364.44400000000002
10
-603.78899999999999
20
-364.53500000000008
10
-603.89699999999993
20
-364.62
10
-604.00999999999999
20
-364.69800000000009
10
-604.12800000000004
20
-364.76999999999998
10
-604.25
20
-364.83499999999998
10
-604.37599999999998
20
-364.89300000000009
10
-604.50500000000011
20
-364.94400000000007
10
-604.63800000000003
20
-364.98900000000003
10
-604.774
20
-365.02600000000001
10
-604.91300000000001
20
-365.05699999999996
10
-605.05600000000004
20
-365.08100000000002
10
-605.202
20
-365.09800000000007
10
-605.35200000000009
20
-365.10900000000004
10
-605.505
20
-365.11199999999997
10
-605.65699999999993
20
-365.10900000000004
10
-605.80600000000004
20
-365.09800000000007
10
-605.95100000000002
20
-365.08100000000002
10
-606.09300000000007
20
-365.05699999999996
10
-606.23199999999997
20
-365.02600000000001
10
-606.36699999999996
20
-364.98900000000003
10
-606.49900000000002
20
-364.94400000000007
10
-606.62800000000004
20
-364.89300000000009
10
-606.75400000000002
20
-364.83499999999998
10
-606.87599999999998
20
-364.76999999999998
10
-606.99400000000003
20
-364.69800000000009
10
-607.10699999999997
20
-364.62
10
-607.21500000000003
20
-364.53500000000008
10
-607.31700000000001
20
-364.44400000000002
10
-607.41399999999999
20
-364.346
10
-607.50699999999995
20
-364.24199999999996
10
-607.59400000000005
20
-364.13099999999997
10
-607.67599999999993
20
-364.01400000000001
10
-607.75199999999995
20
-363.89000000000004
10
-607.82400000000007
20
-363.75900000000001
10
-607.88999999999999
20
-363.62199999999996
10
-607.94799999999998
20
-363.47900000000004
10
-608
20
-363.32900000000001
10
-608.04499999999996
20
-363.17200000000003
10
-608.08300000000008
20
-363.00999999999999
10
-608.11400000000003
20
-362.84100000000001
10
-608.13800000000003
20
-362.66500000000002
10
-608.15499999999997
20
-362.483
10
-608.16599999999994
20
-362.29500000000002
10
-608.1690000000001
20
-362.10000000000002
10
-608.16599999999994
20
-361.90600000000006
10
-608.15499999999997
20
-361.71899999999999
10
-608.13800000000003
20
-361.53800000000001
10
-608.11400000000003
20
-361.36300000000006
10
-608.08300000000008
20
-361.19400000000007
10
-608.04499999999996
20
-361.03200000000004
10
-608
20
-360.875
10
-607.94799999999998
20
-360.72500000000002
10
-607.88999999999999
20
-360.58199999999999
10
-607.82400000000007
20
-360.44400000000002
10
-607.75199999999995
20
-360.3130000000001
10
-607.67599999999993
20
-360.18800000000005
10
-607.59400000000005
20
-360.06999999999999
10
-607.50699999999995
20
-359.959
10
-607.41399999999999
20
-359.85400000000004
10
-607.31700000000001
20
-359.75599999999997
10
-607.21500000000003
20
-359.66500000000002
10
-607.10699999999997
20
-359.57999999999998
10
-606.99400000000003
20
-359.50199999999995
10
-606.87599999999998
20
-359.43000000000006
10
-606.75400000000002
20
-359.36500000000001
10
-606.62800000000004
20
-359.30699999999996
10
-606.49900000000002
20
-359.25599999999997
10
-606.36699999999996
20
-359.21100000000001
10
-606.23199999999997
20
-359.17300000000006
10
-606.09300000000007
20
-359.14300000000003
10
-605.95100000000002
20
-359.11900000000003
0
LWPOLYLINE
5
103
100
AcDbEntity
8
0
100
AcDbPolyline
90
212
70
1
43
0.0
10
-718.50000000000011
20
-480
10
-718.50000000000011
20
-483.00000000000006
10
-709.5
20
-483.00000000000006
10
-709.5
20
-480
10
-700.5
20
-480
10
-700.5
20
-483.00000000000006
10
-691.5
20
-483.00000000000006
10
-691.5
20
-480
10
-682.5
20
-480
10
-682.5
20
-483.00000000000006
10
-673.50000000000011
20
-483.00000000000006
10
-673.50000000000011
20
-480
10
-664.5
20
-480
10
-664.5
20
-483.00000000000006
10
-655.5
20
-483.00000000000006
10
-655.5
20
-480
10
-646.5
20
-480
10
-646.5
20
-483.00000000000006
10
-637.5
20
-483.00000000000006
10
-637.5
20
-480
10
-628.5
20
-480
10
-628.5
20
-483.00000000000006
10
-619.5
20
-483.00000000000006
10
-619.5
20
-480
10
-610.5
20
-480
10
-610.5
20
-483.00000000000006
10
-601.5
20
-483.00000000000006
10
-601.5
20
-480
10
-592.5
20
-480
10
-592.5
20
-483.00000000000006
10
-583.5
20
-483.00000000000006
10
-583.5
20
-480
10
-574.5
20
-480
10
-574.5
20
-483.00000000000006
10
-565.5
20
-483.00000000000006
10
-565.5
20
-480
10
-556.5
20
-480
10
-556.5
20
-483.00000000000006
10
-547.5
20
-483.00000000000006
10
-547.5
20
-480
10
-538.5
20
-480
10
-538.5
20
-483.00000000000006
10
-529.5
20
-483.00000000000006
10
-529.5
20
-480
10
-520.5
20
-480
10
-520.5
20
-483.00000000000006
10
-511.50000000000006
20
-483.00000000000006
10
-511.50000000000006
20
-480
10
-502.5
20
-480
10
-502.5
20
-483.00000000000006
10
-493.5
20
-483.00000000000006
10
-493.5
20
-480
10
-489.00000000000006
20
-480
10
-489.00000000000006
20
-475.50000000000006
10
-486
20
-475.50000000000006
10
-486
20
-466.50000000000006
10
-489.00000000000006
20
-466.50000000000006
10
-489.00000000000006
20
-457.5
10
-486
20
-457.5
10
-486
20
-448.5
10
-489.00000000000006
20
-448.5
10
-489.00000000000006
20
-439.5
10
-486
20
-439.5
10
-486
20
-430.50000000000006
10
-489.00000000000006
20
-430.50000000000006
10
-489.00000000000006
20
-421.50000000000006
10
-486
20
-421.50000000000006
10
-486
20
-412.5
10
-489.00000000000006
20
-412.5
10
-489.00000000000006
20
-403.5
10
-486
20
-403.5
10
-486
20
-394.5
10
-489.00000000000006
20
-394.5
10
-489.00000000000006
20
-385.50000000000006
10
-486
20
-385.50000000000006
10
-486
20
-376.5
10
-489.00000000000006
20
-376.5
10
-489.00000000000006
20
-367.5
10
-486
20
-367.5
10
-486
20
-358.5
10
-489.00000000000006
20
-358.5
10
-489.00000000000006
20
-349.5
10
-486
20
-349.5
10
-486
20
-340.50000000000006
10
-489.00000000000006
20
-340.50000000000006
10
-489.00000000000006
20
-331.5
10
-486
20
-331.5
10
-486
20
-322.5
10
-489.00000000000006
20
-322.5
10
-489.00000000000006
20
-313.5
10
-486
20
-313.5
10
-486
20
-304.5
10
-489.00000000000006
20
-304.5
10
-489.00000000000006
20
-295.5
10
-486
20
-295.5
10
-486
20
-286.5
10
-489.00000000000006
20
-286.5
10
-489.00000000000006
20
-277.5
10
-486
20
-277.5
10
-486
20
-268.5
10
-489.00000000000006
20
-268.5
10
-489.00000000000006
20
-259.5
10
-486
20
-259.5
10
-486
20
-250.5
10
-489.00000000000006
20
-250.5
10
-489.00000000000006
20
-246
10
-493.5
20
-246
10
-493.5
20
-243
10
-502.5
20
-243
10
-502.5
20
-246
10
-511.50000000000006
20
-246
10
-511.50000000000006
20
-243
10
-520.5
20
-243
10
-520.5
20
-246
10
-529.5
20
-246
10
-529.5
20
-243
10
-538.5
20
-243
10
-538.5
20
-246
10
-547.5
20
-246
10
-547.5
20
-243
10
-556.5
20
-243
10
-556.5
20
-246
10
-565.5
20
-246
10
-565.5
20
-243
10
-574.5
20
-243
10
-574.5
20
-246
10
-583.5
20
-246
10
-583.5
20
-243
10
-592.5
20
-243
10
-592.5
20
-246
10
-601.5
20
-246
10
-601.5
20
-243
10
-610.5
20
-243
10
-610.5
20
-246
10
-619.5
20
-246
10
-619.5
20
-243
10
-628.5
20
-243
10
-628.5
20
-246
10
-637.5
20
-246
10
-637.5
20
-243
10
-646.5
20
-243
10
-646.5
20
-246
10
-655.5
20
-246
10
-655.5
20
-243
10
-664.5
20
-243
10
-664.5
20
-246
10
-673.50000000000011
20
-246
10
-673.50000000000011
20
-243
10
-682.5
20
-243
10
-682.5
20
-246
10
-691.5
20
-246
10
-691.5
20
-243
10
-700.5
20
-243
10
-700.5
20
-246
10
-709.5
20
-246
10
-709.5
20
-243
10
-718.50000000000011
20
-243
10
-718.50000000000011
20
-246
10
-723
20
-246
10
-723
20
-250.5
10
-726.00000000000011
20
-250.5
10
-726.00000000000011
20
-259.5
10
-723
20
-259.5
10
-723
20
-268.5
10
-726.00000000000011
20
-268.5
10
-726.00000000000011
20
-277.5
10
-723
20
-277.5
10
-723
20
-286.5
10
-726.00000000000011
20
-286.5
10
-726.00000000000011
20
-295.5
10
-723
20
-295.5
10
-723
20
-304.5
10
-726.00000000000011
20
-304.5
10
-726.00000000000011
20
-313.5
10
-723
20
-313.5
10
-723
20
-322.5
10
-726.00000000000011
20
-322.5
10
-726.00000000000011
20
-331.5
10
-723
20
-331.5
10
-723
20
-340.50000000000006
10
-726.00000000000011
20
-340.50000000000006
10
-726.00000000000011
20
-349.5
10
-723
20
-349.5
10
-723
20
-358.5
10
-726.00000000000011
20
-358.5
10
-726.00000000000011
20
-367.5
10
-723
20
-367.5
10
-723
20
-376.5
10
-726.00000000000011
20
-376.5
10
-726.00000000000011
20
-385.50000000000006
10
-723
20
-385.50000000000006
10
-723
20
-394.5
10
-726.00000000000011
20
-394.5
10
-726.00000000000011
20
-403.5
10
-723
20
-403.5
10
-723
20
-412.5
10
-726.00000000000011
20
-412.5
10
-726.00000000000011
20
-421.50000000000006
10
-723
20
-421.50000000000006
10
-723
20
-430.50000000000006
10
-726.00000000000011
20
-430.50000000000006
10
-726.00000000000011
20
-439.5
10
-723
20
-439.5
10
-723
20
-448.5
10
-726.00000000000011
20
-448.5
10
-726.00000000000011
20
-457.5
10
-723
20
-457.5
10
-723
20
-466.50000000000006
10
-726.00000000000011
20
-466.50000000000006
10
-726.00000000000011
20
-475.50000000000006
10
-723
20
-475.50000000000006
10
-723
20
-480
0
ENDSEC
0
SECTION
2
OBJECTS
0
DICTIONARY
5
C
100
AcDbDictionary
3
ACAD_GROUP
350
D
3
ACAD_MLINESTYLE
350
17
0
DICTIONARY
5
D
100
AcDbDictionary
0
DICTIONARY
5
1A
330
C
100
AcDbDictionary
0
DICTIONARY
5
17
100
AcDbDictionary
0
ENDSEC
0
EOF
