0
SECTION
2
HEADER
9
$INSUNITS
70
4
9
$ACADVER
1
AC1014
9
$HANDSEED
5
FFFF
0
ENDSEC
0
SECTION
2
TABLES
0
TABLE
2
VPORT
5
8
100
AcDbSymbolTable
0
ENDTAB
0
TABLE
2
LTYPE
5
5
100
AcDbSymbolTable
0
LTYPE
5
14
100
AcDbSymbolTableRecord
100
AcDbLinetypeTableRecord
2
BYBLOCK
70
0
0
LTYPE
5
15
100
AcDbSymbolTableRecord
100
AcDbLinetypeTableRecord
2
BYLAYER
70
0
0
LTYPE
5
16
100
AcDbSymbolTableRecord
100
AcDbLinetypeTableRecord
2
DASHED
70
0
3
Dashed __ __ __ __ __ __ __ __ __ __ __ __ __ _
72
65
73
2
40
0.75
49
0.5
74
0
49
-0.25
74
0
0
ENDTAB
0
TABLE
2
LAYER
5
2
100
AcDbSymbolTable
70
2
0
LAYER
5
50
100
AcDbSymbolTableRecord
100
AcDbLayerTableRecord
2
0
70
0
62
7
6
CONTINUOUS
0
ENDTAB
0
TABLE
2
STYLE
5
3
100
AcDbSymbolTable
70
1
0
STYLE
5
11
100
AcDbSymbolTableRecord
100
AcDbTextStyleTableRecord
2
STANDARD
70
0
0
ENDTAB
0
TABLE
2
VIEW
5
6
100
AcDbSymbolTable
70
0
0
ENDTAB
0
TABLE
2
UCS
5
7
100
AcDbSymbolTable
70
0
0
ENDTAB
0
TABLE
2
APPID
5
9
100
AcDbSymbolTable
70
2
0
APPID
5
12
100
AcDbSymbolTableRecord
100
AcDbRegAppTableRecord
2
ACAD
70
0
0
ENDTAB
0
TABLE
2
DIMSTYLE
5
A
100
AcDbSymbolTable
70
1
0
ENDTAB
0
TABLE
2
BLOCK_RECORD
5
1
100
AcDbSymbolTable
70
1
0
BLOCK_RECORD
5
1F
100
AcDbSymbolTableRecord
100
AcDbBlockTableRecord
2
*MODEL_SPACE
0
BLOCK_RECORD
5
1B
100
AcDbSymbolTableRecord
100
AcDbBlockTableRecord
2
*PAPER_SPACE
0
ENDTAB
0
ENDSEC
0
SECTION
2
BLOCKS
0
BLOCK
5
20
100
AcDbEntity
100
AcDbBlockBegin
2
*MODEL_SPACE
0
ENDBLK
5
21
100
AcDbEntity
100
AcDbBlockEnd
0
BLOCK
5
1C
100
AcDbEntity
100
AcDbBlockBegin
2
*PAPER_SPACE
0
ENDBLK
5
1D
100
AcDbEntity
100
AcDbBlockEnd
0
ENDSEC
0
SECTION
2
ENTITIES
0
LWPOLYLINE
5
100
100
AcDbEntity
8
0
100
AcDbPolyline
90
212
70
1
43
0.0
10
-246
20
-304.5
10
-246
20
-307.5
10
-249.00000000000003
20
-307.5
10
-249.00000000000003
20
-322.5
10
-246
20
-322.5
10
-246
20
-325.50000000000006
10
-249.00000000000003
20
-325.50000000000006
10
-249.00000000000003
20
-340.5
10
-246
20
-340.5
10
-246
20
-343.5
10
-249.00000000000003
20
-343.5
10
-249.00000000000003
20
-358.5
10
-246
20
-358.5
10
-246
20
-361.50000000000006
10
-249.00000000000003
20
-361.50000000000006
10
-249.00000000000003
20
-376.5
10
-246
20
-376.5
10
-246
20
-379.5
10
-249.00000000000003
20
-379.5
10
-249.00000000000003
20
-394.5
10
-246
20
-394.5
10
-246
20
-397.50000000000006
10
-249.00000000000003
20
-397.50000000000006
10
-249.00000000000003
20
-412.5
10
-246
20
-412.5
10
-246
20
-415.50000000000006
10
-249.00000000000003
20
-415.50000000000006
10
-249.00000000000003
20
-420.00000000000006
10
-253.5
20
-420.00000000000006
10
-253.5
20
-423.00000000000006
10
-256.5
20
-423.00000000000006
10
-256.5
20
-420.00000000000006
10
-271.5
20
-420.00000000000006
10
-271.5
20
-423.00000000000006
10
-274.5
20
-423.00000000000006
10
-274.5
20
-420.00000000000006
10
-289.5
20
-420.00000000000006
10
-289.5
20
-423.00000000000006
10
-292.5
20
-423.00000000000006
10
-292.5
20
-420.00000000000006
10
-307.50000000000006
20
-420.00000000000006
10
-307.50000000000006
20
-423.00000000000006
10
-310.5
20
-423.00000000000006
10
-310.5
20
-420.00000000000006
10
-325.5
20
-420.00000000000006
10
-325.5
20
-423.00000000000006
10
-328.5
20
-423.00000000000006
10
-328.5
20
-420.00000000000006
10
-343.5
20
-420.00000000000006
10
-343.5
20
-423.00000000000006
10
-346.50000000000006
20
-423.00000000000006
10
-346.50000000000006
20
-420.00000000000006
10
-361.5
20
-420.00000000000006
10
-361.5
20
-423.00000000000006
10
-364.5
20
-423.00000000000006
10
-364.5
20
-420.00000000000006
10
-379.49999999999994
20
-420.00000000000006
10
-379.49999999999994
20
-423.00000000000006
10
-382.50000000000006
20
-423.00000000000006
10
-382.50000000000006
20
-420.00000000000006
10
-397.5
20
-420.00000000000006
10
-397.5
20
-423.00000000000006
10
-400.50000000000006
20
-423.00000000000006
10
-400.50000000000006
20
-420.00000000000006
10
-415.5
20
-420.00000000000006
10
-415.5
20
-423.00000000000006
10
-418.50000000000011
20
-423.00000000000006
10
-418.50000000000011
20
-420.00000000000006
10
-433.5
20
-420.00000000000006
10
-433.5
20
-423.00000000000006
10
-436.50000000000006
20
-423.00000000000006
10
-436.50000000000006
20
-420.00000000000006
10
-451.5
20
-420.00000000000006
10
-451.5
20
-423.00000000000006
10
-454.5
20
-423.00000000000006
10
-454.5
20
-420.00000000000006
10
-469.5
20
-420.00000000000006
10
-469.5
20
-423.00000000000006
10
-472.50000000000006
20
-423.00000000000006
10
-472.50000000000006
20
-420.00000000000006
10
-477
20
-420.00000000000006
10
-477
20
-415.50000000000006
10
-480.00000000000006
20
-415.50000000000006
10
-480.00000000000006
20
-412.5
10
-477
20
-412.5
10
-477
20
-397.50000000000006
10
-480.00000000000006
20
-397.50000000000006
10
-480.00000000000006
20
-394.5
10
-477
20
-394.5
10
-477
20
-379.5
10
-480.00000000000006
20
-379.5
10
-480.00000000000006
20
-376.5
10
-477
20
-376.5
10
-477
20
-361.50000000000006
10
-480.00000000000006
20
-361.50000000000006
10
-480.00000000000006
20
-358.5
10
-477
20
-358.5
10
-477
20
-343.5
10
-480.00000000000006
20
-343.5
10
-480.00000000000006
20
-340.5
10
-477
20
-340.5
10
-477
20
-325.50000000000006
10
-480.00000000000006
20
-325.50000000000006
10
-480.00000000000006
20
-322.5
10
-477
20
-322.5
10
-477
20
-307.5
10
-480.00000000000006
20
-307.5
10
-480.00000000000006
20
-304.5
10
-477
20
-304.5
10
-477
20
-289.5
10
-480.00000000000006
20
-289.5
10
-480.00000000000006
20
-286.5
10
-477
20
-286.5
10
-477
20
-271.5
10
-480.00000000000006
20
-271.5
10
-480.00000000000006
20
-268.5
10
-477
20
-268.5
10
-477
20
-253.5
10
-480.00000000000006
20
-253.5
10
-480.00000000000006
20
-250.5
10
-477
20
-250.5
10
-477
20
-235.5
10
-480.00000000000006
20
-235.5
10
-480.00000000000006
20
-232.50000000000003
10
-477
20
-232.50000000000003
10
-477
20
-217.5
10
-480.00000000000006
20
-217.5
10
-480.00000000000006
20
-214.50000000000003
10
-477
20
-214.50000000000003
10
-477
20
-199.5
10
-480.00000000000006
20
-199.5
10
-480.00000000000006
20
-196.50000000000003
10
-477
20
-196.50000000000003
10
-477
20
-192.00000000000003
10
-472.50000000000006
20
-192.00000000000003
10
-472.50000000000006
20
-189.00000000000003
10
-469.5
20
-189.00000000000003
10
-469.5
20
-192.00000000000003
10
-454.5
20
-192.00000000000003
10
-454.5
20
-189.00000000000003
10
-451.5
20
-189.00000000000003
10
-451.5
20
-192.00000000000003
10
-436.50000000000006
20
-192.00000000000003
10
-436.50000000000006
20
-189.00000000000003
10
-433.5
20
-189.00000000000003
10
-433.5
20
-192.00000000000003
10
-418.50000000000011
20
-192.00000000000003
10
-418.50000000000011
20
-189.00000000000003
10
-415.5
20
-189.00000000000003
10
-415.5
20
-192.00000000000003
10
-400.50000000000006
20
-192.00000000000003
10
-400.50000000000006
20
-189.00000000000003
10
-397.5
20
-189.00000000000003
10
-397.5
20
-192.00000000000003
10
-382.50000000000006
20
-192.00000000000003
10
-382.50000000000006
20
-189.00000000000003
10
-379.49999999999994
20
-189.00000000000003
10
-379.49999999999994
20
-192.00000000000003
10
-364.5
20
-192.00000000000003
10
-364.5
20
-189.00000000000003
10
-361.5
20
-189.00000000000003
10
-361.5
20
-192.00000000000003
10
-346.50000000000006
20
-192.00000000000003
10
-346.50000000000006
20
-189.00000000000003
10
-343.5
20
-189.00000000000003
10
-343.5
20
-192.00000000000003
10
-328.5
20
-192.00000000000003
10
-328.5
20
-189.00000000000003
10
-325.5
20
-189.00000000000003
10
-325.5
20
-192.00000000000003
10
-310.5
20
-192.00000000000003
10
-310.5
20
-189.00000000000003
10
-307.50000000000006
20
-189.00000000000003
10
-307.50000000000006
20
-192.00000000000003
10
-292.5
20
-192.00000000000003
10
-292.5
20
-189.00000000000003
10
-289.5
20
-189.00000000000003
10
-289.5
20
-192.00000000000003
10
-274.5
20
-192.00000000000003
10
-274.5
20
-189.00000000000003
10
-271.5
20
-189.00000000000003
10
-271.5
20
-192.00000000000003
10
-256.5
20
-192.00000000000003
10
-256.5
20
-189.00000000000003
10
-253.5
20
-189.00000000000003
10
-253.5
20
-192.00000000000003
10
-249.00000000000003
20
-192.00000000000003
10
-249.00000000000003
20
-196.50000000000003
10
-246
20
-196.50000000000003
10
-246
20
-199.5
10
-249.00000000000003
20
-199.5
10
-249.00000000000003
20
-214.50000000000003
10
-246
20
-214.50000000000003
10
-246
20
-217.5
10
-249.00000000000003
20
-217.5
10
-249.00000000000003
20
-232.50000000000003
10
-246
20
-232.50000000000003
10
-246
20
-235.5
10
-249.00000000000003
20
-235.5
10
-249.00000000000003
20
-250.5
10
-246
20
-250.5
10
-246
20
-253.5
10
-249.00000000000003
20
-253.5
10
-249.00000000000003
20
-268.5
10
-246
20
-268.5
10
-246
20
-271.5
10
-249.00000000000003
20
-271.5
10
-249.00000000000003
20
-286.5
10
-246
20
-286.5
10
-246
20
-289.5
10
-249.00000000000003
20
-289.5
10
-249.00000000000003
20
-304.5
0
LWPOLYLINE
5
101
100
AcDbEntity
8
0
100
AcDbPolyline
90
212
70
1
43
0.0
10
-475.50000000000006
20
-423.00000000000006
10
-475.50000000000006
20
-426
10
-466.50000000000006
20
-426
10
-466.50000000000006
20
-423.00000000000006
10
-457.5
20
-423.00000000000006
10
-457.5
20
-426
10
-448.5
20
-426
10
-448.5
20
-423.00000000000006
10
-439.5
20
-423.00000000000006
10
-439.5
20
-426
10
-430.50000000000006
20
-426
10
-430.50000000000006
20
-423.00000000000006
10
-421.50000000000006
20
-423.00000000000006
10
-421.50000000000006
20
-426
10
-412.5
20
-426
10
-412.5
20
-423.00000000000006
10
-403.5
20
-423.00000000000006
10
-403.5
20
-426
10
-394.5
20
-426
10
-394.5
20
-423.00000000000006
10
-385.50000000000006
20
-423.00000000000006
10
-385.50000000000006
20
-426
10
-376.5
20
-426
10
-376.5
20
-423.00000000000006
10
-367.5
20
-423.00000000000006
10
-367.5
20
-426
10
-358.5
20
-426
10
-358.5
20
-423.00000000000006
10
-349.5
20
-423.00000000000006
10
-349.5
20
-426
10
-340.50000000000006
20
-426
10
-340.50000000000006
20
-423.00000000000006
10
-331.5
20
-423.00000000000006
10
-331.5
20
-426
10
-322.5
20
-426
10
-322.5
20
-423.00000000000006
10
-313.5
20
-423.00000000000006
10
-313.5
20
-426
10
-304.5
20
-426
10
-304.5
20
-423.00000000000006
10
-295.5
20
-423.00000000000006
10
-295.5
20
-426
10
-286.5
20
-426
10
-286.5
20
-423.00000000000006
10
-277.5
20
-423.00000000000006
10
-277.5
20
-426
10
-268.5
20
-426
10
-268.5
20
-423.00000000000006
10
-259.5
20
-423.00000000000006
10
-259.5
20
-426
10
-250.5
20
-426
10
-250.5
20
-423.00000000000006
10
-246
20
-423.00000000000006
10
-246
20
-418.5
10
-243
20
-418.5
10
-243
20
-409.5
10
-246
20
-409.5
10
-246
20
-400.50000000000006
10
-243
20
-400.50000000000006
10
-243
20
-391.50000000000006
10
-246
20
-391.50000000000006
10
-246
20
-382.5
10
-243
20
-382.5
10
-243
20
-373.5
10
-246
20
-373.5
10
-246
20
-364.5
10
-243
20
-364.5
10
-243
20
-355.50000000000006
10
-246
20
-355.50000000000006
10
-246
20
-346.5
10
-243
20
-346.5
10
-243
20
-337.5
10
-246
20
-337.5
10
-246
20
-328.5
10
-243
20
-328.5
10
-243
20
-319.5
10
-246
20
-319.5
10
-246
20
-310.5
10
-243
20
-310.5
10
-243
20
-301.5
10
-246
20
-301.5
10
-246
20
-292.5
10
-243
20
-292.5
10
-243
20
-283.5
10
-246
20
-283.5
10
-246
20
-274.5
10
-243
20
-274.5
10
-243
20
-265.5
10
-246
20
-265.5
10
-246
20
-256.5
10
-243
20
-256.5
10
-243
20
-247.5
10
-246
20
-247.5
10
-246
20
-238.5
10
-243
20
-238.5
10
-243
20
-229.50000000000003
10
-246
20
-229.50000000000003
10
-246
20
-220.5
10
-243
20
-220.5
10
-243
20
-211.50000000000003
10
-246
20
-211.50000000000003
10
-246
20
-202.5
10
-243
20
-202.5
10
-243
20
-193.5
10
-246
20
-193.5
10
-246
20
-189.00000000000003
10
-250.5
20
-189.00000000000003
10
-250.5
20
-186
10
-259.5
20
-186
10
-259.5
20
-189.00000000000003
10
-268.5
20
-189.00000000000003
10
-268.5
20
-186
10
-277.5
20
-186
10
-277.5
20
-189.00000000000003
10
-286.5
20
-189.00000000000003
10
-286.5
20
-186
10
-295.5
20
-186
10
-295.5
20
-189.00000000000003
10
-304.5
20
-189.00000000000003
10
-304.5
20
-186
10
-313.5
20
-186
10
-313.5
20
-189.00000000000003
10
-322.5
20
-189.00000000000003
10
-322.5
20
-186
10
-331.5
20
-186
10
-331.5
20
-189.00000000000003
10
-340.50000000000006
20
-189.00000000000003
10
-340.50000000000006
20
-186
10
-349.5
20
-186
10
-349.5
20
-189.00000000000003
10
-358.5
20
-189.00000000000003
10
-358.5
20
-186
10
-367.5
20
-186
10
-367.5
20
-189.00000000000003
10
-376.5
20
-189.00000000000003
10
-376.5
20
-186
10
-385.50000000000006
20
-186
10
-385.50000000000006
20
-189.00000000000003
10
-394.5
20
-189.00000000000003
10
-394.5
20
-186
10
-403.5
20
-186
10
-403.5
20
-189.00000000000003
10
-412.5
20
-189.00000000000003
10
-412.5
20
-186
10
-421.50000000000006
20
-186
10
-421.50000000000006
20
-189.00000000000003
10
-430.50000000000006
20
-189.00000000000003
10
-430.50000000000006
20
-186
10
-439.5
20
-186
10
-439.5
20
-189.00000000000003
10
-448.5
20
-189.00000000000003
10
-448.5
20
-186
10
-457.5
20
-186
10
-457.5
20
-189.00000000000003
10
-466.50000000000006
20
-189.00000000000003
10
-466.50000000000006
20
-186
10
-475.50000000000006
20
-186
10
-475.50000000000006
20
-189.00000000000003
10
-480
20
-189.00000000000003
10
-480
20
-193.5
10
-483.00000000000006
20
-193.5
10
-483.00000000000006
20
-202.5
10
-480
20
-202.5
10
-480
20
-211.50000000000003
10
-483.00000000000006
20
-211.50000000000003
10
-483.00000000000006
20
-220.5
10
-480
20
-220.5
10
-480
20
-229.50000000000003
10
-483.00000000000006
20
-229.50000000000003
10
-483.00000000000006
20
-238.5
10
-480
20
-238.5
10
-480
20
-247.5
10
-483.00000000000006
20
-247.5
10
-483.00000000000006
20
-256.5
10
-480
20
-256.5
10
-480
20
-265.5
10
-483.00000000000006
20
-265.5
10
-483.00000000000006
20
-274.5
10
-480
20
-274.5
10
-480
20
-283.5
10
-483.00000000000006
20
-283.5
10
-483.00000000000006
20
-292.5
10
-480
20
-292.5
10
-480
20
-301.5
10
-483.00000000000006
20
-301.5
10
-483.00000000000006
20
-310.5
10
-480
20
-310.5
10
-480
20
-319.5
10
-483.00000000000006
20
-319.5
10
-483.00000000000006
20
-328.5
10
-480
20
-328.5
10
-480
20
-337.5
10
-483.00000000000006
20
-337.5
10
-483.00000000000006
20
-346.5
10
-480
20
-346.5
10
-480
20
-355.50000000000006
10
-483.00000000000006
20
-355.50000000000006
10
-483.00000000000006
20
-364.5
10
-480
20
-364.5
10
-480
20
-373.5
10
-483.00000000000006
20
-373.5
10
-483.00000000000006
20
-382.5
10
-480
20
-382.5
10
-480
20
-391.50000000000006
10
-483.00000000000006
20
-391.50000000000006
10
-483.00000000000006
20
-400.50000000000006
10
-480
20
-400.50000000000006
10
-480
20
-409.5
10
-483.00000000000006
20
-409.5
10
-483.00000000000006
20
-418.5
10
-480
20
-418.5
10
-480
20
-423.00000000000006
0
ENDSEC
0
SECTION
2
OBJECTS
0
DICTIONARY
5
C
100
AcDbDictionary
3
ACAD_GROUP
350
D
3
ACAD_MLINESTYLE
350
17
0
DICTIONARY
5
D
100
AcDbDictionary
0
DICTIONARY
5
1A
330
C
100
AcDbDictionary
0
DICTIONARY
5
17
100
AcDbDictionary
0
ENDSEC
0
EOF
