0
SECTION
2
HEADER
9
$INSUNITS
70
4
9
$ACADVER
1
AC1014
9
$HANDSEED
5
FFFF
0
ENDSEC
0
SECTION
2
TABLES
0
TABLE
2
VPORT
5
8
100
AcDbSymbolTable
0
ENDTAB
0
TABLE
2
LTYPE
5
5
100
AcDbSymbolTable
0
LTYPE
5
14
100
AcDbSymbolTableRecord
100
AcDbLinetypeTableRecord
2
BYBLOCK
70
0
0
LTYPE
5
15
100
AcDbSymbolTableRecord
100
AcDbLinetypeTableRecord
2
BYLAYER
70
0
0
LTYPE
5
16
100
AcDbSymbolTableRecord
100
AcDbLinetypeTableRecord
2
DASHED
70
0
3
Dashed __ __ __ __ __ __ __ __ __ __ __ __ __ _
72
65
73
2
40
0.75
49
0.5
74
0
49
-0.25
74
0
0
ENDTAB
0
TABLE
2
LAYER
5
2
100
AcDbSymbolTable
70
2
0
LAYER
5
50
100
AcDbSymbolTableRecord
100
AcDbLayerTableRecord
2
0
70
0
62
7
6
CONTINUOUS
0
ENDTAB
0
TABLE
2
STYLE
5
3
100
AcDbSymbolTable
70
1
0
STYLE
5
11
100
AcDbSymbolTableRecord
100
AcDbTextStyleTableRecord
2
STANDARD
70
0
0
ENDTAB
0
TABLE
2
VIEW
5
6
100
AcDbSymbolTable
70
0
0
ENDTAB
0
TABLE
2
UCS
5
7
100
AcDbSymbolTable
70
0
0
ENDTAB
0
TABLE
2
APPID
5
9
100
AcDbSymbolTable
70
2
0
APPID
5
12
100
AcDbSymbolTableRecord
100
AcDbRegAppTableRecord
2
ACAD
70
0
0
ENDTAB
0
TABLE
2
DIMSTYLE
5
A
100
AcDbSymbolTable
70
1
0
ENDTAB
0
TABLE
2
BLOCK_RECORD
5
1
100
AcDbSymbolTable
70
1
0
BLOCK_RECORD
5
1F
100
AcDbSymbolTableRecord
100
AcDbBlockTableRecord
2
*MODEL_SPACE
0
BLOCK_RECORD
5
1B
100
AcDbSymbolTableRecord
100
AcDbBlockTableRecord
2
*PAPER_SPACE
0
ENDTAB
0
ENDSEC
0
SECTION
2
BLOCKS
0
BLOCK
5
20
100
AcDbEntity
100
AcDbBlockBegin
2
*MODEL_SPACE
0
ENDBLK
5
21
100
AcDbEntity
100
AcDbBlockEnd
0
BLOCK
5
1C
100
AcDbEntity
100
AcDbBlockBegin
2
*PAPER_SPACE
0
ENDBLK
5
1D
100
AcDbEntity
100
AcDbBlockEnd
0
ENDSEC
0
SECTION
2
ENTITIES
0
LWPOLYLINE
5
100
100
AcDbEntity
8
0
100
AcDbPolyline
90
80
70
1
43
0.0
10
-357.47300000000001
20
-140.965
10
-357.4190000000001
20
-140.96000000000001
10
-357.36300000000006
20
-140.958
10
-357.30700000000002
20
-140.96000000000001
10
-357.25300000000004
20
-140.965
10
-357.20099999999996
20
-140.97299999999998
10
-357.15200000000004
20
-140.98400000000001
10
-357.10500000000002
20
-140.999
10
-357.06099999999998
20
-141.017
10
-357.01900000000001
20
-141.03899999999999
10
-356.97900000000004
20
-141.06400000000002
10
-356.94199999999995
20
-141.09200000000001
10
-356.90699999999998
20
-141.12299999999999
10
-356.875
20
-141.15700000000001
10
-356.84699999999998
20
-141.19299999999998
10
-356.82099999999997
20
-141.23099999999999
10
-356.79900000000004
20
-141.27200000000002
10
-356.78100000000001
20
-141.31399999999999
10
-356.76600000000002
20
-141.35900000000001
10
-356.75400000000002
20
-141.405
10
-356.74599999999998
20
-141.45400000000001
10
-356.74100000000004
20
-141.505
10
-356.73900000000003
20
-141.55799999999999
10
-356.74100000000004
20
-141.61000000000001
10
-356.74599999999998
20
-141.65899999999999
10
-356.75400000000002
20
-141.70699999999999
10
-356.76600000000002
20
-141.75200000000001
10
-356.78100000000001
20
-141.79499999999999
10
-356.79900000000004
20
-141.83600000000001
10
-356.82099999999997
20
-141.875
10
-356.84699999999998
20
-141.911
10
-356.875
20
-141.94600000000003
10
-356.90699999999998
20
-141.97799999999998
10
-356.94199999999995
20
-142.00799999999998
10
-356.97900000000004
20
-142.03399999999999
10
-357.01900000000001
20
-142.05799999999999
10
-357.06099999999998
20
-142.078
10
-357.10500000000002
20
-142.095
10
-357.15200000000004
20
-142.10900000000004
10
-357.20099999999996
20
-142.12
10
-357.25300000000004
20
-142.12799999999999
10
-357.30700000000002
20
-142.13200000000001
10
-357.36300000000006
20
-142.13400000000001
10
-357.4190000000001
20
-142.13200000000001
10
-357.47300000000001
20
-142.12799999999999
10
-357.52499999999998
20
-142.12
10
-357.57400000000007
20
-142.10900000000004
10
-357.62099999999998
20
-142.095
10
-357.66500000000002
20
-142.078
10
-357.70699999999999
20
-142.05799999999999
10
-357.74699999999996
20
-142.03399999999999
10
-357.78399999999999
20
-142.00799999999998
10
-357.81900000000002
20
-141.97799999999998
10
-357.851
20
-141.94600000000003
10
-357.87900000000002
20
-141.911
10
-357.90500000000003
20
-141.875
10
-357.92699999999996
20
-141.83600000000001
10
-357.94499999999999
20
-141.79499999999999
10
-357.95999999999998
20
-141.75200000000001
10
-357.97199999999998
20
-141.70699999999999
10
-357.98000000000002
20
-141.65899999999999
10
-357.98500000000001
20
-141.61000000000001
10
-357.98699999999997
20
-141.55799999999999
10
-357.98500000000001
20
-141.505
10
-357.98000000000002
20
-141.45400000000001
10
-357.97199999999998
20
-141.405
10
-357.95999999999998
20
-141.35900000000001
10
-357.94499999999999
20
-141.31399999999999
10
-357.92699999999996
20
-141.27200000000002
10
-357.90500000000003
20
-141.23099999999999
10
-357.87900000000002
20
-141.19299999999998
10
-357.851
20
-141.15700000000001
10
-357.81900000000002
20
-141.12299999999999
10
-357.78399999999999
20
-141.09200000000001
10
-357.74699999999996
20
-141.06400000000002
10
-357.70699999999999
20
-141.03899999999999
10
-357.66500000000002
20
-141.017
10
-357.62099999999998
20
-140.999
10
-357.57400000000007
20
-140.98400000000001
10
-357.52499999999998
20
-140.97299999999998
0
LWPOLYLINE
5
101
100
AcDbEntity
8
0
100
AcDbPolyline
90
107
70
1
43
0.0
10
-367.185
20
-142.05000000000001
10
-368.12099999999998
20
-142.05000000000001
10
-368.12099999999998
20
-138.51620000000003
10
-368.13999999999999
20
-138.55799999999999
10
-368.20500000000004
20
-138.68299999999999
10
-368.27499999999998
20
-138.80100000000002
10
-368.35000000000002
20
-138.91299999999998
10
-368.42900000000009
20
-139.01800000000003
10
-368.51400000000007
20
-139.11600000000001
10
-368.60300000000001
20
-139.208
10
-368.69699999999995
20
-139.29300000000001
10
-368.79600000000005
20
-139.37100000000001
10
-368.89999999999998
20
-139.44200000000001
10
-369.00800000000004
20
-139.50600000000003
10
-369.12
20
-139.56200000000001
10
-369.23699999999997
20
-139.61099999999999
10
-369.358
20
-139.65200000000004
10
-369.48300000000006
20
-139.68600000000004
10
-369.61300000000006
20
-139.71200000000005
10
-369.74699999999996
20
-139.73099999999999
10
-369.88599999999997
20
-139.74200000000002
10
-370.02900000000005
20
-139.74600000000004
10
-370.16300000000001
20
-139.74299999999999
10
-370.29199999999997
20
-139.73400000000001
10
-370.41800000000001
20
-139.71899999999999
10
-370.54000000000002
20
-139.69799999999998
10
-370.65800000000002
20
-139.66999999999999
10
-370.77199999999999
20
-139.637
10
-370.88300000000004
20
-139.59799999999998
10
-370.98900000000009
20
-139.55200000000002
10
-371.09100000000007
20
-139.501
10
-371.19
20
-139.44299999999998
10
-371.28399999999999
20
-139.38
10
-371.37400000000008
20
-139.31100000000001
10
-371.46000000000004
20
-139.238
10
-371.54000000000002
20
-139.15899999999999
10
-371.61699999999996
20
-139.07499999999999
10
-371.68900000000002
20
-138.98500000000001
10
-371.75599999999997
20
-138.89099999999999
10
-371.81900000000007
20
-138.791
10
-371.87700000000001
20
-138.68600000000001
10
-371.93100000000004
20
-138.57599999999999
10
-371.98000000000002
20
-138.46100000000001
10
-372.02400000000006
20
-138.34200000000004
10
-372.06300000000005
20
-138.21899999999999
10
-372.096
20
-138.09100000000001
10
-372.125
20
-137.959
10
-372.14800000000002
20
-137.82399999999998
10
-372.166
20
-137.684
10
-372.17900000000009
20
-137.53899999999999
10
-372.18600000000004
20
-137.39100000000002
10
-372.18900000000008
20
-137.238
10
-372.18900000000008
20
-133.86600000000001
10
-371.26499999999999
20
-133.86600000000001
10
-371.26499999999999
20
-137.238
10
-371.26100000000002
20
-137.398
10
-371.24900000000002
20
-137.55100000000002
10
-371.23000000000002
20
-137.696
10
-371.20200000000006
20
-137.833
10
-371.16700000000003
20
-137.96200000000002
10
-371.12400000000002
20
-138.083
10
-371.072
20
-138.19600000000003
10
-371.01300000000003
20
-138.30200000000002
10
-370.94699999999995
20
-138.399
10
-370.87199999999996
20
-138.489
10
-370.79100000000005
20
-138.571
10
-370.70300000000003
20
-138.643
10
-370.61100000000005
20
-138.708
10
-370.51199999999994
20
-138.76400000000001
10
-370.40800000000002
20
-138.81100000000001
10
-370.298
20
-138.84899999999999
10
-370.18200000000002
20
-138.87899999999999
10
-370.06099999999998
20
-138.90100000000001
10
-369.93400000000003
20
-138.91399999999999
10
-369.80099999999999
20
-138.91800000000001
10
-369.69900000000001
20
-138.91500000000002
10
-369.60000000000002
20
-138.90700000000004
10
-369.50400000000002
20
-138.893
10
-369.41000000000003
20
-138.87299999999999
10
-369.32000000000005
20
-138.84700000000004
10
-369.23099999999999
20
-138.816
10
-369.14600000000002
20
-138.78
10
-369.06400000000008
20
-138.738
10
-368.98400000000004
20
-138.69
10
-368.90700000000004
20
-138.636
10
-368.83300000000008
20
-138.577
10
-368.76300000000009
20
-138.51300000000003
10
-368.69599999999997
20
-138.44499999999999
10
-368.63200000000001
20
-138.37200000000001
10
-368.572
20
-138.29300000000001
10
-368.51599999999996
20
-138.21000000000001
10
-368.46300000000008
20
-138.12200000000001
10
-368.41399999999999
20
-138.029
10
-368.36800000000005
20
-137.93200000000002
10
-368.32500000000005
20
-137.82900000000001
10
-368.286
20
-137.72200000000001
10
-368.25199999999995
20
-137.61099999999999
10
-368.221
20
-137.49600000000001
10
-368.19400000000002
20
-137.37700000000001
10
-368.17200000000003
20
-137.25400000000002
10
-368.15400000000005
20
-137.12700000000001
10
-368.13900000000001
20
-136.99600000000001
10
-368.12900000000008
20
-136.86000000000001
10
-368.12300000000005
20
-136.721
10
-368.12099999999998
20
-136.57800000000003
10
-368.12099999999998
20
-133.86600000000001
10
-367.185
20
-133.86600000000001
0
LWPOLYLINE
5
102
100
AcDbEntity
8
0
100
AcDbPolyline
90
4
70
1
43
0.0
10
-356.89500000000004
20
-139.614
10
-357.83099999999996
20
-139.614
10
-357.83099999999996
20
-133.86600000000001
10
-356.89500000000004
20
-133.86600000000001
0
LWPOLYLINE
5
103
100
AcDbEntity
8
0
100
AcDbPolyline
90
89
70
1
43
0.0
10
-375.471
20
-139.602
10
-377.28300000000002
20
-139.602
10
-377.28300000000002
20
-138.95400000000001
10
-375.471
20
-138.95400000000001
10
-375.471
20
-135.36600000000001
10
-375.47900000000004
20
-135.197
10
-375.50400000000002
20
-135.04599999999999
10
-375.54599999999999
20
-134.91299999999998
10
-375.60300000000007
20
-134.798
10
-375.67800000000005
20
-134.69999999999999
10
-375.76900000000001
20
-134.62
10
-375.87699999999995
20
-134.55799999999999
10
-376.00099999999998
20
-134.51400000000001
10
-376.14200000000005
20
-134.48699999999999
10
-376.29900000000009
20
-134.47799999999998
10
-376.39699999999999
20
-134.48000000000002
10
-376.44499999999999
20
-134.483
10
-376.49300000000005
20
-134.48699999999999
10
-376.58900000000006
20
-134.49700000000001
10
-376.63599999999997
20
-134.50399999999999
10
-376.73000000000002
20
-134.52200000000002
10
-376.77600000000007
20
-134.53200000000004
10
-376.82300000000004
20
-134.54300000000001
10
-376.87099999999998
20
-134.55600000000001
10
-376.92000000000002
20
-134.56899999999999
10
-376.97000000000003
20
-134.584
10
-377.02099999999996
20
-134.60000000000002
10
-377.07400000000001
20
-134.61600000000001
10
-377.12699999999995
20
-134.63400000000001
10
-377.18199999999996
20
-134.65299999999999
10
-377.23800000000006
20
-134.673
10
-377.29500000000002
20
-134.69400000000002
10
-377.42700000000002
20
-134.02200000000002
10
-377.36600000000004
20
-133.99600000000001
10
-377.30500000000001
20
-133.971
10
-377.24400000000003
20
-133.947
10
-377.18300000000005
20
-133.92400000000004
10
-377.12199999999996
20
-133.90200000000002
10
-377.06099999999998
20
-133.88100000000003
10
-377
20
-133.86099999999999
10
-376.93900000000008
20
-133.84200000000001
10
-376.87900000000008
20
-133.82299999999998
10
-376.81800000000004
20
-133.80600000000001
10
-376.75700000000001
20
-133.78999999999999
10
-376.69599999999997
20
-133.77600000000001
10
-376.63400000000001
20
-133.76300000000001
10
-376.57199999999995
20
-133.75200000000001
10
-376.51000000000005
20
-133.74299999999999
10
-376.44699999999995
20
-133.73500000000001
10
-376.38400000000001
20
-133.72999999999999
10
-376.31999999999999
20
-133.72499999999999
10
-376.25599999999997
20
-133.72299999999998
10
-376.19099999999997
20
-133.72200000000001
10
-376.09800000000001
20
-133.72399999999999
10
-376.00800000000004
20
-133.72899999999998
10
-375.91900000000004
20
-133.738
10
-375.83199999999999
20
-133.751
10
-375.74700000000001
20
-133.767
10
-375.66399999999999
20
-133.78700000000003
10
-375.58300000000003
20
-133.81
10
-375.50400000000002
20
-133.83700000000002
10
-375.42599999999999
20
-133.86799999999999
10
-375.351
20
-133.90200000000002
10
-375.27800000000008
20
-133.94
10
-375.20800000000003
20
-133.98099999999999
10
-375.14200000000005
20
-134.02600000000001
10
-375.07800000000003
20
-134.07499999999999
10
-375.01800000000003
20
-134.12700000000001
10
-374.96100000000007
20
-134.18299999999999
10
-374.90699999999998
20
-134.24200000000002
10
-374.85599999999999
20
-134.30500000000001
10
-374.80800000000011
20
-134.37200000000001
10
-374.76300000000003
20
-134.44200000000001
10
-374.72199999999998
20
-134.51599999999999
10
-374.685
20
-134.59299999999999
10
-374.65300000000008
20
-134.67400000000001
10
-374.625
20
-134.75899999999999
10
-374.60100000000006
20
-134.84700000000001
10
-374.58199999999999
20
-134.93899999999999
10
-374.56600000000003
20
-135.03399999999999
10
-374.55599999999998
20
-135.13299999999998
10
-374.54900000000004
20
-135.23599999999999
10
-374.54699999999997
20
-135.34200000000001
10
-374.54699999999997
20
-138.95400000000001
10
-373.62300000000005
20
-138.95400000000001
10
-373.62300000000005
20
-139.602
10
-374.54699999999997
20
-139.602
10
-374.54699999999997
20
-141.19799999999998
10
-375.471
20
-141.19799999999998
0
LWPOLYLINE
5
104
100
AcDbEntity
8
0
100
AcDbPolyline
90
46
70
1
43
0.0
10
-353.04500000000007
20
-137.048
10
-352.83099999999996
20
-137.005
10
-352.76797714488134
20
-136.99667098831031
10
-354.92099999999999
20
-133.86600000000001
10
-353.709
20
-133.86600000000001
10
-351.76121052631584
20
-136.94999999999999
10
-350.42099999999999
20
-136.94999999999999
10
-350.42099999999999
20
-133.86600000000001
10
-349.48500000000001
20
-133.86600000000001
10
-349.48500000000001
20
-141.40200000000002
10
-352.11300000000006
20
-141.40200000000002
10
-352.36500000000001
20
-141.39600000000002
10
-352.60400000000004
20
-141.37700000000001
10
-352.83099999999996
20
-141.34700000000004
10
-353.04500000000007
20
-141.30400000000003
10
-353.24599999999998
20
-141.24799999999999
10
-353.435
20
-141.18100000000001
10
-353.61199999999997
20
-141.101
10
-353.77600000000001
20
-141.00799999999998
10
-353.92699999999996
20
-140.904
10
-354.06599999999997
20
-140.78700000000001
10
-354.19199999999995
20
-140.66
10
-354.30500000000001
20
-140.52600000000001
10
-354.40400000000005
20
-140.38299999999998
10
-354.49000000000007
20
-140.233
10
-354.56300000000005
20
-140.07499999999999
10
-354.62300000000005
20
-139.91
10
-354.66900000000004
20
-139.73599999999999
10
-354.702
20
-139.55500000000001
10
-354.72199999999998
20
-139.36700000000002
10
-354.72900000000004
20
-139.16999999999999
10
-354.72199999999998
20
-138.976
10
-354.702
20
-138.78899999999999
10
-354.66900000000004
20
-138.61000000000001
10
-354.62300000000005
20
-138.43799999999999
10
-354.56300000000005
20
-138.274
10
-354.49000000000007
20
-138.11700000000002
10
-354.40400000000005
20
-137.96799999999999
10
-354.30500000000001
20
-137.82599999999999
10
-354.19199999999995
20
-137.69200000000001
10
-354.06599999999997
20
-137.565
10
-353.92699999999996
20
-137.44799999999998
10
-353.77600000000001
20
-137.34399999999999
10
-353.61199999999997
20
-137.251
10
-353.435
20
-137.17099999999999
10
-353.24599999999998
20
-137.10399999999998
0
LWPOLYLINE
5
105
100
AcDbEntity
8
0
100
AcDbPolyline
90
345
70
1
43
0.0
10
-364.50300000000004
20
-139.01800000000003
10
-364.49400000000003
20
-138.929
10
-364.49343248066634
20
-138.91102855443188
10
-364.54599999999999
20
-138.84299999999999
10
-364.61099999999999
20
-138.75
10
-364.67000000000007
20
-138.654
10
-364.72300000000007
20
-138.554
10
-364.76999999999998
20
-138.452
10
-364.81099999999998
20
-138.346
10
-364.84500000000003
20
-138.23699999999999
10
-364.87300000000005
20
-138.125
10
-364.89499999999998
20
-138.00999999999999
10
-364.91100000000006
20
-137.892
10
-364.92000000000007
20
-137.77000000000001
10
-364.923
20
-137.64600000000002
10
-364.92000000000007
20
-137.523
10
-364.91100000000006
20
-137.40200000000002
10
-364.89499999999998
20
-137.285
10
-364.87300000000005
20
-137.17099999999999
10
-364.84500000000003
20
-137.059
10
-364.81099999999998
20
-136.95099999999999
10
-364.76999999999998
20
-136.846
10
-364.72300000000007
20
-136.744
10
-364.67000000000007
20
-136.64400000000001
10
-364.61099999999999
20
-136.548
10
-364.54599999999999
20
-136.45500000000001
10
-364.47800000000001
20
-136.36700000000002
10
-364.40499999999997
20
-136.28200000000001
10
-364.32700000000006
20
-136.202
10
-364.24599999999998
20
-136.126
10
-364.16000000000003
20
-136.05500000000001
10
-364.07000000000005
20
-135.98700000000002
10
-363.97500000000002
20
-135.92400000000001
10
-363.87699999999995
20
-135.86500000000001
10
-363.774
20
-135.81
10
-363.66800000000006
20
-135.75999999999999
10
-363.55900000000008
20
-135.715
10
-363.44800000000009
20
-135.67500000000001
10
-363.33500000000004
20
-135.64099999999999
10
-363.22000000000003
20
-135.61199999999999
10
-363.10200000000003
20
-135.58799999999999
10
-362.98200000000003
20
-135.56999999999999
10
-362.85900000000004
20
-135.55700000000002
10
-362.73400000000004
20
-135.54900000000001
10
-362.60699999999997
20
-135.54599999999999
10
-362.476
20
-135.54900000000001
10
-362.34800000000001
20
-135.55700000000002
10
-362.22300000000007
20
-135.56999999999999
10
-362.10000000000002
20
-135.58799999999999
10
-361.97900000000004
20
-135.61199999999999
10
-361.86100000000005
20
-135.64099999999999
10
-361.74599999999998
20
-135.67500000000001
10
-361.63400000000001
20
-135.715
10
-361.52300000000002
20
-135.75999999999999
10
-361.41600000000005
20
-135.81
10
-361.38159681505613
20
-135.82819399203765
10
-361.37
20
-135.82599999999999
10
-361.334
20
-135.81700000000001
10
-361.298
20
-135.80600000000001
10
-361.26100000000002
20
-135.79399999999998
10
-361.22500000000002
20
-135.78
10
-361.1880000000001
20
-135.76499999999999
10
-361.15200000000004
20
-135.74799999999999
10
-361.11699999999996
20
-135.72899999999998
10
-361.08400000000006
20
-135.709
10
-361.05099999999999
20
-135.68799999999999
10
-361.01999999999998
20
-135.66499999999999
10
-360.99000000000001
20
-135.63999999999999
10
-360.96100000000001
20
-135.613
10
-360.93400000000003
20
-135.58500000000004
10
-360.90699999999998
20
-135.55600000000001
10
-360.88199999999995
20
-135.52500000000003
10
-360.85900000000004
20
-135.49200000000002
10
-360.83800000000002
20
-135.458
10
-360.81900000000007
20
-135.42200000000003
10
-360.80300000000011
20
-135.38499999999999
10
-360.79000000000002
20
-135.346
10
-360.779
20
-135.30500000000001
10
-360.76999999999998
20
-135.26300000000001
10
-360.76400000000001
20
-135.21899999999999
10
-360.75999999999999
20
-135.173
10
-360.75900000000001
20
-135.126
10
-360.76099999999997
20
-135.072
10
-360.76800000000003
20
-135.01900000000001
10
-360.77999999999997
20
-134.96899999999999
10
-360.79500000000002
20
-134.91999999999999
10
-360.81600000000003
20
-134.87299999999999
10
-360.84100000000001
20
-134.827
10
-360.87099999999998
20
-134.78399999999999
10
-360.90499999999997
20
-134.74200000000002
10
-360.94400000000002
20
-134.702
10
-360.98700000000002
20
-134.66399999999999
10
-361.036
20
-134.62899999999999
10
-361.09300000000007
20
-134.59700000000001
10
-361.15699999999998
20
-134.56899999999999
10
-361.2290000000001
20
-134.54499999999999
10
-361.30800000000011
20
-134.524
10
-361.39499999999998
20
-134.50799999999998
10
-361.48800000000006
20
-134.495
10
-361.58999999999997
20
-134.48500000000001
10
-361.69900000000007
20
-134.48000000000002
10
-361.815
20
-134.47799999999998
10
-364.04699999999997
20
-134.47799999999998
10
-364.20600000000002
20
-134.47499999999999
10
-364.35699999999997
20
-134.464
10
-364.50199999999995
20
-134.447
10
-364.63999999999999
20
-134.423
10
-364.77100000000002
20
-134.393
10
-364.89499999999998
20
-134.35499999999999
10
-365.01199999999994
20
-134.31
10
-365.12200000000001
20
-134.25899999999999
10
-365.22600000000006
20
-134.20099999999999
10
-365.32199999999995
20
-134.136
10
-365.41000000000003
20
-134.065
10
-365.48900000000003
20
-133.988
10
-365.55900000000003
20
-133.90600000000001
10
-365.62000000000006
20
-133.81899999999999
10
-365.67100000000005
20
-133.726
10
-365.71300000000002
20
-133.62799999999999
10
-365.745
20
-133.52500000000001
10
-365.76800000000003
20
-133.416
10
-365.78200000000004
20
-133.30200000000002
10
-365.78699999999998
20
-133.18200000000002
10
-365.78300000000007
20
-133.06999999999999
10
-365.77099999999996
20
-132.958
10
-365.75099999999998
20
-132.84799999999998
10
-365.72300000000007
20
-132.738
10
-365.68700000000001
20
-132.62899999999999
10
-365.642
20
-132.52100000000002
10
-365.58999999999997
20
-132.41399999999999
10
-365.52999999999997
20
-132.30799999999999
10
-365.46100000000001
20
-132.20300000000003
10
-365.38499999999999
20
-132.09899999999999
10
-365.30099999999999
20
-131.99700000000001
10
-365.21000000000004
20
-131.899
10
-365.11199999999997
20
-131.804
10
-365.00800000000004
20
-131.714
10
-364.89599999999996
20
-131.626
10
-364.77699999999999
20
-131.54300000000001
10
-364.65200000000004
20
-131.464
10
-364.51900000000001
20
-131.38800000000001
10
-364.38
20
-131.315
10
-364.23300000000006
20
-131.24700000000001
10
-364.08000000000004
20
-131.18400000000003
10
-363.92099999999999
20
-131.12700000000001
10
-363.75699999999995
20
-131.077
10
-363.58600000000001
20
-131.03399999999999
10
-363.40899999999999
20
-130.99700000000001
10
-363.22699999999998
20
-130.96700000000001
10
-363.03899999999999
20
-130.94400000000002
10
-362.84500000000003
20
-130.92700000000002
10
-362.64499999999998
20
-130.917
10
-362.43900000000002
20
-130.91399999999999
10
-362.26499999999999
20
-130.916
10
-362.096
20
-130.92400000000001
10
-361.93100000000004
20
-130.93600000000004
10
-361.77099999999996
20
-130.95400000000001
10
-361.61500000000001
20
-130.976
10
-361.46499999999997
20
-131.00400000000002
10
-361.31900000000002
20
-131.036
10
-361.17800000000011
20
-131.07299999999998
10
-361.04100000000005
20
-131.11600000000004
10
-360.90899999999999
20
-131.16299999999998
10
-360.78200000000004
20
-131.214
10
-360.661
20
-131.26900000000001
10
-360.54599999999999
20
-131.328
10
-360.43699999999995
20
-131.38900000000001
10
-360.334
20
-131.45400000000001
10
-360.23599999999999
20
-131.52200000000002
10
-360.14400000000001
20
-131.59399999999999
10
-360.05800000000011
20
-131.66899999999998
10
-359.97800000000007
20
-131.74700000000001
10
-359.904
20
-131.82900000000001
10
-359.83600000000001
20
-131.91299999999998
10
-359.77499999999998
20
-131.999
10
-359.72199999999998
20
-132.08700000000002
10
-359.67599999999999
20
-132.17700000000002
10
-359.63599999999997
20
-132.268
10
-359.60400000000004
20
-132.36099999999999
10
-359.57900000000001
20
-132.45500000000001
10
-359.56099999999998
20
-132.55200000000002
10
-359.55100000000004
20
-132.65000000000001
10
-359.54699999999997
20
-132.75
10
-359.55199999999996
20
-132.88
10
-359.56700000000001
20
-133.00399999999999
10
-359.59100000000001
20
-133.12100000000001
10
-359.625
20
-133.232
10
-359.66900000000004
20
-133.33700000000002
10
-359.72300000000007
20
-133.43600000000004
10
-359.78699999999998
20
-133.52799999999999
10
-359.86000000000001
20
-133.614
10
-359.94300000000004
20
-133.69399999999999
10
-360.036
20
-133.767
10
-360.13699999999994
20
-133.834
10
-360.24300000000005
20
-133.893
10
-360.35500000000008
20
-133.946
10
-360.47300000000001
20
-133.99200000000002
10
-360.596
20
-134.03
10
-360.65287996755876
20
-134.04410975939444
10
-360.649
20
-134.04599999999999
10
-360.57400000000001
20
-134.08700000000005
10
-360.50300000000004
20
-134.13
10
-360.43599999999998
20
-134.17600000000002
10
-360.3730000000001
20
-134.22300000000001
10
-360.3130000000001
20
-134.273
10
-360.25800000000004
20
-134.32499999999999
10
-360.20699999999999
20
-134.38
10
-360.15899999999999
20
-134.43600000000001
10
-360.11599999999999
20
-134.494
10
-360.077
20
-134.553
10
-360.04300000000001
20
-134.614
10
-360.01300000000009
20
-134.67500000000001
10
-359.98800000000011
20
-134.738
10
-359.96699999999998
20
-134.80100000000002
10
-359.95200000000006
20
-134.86600000000004
10
-359.94
20
-134.93100000000001
10
-359.93300000000005
20
-134.99799999999999
10
-359.93099999999998
20
-135.066
10
-359.93300000000005
20
-135.137
10
-359.93900000000002
20
-135.20600000000002
10
-359.94900000000001
20
-135.27200000000002
10
-359.964
20
-135.33700000000005
10
-359.98199999999997
20
-135.399
10
-360.00400000000008
20
-135.459
10
-360.03100000000006
20
-135.517
10
-360.06200000000001
20
-135.57299999999998
10
-360.096
20
-135.62700000000001
10
-360.13499999999999
20
-135.678
10
-360.17699999999996
20
-135.727
10
-360.22199999999998
20
-135.774
10
-360.26800000000003
20
-135.81799999999998
10
-360.31800000000004
20
-135.86000000000001
10
-360.37
20
-135.90000000000001
10
-360.42400000000009
20
-135.93700000000001
10
-360.48099999999999
20
-135.97200000000001
10
-360.54000000000002
20
-136.00400000000002
10
-360.60200000000003
20
-136.03399999999999
10
-360.666
20
-136.06200000000001
10
-360.73199999999997
20
-136.08700000000002
10
-360.79900000000004
20
-136.11000000000001
10
-360.86700000000002
20
-136.12899999999999
10
-360.92228545536926
20
-136.14262105422145
10
-360.85900000000004
20
-136.202
10
-360.78100000000001
20
-136.28200000000001
10
-360.70800000000008
20
-136.36700000000002
10
-360.63999999999999
20
-136.45500000000001
10
-360.57600000000002
20
-136.548
10
-360.51700000000005
20
-136.64400000000001
10
-360.46500000000003
20
-136.744
10
-360.41800000000001
20
-136.846
10
-360.37800000000004
20
-136.95099999999999
10
-360.34399999999999
20
-137.059
10
-360.31599999999997
20
-137.17099999999999
10
-360.29500000000007
20
-137.285
10
-360.279
20
-137.40200000000002
10
-360.26999999999998
20
-137.523
10
-360.267
20
-137.64600000000002
10
-360.26999999999998
20
-137.77000000000001
10
-360.279
20
-137.892
10
-360.29500000000007
20
-138.00999999999999
10
-360.31599999999997
20
-138.125
10
-360.34399999999999
20
-138.23699999999999
10
-360.37800000000004
20
-138.346
10
-360.41800000000001
20
-138.452
10
-360.46500000000003
20
-138.554
10
-360.51700000000005
20
-138.654
10
-360.57600000000002
20
-138.75
10
-360.63999999999999
20
-138.84299999999999
10
-360.70800000000008
20
-138.93100000000001
10
-360.78100000000001
20
-139.01499999999999
10
-360.85900000000004
20
-139.09500000000003
10
-360.94
20
-139.17099999999999
10
-361.02699999999999
20
-139.24200000000002
10
-361.11699999999996
20
-139.30900000000003
10
-361.21199999999999
20
-139.37200000000001
10
-361.31200000000001
20
-139.43100000000001
10
-361.41600000000005
20
-139.48500000000001
10
-361.52300000000002
20
-139.535
10
-361.63400000000001
20
-139.57900000000001
10
-361.74599999999998
20
-139.61799999999999
10
-361.86100000000005
20
-139.65200000000004
10
-361.97900000000004
20
-139.68100000000001
10
-362.10000000000002
20
-139.70400000000001
10
-362.22300000000007
20
-139.72299999999998
10
-362.34800000000001
20
-139.73599999999999
10
-362.476
20
-139.74299999999999
10
-362.60699999999997
20
-139.74600000000004
10
-362.73400000000004
20
-139.74299999999999
10
-362.85900000000004
20
-139.73599999999999
10
-362.98200000000003
20
-139.72299999999998
10
-363.10200000000003
20
-139.70400000000001
10
-363.22000000000003
20
-139.68100000000001
10
-363.33500000000004
20
-139.65200000000004
10
-363.44800000000009
20
-139.61799999999999
10
-363.55900000000008
20
-139.57900000000001
10
-363.66800000000006
20
-139.535
10
-363.774
20
-139.48500000000001
10
-363.87699999999995
20
-139.43100000000001
10
-363.97500000000002
20
-139.37200000000001
10
-364.06600133786151
20
-139.31165174436558
10
-364.07900000000006
20
-139.398
10
-364.09600000000006
20
-139.48699999999999
10
-364.11800000000005
20
-139.57499999999999
10
-364.14400000000001
20
-139.65899999999999
10
-364.17400000000009
20
-139.74200000000002
10
-364.20700000000005
20
-139.822
10
-364.245
20
-139.899
10
-364.28600000000006
20
-139.97399999999999
10
-364.33099999999996
20
-140.04500000000002
10
-364.37900000000008
20
-140.11199999999999
10
-364.43000000000006
20
-140.17700000000002
10
-364.48500000000001
20
-140.238
10
-364.54300000000001
20
-140.29599999999999
10
-364.60500000000002
20
-140.34999999999999
10
-364.66900000000004
20
-140.40100000000001
10
-364.73700000000002
20
-140.44899999999998
10
-364.80900000000008
20
-140.49299999999999
10
-364.88400000000007
20
-140.53300000000002
10
-364.96100000000007
20
-140.56999999999999
10
-365.041
20
-140.60200000000003
10
-365.12400000000008
20
-140.62899999999999
10
-365.20900000000006
20
-140.65300000000002
10
-365.298
20
-140.672
10
-365.38900000000007
20
-140.68700000000001
10
-365.48300000000006
20
-140.697
10
-365.57999999999998
20
-140.70400000000001
10
-365.67900000000003
20
-140.70600000000002
10
-365.60699999999997
20
-139.78200000000001
10
-365.50199999999995
20
-139.78000000000003
10
-365.40100000000001
20
-139.773
10
-365.30599999999998
20
-139.761
10
-365.21499999999997
20
-139.745
10
-365.13
20
-139.72399999999999
10
-365.05000000000001
20
-139.69899999999998
10
-364.97399999999999
20
-139.66899999999998
10
-364.904
20
-139.63400000000001
10
-364.839
20
-139.595
10
-364.779
20
-139.55100000000002
10
-364.72399999999999
20
-139.50200000000001
10
-364.67500000000001
20
-139.44799999999998
10
-364.63199999999995
20
-139.38900000000001
10
-364.59500000000003
20
-139.32499999999999
10
-364.56300000000005
20
-139.256
10
-364.53699999999998
20
-139.18200000000002
10
-364.51700000000005
20
-139.10300000000001
0
LWPOLYLINE
5
106
100
AcDbEntity
8
0
100
AcDbPolyline
90
140
70
1
43
0.0
10
-483.00000000000006
20
-169.5
10
-483.00000000000006
20
-183
10
-475.50000000000006
20
-183
10
-475.50000000000006
20
-180
10
-466.50000000000006
20
-180
10
-466.50000000000006
20
-183
10
-457.5
20
-183
10
-457.5
20
-180
10
-448.5
20
-180
10
-448.5
20
-183
10
-439.5
20
-183
10
-439.5
20
-180
10
-430.50000000000006
20
-180
10
-430.50000000000006
20
-183
10
-421.50000000000006
20
-183
10
-421.50000000000006
20
-180
10
-412.5
20
-180
10
-412.5
20
-183
10
-403.5
20
-183
10
-403.5
20
-180
10
-394.5
20
-180
10
-394.5
20
-183
10
-385.50000000000006
20
-183
10
-385.50000000000006
20
-180
10
-376.5
20
-180
10
-376.5
20
-183
10
-367.5
20
-183
10
-367.5
20
-180
10
-358.5
20
-180
10
-358.5
20
-183
10
-349.5
20
-183
10
-349.5
20
-180
10
-340.50000000000006
20
-180
10
-340.50000000000006
20
-183
10
-331.5
20
-183
10
-331.5
20
-180
10
-322.5
20
-180
10
-322.5
20
-183
10
-313.5
20
-183
10
-313.5
20
-180
10
-304.5
20
-180
10
-304.5
20
-183
10
-295.5
20
-183
10
-295.5
20
-180
10
-286.5
20
-180
10
-286.5
20
-183
10
-277.5
20
-183
10
-277.5
20
-180
10
-268.5
20
-180
10
-268.5
20
-183
10
-259.5
20
-183
10
-259.5
20
-180
10
-250.5
20
-180
10
-250.5
20
-183
10
-243
20
-183
10
-243
20
-169.5
10
-246
20
-169.5
10
-246
20
-160.5
10
-243
20
-160.5
10
-243
20
-151.5
10
-246
20
-151.5
10
-246
20
-142.5
10
-243
20
-142.5
10
-243
20
-133.5
10
-246
20
-133.5
10
-246
20
-124.50000000000001
10
-243
20
-124.50000000000001
10
-243
20
-115.5
10
-246
20
-115.5
10
-246
20
-106.5
10
-243
20
-106.5
10
-243
20
-93
10
-250.5
20
-93
10
-250.5
20
-96.000000000000014
10
-259.5
20
-96.000000000000014
10
-259.5
20
-93
10
-268.5
20
-93
10
-268.5
20
-96.000000000000014
10
-277.5
20
-96.000000000000014
10
-277.5
20
-93
10
-286.5
20
-93
10
-286.5
20
-96.000000000000014
10
-295.5
20
-96.000000000000014
10
-295.5
20
-93
10
-304.5
20
-93
10
-304.5
20
-96.000000000000014
10
-313.5
20
-96.000000000000014
10
-313.5
20
-93
10
-322.5
20
-93
10
-322.5
20
-96.000000000000014
10
-331.5
20
-96.000000000000014
10
-331.5
20
-93
10
-340.50000000000006
20
-93
10
-340.50000000000006
20
-96.000000000000014
10
-349.5
20
-96.000000000000014
10
-349.5
20
-93
10
-358.5
20
-93
10
-358.5
20
-96.000000000000014
10
-367.5
20
-96.000000000000014
10
-367.5
20
-93
10
-376.5
20
-93
10
-376.5
20
-96.000000000000014
10
-385.50000000000006
20
-96.000000000000014
10
-385.50000000000006
20
-93
10
-394.5
20
-93
10
-394.5
20
-96.000000000000014
10
-403.5
20
-96.000000000000014
10
-403.5
20
-93
10
-412.5
20
-93
10
-412.5
20
-96.000000000000014
10
-421.50000000000006
20
-96.000000000000014
10
-421.50000000000006
20
-93
10
-430.50000000000006
20
-93
10
-430.50000000000006
20
-96.000000000000014
10
-439.5
20
-96.000000000000014
10
-439.5
20
-93
10
-448.5
20
-93
10
-448.5
20
-96.000000000000014
10
-457.5
20
-96.000000000000014
10
-457.5
20
-93
10
-466.50000000000006
20
-93
10
-466.50000000000006
20
-96.000000000000014
10
-475.50000000000006
20
-96.000000000000014
10
-475.50000000000006
20
-93
10
-483.00000000000006
20
-93
10
-483.00000000000006
20
-106.5
10
-480
20
-106.5
10
-480
20
-115.5
10
-483.00000000000006
20
-115.5
10
-483.00000000000006
20
-124.50000000000001
10
-480
20
-124.50000000000001
10
-480
20
-133.5
10
-483.00000000000006
20
-133.5
10
-483.00000000000006
20
-142.5
10
-480
20
-142.5
10
-480
20
-151.5
10
-483.00000000000006
20
-151.5
10
-483.00000000000006
20
-160.5
10
-480
20
-160.5
10
-480
20
-169.5
0
ENDSEC
0
SECTION
2
OBJECTS
0
DICTIONARY
5
C
100
AcDbDictionary
3
ACAD_GROUP
350
D
3
ACAD_MLINESTYLE
350
17
0
DICTIONARY
5
D
100
AcDbDictionary
0
DICTIONARY
5
1A
330
C
100
AcDbDictionary
0
DICTIONARY
5
17
100
AcDbDictionary
0
ENDSEC
0
EOF
