0
SECTION
2
HEADER
9
$INSUNITS
70
4
9
$ACADVER
1
AC1014
9
$HANDSEED
5
FFFF
0
ENDSEC
0
SECTION
2
TABLES
0
TABLE
2
VPORT
5
8
100
AcDbSymbolTable
0
ENDTAB
0
TABLE
2
LTYPE
5
5
100
AcDbSymbolTable
0
LTYPE
5
14
100
AcDbSymbolTableRecord
100
AcDbLinetypeTableRecord
2
BYBLOCK
70
0
0
LTYPE
5
15
100
AcDbSymbolTableRecord
100
AcDbLinetypeTableRecord
2
BYLAYER
70
0
0
LTYPE
5
16
100
AcDbSymbolTableRecord
100
AcDbLinetypeTableRecord
2
DASHED
70
0
3
Dashed __ __ __ __ __ __ __ __ __ __ __ __ __ _
72
65
73
2
40
0.75
49
0.5
74
0
49
-0.25
74
0
0
ENDTAB
0
TABLE
2
LAYER
5
2
100
AcDbSymbolTable
70
2
0
LAYER
5
50
100
AcDbSymbolTableRecord
100
AcDbLayerTableRecord
2
0
70
0
62
7
6
CONTINUOUS
0
ENDTAB
0
TABLE
2
STYLE
5
3
100
AcDbSymbolTable
70
1
0
STYLE
5
11
100
AcDbSymbolTableRecord
100
AcDbTextStyleTableRecord
2
STANDARD
70
0
0
ENDTAB
0
TABLE
2
VIEW
5
6
100
AcDbSymbolTable
70
0
0
ENDTAB
0
TABLE
2
UCS
5
7
100
AcDbSymbolTable
70
0
0
ENDTAB
0
TABLE
2
APPID
5
9
100
AcDbSymbolTable
70
2
0
APPID
5
12
100
AcDbSymbolTableRecord
100
AcDbRegAppTableRecord
2
ACAD
70
0
0
ENDTAB
0
TABLE
2
DIMSTYLE
5
A
100
AcDbSymbolTable
70
1
0
ENDTAB
0
TABLE
2
BLOCK_RECORD
5
1
100
AcDbSymbolTable
70
1
0
BLOCK_RECORD
5
1F
100
AcDbSymbolTableRecord
100
AcDbBlockTableRecord
2
*MODEL_SPACE
0
BLOCK_RECORD
5
1B
100
AcDbSymbolTableRecord
100
AcDbBlockTableRecord
2
*PAPER_SPACE
0
ENDTAB
0
ENDSEC
0
SECTION
2
BLOCKS
0
BLOCK
5
20
100
AcDbEntity
100
AcDbBlockBegin
2
*MODEL_SPACE
0
ENDBLK
5
21
100
AcDbEntity
100
AcDbBlockEnd
0
BLOCK
5
1C
100
AcDbEntity
100
AcDbBlockBegin
2
*PAPER_SPACE
0
ENDBLK
5
1D
100
AcDbEntity
100
AcDbBlockEnd
0
ENDSEC
0
SECTION
2
ENTITIES
0
LWPOLYLINE
5
100
100
AcDbEntity
8
0
100
AcDbPolyline
90
12
70
1
43
0.0
10
-374.67900000000009
20
-91.643999999999991
10
-375.98700000000002
20
-91.643999999999991
10
-373.34717526545364
20
-89.49774022998632
10
-376.11900000000003
20
-85.908000000000001
10
-374.96699999999998
20
-85.908000000000001
10
-372.67781228494079
20
-88.953527268492934
10
-371.89500000000004
20
-88.317076487252137
10
-371.89500000000004
20
-85.908000000000001
10
-370.959
20
-85.908000000000001
10
-370.959
20
-94.092000000000013
10
-371.89500000000004
20
-94.092000000000013
10
-371.89500000000004
20
-89.316393442622967
0
LWPOLYLINE
5
101
100
AcDbEntity
8
0
100
AcDbPolyline
90
123
70
1
43
0.0
10
-353.80900000000003
20
-85.91500000000002
10
-353.66800000000006
20
-85.909999999999997
10
-353.52300000000008
20
-85.908000000000001
10
-350.70300000000003
20
-85.908000000000001
10
-350.70300000000003
20
-93.444000000000003
10
-353.52300000000008
20
-93.444000000000003
10
-353.68600000000004
20
-93.441000000000003
10
-353.84300000000002
20
-93.432999999999993
10
-353.99400000000009
20
-93.419000000000011
10
-354.13999999999999
20
-93.40000000000002
10
-354.28100000000001
20
-93.376000000000005
10
-354.41500000000008
20
-93.346000000000004
10
-354.5440000000001
20
-93.310000000000016
10
-354.66699999999997
20
-93.269000000000005
10
-354.78500000000003
20
-93.222999999999999
10
-354.89699999999999
20
-93.171000000000021
10
-355.00300000000004
20
-93.115000000000009
10
-355.10400000000004
20
-93.055000000000007
10
-355.20000000000005
20
-92.992000000000004
10
-355.29000000000002
20
-92.925000000000011
10
-355.37400000000002
20
-92.855000000000004
10
-355.45300000000003
20
-92.781000000000006
10
-355.52600000000007
20
-92.704000000000008
10
-355.59400000000005
20
-92.62299999999999
10
-355.65600000000006
20
-92.539000000000001
10
-355.71300000000002
20
-92.451000000000008
10
-355.76400000000001
20
-92.361000000000004
10
-355.81000000000006
20
-92.268999999999991
10
-355.85100000000006
20
-92.176000000000016
10
-355.88599999999997
20
-92.079999999999998
10
-355.916
20
-91.983999999999995
10
-355.94
20
-91.885000000000019
10
-355.959
20
-91.786000000000016
10
-355.97199999999998
20
-91.683999999999997
10
-355.98000000000008
20
-91.581000000000017
10
-355.983
20
-91.475999999999999
10
-355.97900000000004
20
-91.347999999999999
10
-355.96899999999999
20
-91.22399999999999
10
-355.95099999999996
20
-91.103000000000009
10
-355.92599999999999
20
-90.984999999999999
10
-355.89400000000006
20
-90.871000000000009
10
-355.85400000000004
20
-90.760000000000005
10
-355.80800000000005
20
-90.652999999999992
10
-355.755
20
-90.549000000000007
10
-355.69400000000002
20
-90.448000000000008
10
-355.62599999999998
20
-90.350999999999999
10
-355.55100000000004
20
-90.259
10
-355.46899999999999
20
-90.172000000000011
10
-355.38000000000005
20
-90.092000000000013
10
-355.28300000000002
20
-90.018000000000001
10
-355.18000000000001
20
-89.950000000000017
10
-355.06900000000002
20
-89.887999999999991
10
-354.95100000000002
20
-89.832000000000022
10
-354.82599999999996
20
-89.782000000000011
10
-354.69400000000002
20
-89.738
10
-354.55500000000001
20
-89.700000000000003
10
-354.64599999999996
20
-89.684000000000012
10
-354.73500000000001
20
-89.664000000000001
10
-354.822
20
-89.640000000000001
10
-354.90699999999998
20
-89.613
10
-354.98900000000003
20
-89.582000000000022
10
-355.06900000000002
20
-89.547999999999988
10
-355.14699999999999
20
-89.510000000000005
10
-355.22300000000001
20
-89.467999999999989
10
-355.29699999999997
20
-89.422000000000011
10
-355.36800000000005
20
-89.37299999999999
10
-355.43699999999995
20
-89.320999999999998
10
-355.50199999999995
20
-89.266000000000005
10
-355.565
20
-89.209999999999994
10
-355.62400000000002
20
-89.15100000000001
10
-355.68100000000004
20
-89.090000000000003
10
-355.73400000000004
20
-89.02600000000001
10
-355.78399999999999
20
-88.959999999999994
10
-355.83199999999999
20
-88.89200000000001
10
-355.87600000000003
20
-88.822000000000003
10
-355.91699999999997
20
-88.748999999999995
10
-355.95500000000004
20
-88.674999999999997
10
-355.98800000000006
20
-88.59899999999999
10
-356.01800000000003
20
-88.522999999999996
10
-356.04400000000004
20
-88.445999999999998
10
-356.06500000000005
20
-88.367000000000004
10
-356.08300000000008
20
-88.287999999999997
10
-356.09699999999998
20
-88.207000000000008
10
-356.10700000000003
20
-88.126000000000019
10
-356.11300000000006
20
-88.042999999999992
10
-356.11500000000001
20
-87.959999999999994
10
-356.11400000000003
20
-87.882999999999996
10
-356.11000000000001
20
-87.807000000000016
10
-356.10300000000001
20
-87.731000000000009
10
-356.09399999999999
20
-87.656000000000006
10
-356.08300000000008
20
-87.581000000000003
10
-356.06900000000002
20
-87.506
10
-356.05199999999996
20
-87.430999999999997
10
-356.03200000000004
20
-87.357000000000014
10
-356.01099999999997
20
-87.282999999999987
10
-355.98599999999999
20
-87.210000000000008
10
-355.95800000000003
20
-87.137999999999991
10
-355.92800000000005
20
-87.066000000000003
10
-355.89300000000003
20
-86.997000000000014
10
-355.85500000000002
20
-86.929000000000002
10
-355.81400000000002
20
-86.862000000000009
10
-355.76999999999998
20
-86.797000000000025
10
-355.72200000000004
20
-86.73299999999999
10
-355.67000000000002
20
-86.670000000000002
10
-355.61500000000001
20
-86.609999999999999
10
-355.55699999999996
20
-86.549999999999997
10
-355.495
20
-86.492000000000004
10
-355.42900000000003
20
-86.437000000000012
10
-355.35900000000004
20
-86.384000000000015
10
-355.28500000000003
20
-86.334000000000003
10
-355.20699999999999
20
-86.286000000000001
10
-355.12599999999998
20
-86.240000000000009
10
-355.04000000000008
20
-86.197000000000003
10
-354.94999999999999
20
-86.156000000000006
10
-354.85700000000003
20
-86.118000000000009
10
-354.75900000000001
20
-86.082000000000022
10
-354.65699999999998
20
-86.048999999999992
10
-354.55000000000007
20
-86.018999999999991
10
-354.43900000000008
20
-85.992999999999995
10
-354.32199999999995
20
-85.971000000000004
10
-354.20099999999996
20
-85.951000000000008
10
-354.07499999999999
20
-85.936000000000007
10
-353.94400000000007
20
-85.923999999999992
0
LWPOLYLINE
5
102
100
AcDbEntity
8
0
100
AcDbPolyline
90
216
70
1
43
0.0
10
-360.00699999999995
20
-85.776000000000025
10
-359.88400000000007
20
-85.76700000000001
10
-359.75699999999995
20
-85.763999999999996
10
-359.61800000000005
20
-85.76700000000001
10
-359.48400000000004
20
-85.774000000000001
10
-359.3540000000001
20
-85.787000000000006
10
-359.23000000000002
20
-85.804000000000002
10
-359.11099999999999
20
-85.827000000000012
10
-358.99599999999998
20
-85.855000000000018
10
-358.88599999999997
20
-85.887000000000015
10
-358.78199999999998
20
-85.924999999999997
10
-358.68199999999996
20
-85.968000000000004
10
-358.58699999999999
20
-86.01600000000002
10
-358.49699999999996
20
-86.067999999999998
10
-358.41200000000003
20
-86.12299999999999
10
-358.33099999999996
20
-86.180999999999997
10
-358.255
20
-86.242000000000004
10
-358.18300000000011
20
-86.305000000000007
10
-358.11699999999996
20
-86.372000000000014
10
-358.05500000000001
20
-86.442000000000007
10
-357.99800000000005
20
-86.515000000000001
10
-357.94499999999999
20
-86.591000000000008
10
-357.89700000000005
20
-86.670000000000002
10
-357.85400000000004
20
-86.751000000000005
10
-357.815
20
-86.832000000000008
10
-357.78100000000001
20
-86.91500000000002
10
-357.75100000000003
20
-86.99799999999999
10
-357.72600000000006
20
-87.082000000000022
10
-357.70499999999998
20
-87.167999999999992
10
-357.69
20
-87.252999999999986
10
-357.67800000000011
20
-87.340000000000003
10
-357.67099999999999
20
-87.428000000000011
10
-357.6690000000001
20
-87.51600000000002
10
-357.67199999999997
20
-87.629999999999995
10
-357.68099999999998
20
-87.739999999999995
10
-357.69499999999999
20
-87.846000000000004
10
-357.71600000000001
20
-87.947000000000003
10
-357.74200000000002
20
-88.043999999999997
10
-357.774
20
-88.137
10
-357.81200000000001
20
-88.224999999999994
10
-357.85500000000008
20
-88.308999999999997
10
-357.90500000000003
20
-88.38900000000001
10
-357.95999999999998
20
-88.464000000000013
10
-358.01999999999998
20
-88.534999999999997
10
-358.08500000000004
20
-88.603000000000009
10
-358.15400000000005
20
-88.665999999999997
10
-358.22699999999998
20
-88.725999999999999
10
-358.30400000000003
20
-88.78100000000002
10
-358.38599999999997
20
-88.832999999999998
10
-358.47199999999998
20
-88.881
10
-358.56199999999995
20
-88.924999999999997
10
-358.65600000000001
20
-88.965000000000018
10
-358.755
20
-89.001000000000005
10
-358.85699999999997
20
-89.033000000000001
10
-358.96199999999999
20
-89.063000000000002
10
-359.06900000000002
20
-89.087999999999994
10
-359.17800000000005
20
-89.109999999999999
10
-359.291
20
-89.128999999999991
10
-359.40499999999997
20
-89.14500000000001
10
-359.52199999999999
20
-89.157000000000011
10
-359.642
20
-89.165000000000006
10
-359.76400000000007
20
-89.170000000000002
10
-359.88900000000001
20
-89.172000000000011
10
-359.9790000000001
20
-89.171000000000021
10
-360.06900000000002
20
-89.168000000000006
10
-360.15899999999999
20
-89.164000000000016
10
-360.24900000000002
20
-89.157999999999987
10
-360.33999999999997
20
-89.150000000000006
10
-360.43000000000001
20
-89.140000000000001
10
-360.51999999999998
20
-89.127999999999986
10
-360.61100000000005
20
-89.11399999999999
10
-360.70099999999996
20
-89.09899999999999
10
-360.79200000000003
20
-89.082000000000008
10
-360.88199999999995
20
-89.063000000000002
10
-360.97199999999998
20
-89.042999999999992
10
-361.06199999999995
20
-89.022000000000006
10
-361.15100000000007
20
-88.999000000000009
10
-361.24000000000001
20
-88.974999999999994
10
-361.32800000000003
20
-88.950000000000017
10
-361.41600000000005
20
-88.924000000000007
10
-361.5030000000001
20
-88.896000000000001
10
-361.58999999999997
20
-88.867000000000019
10
-361.59300000000002
20
-88.865931034482756
10
-361.59300000000002
20
-89.628
10
-361.58999999999997
20
-89.778000000000006
10
-361.58000000000004
20
-89.920000000000016
10
-361.5630000000001
20
-90.052999999999997
10
-361.54000000000002
20
-90.177999999999997
10
-361.51000000000005
20
-90.292999999999992
10
-361.47399999999999
20
-90.400000000000006
10
-361.43099999999998
20
-90.49799999999999
10
-361.38199999999995
20
-90.587999999999994
10
-361.32599999999996
20
-90.669000000000011
10
-361.26300000000009
20
-90.741
10
-361.19400000000007
20
-90.805000000000007
10
-361.11800000000011
20
-90.863
10
-361.03500000000003
20
-90.914000000000001
10
-360.94600000000003
20
-90.957999999999998
10
-360.85100000000006
20
-90.995000000000005
10
-360.74800000000005
20
-91.02600000000001
10
-360.63900000000001
20
-91.048999999999992
10
-360.524
20
-91.066000000000003
10
-360.40199999999999
20
-91.077000000000012
10
-360.27300000000002
20
-91.080000000000013
10
-360.19900000000001
20
-91.078999999999994
10
-360.12699999999995
20
-91.076000000000022
10
-360.05600000000004
20
-91.069999999999993
10
-359.98600000000005
20
-91.062999999999988
10
-359.91800000000006
20
-91.052999999999997
10
-359.851
20
-91.041000000000011
10
-359.786
20
-91.027000000000001
10
-359.72199999999998
20
-91.01100000000001
10
-359.65899999999999
20
-90.992999999999995
10
-359.59800000000001
20
-90.972000000000008
10
-359.53899999999999
20
-90.949000000000012
10
-359.48199999999997
20
-90.923999999999992
10
-359.42800000000005
20
-90.897000000000006
10
-359.37599999999998
20
-90.867000000000004
10
-359.32700000000006
20
-90.834999999999994
10
-359.27999999999997
20
-90.799999999999997
10
-359.23599999999999
20
-90.763000000000005
10
-359.19400000000002
20
-90.724000000000004
10
-359.15500000000003
20
-90.682999999999993
10
-359.11800000000005
20
-90.63900000000001
10
-359.084
20
-90.592999999999989
10
-359.05400000000009
20
-90.543999999999997
10
-359.02800000000008
20
-90.492000000000004
10
-359.005
20
-90.437999999999988
10
-358.98500000000007
20
-90.382000000000019
10
-358.96900000000005
20
-90.322999999999993
10
-358.95699999999999
20
-90.26100000000001
10
-358.94800000000004
20
-90.195999999999998
10
-358.9430000000001
20
-90.129999999999995
10
-358.94100000000003
20
-90.060000000000002
10
-357.89700000000005
20
-90.060000000000002
10
-357.89999999999998
20
-90.182000000000002
10
-357.90899999999999
20
-90.299999999999997
10
-357.92500000000007
20
-90.412999999999997
10
-357.94599999999997
20
-90.519999999999996
10
-357.97400000000005
20
-90.62299999999999
10
-358.00700000000001
20
-90.721000000000004
10
-358.04699999999997
20
-90.814999999999998
10
-358.09300000000002
20
-90.902999999999992
10
-358.14500000000004
20
-90.986000000000018
10
-358.20300000000003
20
-91.064999999999998
10
-358.26700000000005
20
-91.138999999999996
10
-358.33500000000004
20
-91.209000000000003
10
-358.40699999999998
20
-91.275000000000006
10
-358.48500000000001
20
-91.335999999999999
10
-358.56699999999995
20
-91.394000000000005
10
-358.65300000000002
20
-91.447000000000003
10
-358.74500000000006
20
-91.495000000000019
10
-358.84000000000003
20
-91.54000000000002
10
-358.94100000000003
20
-91.581000000000017
10
-359.04600000000005
20
-91.617000000000019
10
-359.15500000000003
20
-91.649000000000015
10
-359.26700000000005
20
-91.679000000000016
10
-359.38199999999995
20
-91.703999999999994
10
-359.5
20
-91.726000000000013
10
-359.62099999999998
20
-91.745000000000005
10
-359.745
20
-91.761000000000024
10
-359.87300000000005
20
-91.77300000000001
10
-360.00300000000004
20
-91.781000000000006
10
-360.13699999999994
20
-91.786000000000016
10
-360.27300000000002
20
-91.788000000000011
10
-360.404
20
-91.786000000000016
10
-360.53100000000001
20
-91.778999999999996
10
-360.65600000000006
20
-91.767999999999986
10
-360.77699999999999
20
-91.752000000000024
10
-360.89599999999996
20
-91.73299999999999
10
-361.01099999999997
20
-91.707999999999998
10
-361.12300000000005
20
-91.679000000000016
10
-361.233
20
-91.646000000000001
10
-361.33900000000006
20
-91.608000000000004
10
-361.4430000000001
20
-91.566000000000003
10
-361.54300000000001
20
-91.518999999999991
10
-361.63800000000003
20
-91.467000000000013
10
-361.72900000000004
20
-91.409000000000006
10
-361.815
20
-91.347000000000008
10
-361.89700000000005
20
-91.278999999999996
10
-361.97500000000002
20
-91.206000000000017
10
-362.048
20
-91.127000000000024
10
-362.11700000000002
20
-91.043999999999997
10
-362.18099999999998
20
-90.954999999999998
10
-362.24099999999999
20
-90.861000000000004
10
-362.29599999999999
20
-90.761000000000024
10
-362.34500000000003
20
-90.65600000000002
10
-362.38800000000003
20
-90.545000000000016
10
-362.42500000000001
20
-90.427999999999997
10
-362.45699999999999
20
-90.305000000000021
10
-362.483
20
-90.177000000000021
10
-362.50300000000004
20
-90.042000000000002
10
-362.517
20
-89.902000000000001
10
-362.52600000000001
20
-89.756
10
-362.52900000000005
20
-89.603999999999999
10
-362.52900000000005
20
-85.908000000000001
10
-361.71300000000002
20
-85.908000000000001
10
-361.61424050632911
20
-86.944974683544288
10
-361.57199999999995
20
-86.856000000000009
10
-361.51999999999998
20
-86.760000000000005
10
-361.464
20
-86.667000000000002
10
-361.40300000000002
20
-86.578000000000003
10
-361.33900000000006
20
-86.492999999999995
10
-361.27000000000004
20
-86.412000000000006
10
-361.19699999999995
20
-86.334999999999994
10
-361.11900000000003
20
-86.26100000000001
10
-361.03699999999998
20
-86.192000000000007
10
-360.95099999999996
20
-86.126000000000005
10
-360.86099999999999
20
-86.063999999999993
10
-360.76700000000005
20
-86.007000000000019
10
-360.66900000000004
20
-85.956000000000017
10
-360.56800000000004
20
-85.911000000000001
10
-360.46300000000002
20
-85.872000000000014
10
-360.35400000000004
20
-85.838999999999999
10
-360.24200000000002
20
-85.812000000000012
10
-360.12599999999998
20
-85.790999999999997
0
LWPOLYLINE
5
103
100
AcDbEntity
8
0
100
AcDbPolyline
90
232
70
1
43
0.0
10
-367.05599999999998
20
-85.775000000000006
10
-366.92200000000003
20
-85.76700000000001
10
-366.78300000000002
20
-85.763999999999996
10
-366.64600000000002
20
-85.767999999999986
10
-366.51099999999997
20
-85.778999999999996
10
-366.37699999999995
20
-85.797000000000011
10
-366.24599999999998
20
-85.823999999999998
10
-366.11600000000004
20
-85.857000000000014
10
-365.98800000000006
20
-85.897999999999996
10
-365.86300000000006
20
-85.945999999999998
10
-365.73900000000003
20
-86.00200000000001
10
-365.61599999999999
20
-86.064999999999998
10
-365.49599999999998
20
-86.136000000000024
10
-365.37900000000002
20
-86.212999999999994
10
-365.26599999999996
20
-86.297000000000011
10
-365.15899999999999
20
-86.387
10
-365.05500000000006
20
-86.48299999999999
10
-364.95699999999999
20
-86.585000000000008
10
-364.86300000000006
20
-86.692999999999998
10
-364.77300000000008
20
-86.807000000000002
10
-364.68900000000008
20
-86.927000000000007
10
-364.60900000000004
20
-87.052999999999997
10
-364.53300000000007
20
-87.186000000000007
10
-364.46300000000002
20
-87.323999999999998
10
-364.40100000000001
20
-87.467000000000027
10
-364.346
20
-87.614999999999995
10
-364.29900000000004
20
-87.768000000000001
10
-364.25900000000007
20
-87.925000000000011
10
-364.226
20
-88.087999999999994
10
-364.20000000000005
20
-88.256
10
-364.18200000000002
20
-88.427999999999997
10
-364.17099999999999
20
-88.606000000000023
10
-364.16699999999997
20
-88.787999999999997
10
-364.17099999999999
20
-88.974999999999994
10
-364.18200000000002
20
-89.156000000000006
10
-364.20000000000005
20
-89.332000000000008
10
-364.226
20
-89.50200000000001
10
-364.25900000000007
20
-89.667000000000016
10
-364.29900000000004
20
-89.826000000000022
10
-364.346
20
-89.980000000000018
10
-364.40100000000001
20
-90.127999999999986
10
-364.46300000000002
20
-90.271000000000015
10
-364.53300000000007
20
-90.407999999999987
10
-364.60900000000004
20
-90.539000000000001
10
-364.68900000000008
20
-90.664000000000001
10
-364.77300000000008
20
-90.782999999999987
10
-364.86300000000006
20
-90.894999999999996
10
-364.95699999999999
20
-91.001000000000005
10
-365.05500000000006
20
-91.099999999999994
10
-365.15899999999999
20
-91.193000000000012
10
-365.26599999999996
20
-91.280000000000001
10
-365.37900000000002
20
-91.360000000000014
10
-365.49599999999998
20
-91.433999999999997
10
-365.61599999999999
20
-91.501000000000005
10
-365.73900000000003
20
-91.561000000000007
10
-365.86300000000006
20
-91.615000000000009
10
-365.98800000000006
20
-91.661000000000001
10
-366.11600000000004
20
-91.700000000000003
10
-366.24599999999998
20
-91.731000000000023
10
-366.37699999999995
20
-91.756000000000014
10
-366.51099999999997
20
-91.774000000000001
10
-366.64600000000002
20
-91.783999999999992
10
-366.78300000000002
20
-91.788000000000011
10
-366.87900000000008
20
-91.787000000000006
10
-366.97300000000007
20
-91.782000000000025
10
-367.06600000000003
20
-91.775000000000006
10
-367.15600000000001
20
-91.763999999999996
10
-367.24400000000003
20
-91.751000000000005
10
-367.33100000000002
20
-91.735000000000014
10
-367.41500000000002
20
-91.716000000000008
10
-367.49699999999996
20
-91.694000000000017
10
-367.57800000000003
20
-91.668999999999997
10
-367.65600000000001
20
-91.64100000000002
10
-367.73199999999997
20
-91.609999999999999
10
-367.80699999999996
20
-91.578000000000003
10
-367.87900000000002
20
-91.542999999999992
10
-367.95000000000005
20
-91.506
10
-368.01800000000009
20
-91.466000000000008
10
-368.08500000000004
20
-91.424999999999997
10
-368.149
20
-91.381
10
-368.21199999999999
20
-91.334999999999994
10
-368.27199999999999
20
-91.286000000000001
10
-368.33099999999996
20
-91.236000000000018
10
-368.38800000000003
20
-91.183999999999997
10
-368.44199999999995
20
-91.129999999999995
10
-368.495
20
-91.075000000000003
10
-368.54599999999999
20
-91.018999999999991
10
-368.59399999999999
20
-90.960999999999999
10
-368.64100000000002
20
-90.902000000000015
10
-368.68600000000004
20
-90.841000000000008
10
-368.72800000000007
20
-90.778999999999996
10
-368.76900000000001
20
-90.716000000000022
10
-368.80800000000011
20
-90.65100000000001
10
-368.84500000000003
20
-90.585000000000008
10
-368.88
20
-90.519000000000005
10
-368.91199999999998
20
-90.452000000000012
10
-368.9430000000001
20
-90.384000000000015
10
-368.97199999999998
20
-90.316000000000003
10
-368.99900000000002
20
-90.247000000000014
10
-369.024
20
-90.177000000000021
10
-369.04699999999997
20
-90.107000000000014
10
-369.06800000000004
20
-90.036000000000001
10
-369.08700000000005
20
-89.963999999999999
10
-368.12700000000001
20
-89.879999999999995
10
-368.09500000000008
20
-89.977999999999994
10
-368.05900000000003
20
-90.070999999999998
10
-368.01900000000001
20
-90.159999999999997
10
-367.97500000000008
20
-90.245000000000019
10
-367.92699999999996
20
-90.326000000000008
10
-367.875
20
-90.403000000000006
10
-367.81900000000002
20
-90.476000000000013
10
-367.75800000000004
20
-90.543999999999997
10
-367.69400000000007
20
-90.609000000000009
10
-367.62599999999998
20
-90.669000000000011
10
-367.55400000000003
20
-90.724000000000004
10
-367.4790000000001
20
-90.774000000000001
10
-367.40200000000004
20
-90.817000000000007
10
-367.32099999999997
20
-90.855000000000018
10
-367.23700000000002
20
-90.887000000000015
10
-367.14999999999998
20
-90.913000000000011
10
-367.06000000000006
20
-90.934000000000012
10
-366.96600000000001
20
-90.947999999999993
10
-366.87000000000006
20
-90.957000000000008
10
-366.77099999999996
20
-90.960000000000008
10
-366.68599999999998
20
-90.957999999999998
10
-366.60300000000001
20
-90.950000000000003
10
-366.51999999999998
20
-90.938000000000002
10
-366.43800000000005
20
-90.921000000000006
10
-366.35800000000006
20
-90.899000000000001
10
-366.27800000000002
20
-90.87299999999999
10
-366.19999999999999
20
-90.841000000000008
10
-366.12199999999996
20
-90.804000000000002
10
-366.04599999999999
20
-90.763000000000005
10
-365.97000000000003
20
-90.717000000000013
10
-365.89599999999996
20
-90.665999999999997
10
-365.82600000000002
20
-90.609999999999999
10
-365.7580000000001
20
-90.549999999999997
10
-365.69300000000004
20
-90.483999999999995
10
-365.63
20
-90.414000000000016
10
-365.57099999999997
20
-90.339000000000013
10
-365.51400000000001
20
-90.259
10
-365.45999999999998
20
-90.174999999999997
10
-365.40899999999999
20
-90.084999999999994
10
-365.36099999999999
20
-89.991
10
-365.31699999999995
20
-89.892000000000024
10
-365.27700000000004
20
-89.787999999999997
10
-365.24200000000002
20
-89.680000000000021
10
-365.21100000000001
20
-89.567000000000007
10
-365.18500000000006
20
-89.449000000000012
10
-365.16399999999999
20
-89.326000000000008
10
-365.14800000000002
20
-89.198999999999998
10
-365.13599999999997
20
-89.067000000000007
10
-365.12900000000002
20
-88.930000000000007
10
-365.12699999999995
20
-88.787999999999997
10
-365.12900000000002
20
-88.657000000000025
10
-365.13599999999997
20
-88.528999999999996
10
-365.14599999999996
20
-88.404000000000011
10
-365.161
20
-88.284000000000006
10
-365.18000000000001
20
-88.165999999999997
10
-365.20400000000001
20
-88.053000000000011
10
-365.23099999999999
20
-87.942000000000021
10
-365.26300000000003
20
-87.835999999999999
10
-365.30000000000001
20
-87.73299999999999
10
-365.33999999999997
20
-87.632999999999996
10
-365.38400000000001
20
-87.537000000000006
10
-365.43200000000002
20
-87.445999999999998
10
-365.48200000000003
20
-87.358999999999995
10
-365.53600000000006
20
-87.277000000000001
10
-365.59300000000002
20
-87.199000000000012
10
-365.65300000000002
20
-87.125
10
-365.71600000000001
20
-87.056000000000012
10
-365.78300000000007
20
-86.991
10
-365.85199999999998
20
-86.930000000000007
10
-365.92500000000001
20
-86.873999999999995
10
-366
20
-86.822999999999993
10
-366.07800000000003
20
-86.777000000000001
10
-366.15699999999998
20
-86.736000000000004
10
-366.23900000000003
20
-86.701000000000022
10
-366.322
20
-86.671000000000021
10
-366.40800000000007
20
-86.64700000000002
10
-366.49599999999998
20
-86.627999999999986
10
-366.58499999999998
20
-86.615000000000009
10
-366.67699999999996
20
-86.607000000000028
10
-366.77099999999996
20
-86.604000000000013
10
-366.90100000000001
20
-86.607000000000028
10
-367.02499999999998
20
-86.617000000000019
10
-367.142
20
-86.632999999999996
10
-367.25199999999995
20
-86.656000000000006
10
-367.35700000000003
20
-86.686000000000007
10
-367.45499999999998
20
-86.722000000000023
10
-367.54600000000005
20
-86.763999999999996
10
-367.63100000000003
20
-86.812999999999988
10
-367.71000000000004
20
-86.869
10
-367.78199999999998
20
-86.930999999999997
10
-367.84800000000007
20
-86.998999999999995
10
-367.90600000000006
20
-87.072000000000003
10
-367.95800000000008
20
-87.15000000000002
10
-368.00300000000004
20
-87.233000000000004
10
-368.041
20
-87.322000000000003
10
-368.07199999999995
20
-87.415000000000006
10
-368.096
20
-87.51400000000001
10
-368.11300000000011
20
-87.617000000000019
10
-368.12400000000002
20
-87.725999999999999
10
-368.12700000000001
20
-87.840000000000003
10
-369.08700000000005
20
-87.840000000000003
10
-369.084
20
-87.721000000000004
10
-369.07599999999996
20
-87.605000000000004
10
-369.06200000000001
20
-87.492000000000004
10
-369.04199999999997
20
-87.381000000000014
10
-369.017
20
-87.272999999999996
10
-368.98500000000007
20
-87.167999999999992
10
-368.94900000000001
20
-87.064999999999998
10
-368.90700000000004
20
-86.963999999999999
10
-368.85900000000004
20
-86.867000000000004
10
-368.80500000000006
20
-86.772000000000006
10
-368.74599999999998
20
-86.680000000000007
10
-368.68300000000005
20
-86.593000000000004
10
-368.61400000000003
20
-86.509
10
-368.54100000000005
20
-86.429000000000002
10
-368.46400000000006
20
-86.352999999999994
10
-368.38099999999997
20
-86.282000000000011
10
-368.2940000000001
20
-86.213999999999999
10
-368.202
20
-86.150000000000006
10
-368.10500000000002
20
-86.090000000000003
10
-368.00400000000002
20
-86.033999999999992
10
-367.89800000000008
20
-85.983000000000004
10
-367.78899999999999
20
-85.937000000000012
10
-367.67600000000004
20
-85.896000000000015
10
-367.56
20
-85.861000000000004
10
-367.43900000000002
20
-85.832000000000022
10
-367.31500000000005
20
-85.807000000000002
10
-367.1880000000001
20
-85.787999999999997
0
LWPOLYLINE
5
104
100
AcDbEntity
8
0
100
AcDbPolyline
90
180
70
1
43
0.0
10
-480
20
-166.50000000000003
10
-480
20
-180
10
-475.50000000000006
20
-180
10
-475.50000000000006
20
-177
10
-466.50000000000006
20
-177
10
-466.50000000000006
20
-180
10
-457.5
20
-180
10
-457.5
20
-177
10
-448.5
20
-177
10
-448.5
20
-180
10
-439.5
20
-180
10
-439.5
20
-177
10
-430.50000000000006
20
-177
10
-430.50000000000006
20
-180
10
-421.50000000000006
20
-180
10
-421.50000000000006
20
-177
10
-412.5
20
-177
10
-412.5
20
-180
10
-403.5
20
-180
10
-403.5
20
-177
10
-394.5
20
-177
10
-394.5
20
-180
10
-385.50000000000006
20
-180
10
-385.50000000000006
20
-177
10
-376.5
20
-177
10
-376.5
20
-180
10
-367.5
20
-180
10
-367.5
20
-177
10
-358.5
20
-177
10
-358.5
20
-180
10
-349.5
20
-180
10
-349.5
20
-177
10
-340.50000000000006
20
-177
10
-340.50000000000006
20
-180
10
-331.5
20
-180
10
-331.5
20
-177
10
-322.5
20
-177
10
-322.5
20
-180
10
-313.5
20
-180
10
-313.5
20
-177
10
-304.5
20
-177
10
-304.5
20
-180
10
-295.5
20
-180
10
-295.5
20
-177
10
-286.5
20
-177
10
-286.5
20
-180
10
-277.5
20
-180
10
-277.5
20
-177
10
-268.5
20
-177
10
-268.5
20
-180
10
-259.5
20
-180
10
-259.5
20
-177
10
-250.5
20
-177
10
-250.5
20
-180
10
-246
20
-180
10
-246
20
-166.50000000000003
10
-243
20
-166.50000000000003
10
-243
20
-157.5
10
-246
20
-157.5
10
-246
20
-148.5
10
-243
20
-148.5
10
-243
20
-139.5
10
-246
20
-139.5
10
-246
20
-130.5
10
-243
20
-130.5
10
-243
20
-121.5
10
-246
20
-121.5
10
-246
20
-112.5
10
-243
20
-112.5
10
-243
20
-103.50000000000001
10
-246
20
-103.50000000000001
10
-246
20
-94.500000000000014
10
-243
20
-94.500000000000014
10
-243
20
-85.5
10
-246
20
-85.5
10
-246
20
-76.5
10
-243
20
-76.5
10
-243
20
-67.5
10
-246
20
-67.5
10
-246
20
-58.500000000000007
10
-243
20
-58.500000000000007
10
-243
20
-49.5
10
-246
20
-49.5
10
-246
20
-40.5
10
-243
20
-40.5
10
-243
20
-31.500000000000004
10
-246
20
-31.500000000000004
10
-246
20
-22.5
10
-243
20
-22.5
10
-243
20
-13.499999999999996
10
-246
20
-13.499999999999996
10
-246
20
0
10
-250.5
20
0
10
-250.5
20
-3.0000000000000071
10
-259.5
20
-3.0000000000000071
10
-259.5
20
0
10
-268.5
20
0
10
-268.5
20
-3.0000000000000071
10
-277.5
20
-3.0000000000000071
10
-277.5
20
0
10
-286.5
20
0
10
-286.5
20
-3.0000000000000071
10
-295.5
20
-3.0000000000000071
10
-295.5
20
0
10
-304.5
20
0
10
-304.5
20
-3.0000000000000071
10
-313.5
20
-3.0000000000000071
10
-313.5
20
0
10
-322.5
20
0
10
-322.5
20
-3.0000000000000071
10
-331.5
20
-3.0000000000000071
10
-331.5
20
0
10
-340.50000000000006
20
0
10
-340.50000000000006
20
-3.0000000000000071
10
-349.5
20
-3.0000000000000071
10
-349.5
20
0
10
-358.5
20
0
10
-358.5
20
-3.0000000000000071
10
-367.5
20
-3.0000000000000071
10
-367.5
20
0
10
-376.5
20
0
10
-376.5
20
-3.0000000000000071
10
-385.50000000000006
20
-3.0000000000000071
10
-385.50000000000006
20
0
10
-394.5
20
0
10
-394.5
20
-3.0000000000000071
10
-403.5
20
-3.0000000000000071
10
-403.5
20
0
10
-412.5
20
0
10
-412.5
20
-3.0000000000000071
10
-421.50000000000006
20
-3.0000000000000071
10
-421.50000000000006
20
0
10
-430.50000000000006
20
0
10
-430.50000000000006
20
-3.0000000000000071
10
-439.5
20
-3.0000000000000071
10
-439.5
20
0
10
-448.5
20
0
10
-448.5
20
-3.0000000000000071
10
-457.5
20
-3.0000000000000071
10
-457.5
20
0
10
-466.50000000000006
20
0
10
-466.50000000000006
20
-3.0000000000000071
10
-475.50000000000006
20
-3.0000000000000071
10
-475.50000000000006
20
0
10
-480
20
0
10
-480
20
-13.499999999999996
10
-483.00000000000006
20
-13.499999999999996
10
-483.00000000000006
20
-22.5
10
-480
20
-22.5
10
-480
20
-31.500000000000004
10
-483.00000000000006
20
-31.500000000000004
10
-483.00000000000006
20
-40.5
10
-480
20
-40.5
10
-480
20
-49.5
10
-483.00000000000006
20
-49.5
10
-483.00000000000006
20
-58.500000000000007
10
-480
20
-58.500000000000007
10
-480
20
-67.5
10
-483.00000000000006
20
-67.5
10
-483.00000000000006
20
-76.5
10
-480
20
-76.5
10
-480
20
-85.5
10
-483.00000000000006
20
-85.5
10
-483.00000000000006
20
-94.500000000000014
10
-480
20
-94.500000000000014
10
-480
20
-103.50000000000001
10
-483.00000000000006
20
-103.50000000000001
10
-483.00000000000006
20
-112.5
10
-480
20
-112.5
10
-480
20
-121.5
10
-483.00000000000006
20
-121.5
10
-483.00000000000006
20
-130.5
10
-480
20
-130.5
10
-480
20
-139.5
10
-483.00000000000006
20
-139.5
10
-483.00000000000006
20
-148.5
10
-480
20
-148.5
10
-480
20
-157.5
10
-483.00000000000006
20
-157.5
10
-483.00000000000006
20
-166.50000000000003
0
ENDSEC
0
SECTION
2
OBJECTS
0
DICTIONARY
5
C
100
AcDbDictionary
3
ACAD_GROUP
350
D
3
ACAD_MLINESTYLE
350
17
0
DICTIONARY
5
D
100
AcDbDictionary
0
DICTIONARY
5
1A
330
C
100
AcDbDictionary
0
DICTIONARY
5
17
100
AcDbDictionary
0
ENDSEC
0
EOF
