0
SECTION
2
HEADER
9
$INSUNITS
70
4
9
$ACADVER
1
AC1014
9
$HANDSEED
5
FFFF
0
ENDSEC
0
SECTION
2
TABLES
0
TABLE
2
VPORT
5
8
100
AcDbSymbolTable
0
ENDTAB
0
TABLE
2
LTYPE
5
5
100
AcDbSymbolTable
0
LTYPE
5
14
100
AcDbSymbolTableRecord
100
AcDbLinetypeTableRecord
2
BYBLOCK
70
0
0
LTYPE
5
15
100
AcDbSymbolTableRecord
100
AcDbLinetypeTableRecord
2
BYLAYER
70
0
0
LTYPE
5
16
100
AcDbSymbolTableRecord
100
AcDbLinetypeTableRecord
2
DASHED
70
0
3
Dashed __ __ __ __ __ __ __ __ __ __ __ __ __ _
72
65
73
2
40
0.75
49
0.5
74
0
49
-0.25
74
0
0
ENDTAB
0
TABLE
2
LAYER
5
2
100
AcDbSymbolTable
70
2
0
LAYER
5
50
100
AcDbSymbolTableRecord
100
AcDbLayerTableRecord
2
0
70
0
62
7
6
CONTINUOUS
0
ENDTAB
0
TABLE
2
STYLE
5
3
100
AcDbSymbolTable
70
1
0
STYLE
5
11
100
AcDbSymbolTableRecord
100
AcDbTextStyleTableRecord
2
STANDARD
70
0
0
ENDTAB
0
TABLE
2
VIEW
5
6
100
AcDbSymbolTable
70
0
0
ENDTAB
0
TABLE
2
UCS
5
7
100
AcDbSymbolTable
70
0
0
ENDTAB
0
TABLE
2
APPID
5
9
100
AcDbSymbolTable
70
2
0
APPID
5
12
100
AcDbSymbolTableRecord
100
AcDbRegAppTableRecord
2
ACAD
70
0
0
ENDTAB
0
TABLE
2
DIMSTYLE
5
A
100
AcDbSymbolTable
70
1
0
ENDTAB
0
TABLE
2
BLOCK_RECORD
5
1
100
AcDbSymbolTable
70
1
0
BLOCK_RECORD
5
1F
100
AcDbSymbolTableRecord
100
AcDbBlockTableRecord
2
*MODEL_SPACE
0
BLOCK_RECORD
5
1B
100
AcDbSymbolTableRecord
100
AcDbBlockTableRecord
2
*PAPER_SPACE
0
ENDTAB
0
ENDSEC
0
SECTION
2
BLOCKS
0
BLOCK
5
20
100
AcDbEntity
100
AcDbBlockBegin
2
*MODEL_SPACE
0
ENDBLK
5
21
100
AcDbEntity
100
AcDbBlockEnd
0
BLOCK
5
1C
100
AcDbEntity
100
AcDbBlockBegin
2
*PAPER_SPACE
0
ENDBLK
5
1D
100
AcDbEntity
100
AcDbBlockEnd
0
ENDSEC
0
SECTION
2
ENTITIES
0
LWPOLYLINE
5
100
100
AcDbEntity
8
0
100
AcDbPolyline
90
120
70
1
43
0.0
10
-612.21699999999998
20
-116.102
10
-612.06799999999998
20
-116.09100000000001
10
-611.91599999999994
20
-116.08800000000001
10
-611.76300000000003
20
-116.09100000000001
10
-611.61300000000006
20
-116.102
10
-611.46699999999998
20
-116.119
10
-611.32400000000007
20
-116.143
10
-611.18499999999995
20
-116.17400000000001
10
-611.04899999999998
20
-116.211
10
-610.91599999999994
20
-116.256
10
-610.78700000000003
20
-116.30700000000002
10
-610.66099999999994
20
-116.36499999999999
10
-610.53899999999999
20
-116.43000000000001
10
-610.42099999999994
20
-116.50200000000001
10
-610.30799999999999
20
-116.58000000000001
10
-610.20000000000005
20
-116.66500000000001
10
-610.09699999999998
20
-116.75600000000001
10
-610
20
-116.85500000000002
10
-609.90699999999993
20
-116.95900000000002
10
-609.82000000000005
20
-117.07000000000001
10
-609.73699999999997
20
-117.188
10
-609.65999999999997
20
-117.31299999999999
10
-609.58800000000008
20
-117.444
10
-609.52199999999993
20
-117.58200000000002
10
-609.46300000000008
20
-117.72500000000001
10
-609.41099999999994
20
-117.87500000000001
10
-609.36500000000001
20
-118.03200000000002
10
-609.327
20
-118.19400000000002
10
-609.29599999999994
20
-118.36300000000001
10
-609.27099999999996
20
-118.538
10
-609.25400000000002
20
-118.71899999999999
10
-609.24300000000005
20
-118.90600000000001
10
-609.24000000000001
20
-119.09999999999999
10
-609.24300000000005
20
-119.29500000000002
10
-609.25400000000002
20
-119.483
10
-609.27099999999996
20
-119.66500000000002
10
-609.29599999999994
20
-119.84100000000001
10
-609.327
20
-120.01000000000002
10
-609.36500000000001
20
-120.17200000000003
10
-609.41099999999994
20
-120.32899999999999
10
-609.46300000000008
20
-120.479
10
-609.52199999999993
20
-120.62200000000003
10
-609.58800000000008
20
-120.75900000000001
10
-609.65999999999997
20
-120.89
10
-609.73699999999997
20
-121.014
10
-609.82000000000005
20
-121.13100000000001
10
-609.90699999999993
20
-121.24200000000002
10
-610
20
-121.346
10
-610.09699999999998
20
-121.44400000000002
10
-610.20000000000005
20
-121.53500000000001
10
-610.30799999999999
20
-121.62
10
-610.42099999999994
20
-121.69800000000001
10
-610.53899999999999
20
-121.77
10
-610.66099999999994
20
-121.83500000000001
10
-610.78700000000003
20
-121.893
10
-610.91599999999994
20
-121.94400000000002
10
-611.04899999999998
20
-121.989
10
-611.18499999999995
20
-122.02600000000002
10
-611.32400000000007
20
-122.057
10
-611.46699999999998
20
-122.08100000000002
10
-611.61300000000006
20
-122.09800000000001
10
-611.76300000000003
20
-122.10900000000001
10
-611.91599999999994
20
-122.11200000000002
10
-612.06799999999998
20
-122.10900000000001
10
-612.21699999999998
20
-122.09800000000001
10
-612.36199999999997
20
-122.08100000000002
10
-612.50400000000002
20
-122.057
10
-612.64300000000003
20
-122.02600000000002
10
-612.77800000000002
20
-121.989
10
-612.90999999999997
20
-121.94400000000002
10
-613.03899999999999
20
-121.893
10
-613.16499999999996
20
-121.83500000000001
10
-613.28700000000003
20
-121.77
10
-613.40499999999997
20
-121.69800000000001
10
-613.51800000000003
20
-121.62
10
-613.62599999999998
20
-121.53500000000001
10
-613.72800000000007
20
-121.44400000000002
10
-613.82600000000002
20
-121.346
10
-613.91800000000001
20
-121.24200000000002
10
-614.005
20
-121.13100000000001
10
-614.08699999999999
20
-121.014
10
-614.16300000000001
20
-120.89
10
-614.23500000000001
20
-120.75900000000001
10
-614.30099999999993
20
-120.62200000000003
10
-614.35900000000004
20
-120.479
10
-614.41099999999994
20
-120.32899999999999
10
-614.45600000000002
20
-120.17200000000003
10
-614.49400000000003
20
-120.01000000000002
10
-614.52499999999998
20
-119.84100000000001
10
-614.54899999999998
20
-119.66500000000002
10
-614.56600000000003
20
-119.483
10
-614.577
20
-119.29500000000002
10
-614.58000000000004
20
-119.09999999999999
10
-614.577
20
-118.90600000000001
10
-614.56600000000003
20
-118.71899999999999
10
-614.54899999999998
20
-118.538
10
-614.52499999999998
20
-118.36300000000001
10
-614.49400000000003
20
-118.19400000000002
10
-614.45600000000002
20
-118.03200000000002
10
-614.41099999999994
20
-117.87500000000001
10
-614.35900000000004
20
-117.72500000000001
10
-614.30099999999993
20
-117.58200000000002
10
-614.23500000000001
20
-117.444
10
-614.16300000000001
20
-117.31299999999999
10
-614.08699999999999
20
-117.188
10
-614.005
20
-117.07000000000001
10
-613.91800000000001
20
-116.95900000000002
10
-613.82600000000002
20
-116.85500000000002
10
-613.72800000000007
20
-116.75600000000001
10
-613.62599999999998
20
-116.66500000000001
10
-613.51800000000003
20
-116.58000000000001
10
-613.40499999999997
20
-116.50200000000001
10
-613.28700000000003
20
-116.43000000000001
10
-613.16499999999996
20
-116.36499999999999
10
-613.03899999999999
20
-116.30700000000002
10
-612.90999999999997
20
-116.256
10
-612.77800000000002
20
-116.211
10
-612.64300000000003
20
-116.17400000000001
10
-612.50400000000002
20
-116.143
10
-612.36199999999997
20
-116.119
0
LWPOLYLINE
5
101
100
AcDbEntity
8
0
100
AcDbPolyline
90
89
70
1
43
0.0
10
-601.86000000000013
20
-121.96799999999999
10
-603.67200000000003
20
-121.96799999999999
10
-603.67200000000003
20
-121.31999999999999
10
-601.86000000000013
20
-121.31999999999999
10
-601.86000000000013
20
-117.73200000000003
10
-601.86800000000005
20
-117.56299999999999
10
-601.89300000000003
20
-117.41200000000001
10
-601.93499999999995
20
-117.279
10
-601.99199999999996
20
-117.164
10
-602.06700000000001
20
-117.06600000000002
10
-602.15800000000002
20
-116.986
10
-602.26599999999996
20
-116.92399999999999
10
-602.3900000000001
20
-116.88000000000001
10
-602.53099999999995
20
-116.85299999999999
10
-602.68799999999999
20
-116.84399999999999
10
-602.78599999999994
20
-116.84600000000002
10
-602.83400000000006
20
-116.84899999999999
10
-602.88199999999995
20
-116.85299999999999
10
-602.97800000000007
20
-116.86300000000001
10
-603.02499999999998
20
-116.87
10
-603.11900000000014
20
-116.88800000000001
10
-603.16499999999996
20
-116.898
10
-603.21199999999999
20
-116.90899999999999
10
-603.25999999999999
20
-116.92200000000001
10
-603.30899999999997
20
-116.935
10
-603.35900000000015
20
-116.95
10
-603.40999999999997
20
-116.96600000000002
10
-603.46300000000019
20
-116.98200000000001
10
-603.51599999999996
20
-117.00000000000001
10
-603.57100000000003
20
-117.01900000000001
10
-603.62699999999995
20
-117.03900000000002
10
-603.68399999999997
20
-117.06000000000002
10
-603.81600000000003
20
-116.38800000000001
10
-603.755
20
-116.36200000000002
10
-603.69399999999996
20
-116.33700000000002
10
-603.63300000000004
20
-116.31299999999999
10
-603.57200000000012
20
-116.29000000000002
10
-603.51099999999997
20
-116.268
10
-603.45000000000005
20
-116.24700000000003
10
-603.38900000000001
20
-116.22700000000002
10
-603.32799999999997
20
-116.20800000000001
10
-603.26800000000003
20
-116.18899999999999
10
-603.20699999999999
20
-116.17200000000003
10
-603.14599999999996
20
-116.15600000000001
10
-603.08500000000004
20
-116.14200000000002
10
-603.02300000000002
20
-116.12899999999999
10
-602.96100000000001
20
-116.11800000000001
10
-602.899
20
-116.10900000000001
10
-602.83600000000001
20
-116.10100000000001
10
-602.77300000000002
20
-116.096
10
-602.70900000000006
20
-116.09100000000001
10
-602.64499999999998
20
-116.089
10
-602.58000000000015
20
-116.08800000000001
10
-602.48699999999997
20
-116.09000000000002
10
-602.39699999999993
20
-116.095
10
-602.30799999999999
20
-116.104
10
-602.221
20
-116.117
10
-602.13599999999997
20
-116.13300000000001
10
-602.053
20
-116.15299999999999
10
-601.97199999999998
20
-116.17600000000002
10
-601.89300000000003
20
-116.203
10
-601.81500000000005
20
-116.23400000000001
10
-601.74000000000001
20
-116.268
10
-601.66699999999992
20
-116.30600000000001
10
-601.59699999999998
20
-116.34700000000002
10
-601.53099999999995
20
-116.39200000000002
10
-601.46699999999998
20
-116.44100000000002
10
-601.40699999999993
20
-116.49299999999999
10
-601.35000000000002
20
-116.54899999999999
10
-601.29599999999994
20
-116.608
10
-601.245
20
-116.67100000000002
10
-601.197
20
-116.738
10
-601.15199999999993
20
-116.80799999999999
10
-601.11099999999999
20
-116.88200000000002
10
-601.07400000000007
20
-116.95900000000002
10
-601.04199999999992
20
-117.04000000000001
10
-601.01400000000001
20
-117.125
10
-600.99000000000001
20
-117.21299999999999
10
-600.971
20
-117.30500000000001
10
-600.95500000000004
20
-117.40000000000002
10
-600.94500000000016
20
-117.499
10
-600.93799999999999
20
-117.602
10
-600.93600000000015
20
-117.70800000000001
10
-600.93600000000015
20
-121.31999999999999
10
-600.01199999999994
20
-121.31999999999999
10
-600.01199999999994
20
-121.96799999999999
10
-600.93600000000015
20
-121.96799999999999
10
-600.93600000000015
20
-123.56400000000001
10
-601.86000000000013
20
-123.56400000000001
0
LWPOLYLINE
5
102
100
AcDbEntity
8
0
100
AcDbPolyline
90
89
70
1
43
0.0
10
-606.37199999999996
20
-121.96799999999999
10
-608.18399999999997
20
-121.96799999999999
10
-608.18399999999997
20
-121.31999999999999
10
-606.37199999999996
20
-121.31999999999999
10
-606.37199999999996
20
-117.73200000000003
10
-606.38000000000011
20
-117.56299999999999
10
-606.40499999999997
20
-117.41200000000001
10
-606.447
20
-117.279
10
-606.50400000000002
20
-117.164
10
-606.57900000000018
20
-117.06600000000002
10
-606.67000000000007
20
-116.986
10
-606.77800000000002
20
-116.92399999999999
10
-606.90199999999993
20
-116.88000000000001
10
-607.04300000000001
20
-116.85299999999999
10
-607.20000000000005
20
-116.84399999999999
10
-607.298
20
-116.84600000000002
10
-607.346
20
-116.84899999999999
10
-607.39400000000001
20
-116.85299999999999
10
-607.49000000000001
20
-116.86300000000001
10
-607.53699999999992
20
-116.87
10
-607.63099999999997
20
-116.88800000000001
10
-607.67700000000002
20
-116.898
10
-607.72400000000005
20
-116.90899999999999
10
-607.77199999999993
20
-116.92200000000001
10
-607.82100000000003
20
-116.935
10
-607.87099999999998
20
-116.95
10
-607.92200000000003
20
-116.96600000000002
10
-607.97500000000002
20
-116.98200000000001
10
-608.02800000000002
20
-117.00000000000001
10
-608.08300000000008
20
-117.01900000000001
10
-608.13900000000001
20
-117.03900000000002
10
-608.19600000000014
20
-117.06000000000002
10
-608.32799999999997
20
-116.38800000000001
10
-608.26699999999994
20
-116.36200000000002
10
-608.20600000000002
20
-116.33700000000002
10
-608.14499999999998
20
-116.31299999999999
10
-608.08400000000006
20
-116.29000000000002
10
-608.02300000000002
20
-116.268
10
-607.96199999999999
20
-116.24700000000003
10
-607.90099999999995
20
-116.22700000000002
10
-607.84000000000003
20
-116.20800000000001
10
-607.77999999999997
20
-116.18899999999999
10
-607.71900000000005
20
-116.17200000000003
10
-607.65800000000002
20
-116.15600000000001
10
-607.59699999999998
20
-116.14200000000002
10
-607.53500000000008
20
-116.12899999999999
10
-607.47300000000007
20
-116.11800000000001
10
-607.41099999999994
20
-116.10900000000001
10
-607.34800000000007
20
-116.10100000000001
10
-607.28499999999997
20
-116.096
10
-607.221
20
-116.09100000000001
10
-607.15699999999993
20
-116.089
10
-607.09199999999998
20
-116.08800000000001
10
-606.99900000000002
20
-116.09000000000002
10
-606.90899999999999
20
-116.095
10
-606.82000000000005
20
-116.104
10
-606.73300000000017
20
-116.117
10
-606.64800000000002
20
-116.13300000000001
10
-606.56500000000005
20
-116.15299999999999
10
-606.48400000000015
20
-116.17600000000002
10
-606.40499999999997
20
-116.203
10
-606.327
20
-116.23400000000001
10
-606.25199999999995
20
-116.268
10
-606.17899999999997
20
-116.30600000000001
10
-606.10900000000004
20
-116.34700000000002
10
-606.04300000000001
20
-116.39200000000002
10
-605.97900000000004
20
-116.44100000000002
10
-605.91899999999998
20
-116.49299999999999
10
-605.86199999999997
20
-116.54899999999999
10
-605.80799999999999
20
-116.608
10
-605.75699999999995
20
-116.67100000000002
10
-605.70900000000006
20
-116.738
10
-605.66399999999999
20
-116.80799999999999
10
-605.62300000000005
20
-116.88200000000002
10
-605.58600000000001
20
-116.95900000000002
10
-605.55399999999997
20
-117.04000000000001
10
-605.52599999999995
20
-117.125
10
-605.50199999999995
20
-117.21299999999999
10
-605.48300000000017
20
-117.30500000000001
10
-605.46699999999998
20
-117.40000000000002
10
-605.45699999999999
20
-117.499
10
-605.45000000000005
20
-117.602
10
-605.44799999999998
20
-117.70800000000001
10
-605.44799999999998
20
-121.31999999999999
10
-604.524
20
-121.31999999999999
10
-604.524
20
-121.96799999999999
10
-605.44799999999998
20
-121.96799999999999
10
-605.44799999999998
20
-123.56400000000001
10
-606.37199999999996
20
-123.56400000000001
0
LWPOLYLINE
5
103
100
AcDbEntity
8
0
100
AcDbPolyline
90
120
70
1
43
0.0
10
-596.63499999999999
20
-116.102
10
-596.48599999999999
20
-116.09100000000001
10
-596.33400000000006
20
-116.08800000000001
10
-596.18100000000004
20
-116.09100000000001
10
-596.03099999999995
20
-116.102
10
-595.88499999999999
20
-116.119
10
-595.74199999999996
20
-116.143
10
-595.60300000000007
20
-116.17400000000001
10
-595.46699999999998
20
-116.211
10
-595.33400000000006
20
-116.256
10
-595.20500000000004
20
-116.30700000000002
10
-595.07900000000006
20
-116.36499999999999
10
-594.95699999999999
20
-116.43000000000001
10
-594.83900000000006
20
-116.50200000000001
10
-594.726
20
-116.58000000000001
10
-594.61800000000017
20
-116.66500000000001
10
-594.51499999999999
20
-116.75600000000001
10
-594.41800000000001
20
-116.85500000000002
10
-594.32500000000005
20
-116.95900000000002
10
-594.23800000000006
20
-117.07000000000001
10
-594.15499999999997
20
-117.188
10
-594.07799999999997
20
-117.31299999999999
10
-594.00599999999997
20
-117.444
10
-593.94000000000005
20
-117.58200000000002
10
-593.88099999999997
20
-117.72500000000001
10
-593.82900000000006
20
-117.87500000000001
10
-593.78300000000002
20
-118.03200000000002
10
-593.745
20
-118.19400000000002
10
-593.71400000000006
20
-118.36300000000001
10
-593.68899999999996
20
-118.538
10
-593.67200000000003
20
-118.71899999999999
10
-593.66099999999994
20
-118.90600000000001
10
-593.65800000000013
20
-119.09999999999999
10
-593.66099999999994
20
-119.29500000000002
10
-593.67200000000003
20
-119.483
10
-593.68899999999996
20
-119.66500000000002
10
-593.71400000000006
20
-119.84100000000001
10
-593.745
20
-120.01000000000002
10
-593.78300000000002
20
-120.17200000000003
10
-593.82900000000006
20
-120.32899999999999
10
-593.88099999999997
20
-120.479
10
-593.94000000000005
20
-120.62200000000003
10
-594.00599999999997
20
-120.75900000000001
10
-594.07799999999997
20
-120.89
10
-594.15499999999997
20
-121.014
10
-594.23800000000006
20
-121.13100000000001
10
-594.32500000000005
20
-121.24200000000002
10
-594.41800000000001
20
-121.346
10
-594.51499999999999
20
-121.44400000000002
10
-594.61800000000017
20
-121.53500000000001
10
-594.726
20
-121.62
10
-594.83900000000006
20
-121.69800000000001
10
-594.95699999999999
20
-121.77
10
-595.07900000000006
20
-121.83500000000001
10
-595.20500000000004
20
-121.893
10
-595.33400000000006
20
-121.94400000000002
10
-595.46699999999998
20
-121.989
10
-595.60300000000007
20
-122.02600000000002
10
-595.74199999999996
20
-122.057
10
-595.88499999999999
20
-122.08100000000002
10
-596.03099999999995
20
-122.09800000000001
10
-596.18100000000004
20
-122.10900000000001
10
-596.33400000000006
20
-122.11200000000002
10
-596.48599999999999
20
-122.10900000000001
10
-596.63499999999999
20
-122.09800000000001
10
-596.77999999999997
20
-122.08100000000002
10
-596.92200000000003
20
-122.057
10
-597.06100000000004
20
-122.02600000000002
10
-597.19600000000003
20
-121.989
10
-597.32799999999997
20
-121.94400000000002
10
-597.45699999999999
20
-121.893
10
-597.58300000000008
20
-121.83500000000001
10
-597.70500000000004
20
-121.77
10
-597.82299999999998
20
-121.69800000000001
10
-597.93600000000004
20
-121.62
10
-598.04399999999998
20
-121.53500000000001
10
-598.14599999999996
20
-121.44400000000002
10
-598.24400000000003
20
-121.346
10
-598.33600000000001
20
-121.24200000000002
10
-598.423
20
-121.13100000000001
10
-598.505
20
-121.014
10
-598.58100000000013
20
-120.89
10
-598.65300000000002
20
-120.75900000000001
10
-598.71900000000005
20
-120.62200000000003
10
-598.77699999999993
20
-120.479
10
-598.82900000000006
20
-120.32899999999999
10
-598.87400000000002
20
-120.17200000000003
10
-598.91200000000003
20
-120.01000000000002
10
-598.94299999999998
20
-119.84100000000001
10
-598.96699999999998
20
-119.66500000000002
10
-598.98400000000015
20
-119.483
10
-598.995
20
-119.29500000000002
10
-598.99800000000005
20
-119.09999999999999
10
-598.995
20
-118.90600000000001
10
-598.98400000000015
20
-118.71899999999999
10
-598.96699999999998
20
-118.538
10
-598.94299999999998
20
-118.36300000000001
10
-598.91200000000003
20
-118.19400000000002
10
-598.87400000000002
20
-118.03200000000002
10
-598.82900000000006
20
-117.87500000000001
10
-598.77699999999993
20
-117.72500000000001
10
-598.71900000000005
20
-117.58200000000002
10
-598.65300000000002
20
-117.444
10
-598.58100000000013
20
-117.31299999999999
10
-598.505
20
-117.188
10
-598.423
20
-117.07000000000001
10
-598.33600000000001
20
-116.95900000000002
10
-598.24400000000003
20
-116.85500000000002
10
-598.14599999999996
20
-116.75600000000001
10
-598.04399999999998
20
-116.66500000000001
10
-597.93600000000004
20
-116.58000000000001
10
-597.82299999999998
20
-116.50200000000001
10
-597.70500000000004
20
-116.43000000000001
10
-597.58300000000008
20
-116.36499999999999
10
-597.45699999999999
20
-116.30700000000002
10
-597.32799999999997
20
-116.256
10
-597.19600000000003
20
-116.211
10
-597.06100000000004
20
-116.17400000000001
10
-596.92200000000003
20
-116.143
10
-596.77999999999997
20
-116.119
0
LWPOLYLINE
5
104
100
AcDbEntity
8
0
100
AcDbPolyline
90
200
70
1
43
0.0
10
-617.33600000000001
20
-119.08700000000002
10
-617.33400000000006
20
-118.94400000000002
10
-617.33400000000006
20
-116.23200000000003
10
-616.39800000000014
20
-116.23200000000003
10
-616.39800000000014
20
-121.96799999999999
10
-617.202
20
-121.96799999999999
10
-617.30999999999995
20
-120.81600000000002
10
-617.36599999999999
20
-120.938
10
-617.42700000000002
20
-121.05400000000002
10
-617.49199999999996
20
-121.164
10
-617.56100000000004
20
-121.26899999999999
10
-617.63499999999999
20
-121.36800000000001
10
-617.71300000000008
20
-121.46100000000001
10
-617.79499999999996
20
-121.548
10
-617.88199999999995
20
-121.63
10
-617.97300000000007
20
-121.706
10
-618.06899999999996
20
-121.77600000000001
10
-618.1690000000001
20
-121.84
10
-618.27199999999993
20
-121.89700000000002
10
-618.38
20
-121.947
10
-618.49099999999999
20
-121.99100000000001
10
-618.60699999999997
20
-122.02799999999999
10
-618.72600000000011
20
-122.05799999999999
10
-618.84900000000005
20
-122.08200000000002
10
-618.976
20
-122.09899999999999
10
-619.10699999999997
20
-122.10900000000001
10
-619.24199999999996
20
-122.11200000000002
10
-619.37599999999998
20
-122.10900000000001
10
-619.50500000000011
20
-122.10000000000001
10
-619.63099999999997
20
-122.08500000000001
10
-619.75300000000004
20
-122.06400000000001
10
-619.87099999999998
20
-122.03600000000002
10
-619.98500000000013
20
-122.00299999999999
10
-620.096
20
-121.964
10
-620.202
20
-121.91800000000001
10
-620.30399999999997
20
-121.86700000000002
10
-620.40300000000002
20
-121.80900000000001
10
-620.49700000000007
20
-121.74600000000001
10
-620.58699999999999
20
-121.67700000000002
10
-620.673
20
-121.60400000000001
10
-620.75300000000004
20
-121.52500000000002
10
-620.83000000000004
20
-121.44100000000002
10
-620.90199999999993
20
-121.35100000000001
10
-620.96900000000005
20
-121.25700000000002
10
-621.03199999999993
20
-121.15700000000002
10
-621.09000000000015
20
-121.05200000000002
10
-621.14400000000001
20
-120.94200000000001
10
-621.19299999999998
20
-120.82700000000003
10
-621.23297907547772
20
-120.71887477313972
10
-621.26800000000003
20
-120.80600000000001
10
-621.31100000000004
20
-120.905
10
-621.35699999999997
20
-121.00000000000001
10
-621.40599999999995
20
-121.09100000000001
10
-621.45800000000008
20
-121.17800000000001
10
-621.51300000000003
20
-121.262
10
-621.57000000000016
20
-121.34100000000002
10
-621.63
20
-121.416
10
-621.69299999999998
20
-121.48800000000001
10
-621.75800000000004
20
-121.556
10
-621.82500000000005
20
-121.61900000000001
10
-621.89499999999998
20
-121.67900000000002
10
-621.96800000000007
20
-121.73500000000001
10
-622.04300000000001
20
-121.78700000000001
10
-622.12099999999998
20
-121.83500000000001
10
-622.20100000000002
20
-121.88000000000001
10
-622.28399999999999
20
-121.92
10
-622.36900000000003
20
-121.956
10
-622.45699999999999
20
-121.989
10
-622.54599999999994
20
-122.01799999999999
10
-622.63800000000003
20
-122.04300000000001
10
-622.73199999999997
20
-122.06400000000001
10
-622.82900000000018
20
-122.08100000000002
10
-622.928
20
-122.095
10
-623.029
20
-122.104
10
-623.13199999999995
20
-122.11
10
-623.23800000000006
20
-122.11200000000002
10
-623.37199999999996
20
-122.10900000000001
10
-623.50099999999998
20
-122.10000000000001
10
-623.62699999999995
20
-122.08500000000001
10
-623.74900000000002
20
-122.06400000000001
10
-623.86699999999996
20
-122.03600000000002
10
-623.98099999999999
20
-122.00299999999999
10
-624.09199999999998
20
-121.964
10
-624.19799999999998
20
-121.91800000000001
10
-624.29999999999995
20
-121.86700000000002
10
-624.399
20
-121.80900000000001
10
-624.49300000000005
20
-121.74600000000001
10
-624.58300000000008
20
-121.67700000000002
10
-624.66899999999998
20
-121.60400000000001
10
-624.74900000000002
20
-121.52500000000002
10
-624.82600000000002
20
-121.44100000000002
10
-624.89800000000002
20
-121.35100000000001
10
-624.96500000000003
20
-121.25700000000002
10
-625.02800000000002
20
-121.15700000000002
10
-625.08600000000001
20
-121.05200000000002
10
-625.13999999999999
20
-120.94200000000001
10
-625.18900000000008
20
-120.82700000000003
10
-625.23300000000006
20
-120.708
10
-625.27199999999993
20
-120.58500000000001
10
-625.30499999999995
20
-120.45700000000002
10
-625.33300000000008
20
-120.32600000000002
10
-625.35699999999997
20
-120.19
10
-625.375
20
-120.04899999999999
10
-625.38800000000015
20
-119.905
10
-625.39499999999998
20
-119.75700000000002
10
-625.39800000000002
20
-119.604
10
-625.39800000000002
20
-116.23200000000003
10
-624.46199999999999
20
-116.23200000000003
10
-624.46199999999999
20
-119.604
10
-624.45800000000008
20
-119.764
10
-624.44600000000014
20
-119.91700000000002
10
-624.42700000000002
20
-120.06200000000001
10
-624.399
20
-120.199
10
-624.36400000000003
20
-120.328
10
-624.32100000000003
20
-120.449
10
-624.26900000000001
20
-120.56200000000003
10
-624.21000000000004
20
-120.66800000000001
10
-624.14400000000001
20
-120.76500000000001
10
-624.06899999999996
20
-120.85500000000002
10
-623.98800000000006
20
-120.93700000000001
10
-623.90099999999995
20
-121.00900000000001
10
-623.80899999999997
20
-121.074
10
-623.71100000000001
20
-121.13
10
-623.60800000000017
20
-121.17700000000001
10
-623.49900000000002
20
-121.215
10
-623.38499999999999
20
-121.245
10
-623.26499999999999
20
-121.26700000000001
10
-623.13999999999999
20
-121.28
10
-623.00999999999999
20
-121.28399999999999
10
-622.85800000000006
20
-121.27800000000001
10
-622.71300000000008
20
-121.26000000000002
10
-622.57500000000005
20
-121.23000000000002
10
-622.44500000000005
20
-121.188
10
-622.32200000000012
20
-121.13300000000001
10
-622.20600000000002
20
-121.06700000000002
10
-622.09699999999998
20
-120.989
10
-621.99600000000009
20
-120.898
10
-621.90199999999993
20
-120.79600000000001
10
-621.81600000000003
20
-120.68100000000001
10
-621.73699999999997
20
-120.556
10
-621.66699999999992
20
-120.42100000000002
10
-621.60500000000002
20
-120.27799999999999
10
-621.55099999999993
20
-120.12500000000001
10
-621.505
20
-119.96299999999999
10
-621.46800000000007
20
-119.792
10
-621.43900000000008
20
-119.61200000000002
10
-621.41899999999998
20
-119.42200000000001
10
-621.40599999999995
20
-119.22399999999999
10
-621.40199999999993
20
-119.01600000000002
10
-621.40199999999993
20
-116.23200000000003
10
-620.47800000000007
20
-116.23200000000003
10
-620.47800000000007
20
-119.604
10
-620.47400000000016
20
-119.764
10
-620.46199999999999
20
-119.91700000000002
10
-620.44299999999998
20
-120.06200000000001
10
-620.41499999999996
20
-120.199
10
-620.38
20
-120.328
10
-620.33699999999999
20
-120.449
10
-620.28499999999997
20
-120.56200000000003
10
-620.226
20
-120.66800000000001
10
-620.15999999999997
20
-120.76500000000001
10
-620.08500000000004
20
-120.85500000000002
10
-620.00400000000002
20
-120.93700000000001
10
-619.91599999999994
20
-121.00900000000001
10
-619.82400000000007
20
-121.074
10
-619.72500000000002
20
-121.13
10
-619.62099999999998
20
-121.17700000000001
10
-619.51099999999997
20
-121.215
10
-619.39499999999998
20
-121.245
10
-619.27400000000011
20
-121.26700000000001
10
-619.14699999999993
20
-121.28
10
-619.01400000000001
20
-121.28399999999999
10
-618.91200000000003
20
-121.28100000000002
10
-618.81299999999999
20
-121.273
10
-618.7170000000001
20
-121.25900000000001
10
-618.62300000000005
20
-121.23899999999999
10
-618.53300000000002
20
-121.21299999999999
10
-618.44399999999996
20
-121.18200000000002
10
-618.35900000000015
20
-121.14600000000002
10
-618.27699999999993
20
-121.104
10
-618.197
20
-121.05600000000001
10
-618.12
20
-121.00200000000001
10
-618.04599999999994
20
-120.94300000000001
10
-617.976
20
-120.87899999999999
10
-617.90899999999999
20
-120.81100000000001
10
-617.84500000000003
20
-120.738
10
-617.78499999999997
20
-120.65899999999999
10
-617.72900000000004
20
-120.57600000000001
10
-617.67599999999993
20
-120.488
10
-617.62699999999995
20
-120.39500000000001
10
-617.58100000000002
20
-120.298
10
-617.53800000000001
20
-120.19500000000001
10
-617.49900000000002
20
-120.08800000000001
10
-617.46500000000003
20
-119.97700000000002
10
-617.43399999999997
20
-119.86200000000002
10
-617.40699999999993
20
-119.74299999999999
10
-617.38499999999999
20
-119.62000000000002
10
-617.36699999999996
20
-119.49300000000001
10
-617.35199999999998
20
-119.36200000000001
10
-617.34199999999998
20
-119.22600000000001
0
LWPOLYLINE
5
105
100
AcDbEntity
8
0
100
AcDbPolyline
90
123
70
1
43
0.0
10
-589.90599999999995
20
-116.23899999999999
10
-589.76499999999999
20
-116.23400000000001
10
-589.62
20
-116.23200000000003
10
-586.79999999999995
20
-116.23200000000003
10
-586.79999999999995
20
-123.768
10
-589.62
20
-123.768
10
-589.78300000000002
20
-123.765
10
-589.94000000000005
20
-123.75700000000002
10
-590.09100000000001
20
-123.74299999999999
10
-590.23699999999997
20
-123.72399999999999
10
-590.37800000000004
20
-123.70000000000002
10
-590.51199999999994
20
-123.67000000000002
10
-590.64099999999996
20
-123.634
10
-590.76400000000012
20
-123.59299999999999
10
-590.88200000000006
20
-123.54700000000001
10
-590.99400000000003
20
-123.495
10
-591.10000000000002
20
-123.43899999999999
10
-591.20100000000002
20
-123.37899999999999
10
-591.29700000000003
20
-123.31600000000002
10
-591.38699999999994
20
-123.249
10
-591.471
20
-123.178
10
-591.54999999999995
20
-123.10500000000002
10
-591.62300000000005
20
-123.02799999999999
10
-591.69100000000003
20
-122.947
10
-591.75300000000004
20
-122.863
10
-591.80999999999995
20
-122.77500000000002
10
-591.86099999999999
20
-122.68500000000002
10
-591.90699999999993
20
-122.59299999999999
10
-591.94799999999998
20
-122.5
10
-591.98300000000006
20
-122.40400000000001
10
-592.01300000000003
20
-122.30800000000001
10
-592.03700000000003
20
-122.209
10
-592.05600000000004
20
-122.11
10
-592.06899999999996
20
-122.00800000000001
10
-592.077
20
-121.905
10
-592.08000000000004
20
-121.8
10
-592.07600000000002
20
-121.67200000000001
10
-592.06600000000003
20
-121.548
10
-592.048
20
-121.42700000000002
10
-592.02300000000014
20
-121.309
10
-591.99099999999999
20
-121.19500000000001
10
-591.95100000000002
20
-121.08400000000002
10
-591.90499999999997
20
-120.97700000000002
10
-591.85199999999998
20
-120.87299999999999
10
-591.79099999999994
20
-120.77200000000002
10
-591.72300000000007
20
-120.67500000000001
10
-591.64800000000002
20
-120.58300000000001
10
-591.56600000000003
20
-120.49600000000001
10
-591.47699999999998
20
-120.41600000000001
10
-591.38000000000011
20
-120.34200000000001
10
-591.27699999999993
20
-120.274
10
-591.16599999999994
20
-120.212
10
-591.048
20
-120.15600000000001
10
-590.923
20
-120.10600000000002
10
-590.79099999999994
20
-120.06200000000001
10
-590.65199999999993
20
-120.02400000000002
10
-590.74300000000005
20
-120.008
10
-590.83200000000011
20
-119.98800000000001
10
-590.91899999999998
20
-119.96400000000001
10
-591.00400000000013
20
-119.93700000000003
10
-591.08600000000001
20
-119.90600000000001
10
-591.16599999999994
20
-119.87200000000001
10
-591.24400000000014
20
-119.83400000000002
10
-591.32000000000005
20
-119.792
10
-591.39400000000001
20
-119.74600000000002
10
-591.46500000000003
20
-119.69700000000002
10
-591.53400000000011
20
-119.64500000000001
10
-591.59900000000005
20
-119.59000000000002
10
-591.66199999999992
20
-119.53400000000001
10
-591.721
20
-119.47499999999999
10
-591.77800000000002
20
-119.413
10
-591.83100000000002
20
-119.35000000000001
10
-591.88099999999997
20
-119.28399999999999
10
-591.92899999999997
20
-119.21600000000001
10
-591.97300000000018
20
-119.146
10
-592.01400000000012
20
-119.07299999999999
10
-592.05200000000002
20
-118.99900000000001
10
-592.08500000000004
20
-118.92299999999999
10
-592.11500000000001
20
-118.84700000000002
10
-592.14100000000008
20
-118.77000000000001
10
-592.16300000000001
20
-118.69100000000002
10
-592.17999999999995
20
-118.61200000000002
10
-592.19399999999996
20
-118.53100000000001
10
-592.20400000000018
20
-118.45
10
-592.21000000000004
20
-118.367
10
-592.21199999999999
20
-118.28400000000001
10
-592.21100000000001
20
-118.20700000000002
10
-592.20699999999999
20
-118.131
10
-592.20000000000005
20
-118.05500000000002
10
-592.19100000000003
20
-117.98000000000002
10
-592.17999999999995
20
-117.904
10
-592.16599999999994
20
-117.83000000000001
10
-592.149
20
-117.75500000000001
10
-592.12900000000002
20
-117.68100000000001
10
-592.10800000000006
20
-117.60700000000001
10
-592.08300000000008
20
-117.53399999999999
10
-592.05500000000006
20
-117.46200000000002
10
-592.02499999999998
20
-117.39000000000001
10
-591.99000000000001
20
-117.32100000000001
10
-591.952
20
-117.25299999999999
10
-591.91099999999994
20
-117.18600000000002
10
-591.86699999999996
20
-117.12100000000001
10
-591.81899999999996
20
-117.057
10
-591.76699999999994
20
-116.994
10
-591.71199999999999
20
-116.934
10
-591.654
20
-116.874
10
-591.59199999999998
20
-116.81600000000002
10
-591.52599999999995
20
-116.76100000000002
10
-591.45600000000002
20
-116.708
10
-591.38199999999995
20
-116.65799999999999
10
-591.30399999999997
20
-116.61000000000001
10
-591.22300000000007
20
-116.56399999999999
10
-591.13699999999994
20
-116.52100000000002
10
-591.04700000000003
20
-116.48000000000002
10
-590.95400000000018
20
-116.44200000000001
10
-590.85599999999999
20
-116.40600000000001
10
-590.75400000000002
20
-116.37299999999999
10
-590.64699999999993
20
-116.34299999999999
10
-590.53599999999994
20
-116.31700000000002
10
-590.41899999999998
20
-116.295
10
-590.298
20
-116.27500000000001
10
-590.17200000000003
20
-116.26000000000002
10
-590.04099999999994
20
-116.248
0
LWPOLYLINE
5
106
100
AcDbEntity
8
0
100
AcDbPolyline
90
212
70
1
43
0.0
10
-718.50000000000011
20
-237.00000000000003
10
-718.50000000000011
20
-240
10
-709.5
20
-240
10
-709.5
20
-237.00000000000003
10
-700.5
20
-237.00000000000003
10
-700.5
20
-240
10
-691.5
20
-240
10
-691.5
20
-237.00000000000003
10
-682.5
20
-237.00000000000003
10
-682.5
20
-240
10
-673.50000000000011
20
-240
10
-673.50000000000011
20
-237.00000000000003
10
-664.5
20
-237.00000000000003
10
-664.5
20
-240
10
-655.5
20
-240
10
-655.5
20
-237.00000000000003
10
-646.5
20
-237.00000000000003
10
-646.5
20
-240
10
-637.5
20
-240
10
-637.5
20
-237.00000000000003
10
-628.5
20
-237.00000000000003
10
-628.5
20
-240
10
-619.5
20
-240
10
-619.5
20
-237.00000000000003
10
-610.5
20
-237.00000000000003
10
-610.5
20
-240
10
-601.5
20
-240
10
-601.5
20
-237.00000000000003
10
-592.5
20
-237.00000000000003
10
-592.5
20
-240
10
-583.5
20
-240
10
-583.5
20
-237.00000000000003
10
-574.5
20
-237.00000000000003
10
-574.5
20
-240
10
-565.5
20
-240
10
-565.5
20
-237.00000000000003
10
-556.5
20
-237.00000000000003
10
-556.5
20
-240
10
-547.5
20
-240
10
-547.5
20
-237.00000000000003
10
-538.5
20
-237.00000000000003
10
-538.5
20
-240
10
-529.5
20
-240
10
-529.5
20
-237.00000000000003
10
-520.5
20
-237.00000000000003
10
-520.5
20
-240
10
-511.50000000000006
20
-240
10
-511.50000000000006
20
-237.00000000000003
10
-502.5
20
-237.00000000000003
10
-502.5
20
-240
10
-493.5
20
-240
10
-493.5
20
-237.00000000000003
10
-489.00000000000006
20
-237.00000000000003
10
-489.00000000000006
20
-232.5
10
-486
20
-232.5
10
-486
20
-223.5
10
-489.00000000000006
20
-223.5
10
-489.00000000000006
20
-214.50000000000003
10
-486
20
-214.50000000000003
10
-486
20
-205.5
10
-489.00000000000006
20
-205.5
10
-489.00000000000006
20
-196.50000000000003
10
-486
20
-196.50000000000003
10
-486
20
-187.5
10
-489.00000000000006
20
-187.5
10
-489.00000000000006
20
-178.5
10
-486
20
-178.5
10
-486
20
-169.5
10
-489.00000000000006
20
-169.5
10
-489.00000000000006
20
-160.5
10
-486
20
-160.5
10
-486
20
-151.5
10
-489.00000000000006
20
-151.5
10
-489.00000000000006
20
-142.5
10
-486
20
-142.5
10
-486
20
-133.5
10
-489.00000000000006
20
-133.5
10
-489.00000000000006
20
-124.50000000000001
10
-486
20
-124.50000000000001
10
-486
20
-115.5
10
-489.00000000000006
20
-115.5
10
-489.00000000000006
20
-106.5
10
-486
20
-106.5
10
-486
20
-97.5
10
-489.00000000000006
20
-97.5
10
-489.00000000000006
20
-88.5
10
-486
20
-88.5
10
-486
20
-79.5
10
-489.00000000000006
20
-79.5
10
-489.00000000000006
20
-70.5
10
-486
20
-70.5
10
-486
20
-61.5
10
-489.00000000000006
20
-61.5
10
-489.00000000000006
20
-52.5
10
-486
20
-52.5
10
-486
20
-43.500000000000007
10
-489.00000000000006
20
-43.500000000000007
10
-489.00000000000006
20
-34.500000000000014
10
-486
20
-34.500000000000014
10
-486
20
-25.500000000000007
10
-489.00000000000006
20
-25.500000000000007
10
-489.00000000000006
20
-16.500000000000004
10
-486
20
-16.500000000000004
10
-486
20
-7.5
10
-489.00000000000006
20
-7.5
10
-489.00000000000006
20
-3.0000000000000071
10
-493.5
20
-3.0000000000000071
10
-493.5
20
0
10
-502.5
20
0
10
-502.5
20
-3.0000000000000071
10
-511.50000000000006
20
-3.0000000000000071
10
-511.50000000000006
20
0
10
-520.5
20
0
10
-520.5
20
-3.0000000000000071
10
-529.5
20
-3.0000000000000071
10
-529.5
20
0
10
-538.5
20
0
10
-538.5
20
-3.0000000000000071
10
-547.5
20
-3.0000000000000071
10
-547.5
20
0
10
-556.5
20
0
10
-556.5
20
-3.0000000000000071
10
-565.5
20
-3.0000000000000071
10
-565.5
20
0
10
-574.5
20
0
10
-574.5
20
-3.0000000000000071
10
-583.5
20
-3.0000000000000071
10
-583.5
20
0
10
-592.5
20
0
10
-592.5
20
-3.0000000000000071
10
-601.5
20
-3.0000000000000071
10
-601.5
20
0
10
-610.5
20
0
10
-610.5
20
-3.0000000000000071
10
-619.5
20
-3.0000000000000071
10
-619.5
20
0
10
-628.5
20
0
10
-628.5
20
-3.0000000000000071
10
-637.5
20
-3.0000000000000071
10
-637.5
20
0
10
-646.5
20
0
10
-646.5
20
-3.0000000000000071
10
-655.5
20
-3.0000000000000071
10
-655.5
20
0
10
-664.5
20
0
10
-664.5
20
-3.0000000000000071
10
-673.50000000000011
20
-3.0000000000000071
10
-673.50000000000011
20
0
10
-682.5
20
0
10
-682.5
20
-3.0000000000000071
10
-691.5
20
-3.0000000000000071
10
-691.5
20
0
10
-700.5
20
0
10
-700.5
20
-3.0000000000000071
10
-709.5
20
-3.0000000000000071
10
-709.5
20
0
10
-718.50000000000011
20
0
10
-718.50000000000011
20
-3.0000000000000071
10
-723
20
-3.0000000000000071
10
-723
20
-7.5
10
-726.00000000000011
20
-7.5
10
-726.00000000000011
20
-16.500000000000004
10
-723
20
-16.500000000000004
10
-723
20
-25.500000000000007
10
-726.00000000000011
20
-25.500000000000007
10
-726.00000000000011
20
-34.500000000000014
10
-723
20
-34.500000000000014
10
-723
20
-43.500000000000007
10
-726.00000000000011
20
-43.500000000000007
10
-726.00000000000011
20
-52.5
10
-723
20
-52.5
10
-723
20
-61.5
10
-726.00000000000011
20
-61.5
10
-726.00000000000011
20
-70.5
10
-723
20
-70.5
10
-723
20
-79.5
10
-726.00000000000011
20
-79.5
10
-726.00000000000011
20
-88.5
10
-723
20
-88.5
10
-723
20
-97.5
10
-726.00000000000011
20
-97.5
10
-726.00000000000011
20
-106.5
10
-723
20
-106.5
10
-723
20
-115.5
10
-726.00000000000011
20
-115.5
10
-726.00000000000011
20
-124.50000000000001
10
-723
20
-124.50000000000001
10
-723
20
-133.5
10
-726.00000000000011
20
-133.5
10
-726.00000000000011
20
-142.5
10
-723
20
-142.5
10
-723
20
-151.5
10
-726.00000000000011
20
-151.5
10
-726.00000000000011
20
-160.5
10
-723
20
-160.5
10
-723
20
-169.5
10
-726.00000000000011
20
-169.5
10
-726.00000000000011
20
-178.5
10
-723
20
-178.5
10
-723
20
-187.5
10
-726.00000000000011
20
-187.5
10
-726.00000000000011
20
-196.50000000000003
10
-723
20
-196.50000000000003
10
-723
20
-205.5
10
-726.00000000000011
20
-205.5
10
-726.00000000000011
20
-214.50000000000003
10
-723
20
-214.50000000000003
10
-723
20
-223.5
10
-726.00000000000011
20
-223.5
10
-726.00000000000011
20
-232.5
10
-723
20
-232.5
10
-723
20
-237.00000000000003
0
ENDSEC
0
SECTION
2
OBJECTS
0
DICTIONARY
5
C
100
AcDbDictionary
3
ACAD_GROUP
350
D
3
ACAD_MLINESTYLE
350
17
0
DICTIONARY
5
D
100
AcDbDictionary
0
DICTIONARY
5
1A
330
C
100
AcDbDictionary
0
DICTIONARY
5
17
100
AcDbDictionary
0
ENDSEC
0
EOF
