0
SECTION
2
HEADER
9
$INSUNITS
70
4
9
$ACADVER
1
AC1014
9
$HANDSEED
5
FFFF
0
ENDSEC
0
SECTION
2
TABLES
0
TABLE
2
VPORT
5
8
100
AcDbSymbolTable
0
ENDTAB
0
TABLE
2
LTYPE
5
5
100
AcDbSymbolTable
0
LTYPE
5
14
100
AcDbSymbolTableRecord
100
AcDbLinetypeTableRecord
2
BYBLOCK
70
0
0
LTYPE
5
15
100
AcDbSymbolTableRecord
100
AcDbLinetypeTableRecord
2
BYLAYER
70
0
0
LTYPE
5
16
100
AcDbSymbolTableRecord
100
AcDbLinetypeTableRecord
2
DASHED
70
0
3
Dashed __ __ __ __ __ __ __ __ __ __ __ __ __ _
72
65
73
2
40
0.75
49
0.5
74
0
49
-0.25
74
0
0
ENDTAB
0
TABLE
2
LAYER
5
2
100
AcDbSymbolTable
70
2
0
LAYER
5
50
100
AcDbSymbolTableRecord
100
AcDbLayerTableRecord
2
0
70
0
62
7
6
CONTINUOUS
0
ENDTAB
0
TABLE
2
STYLE
5
3
100
AcDbSymbolTable
70
1
0
STYLE
5
11
100
AcDbSymbolTableRecord
100
AcDbTextStyleTableRecord
2
STANDARD
70
0
0
ENDTAB
0
TABLE
2
VIEW
5
6
100
AcDbSymbolTable
70
0
0
ENDTAB
0
TABLE
2
UCS
5
7
100
AcDbSymbolTable
70
0
0
ENDTAB
0
TABLE
2
APPID
5
9
100
AcDbSymbolTable
70
2
0
APPID
5
12
100
AcDbSymbolTableRecord
100
AcDbRegAppTableRecord
2
ACAD
70
0
0
ENDTAB
0
TABLE
2
DIMSTYLE
5
A
100
AcDbSymbolTable
70
1
0
ENDTAB
0
TABLE
2
BLOCK_RECORD
5
1
100
AcDbSymbolTable
70
1
0
BLOCK_RECORD
5
1F
100
AcDbSymbolTableRecord
100
AcDbBlockTableRecord
2
*MODEL_SPACE
0
BLOCK_RECORD
5
1B
100
AcDbSymbolTableRecord
100
AcDbBlockTableRecord
2
*PAPER_SPACE
0
ENDTAB
0
ENDSEC
0
SECTION
2
BLOCKS
0
BLOCK
5
20
100
AcDbEntity
100
AcDbBlockBegin
2
*MODEL_SPACE
0
ENDBLK
5
21
100
AcDbEntity
100
AcDbBlockEnd
0
BLOCK
5
1C
100
AcDbEntity
100
AcDbBlockBegin
2
*PAPER_SPACE
0
ENDBLK
5
1D
100
AcDbEntity
100
AcDbBlockEnd
0
ENDSEC
0
SECTION
2
ENTITIES
0
LWPOLYLINE
5
100
100
AcDbEntity
8
0
100
AcDbPolyline
90
38
70
1
43
0.0
10
-6.0000000000000071
20
-19.5
10
-6.0000000000000071
20
-34.5
10
-3.0000000000000004
20
-34.5
10
-3.0000000000000004
20
-37.5
10
-6.0000000000000071
20
-37.5
10
-6.0000000000000071
20
-52.5
10
-3.0000000000000004
20
-52.5
10
-3.0000000000000004
20
-55.500000000000007
10
-6.0000000000000071
20
-55.500000000000007
10
-6.0000000000000071
20
-70.5
10
-3.0000000000000004
20
-70.5
10
-3.0000000000000004
20
-73.5
10
-6.0000000000000071
20
-73.5
10
-6.0000000000000071
20
-88.500000000000014
10
-3.0000000000000004
20
-88.500000000000014
10
-3.0000000000000004
20
-91.5
10
-6.0000000000000071
20
-91.5
10
-6.0000000000000071
20
-106.50000000000003
10
-3.0000000000000004
20
-106.50000000000003
10
-3.0000000000000004
20
-109.5
10
-6.0000000000000071
20
-109.5
10
-6.0000000000000071
20
-124.50000000000001
10
-3.0000000000000004
20
-124.50000000000001
10
-3.0000000000000004
20
-127.5
10
-6.0000000000000071
20
-127.5
10
-6.0000000000000071
20
-142.50000000000003
10
-3.0000000000000004
20
-142.50000000000003
10
-3.0000000000000004
20
-145.5
10
-6.0000000000000071
20
-145.5
10
-6.0000000000000071
20
-160.5
10
-3.0000000000000004
20
-160.5
10
-3.0000000000000004
20
-162
10
-232.00000000000003
20
-162
10
-232.00000000000003
20
-7.9999999999999716
10
-6.0000000000000142
20
-7.9999999999999716
10
-6.0000000000000071
20
-16.499999999999996
10
-3.0000000000000004
20
-16.499999999999996
10
-3.0000000000000004
20
-19.5
0
LWPOLYLINE
5
101
100
AcDbEntity
8
0
100
AcDbPolyline
90
180
70
1
43
0.0
10
-237.00000000000003
20
-166.50000000000003
10
-237.00000000000003
20
-180
10
-232.5
20
-180
10
-232.5
20
-177
10
-223.5
20
-177
10
-223.5
20
-180
10
-214.50000000000003
20
-180
10
-214.50000000000003
20
-177
10
-205.5
20
-177
10
-205.5
20
-180
10
-196.50000000000003
20
-180
10
-196.50000000000003
20
-177
10
-187.5
20
-177
10
-187.5
20
-180
10
-178.5
20
-180
10
-178.5
20
-177
10
-169.5
20
-177
10
-169.5
20
-180
10
-160.5
20
-180
10
-160.5
20
-177
10
-151.5
20
-177
10
-151.5
20
-180
10
-142.5
20
-180
10
-142.5
20
-177
10
-133.5
20
-177
10
-133.5
20
-180
10
-124.50000000000001
20
-180
10
-124.50000000000001
20
-177
10
-115.5
20
-177
10
-115.5
20
-180
10
-106.5
20
-180
10
-106.5
20
-177
10
-97.5
20
-177
10
-97.5
20
-180
10
-88.5
20
-180
10
-88.5
20
-177
10
-79.5
20
-177
10
-79.5
20
-180
10
-70.5
20
-180
10
-70.5
20
-177
10
-61.5
20
-177
10
-61.5
20
-180
10
-52.5
20
-180
10
-52.5
20
-177
10
-43.500000000000007
20
-177
10
-43.500000000000007
20
-180
10
-34.5
20
-180
10
-34.5
20
-177
10
-25.500000000000007
20
-177
10
-25.500000000000007
20
-180
10
-16.500000000000004
20
-180
10
-16.500000000000004
20
-177
10
-7.5
20
-177
10
-7.5
20
-180
10
-3.0000000000000071
20
-180
10
-3.0000000000000071
20
-166.50000000000003
10
0
20
-166.50000000000003
10
0
20
-157.5
10
-3.0000000000000071
20
-157.5
10
-3.0000000000000071
20
-148.5
10
0
20
-148.5
10
0
20
-139.5
10
-3.0000000000000071
20
-139.5
10
-3.0000000000000071
20
-130.5
10
0
20
-130.5
10
0
20
-121.5
10
-3.0000000000000071
20
-121.5
10
-3.0000000000000071
20
-112.5
10
0
20
-112.5
10
0
20
-103.50000000000001
10
-3.0000000000000071
20
-103.50000000000001
10
-3.0000000000000071
20
-94.500000000000014
10
0
20
-94.500000000000014
10
0
20
-85.5
10
-3.0000000000000071
20
-85.5
10
-3.0000000000000071
20
-76.5
10
0
20
-76.5
10
0
20
-67.5
10
-3.0000000000000071
20
-67.5
10
-3.0000000000000071
20
-58.500000000000007
10
0
20
-58.500000000000007
10
0
20
-49.5
10
-3.0000000000000071
20
-49.5
10
-3.0000000000000071
20
-40.5
10
0
20
-40.5
10
0
20
-31.500000000000004
10
-3.0000000000000071
20
-31.500000000000004
10
-3.0000000000000071
20
-22.5
10
0
20
-22.5
10
0
20
-13.499999999999996
10
-3.0000000000000071
20
-13.499999999999996
10
-3.0000000000000071
20
0
10
-7.5
20
0
10
-7.5
20
-3.0000000000000071
10
-16.500000000000004
20
-3.0000000000000071
10
-16.500000000000004
20
0
10
-25.500000000000007
20
0
10
-25.500000000000007
20
-3.0000000000000071
10
-34.5
20
-3.0000000000000071
10
-34.5
20
0
10
-43.500000000000007
20
0
10
-43.500000000000007
20
-3.0000000000000071
10
-52.5
20
-3.0000000000000071
10
-52.5
20
0
10
-61.5
20
0
10
-61.5
20
-3.0000000000000071
10
-70.5
20
-3.0000000000000071
10
-70.5
20
0
10
-79.5
20
0
10
-79.5
20
-3.0000000000000071
10
-88.5
20
-3.0000000000000071
10
-88.5
20
0
10
-97.5
20
0
10
-97.5
20
-3.0000000000000071
10
-106.5
20
-3.0000000000000071
10
-106.5
20
0
10
-115.5
20
0
10
-115.5
20
-3.0000000000000071
10
-124.50000000000001
20
-3.0000000000000071
10
-124.50000000000001
20
0
10
-133.5
20
0
10
-133.5
20
-3.0000000000000071
10
-142.5
20
-3.0000000000000071
10
-142.5
20
0
10
-151.5
20
0
10
-151.5
20
-3.0000000000000071
10
-160.5
20
-3.0000000000000071
10
-160.5
20
0
10
-169.5
20
0
10
-169.5
20
-3.0000000000000071
10
-178.5
20
-3.0000000000000071
10
-178.5
20
0
10
-187.5
20
0
10
-187.5
20
-3.0000000000000071
10
-196.50000000000003
20
-3.0000000000000071
10
-196.50000000000003
20
0
10
-205.5
20
0
10
-205.5
20
-3.0000000000000071
10
-214.50000000000003
20
-3.0000000000000071
10
-214.50000000000003
20
0
10
-223.5
20
0
10
-223.5
20
-3.0000000000000071
10
-232.5
20
-3.0000000000000071
10
-232.5
20
0
10
-237.00000000000003
20
0
10
-237.00000000000003
20
-13.499999999999996
10
-240
20
-13.499999999999996
10
-240
20
-22.5
10
-237.00000000000003
20
-22.5
10
-237.00000000000003
20
-31.500000000000004
10
-240
20
-31.500000000000004
10
-240
20
-40.5
10
-237.00000000000003
20
-40.5
10
-237.00000000000003
20
-49.5
10
-240
20
-49.5
10
-240
20
-58.500000000000007
10
-237.00000000000003
20
-58.500000000000007
10
-237.00000000000003
20
-67.5
10
-240
20
-67.5
10
-240
20
-76.5
10
-237.00000000000003
20
-76.5
10
-237.00000000000003
20
-85.5
10
-240
20
-85.5
10
-240
20
-94.500000000000014
10
-237.00000000000003
20
-94.500000000000014
10
-237.00000000000003
20
-103.50000000000001
10
-240
20
-103.50000000000001
10
-240
20
-112.5
10
-237.00000000000003
20
-112.5
10
-237.00000000000003
20
-121.5
10
-240
20
-121.5
10
-240
20
-130.5
10
-237.00000000000003
20
-130.5
10
-237.00000000000003
20
-139.5
10
-240
20
-139.5
10
-240
20
-148.5
10
-237.00000000000003
20
-148.5
10
-237.00000000000003
20
-157.5
10
-240
20
-157.5
10
-240
20
-166.50000000000003
0
ENDSEC
0
SECTION
2
OBJECTS
0
DICTIONARY
5
C
100
AcDbDictionary
3
ACAD_GROUP
350
D
3
ACAD_MLINESTYLE
350
17
0
DICTIONARY
5
D
100
AcDbDictionary
0
DICTIONARY
5
1A
330
C
100
AcDbDictionary
0
DICTIONARY
5
17
100
AcDbDictionary
0
ENDSEC
0
EOF
