0
SECTION
2
HEADER
9
$INSUNITS
70
4
9
$ACADVER
1
AC1014
9
$HANDSEED
5
FFFF
0
ENDSEC
0
SECTION
2
TABLES
0
TABLE
2
VPORT
5
8
100
AcDbSymbolTable
0
ENDTAB
0
TABLE
2
LTYPE
5
5
100
AcDbSymbolTable
0
LTYPE
5
14
100
AcDbSymbolTableRecord
100
AcDbLinetypeTableRecord
2
BYBLOCK
70
0
0
LTYPE
5
15
100
AcDbSymbolTableRecord
100
AcDbLinetypeTableRecord
2
BYLAYER
70
0
0
LTYPE
5
16
100
AcDbSymbolTableRecord
100
AcDbLinetypeTableRecord
2
DASHED
70
0
3
Dashed __ __ __ __ __ __ __ __ __ __ __ __ __ _
72
65
73
2
40
0.75
49
0.5
74
0
49
-0.25
74
0
0
ENDTAB
0
TABLE
2
LAYER
5
2
100
AcDbSymbolTable
70
2
0
LAYER
5
50
100
AcDbSymbolTableRecord
100
AcDbLayerTableRecord
2
0
70
0
62
7
6
CONTINUOUS
0
ENDTAB
0
TABLE
2
STYLE
5
3
100
AcDbSymbolTable
70
1
0
STYLE
5
11
100
AcDbSymbolTableRecord
100
AcDbTextStyleTableRecord
2
STANDARD
70
0
0
ENDTAB
0
TABLE
2
VIEW
5
6
100
AcDbSymbolTable
70
0
0
ENDTAB
0
TABLE
2
UCS
5
7
100
AcDbSymbolTable
70
0
0
ENDTAB
0
TABLE
2
APPID
5
9
100
AcDbSymbolTable
70
2
0
APPID
5
12
100
AcDbSymbolTableRecord
100
AcDbRegAppTableRecord
2
ACAD
70
0
0
ENDTAB
0
TABLE
2
DIMSTYLE
5
A
100
AcDbSymbolTable
70
1
0
ENDTAB
0
TABLE
2
BLOCK_RECORD
5
1
100
AcDbSymbolTable
70
1
0
BLOCK_RECORD
5
1F
100
AcDbSymbolTableRecord
100
AcDbBlockTableRecord
2
*MODEL_SPACE
0
BLOCK_RECORD
5
1B
100
AcDbSymbolTableRecord
100
AcDbBlockTableRecord
2
*PAPER_SPACE
0
ENDTAB
0
ENDSEC
0
SECTION
2
BLOCKS
0
BLOCK
5
20
100
AcDbEntity
100
AcDbBlockBegin
2
*MODEL_SPACE
0
ENDBLK
5
21
100
AcDbEntity
100
AcDbBlockEnd
0
BLOCK
5
1C
100
AcDbEntity
100
AcDbBlockBegin
2
*PAPER_SPACE
0
ENDBLK
5
1D
100
AcDbEntity
100
AcDbBlockEnd
0
ENDSEC
0
SECTION
2
ENTITIES
0
LWPOLYLINE
5
100
100
AcDbEntity
8
0
100
AcDbPolyline
90
107
70
1
43
0.0
10
-367.185
20
-277.05000000000001
10
-368.12099999999998
20
-277.05000000000001
10
-368.12099999999998
20
-273.51620000000003
10
-368.13999999999999
20
-273.55799999999999
10
-368.20500000000004
20
-273.68299999999999
10
-368.27499999999998
20
-273.80099999999999
10
-368.35000000000002
20
-273.91300000000001
10
-368.42900000000009
20
-274.01799999999997
10
-368.51400000000007
20
-274.11599999999999
10
-368.60300000000001
20
-274.20799999999997
10
-368.69699999999995
20
-274.29300000000001
10
-368.79600000000005
20
-274.37099999999998
10
-368.89999999999998
20
-274.44200000000001
10
-369.00800000000004
20
-274.50599999999997
10
-369.12
20
-274.56200000000001
10
-369.23699999999997
20
-274.61099999999999
10
-369.358
20
-274.65199999999999
10
-369.48300000000006
20
-274.68599999999998
10
-369.61300000000006
20
-274.71199999999999
10
-369.74699999999996
20
-274.73099999999999
10
-369.88599999999997
20
-274.74200000000002
10
-370.02900000000005
20
-274.74599999999998
10
-370.16300000000001
20
-274.74299999999999
10
-370.29199999999997
20
-274.73400000000004
10
-370.41800000000001
20
-274.71899999999999
10
-370.54000000000002
20
-274.69799999999998
10
-370.65800000000002
20
-274.67000000000002
10
-370.77199999999999
20
-274.63700000000006
10
-370.88300000000004
20
-274.59800000000001
10
-370.98900000000009
20
-274.55200000000002
10
-371.09100000000007
20
-274.50099999999998
10
-371.19
20
-274.44299999999998
10
-371.28399999999999
20
-274.38
10
-371.37400000000008
20
-274.31100000000004
10
-371.46000000000004
20
-274.238
10
-371.54000000000002
20
-274.15899999999999
10
-371.61699999999996
20
-274.07499999999999
10
-371.68900000000002
20
-273.98500000000001
10
-371.75599999999997
20
-273.89099999999996
10
-371.81900000000007
20
-273.791
10
-371.87700000000001
20
-273.68600000000004
10
-371.93100000000004
20
-273.57599999999996
10
-371.98000000000002
20
-273.46100000000001
10
-372.02400000000006
20
-273.34199999999998
10
-372.06300000000005
20
-273.21899999999999
10
-372.096
20
-273.09100000000001
10
-372.125
20
-272.95900000000006
10
-372.14800000000002
20
-272.82400000000001
10
-372.166
20
-272.68299999999999
10
-372.17900000000009
20
-272.53899999999999
10
-372.18600000000004
20
-272.39099999999996
10
-372.18900000000008
20
-272.238
10
-372.18900000000008
20
-268.86599999999999
10
-371.26499999999999
20
-268.86599999999999
10
-371.26499999999999
20
-272.238
10
-371.26100000000002
20
-272.39799999999997
10
-371.24900000000002
20
-272.55099999999999
10
-371.23000000000002
20
-272.69599999999997
10
-371.20200000000006
20
-272.83299999999997
10
-371.16700000000003
20
-272.96199999999999
10
-371.12400000000002
20
-273.08299999999997
10
-371.072
20
-273.19599999999997
10
-371.01300000000003
20
-273.30200000000002
10
-370.94699999999995
20
-273.399
10
-370.87199999999996
20
-273.48900000000003
10
-370.79100000000005
20
-273.57099999999997
10
-370.70300000000003
20
-273.64300000000003
10
-370.61100000000005
20
-273.70799999999997
10
-370.51199999999994
20
-273.76400000000001
10
-370.40800000000002
20
-273.81099999999998
10
-370.298
20
-273.84900000000005
10
-370.18200000000002
20
-273.87900000000002
10
-370.06099999999998
20
-273.90100000000007
10
-369.93400000000003
20
-273.91399999999999
10
-369.80099999999999
20
-273.91800000000001
10
-369.69900000000001
20
-273.91500000000002
10
-369.60000000000002
20
-273.90699999999998
10
-369.50400000000002
20
-273.89299999999997
10
-369.41000000000003
20
-273.87299999999999
10
-369.32000000000005
20
-273.84800000000001
10
-369.23099999999999
20
-273.81599999999997
10
-369.14600000000002
20
-273.77999999999997
10
-369.06400000000008
20
-273.73800000000006
10
-368.98400000000004
20
-273.69
10
-368.90700000000004
20
-273.63599999999997
10
-368.83300000000008
20
-273.577
10
-368.76300000000009
20
-273.51299999999998
10
-368.69599999999997
20
-273.44499999999999
10
-368.63200000000001
20
-273.37200000000001
10
-368.572
20
-273.29300000000001
10
-368.51599999999996
20
-273.20999999999998
10
-368.46300000000008
20
-273.12200000000007
10
-368.41399999999999
20
-273.029
10
-368.36800000000005
20
-272.93200000000002
10
-368.32500000000005
20
-272.82900000000001
10
-368.286
20
-272.72199999999998
10
-368.25199999999995
20
-272.61099999999999
10
-368.221
20
-272.49599999999998
10
-368.19400000000002
20
-272.37700000000007
10
-368.17200000000003
20
-272.25400000000002
10
-368.15400000000005
20
-272.12700000000001
10
-368.13900000000001
20
-271.99599999999998
10
-368.12900000000008
20
-271.86000000000001
10
-368.12300000000005
20
-271.721
10
-368.12099999999998
20
-271.57799999999997
10
-368.12099999999998
20
-268.86599999999999
10
-367.185
20
-268.86599999999999
0
LWPOLYLINE
5
101
100
AcDbEntity
8
0
100
AcDbPolyline
90
46
70
1
43
0.0
10
-353.04500000000007
20
-272.048
10
-352.83099999999996
20
-272.005
10
-352.76797714488134
20
-271.99667098831031
10
-354.92099999999999
20
-268.86599999999999
10
-353.709
20
-268.86599999999999
10
-351.76121052631584
20
-271.94999999999999
10
-350.42099999999999
20
-271.94999999999999
10
-350.42099999999999
20
-268.86599999999999
10
-349.48500000000001
20
-268.86599999999999
10
-349.48500000000001
20
-276.40199999999999
10
-352.11300000000006
20
-276.40199999999999
10
-352.36500000000001
20
-276.39599999999996
10
-352.60400000000004
20
-276.37700000000001
10
-352.83099999999996
20
-276.34699999999998
10
-353.04500000000007
20
-276.30400000000003
10
-353.24599999999998
20
-276.24799999999999
10
-353.435
20
-276.18099999999998
10
-353.61199999999997
20
-276.101
10
-353.77600000000001
20
-276.00799999999998
10
-353.92699999999996
20
-275.904
10
-354.06599999999997
20
-275.78700000000003
10
-354.19199999999995
20
-275.66000000000003
10
-354.30500000000001
20
-275.52600000000001
10
-354.40400000000005
20
-275.38299999999998
10
-354.49000000000007
20
-275.233
10
-354.56300000000005
20
-275.07499999999999
10
-354.62300000000005
20
-274.91000000000003
10
-354.66900000000004
20
-274.73599999999999
10
-354.702
20
-274.55500000000001
10
-354.72199999999998
20
-274.36700000000002
10
-354.72900000000004
20
-274.17000000000002
10
-354.72199999999998
20
-273.976
10
-354.702
20
-273.78899999999999
10
-354.66900000000004
20
-273.61000000000001
10
-354.62300000000005
20
-273.43799999999999
10
-354.56300000000005
20
-273.274
10
-354.49000000000007
20
-273.11700000000002
10
-354.40400000000005
20
-272.96800000000007
10
-354.30500000000001
20
-272.82599999999996
10
-354.19199999999995
20
-272.69200000000001
10
-354.06599999999997
20
-272.56500000000005
10
-353.92699999999996
20
-272.44799999999998
10
-353.77600000000001
20
-272.34399999999999
10
-353.61199999999997
20
-272.25099999999998
10
-353.435
20
-272.17100000000005
10
-353.24599999999998
20
-272.10400000000004
0
LWPOLYLINE
5
102
100
AcDbEntity
8
0
100
AcDbPolyline
90
4
70
1
43
0.0
10
-356.89500000000004
20
-274.61400000000003
10
-357.83099999999996
20
-274.61400000000003
10
-357.83099999999996
20
-268.86599999999999
10
-356.89500000000004
20
-268.86599999999999
0
LWPOLYLINE
5
103
100
AcDbEntity
8
0
100
AcDbPolyline
90
80
70
1
43
0.0
10
-357.47300000000001
20
-275.96499999999997
10
-357.4190000000001
20
-275.95999999999998
10
-357.36300000000006
20
-275.95799999999997
10
-357.30700000000002
20
-275.95999999999998
10
-357.25300000000004
20
-275.96499999999997
10
-357.20099999999996
20
-275.97300000000007
10
-357.15200000000004
20
-275.98400000000004
10
-357.10500000000002
20
-275.99900000000002
10
-357.06099999999998
20
-276.017
10
-357.01900000000001
20
-276.03899999999999
10
-356.97900000000004
20
-276.06400000000002
10
-356.94199999999995
20
-276.09199999999998
10
-356.90699999999998
20
-276.12299999999999
10
-356.875
20
-276.15699999999998
10
-356.84699999999998
20
-276.19299999999998
10
-356.82099999999997
20
-276.23099999999999
10
-356.79900000000004
20
-276.27200000000005
10
-356.78100000000001
20
-276.31400000000002
10
-356.76600000000002
20
-276.35900000000004
10
-356.75400000000002
20
-276.40499999999997
10
-356.74599999999998
20
-276.45400000000001
10
-356.74100000000004
20
-276.505
10
-356.73900000000003
20
-276.55799999999999
10
-356.74100000000004
20
-276.61000000000001
10
-356.74599999999998
20
-276.65899999999999
10
-356.75400000000002
20
-276.70699999999999
10
-356.76600000000002
20
-276.75200000000007
10
-356.78100000000001
20
-276.79500000000007
10
-356.79900000000004
20
-276.83600000000001
10
-356.82099999999997
20
-276.875
10
-356.84699999999998
20
-276.911
10
-356.875
20
-276.94599999999997
10
-356.90699999999998
20
-276.97800000000001
10
-356.94199999999995
20
-277.00800000000004
10
-356.97900000000004
20
-277.03399999999999
10
-357.01900000000001
20
-277.05799999999999
10
-357.06099999999998
20
-277.07799999999997
10
-357.10500000000002
20
-277.09500000000003
10
-357.15200000000004
20
-277.10900000000004
10
-357.20099999999996
20
-277.12
10
-357.25300000000004
20
-277.12800000000004
10
-357.30700000000002
20
-277.13200000000001
10
-357.36300000000006
20
-277.13400000000001
10
-357.4190000000001
20
-277.13200000000001
10
-357.47300000000001
20
-277.12800000000004
10
-357.52499999999998
20
-277.12
10
-357.57400000000007
20
-277.10900000000004
10
-357.62099999999998
20
-277.09500000000003
10
-357.66500000000002
20
-277.07799999999997
10
-357.70699999999999
20
-277.05799999999999
10
-357.74699999999996
20
-277.03399999999999
10
-357.78399999999999
20
-277.00800000000004
10
-357.81900000000002
20
-276.97800000000001
10
-357.851
20
-276.94599999999997
10
-357.87900000000002
20
-276.911
10
-357.90500000000003
20
-276.875
10
-357.92699999999996
20
-276.83600000000001
10
-357.94499999999999
20
-276.79500000000007
10
-357.95999999999998
20
-276.75200000000007
10
-357.97199999999998
20
-276.70699999999999
10
-357.98000000000002
20
-276.65899999999999
10
-357.98500000000001
20
-276.61000000000001
10
-357.98699999999997
20
-276.55799999999999
10
-357.98500000000001
20
-276.505
10
-357.98000000000002
20
-276.45400000000001
10
-357.97199999999998
20
-276.40499999999997
10
-357.95999999999998
20
-276.35900000000004
10
-357.94499999999999
20
-276.31400000000002
10
-357.92699999999996
20
-276.27200000000005
10
-357.90500000000003
20
-276.23099999999999
10
-357.87900000000002
20
-276.19299999999998
10
-357.851
20
-276.15699999999998
10
-357.81900000000002
20
-276.12299999999999
10
-357.78399999999999
20
-276.09199999999998
10
-357.74699999999996
20
-276.06400000000002
10
-357.70699999999999
20
-276.03899999999999
10
-357.66500000000002
20
-276.017
10
-357.62099999999998
20
-275.99900000000002
10
-357.57400000000007
20
-275.98400000000004
10
-357.52499999999998
20
-275.97300000000007
0
LWPOLYLINE
5
104
100
AcDbEntity
8
0
100
AcDbPolyline
90
89
70
1
43
0.0
10
-375.471
20
-274.60200000000003
10
-377.28300000000002
20
-274.60200000000003
10
-377.28300000000002
20
-273.95400000000001
10
-375.471
20
-273.95400000000001
10
-375.471
20
-270.36599999999999
10
-375.47900000000004
20
-270.197
10
-375.50400000000002
20
-270.04599999999999
10
-375.54599999999999
20
-269.91300000000001
10
-375.60300000000007
20
-269.798
10
-375.67800000000005
20
-269.69999999999999
10
-375.76900000000001
20
-269.62
10
-375.87699999999995
20
-269.55799999999999
10
-376.00099999999998
20
-269.51400000000001
10
-376.14200000000005
20
-269.48700000000002
10
-376.29900000000009
20
-269.47800000000001
10
-376.39699999999999
20
-269.48000000000002
10
-376.44499999999999
20
-269.48300000000006
10
-376.541
20
-269.49099999999999
10
-376.58900000000006
20
-269.49700000000001
10
-376.63599999999997
20
-269.50400000000002
10
-376.73000000000002
20
-269.52199999999999
10
-376.77600000000007
20
-269.53199999999998
10
-376.82300000000004
20
-269.54300000000001
10
-376.87099999999998
20
-269.55599999999998
10
-376.92000000000002
20
-269.56900000000007
10
-376.97000000000003
20
-269.584
10
-377.02099999999996
20
-269.59899999999999
10
-377.07400000000001
20
-269.61599999999999
10
-377.12699999999995
20
-269.63400000000001
10
-377.18199999999996
20
-269.65300000000002
10
-377.23800000000006
20
-269.673
10
-377.29500000000002
20
-269.69400000000002
10
-377.42700000000002
20
-269.02199999999999
10
-377.36600000000004
20
-268.99599999999998
10
-377.30500000000001
20
-268.971
10
-377.24400000000003
20
-268.947
10
-377.18300000000005
20
-268.92400000000004
10
-377.12199999999996
20
-268.90199999999999
10
-377.06099999999998
20
-268.88099999999997
10
-377
20
-268.86099999999999
10
-376.93900000000008
20
-268.84199999999998
10
-376.87900000000008
20
-268.82299999999998
10
-376.81800000000004
20
-268.80600000000004
10
-376.75700000000001
20
-268.79000000000008
10
-376.69599999999997
20
-268.77600000000001
10
-376.63400000000001
20
-268.76300000000003
10
-376.57199999999995
20
-268.75200000000001
10
-376.51000000000005
20
-268.74299999999999
10
-376.44699999999995
20
-268.73500000000001
10
-376.38400000000001
20
-268.73000000000002
10
-376.31999999999999
20
-268.72500000000002
10
-376.25599999999997
20
-268.72300000000001
10
-376.19099999999997
20
-268.72199999999998
10
-376.09800000000001
20
-268.72399999999999
10
-376.00800000000004
20
-268.72900000000004
10
-375.91900000000004
20
-268.73800000000006
10
-375.83199999999999
20
-268.75099999999998
10
-375.74700000000001
20
-268.767
10
-375.66399999999999
20
-268.78700000000003
10
-375.58300000000003
20
-268.81
10
-375.50400000000002
20
-268.83699999999999
10
-375.42599999999999
20
-268.86799999999999
10
-375.351
20
-268.90199999999999
10
-375.27800000000008
20
-268.94
10
-375.20800000000003
20
-268.98099999999999
10
-375.14200000000005
20
-269.02600000000001
10
-375.07800000000003
20
-269.07499999999999
10
-375.01800000000003
20
-269.12700000000001
10
-374.96100000000007
20
-269.18299999999999
10
-374.90699999999998
20
-269.24200000000002
10
-374.85599999999999
20
-269.30500000000001
10
-374.80800000000011
20
-269.37200000000007
10
-374.76300000000003
20
-269.44200000000001
10
-374.72199999999998
20
-269.51599999999996
10
-374.685
20
-269.59300000000002
10
-374.65300000000008
20
-269.67400000000004
10
-374.625
20
-269.75900000000001
10
-374.60100000000006
20
-269.84699999999998
10
-374.58199999999999
20
-269.93900000000002
10
-374.56600000000003
20
-270.03399999999999
10
-374.55599999999998
20
-270.13300000000004
10
-374.54900000000004
20
-270.23599999999999
10
-374.54699999999997
20
-270.34199999999998
10
-374.54699999999997
20
-273.95400000000001
10
-373.62300000000005
20
-273.95400000000001
10
-373.62300000000005
20
-274.60200000000003
10
-374.54699999999997
20
-274.60200000000003
10
-374.54699999999997
20
-276.19799999999998
10
-375.471
20
-276.19799999999998
0
LWPOLYLINE
5
105
100
AcDbEntity
8
0
100
AcDbPolyline
90
345
70
1
43
0.0
10
-364.50300000000004
20
-274.01799999999997
10
-364.49400000000003
20
-273.92900000000003
10
-364.49343248066634
20
-273.91102855443188
10
-364.54599999999999
20
-273.84300000000002
10
-364.61099999999999
20
-273.75
10
-364.67000000000007
20
-273.654
10
-364.72300000000007
20
-273.55400000000003
10
-364.76999999999998
20
-273.452
10
-364.81099999999998
20
-273.346
10
-364.84500000000003
20
-273.23700000000002
10
-364.87300000000005
20
-273.125
10
-364.89499999999998
20
-273.00999999999999
10
-364.91100000000006
20
-272.892
10
-364.92000000000007
20
-272.76999999999998
10
-364.923
20
-272.64599999999996
10
-364.92000000000007
20
-272.52299999999997
10
-364.91100000000006
20
-272.40200000000004
10
-364.89499999999998
20
-272.28500000000003
10
-364.87300000000005
20
-272.17100000000005
10
-364.84500000000003
20
-272.06000000000006
10
-364.81099999999998
20
-271.95099999999996
10
-364.76999999999998
20
-271.846
10
-364.72300000000007
20
-271.74400000000003
10
-364.67000000000007
20
-271.64400000000001
10
-364.61099999999999
20
-271.548
10
-364.54599999999999
20
-271.45499999999998
10
-364.47800000000001
20
-271.36700000000008
10
-364.40499999999997
20
-271.28300000000002
10
-364.32700000000006
20
-271.202
10
-364.24599999999998
20
-271.12700000000007
10
-364.16000000000003
20
-271.05500000000001
10
-364.07000000000005
20
-270.98700000000002
10
-363.97500000000002
20
-270.92400000000004
10
-363.87699999999995
20
-270.86500000000001
10
-363.774
20
-270.81000000000006
10
-363.66800000000006
20
-270.75999999999999
10
-363.55900000000008
20
-270.71500000000003
10
-363.44800000000009
20
-270.67500000000001
10
-363.33500000000004
20
-270.64099999999996
10
-363.22000000000003
20
-270.61200000000002
10
-363.10200000000003
20
-270.58799999999997
10
-362.98200000000003
20
-270.57000000000005
10
-362.85900000000004
20
-270.55700000000002
10
-362.73400000000004
20
-270.54900000000004
10
-362.60699999999997
20
-270.54599999999999
10
-362.476
20
-270.54900000000004
10
-362.34800000000001
20
-270.55700000000002
10
-362.22300000000007
20
-270.57000000000005
10
-362.10000000000002
20
-270.58799999999997
10
-361.97900000000004
20
-270.61200000000002
10
-361.86100000000005
20
-270.64099999999996
10
-361.74599999999998
20
-270.67500000000001
10
-361.63400000000001
20
-270.71500000000003
10
-361.52300000000002
20
-270.75999999999999
10
-361.41600000000005
20
-270.81000000000006
10
-361.38159681505618
20
-270.82819399203765
10
-361.37
20
-270.82600000000002
10
-361.334
20
-270.81700000000001
10
-361.298
20
-270.80599999999998
10
-361.26100000000002
20
-270.7940000000001
10
-361.22500000000002
20
-270.77999999999997
10
-361.1880000000001
20
-270.76499999999999
10
-361.15200000000004
20
-270.74799999999999
10
-361.11699999999996
20
-270.72900000000004
10
-361.08400000000006
20
-270.709
10
-361.05099999999999
20
-270.68799999999999
10
-361.01999999999998
20
-270.66399999999999
10
-360.99000000000001
20
-270.63999999999999
10
-360.96100000000001
20
-270.61300000000006
10
-360.93400000000003
20
-270.58499999999998
10
-360.90699999999998
20
-270.55599999999998
10
-360.88199999999995
20
-270.52499999999998
10
-360.85900000000004
20
-270.49200000000002
10
-360.83800000000002
20
-270.45799999999997
10
-360.81900000000007
20
-270.42200000000003
10
-360.80300000000011
20
-270.38499999999999
10
-360.79000000000002
20
-270.346
10
-360.779
20
-270.30500000000006
10
-360.76999999999998
20
-270.26299999999998
10
-360.76400000000001
20
-270.21900000000005
10
-360.75999999999999
20
-270.173
10
-360.75900000000001
20
-270.12599999999998
10
-360.76099999999997
20
-270.072
10
-360.76800000000003
20
-270.01900000000001
10
-360.77999999999997
20
-269.96899999999999
10
-360.79500000000002
20
-269.92000000000007
10
-360.81600000000003
20
-269.87299999999999
10
-360.84100000000001
20
-269.827
10
-360.87099999999998
20
-269.78399999999999
10
-360.90499999999997
20
-269.74200000000002
10
-360.94400000000002
20
-269.702
10
-360.98700000000002
20
-269.66399999999999
10
-361.036
20
-269.62900000000002
10
-361.09300000000007
20
-269.59699999999998
10
-361.15699999999998
20
-269.56900000000007
10
-361.2290000000001
20
-269.54500000000002
10
-361.30800000000011
20
-269.524
10
-361.39499999999998
20
-269.50800000000004
10
-361.48800000000006
20
-269.495
10
-361.58999999999997
20
-269.48500000000001
10
-361.69900000000007
20
-269.48000000000002
10
-361.815
20
-269.47800000000001
10
-364.04699999999997
20
-269.47800000000001
10
-364.20600000000002
20
-269.47500000000002
10
-364.35699999999997
20
-269.464
10
-364.50199999999995
20
-269.447
10
-364.63999999999999
20
-269.423
10
-364.77100000000002
20
-269.392
10
-364.89499999999998
20
-269.35500000000002
10
-365.01199999999994
20
-269.31
10
-365.12200000000001
20
-269.25900000000001
10
-365.22600000000006
20
-269.20099999999996
10
-365.32199999999995
20
-269.13599999999997
10
-365.41000000000003
20
-269.065
10
-365.48900000000003
20
-268.988
10
-365.55900000000003
20
-268.90600000000001
10
-365.62000000000006
20
-268.81900000000002
10
-365.67100000000005
20
-268.726
10
-365.71300000000002
20
-268.62799999999999
10
-365.745
20
-268.52499999999998
10
-365.76800000000003
20
-268.416
10
-365.78200000000004
20
-268.30200000000002
10
-365.78699999999998
20
-268.18200000000002
10
-365.78300000000007
20
-268.07000000000005
10
-365.77099999999996
20
-267.95799999999997
10
-365.75099999999998
20
-267.84800000000007
10
-365.72300000000007
20
-267.738
10
-365.68700000000001
20
-267.62900000000002
10
-365.642
20
-267.52099999999996
10
-365.58999999999997
20
-267.41399999999999
10
-365.52999999999997
20
-267.30799999999999
10
-365.46100000000001
20
-267.20299999999997
10
-365.38499999999999
20
-267.09899999999999
10
-365.30099999999999
20
-266.99700000000001
10
-365.21000000000004
20
-266.899
10
-365.11199999999997
20
-266.80400000000009
10
-365.00800000000004
20
-266.714
10
-364.89599999999996
20
-266.62700000000001
10
-364.77699999999999
20
-266.54300000000001
10
-364.65200000000004
20
-266.464
10
-364.51900000000001
20
-266.38799999999998
10
-364.38
20
-266.31500000000005
10
-364.23300000000006
20
-266.24700000000007
10
-364.08000000000004
20
-266.18400000000003
10
-363.92099999999999
20
-266.12700000000007
10
-363.75699999999995
20
-266.077
10
-363.58600000000001
20
-266.03399999999999
10
-363.40899999999999
20
-265.99700000000001
10
-363.22699999999998
20
-265.96699999999998
10
-363.03899999999999
20
-265.94400000000002
10
-362.84500000000003
20
-265.92700000000002
10
-362.64499999999998
20
-265.91700000000003
10
-362.43900000000002
20
-265.91399999999999
10
-362.26499999999999
20
-265.916
10
-362.096
20
-265.92400000000004
10
-361.93100000000004
20
-265.93599999999998
10
-361.77099999999996
20
-265.95400000000001
10
-361.61500000000001
20
-265.976
10
-361.46499999999997
20
-266.00400000000002
10
-361.31900000000002
20
-266.036
10
-361.17800000000011
20
-266.07299999999998
10
-361.04100000000005
20
-266.11599999999999
10
-360.90899999999999
20
-266.16300000000001
10
-360.78200000000004
20
-266.214
10
-360.661
20
-266.26900000000001
10
-360.54599999999999
20
-266.32799999999997
10
-360.43699999999995
20
-266.38900000000001
10
-360.334
20
-266.45400000000001
10
-360.23599999999999
20
-266.52199999999999
10
-360.14400000000001
20
-266.59399999999999
10
-360.05800000000011
20
-266.66900000000004
10
-359.97800000000007
20
-266.74700000000001
10
-359.904
20
-266.82900000000006
10
-359.83600000000001
20
-266.91300000000001
10
-359.77499999999998
20
-266.99900000000002
10
-359.72199999999998
20
-267.08699999999999
10
-359.67599999999999
20
-267.17700000000002
10
-359.63599999999997
20
-267.26799999999997
10
-359.60400000000004
20
-267.36099999999999
10
-359.57900000000001
20
-267.45499999999998
10
-359.56099999999998
20
-267.55200000000002
10
-359.55100000000004
20
-267.64999999999998
10
-359.54699999999997
20
-267.75
10
-359.55199999999996
20
-267.88
10
-359.56700000000001
20
-268.00400000000002
10
-359.59100000000001
20
-268.12099999999998
10
-359.625
20
-268.23200000000003
10
-359.66900000000004
20
-268.33699999999999
10
-359.72300000000007
20
-268.43599999999998
10
-359.78699999999998
20
-268.52800000000002
10
-359.86000000000001
20
-268.61400000000003
10
-359.94300000000004
20
-268.69400000000002
10
-360.036
20
-268.767
10
-360.13699999999994
20
-268.834
10
-360.24300000000005
20
-268.89299999999997
10
-360.35500000000008
20
-268.94599999999997
10
-360.47300000000001
20
-268.99200000000002
10
-360.596
20
-269.02999999999997
10
-360.65287996755887
20
-269.04410975939442
10
-360.649
20
-269.04600000000005
10
-360.57400000000001
20
-269.08699999999999
10
-360.50300000000004
20
-269.13
10
-360.43599999999998
20
-269.17599999999999
10
-360.3730000000001
20
-269.22300000000001
10
-360.3130000000001
20
-269.27299999999997
10
-360.25800000000004
20
-269.32499999999999
10
-360.20699999999999
20
-269.38
10
-360.15899999999999
20
-269.43599999999998
10
-360.11599999999999
20
-269.49400000000003
10
-360.077
20
-269.553
10
-360.04300000000001
20
-269.61400000000003
10
-360.01300000000009
20
-269.67500000000001
10
-359.98800000000011
20
-269.738
10
-359.96699999999998
20
-269.80099999999999
10
-359.95200000000006
20
-269.86599999999999
10
-359.94
20
-269.93099999999998
10
-359.93300000000005
20
-269.99799999999999
10
-359.93099999999998
20
-270.06599999999997
10
-359.93300000000005
20
-270.137
10
-359.93900000000002
20
-270.20599999999996
10
-359.94900000000001
20
-270.27199999999999
10
-359.964
20
-270.33699999999999
10
-359.98199999999997
20
-270.399
10
-360.00400000000008
20
-270.45900000000006
10
-360.03100000000006
20
-270.517
10
-360.06200000000001
20
-270.57299999999998
10
-360.096
20
-270.62700000000001
10
-360.13499999999999
20
-270.678
10
-360.17699999999996
20
-270.72700000000003
10
-360.22199999999998
20
-270.774
10
-360.26800000000003
20
-270.81799999999998
10
-360.31800000000004
20
-270.86000000000001
10
-360.37
20
-270.89999999999998
10
-360.42400000000009
20
-270.93700000000001
10
-360.48099999999999
20
-270.97199999999998
10
-360.54000000000002
20
-271.00400000000002
10
-360.60200000000003
20
-271.03399999999999
10
-360.666
20
-271.06200000000001
10
-360.73199999999997
20
-271.08699999999999
10
-360.79900000000004
20
-271.11000000000001
10
-360.86700000000002
20
-271.12900000000002
10
-360.92295192307699
20
-271.14278525641021
10
-360.85900000000004
20
-271.202
10
-360.78100000000001
20
-271.28300000000002
10
-360.70800000000008
20
-271.36700000000008
10
-360.63999999999999
20
-271.45499999999998
10
-360.57600000000002
20
-271.548
10
-360.51700000000005
20
-271.64400000000001
10
-360.46500000000003
20
-271.74400000000003
10
-360.41800000000001
20
-271.846
10
-360.37800000000004
20
-271.95099999999996
10
-360.34399999999999
20
-272.06000000000006
10
-360.31599999999997
20
-272.17100000000005
10
-360.29500000000007
20
-272.28500000000003
10
-360.279
20
-272.40200000000004
10
-360.26999999999998
20
-272.52299999999997
10
-360.267
20
-272.64599999999996
10
-360.26999999999998
20
-272.76999999999998
10
-360.279
20
-272.892
10
-360.29500000000007
20
-273.00999999999999
10
-360.31599999999997
20
-273.125
10
-360.34399999999999
20
-273.23700000000002
10
-360.37800000000004
20
-273.346
10
-360.41800000000001
20
-273.452
10
-360.46500000000003
20
-273.55400000000003
10
-360.51700000000005
20
-273.654
10
-360.57600000000002
20
-273.75
10
-360.63999999999999
20
-273.84300000000002
10
-360.70800000000008
20
-273.93099999999998
10
-360.78100000000001
20
-274.01499999999999
10
-360.85900000000004
20
-274.09500000000003
10
-360.94
20
-274.17099999999999
10
-361.02699999999999
20
-274.24200000000002
10
-361.11699999999996
20
-274.30900000000003
10
-361.21199999999999
20
-274.37200000000007
10
-361.31200000000001
20
-274.43100000000004
10
-361.41600000000005
20
-274.48500000000001
10
-361.52300000000002
20
-274.53500000000008
10
-361.63400000000001
20
-274.57900000000001
10
-361.74599999999998
20
-274.61799999999999
10
-361.86100000000005
20
-274.65199999999999
10
-361.97900000000004
20
-274.68099999999998
10
-362.10000000000002
20
-274.70400000000001
10
-362.22300000000007
20
-274.72300000000007
10
-362.34800000000001
20
-274.73599999999999
10
-362.476
20
-274.74299999999999
10
-362.60699999999997
20
-274.74599999999998
10
-362.73400000000004
20
-274.74299999999999
10
-362.85900000000004
20
-274.73599999999999
10
-362.98200000000003
20
-274.72300000000007
10
-363.10200000000003
20
-274.70400000000001
10
-363.22000000000003
20
-274.68099999999998
10
-363.33500000000004
20
-274.65199999999999
10
-363.44800000000009
20
-274.61799999999999
10
-363.55900000000008
20
-274.57900000000001
10
-363.66800000000006
20
-274.53500000000008
10
-363.774
20
-274.48500000000001
10
-363.87699999999995
20
-274.43100000000004
10
-363.97500000000002
20
-274.37200000000007
10
-364.06600133786151
20
-274.31165174436563
10
-364.07900000000006
20
-274.39799999999997
10
-364.09600000000006
20
-274.48700000000002
10
-364.11800000000005
20
-274.57499999999999
10
-364.14400000000001
20
-274.65899999999999
10
-364.17400000000009
20
-274.74200000000002
10
-364.20700000000005
20
-274.822
10
-364.245
20
-274.899
10
-364.28600000000006
20
-274.97399999999999
10
-364.33099999999996
20
-275.04500000000002
10
-364.37900000000008
20
-275.11200000000002
10
-364.43000000000006
20
-275.17700000000002
10
-364.48500000000001
20
-275.238
10
-364.54300000000001
20
-275.29600000000005
10
-364.60500000000002
20
-275.35000000000002
10
-364.66900000000004
20
-275.40100000000001
10
-364.73700000000002
20
-275.44900000000001
10
-364.80900000000008
20
-275.49300000000005
10
-364.88400000000007
20
-275.53300000000002
10
-364.96100000000007
20
-275.57000000000005
10
-365.041
20
-275.60200000000003
10
-365.12400000000008
20
-275.62900000000002
10
-365.20900000000006
20
-275.65300000000002
10
-365.298
20
-275.67200000000003
10
-365.38900000000007
20
-275.68700000000001
10
-365.48300000000006
20
-275.697
10
-365.57999999999998
20
-275.70400000000001
10
-365.67900000000003
20
-275.70600000000002
10
-365.60699999999997
20
-274.78200000000004
10
-365.50199999999995
20
-274.77999999999997
10
-365.40100000000001
20
-274.77300000000002
10
-365.30599999999998
20
-274.76099999999997
10
-365.21499999999997
20
-274.745
10
-365.13
20
-274.72399999999999
10
-365.05000000000001
20
-274.69900000000001
10
-364.97399999999999
20
-274.66900000000004
10
-364.904
20
-274.63400000000001
10
-364.839
20
-274.59500000000003
10
-364.779
20
-274.55100000000004
10
-364.72399999999999
20
-274.50200000000001
10
-364.67500000000001
20
-274.44799999999998
10
-364.63199999999995
20
-274.38900000000001
10
-364.59500000000003
20
-274.32499999999999
10
-364.56300000000005
20
-274.25599999999997
10
-364.53699999999998
20
-274.18200000000002
10
-364.51700000000005
20
-274.10300000000001
0
LWPOLYLINE
5
106
100
AcDbEntity
8
0
100
AcDbPolyline
90
180
70
1
43
0.0
10
-483.00000000000006
20
-349.5
10
-483.00000000000006
20
-363.00000000000006
10
-475.50000000000006
20
-363.00000000000006
10
-475.50000000000006
20
-360
10
-466.50000000000006
20
-360
10
-466.50000000000006
20
-363.00000000000006
10
-457.5
20
-363.00000000000006
10
-457.5
20
-360
10
-448.5
20
-360
10
-448.5
20
-363.00000000000006
10
-439.5
20
-363.00000000000006
10
-439.5
20
-360
10
-430.50000000000006
20
-360
10
-430.50000000000006
20
-363.00000000000006
10
-421.50000000000006
20
-363.00000000000006
10
-421.50000000000006
20
-360
10
-412.5
20
-360
10
-412.5
20
-363.00000000000006
10
-403.5
20
-363.00000000000006
10
-403.5
20
-360
10
-394.5
20
-360
10
-394.5
20
-363.00000000000006
10
-385.50000000000006
20
-363.00000000000006
10
-385.50000000000006
20
-360
10
-376.5
20
-360
10
-376.5
20
-363.00000000000006
10
-367.5
20
-363.00000000000006
10
-367.5
20
-360
10
-358.5
20
-360
10
-358.5
20
-363.00000000000006
10
-349.5
20
-363.00000000000006
10
-349.5
20
-360
10
-340.50000000000006
20
-360
10
-340.50000000000006
20
-363.00000000000006
10
-331.5
20
-363.00000000000006
10
-331.5
20
-360
10
-322.5
20
-360
10
-322.5
20
-363.00000000000006
10
-313.5
20
-363.00000000000006
10
-313.5
20
-360
10
-304.5
20
-360
10
-304.5
20
-363.00000000000006
10
-295.5
20
-363.00000000000006
10
-295.5
20
-360
10
-286.5
20
-360
10
-286.5
20
-363.00000000000006
10
-277.5
20
-363.00000000000006
10
-277.5
20
-360
10
-268.5
20
-360
10
-268.5
20
-363.00000000000006
10
-259.5
20
-363.00000000000006
10
-259.5
20
-360
10
-250.5
20
-360
10
-250.5
20
-363.00000000000006
10
-243
20
-363.00000000000006
10
-243
20
-349.5
10
-246
20
-349.5
10
-246
20
-340.50000000000006
10
-243
20
-340.50000000000006
10
-243
20
-331.5
10
-246
20
-331.5
10
-246
20
-322.5
10
-243
20
-322.5
10
-243
20
-313.5
10
-246
20
-313.5
10
-246
20
-304.5
10
-243
20
-304.5
10
-243
20
-295.5
10
-246
20
-295.5
10
-246
20
-286.5
10
-243
20
-286.5
10
-243
20
-277.5
10
-246
20
-277.5
10
-246
20
-268.5
10
-243
20
-268.5
10
-243
20
-259.5
10
-246
20
-259.5
10
-246
20
-250.5
10
-243
20
-250.5
10
-243
20
-241.50000000000003
10
-246
20
-241.50000000000003
10
-246
20
-232.5
10
-243
20
-232.5
10
-243
20
-223.5
10
-246
20
-223.5
10
-246
20
-214.50000000000003
10
-243
20
-214.50000000000003
10
-243
20
-205.5
10
-246
20
-205.5
10
-246
20
-196.50000000000003
10
-243
20
-196.50000000000003
10
-243
20
-183
10
-250.5
20
-183
10
-250.5
20
-186
10
-259.5
20
-186
10
-259.5
20
-183
10
-268.5
20
-183
10
-268.5
20
-186
10
-277.5
20
-186
10
-277.5
20
-183
10
-286.5
20
-183
10
-286.5
20
-186
10
-295.5
20
-186
10
-295.5
20
-183
10
-304.5
20
-183
10
-304.5
20
-186
10
-313.5
20
-186
10
-313.5
20
-183
10
-322.5
20
-183
10
-322.5
20
-186
10
-331.5
20
-186
10
-331.5
20
-183
10
-340.50000000000006
20
-183
10
-340.50000000000006
20
-186
10
-349.5
20
-186
10
-349.5
20
-183
10
-358.5
20
-183
10
-358.5
20
-186
10
-367.5
20
-186
10
-367.5
20
-183
10
-376.5
20
-183
10
-376.5
20
-186
10
-385.50000000000006
20
-186
10
-385.50000000000006
20
-183
10
-394.5
20
-183
10
-394.5
20
-186
10
-403.5
20
-186
10
-403.5
20
-183
10
-412.5
20
-183
10
-412.5
20
-186
10
-421.50000000000006
20
-186
10
-421.50000000000006
20
-183
10
-430.50000000000006
20
-183
10
-430.50000000000006
20
-186
10
-439.5
20
-186
10
-439.5
20
-183
10
-448.5
20
-183
10
-448.5
20
-186
10
-457.5
20
-186
10
-457.5
20
-183
10
-466.50000000000006
20
-183
10
-466.50000000000006
20
-186
10
-475.50000000000006
20
-186
10
-475.50000000000006
20
-183
10
-483.00000000000006
20
-183
10
-483.00000000000006
20
-196.50000000000003
10
-480
20
-196.50000000000003
10
-480
20
-205.5
10
-483.00000000000006
20
-205.5
10
-483.00000000000006
20
-214.50000000000003
10
-480
20
-214.50000000000003
10
-480
20
-223.5
10
-483.00000000000006
20
-223.5
10
-483.00000000000006
20
-232.5
10
-480
20
-232.5
10
-480
20
-241.50000000000003
10
-483.00000000000006
20
-241.50000000000003
10
-483.00000000000006
20
-250.5
10
-480
20
-250.5
10
-480
20
-259.5
10
-483.00000000000006
20
-259.5
10
-483.00000000000006
20
-268.5
10
-480
20
-268.5
10
-480
20
-277.5
10
-483.00000000000006
20
-277.5
10
-483.00000000000006
20
-286.5
10
-480
20
-286.5
10
-480
20
-295.5
10
-483.00000000000006
20
-295.5
10
-483.00000000000006
20
-304.5
10
-480
20
-304.5
10
-480
20
-313.5
10
-483.00000000000006
20
-313.5
10
-483.00000000000006
20
-322.5
10
-480
20
-322.5
10
-480
20
-331.5
10
-483.00000000000006
20
-331.5
10
-483.00000000000006
20
-340.50000000000006
10
-480
20
-340.50000000000006
10
-480
20
-349.5
0
ENDSEC
0
SECTION
2
OBJECTS
0
DICTIONARY
5
C
100
AcDbDictionary
3
ACAD_GROUP
350
D
3
ACAD_MLINESTYLE
350
17
0
DICTIONARY
5
D
100
AcDbDictionary
0
DICTIONARY
5
1A
330
C
100
AcDbDictionary
0
DICTIONARY
5
17
100
AcDbDictionary
0
ENDSEC
0
EOF
