0
SECTION
2
HEADER
9
$INSUNITS
70
4
9
$ACADVER
1
AC1014
9
$HANDSEED
5
FFFF
0
ENDSEC
0
SECTION
2
TABLES
0
TABLE
2
VPORT
5
8
100
AcDbSymbolTable
0
ENDTAB
0
TABLE
2
LTYPE
5
5
100
AcDbSymbolTable
0
LTYPE
5
14
100
AcDbSymbolTableRecord
100
AcDbLinetypeTableRecord
2
BYBLOCK
70
0
0
LTYPE
5
15
100
AcDbSymbolTableRecord
100
AcDbLinetypeTableRecord
2
BYLAYER
70
0
0
LTYPE
5
16
100
AcDbSymbolTableRecord
100
AcDbLinetypeTableRecord
2
DASHED
70
0
3
Dashed __ __ __ __ __ __ __ __ __ __ __ __ __ _
72
65
73
2
40
0.75
49
0.5
74
0
49
-0.25
74
0
0
ENDTAB
0
TABLE
2
LAYER
5
2
100
AcDbSymbolTable
70
2
0
LAYER
5
50
100
AcDbSymbolTableRecord
100
AcDbLayerTableRecord
2
0
70
0
62
7
6
CONTINUOUS
0
ENDTAB
0
TABLE
2
STYLE
5
3
100
AcDbSymbolTable
70
1
0
STYLE
5
11
100
AcDbSymbolTableRecord
100
AcDbTextStyleTableRecord
2
STANDARD
70
0
0
ENDTAB
0
TABLE
2
VIEW
5
6
100
AcDbSymbolTable
70
0
0
ENDTAB
0
TABLE
2
UCS
5
7
100
AcDbSymbolTable
70
0
0
ENDTAB
0
TABLE
2
APPID
5
9
100
AcDbSymbolTable
70
2
0
APPID
5
12
100
AcDbSymbolTableRecord
100
AcDbRegAppTableRecord
2
ACAD
70
0
0
ENDTAB
0
TABLE
2
DIMSTYLE
5
A
100
AcDbSymbolTable
70
1
0
ENDTAB
0
TABLE
2
BLOCK_RECORD
5
1
100
AcDbSymbolTable
70
1
0
BLOCK_RECORD
5
1F
100
AcDbSymbolTableRecord
100
AcDbBlockTableRecord
2
*MODEL_SPACE
0
BLOCK_RECORD
5
1B
100
AcDbSymbolTableRecord
100
AcDbBlockTableRecord
2
*PAPER_SPACE
0
ENDTAB
0
ENDSEC
0
SECTION
2
BLOCKS
0
BLOCK
5
20
100
AcDbEntity
100
AcDbBlockBegin
2
*MODEL_SPACE
0
ENDBLK
5
21
100
AcDbEntity
100
AcDbBlockEnd
0
BLOCK
5
1C
100
AcDbEntity
100
AcDbBlockBegin
2
*PAPER_SPACE
0
ENDBLK
5
1D
100
AcDbEntity
100
AcDbBlockEnd
0
ENDSEC
0
SECTION
2
ENTITIES
0
LWPOLYLINE
5
100
100
AcDbEntity
8
0
100
AcDbPolyline
90
212
70
1
43
0.0
10
-720
20
-325.5
10
-720
20
-310.5
10
-723.00000000000011
20
-310.5
10
-723.00000000000011
20
-307.50000000000006
10
-720
20
-307.50000000000006
10
-720
20
-292.5
10
-723.00000000000011
20
-292.5
10
-723.00000000000011
20
-289.5
10
-720
20
-289.5
10
-720
20
-274.5
10
-723.00000000000011
20
-274.5
10
-723.00000000000011
20
-271.5
10
-720
20
-271.5
10
-720
20
-256.5
10
-723.00000000000011
20
-256.5
10
-723.00000000000011
20
-253.5
10
-720
20
-253.5
10
-720
20
-249.00000000000003
10
-715.50000000000011
20
-249.00000000000003
10
-715.50000000000011
20
-246
10
-712.5
20
-246
10
-712.5
20
-249.00000000000003
10
-697.5
20
-249.00000000000003
10
-697.5
20
-246
10
-694.5
20
-246
10
-694.5
20
-249.00000000000003
10
-679.5
20
-249.00000000000003
10
-679.5
20
-246
10
-676.5
20
-246
10
-676.5
20
-249.00000000000003
10
-661.5
20
-249.00000000000003
10
-661.5
20
-246
10
-658.5
20
-246
10
-658.5
20
-249.00000000000003
10
-643.50000000000011
20
-249.00000000000003
10
-643.50000000000011
20
-246
10
-640.5
20
-246
10
-640.5
20
-249.00000000000003
10
-625.5
20
-249.00000000000003
10
-625.5
20
-246
10
-622.5
20
-246
10
-622.5
20
-249.00000000000003
10
-607.50000000000011
20
-249.00000000000003
10
-607.50000000000011
20
-246
10
-604.5
20
-246
10
-604.5
20
-249.00000000000003
10
-589.5
20
-249.00000000000003
10
-589.5
20
-246
10
-586.5
20
-246
10
-586.5
20
-249.00000000000003
10
-571.5
20
-249.00000000000003
10
-571.5
20
-246
10
-568.5
20
-246
10
-568.5
20
-249.00000000000003
10
-553.50000000000011
20
-249.00000000000003
10
-553.50000000000011
20
-246
10
-550.5
20
-246
10
-550.5
20
-249.00000000000003
10
-535.5
20
-249.00000000000003
10
-535.5
20
-246
10
-532.5
20
-246
10
-532.5
20
-249.00000000000003
10
-517.50000000000011
20
-249.00000000000003
10
-517.50000000000011
20
-246
10
-514.5
20
-246
10
-514.5
20
-249.00000000000003
10
-499.5
20
-249.00000000000003
10
-499.5
20
-246
10
-496.5
20
-246
10
-496.5
20
-249.00000000000003
10
-492
20
-249.00000000000003
10
-492
20
-253.5
10
-489
20
-253.5
10
-489
20
-256.5
10
-492
20
-256.5
10
-492
20
-271.5
10
-489
20
-271.5
10
-489
20
-274.5
10
-492
20
-274.5
10
-492
20
-289.5
10
-489
20
-289.5
10
-489
20
-292.5
10
-492
20
-292.5
10
-492
20
-307.50000000000006
10
-489
20
-307.50000000000006
10
-489
20
-310.5
10
-492
20
-310.5
10
-492
20
-325.5
10
-489
20
-325.5
10
-489
20
-328.5
10
-492
20
-328.5
10
-492
20
-343.5
10
-489
20
-343.5
10
-489
20
-346.50000000000006
10
-492
20
-346.50000000000006
10
-492
20
-361.5
10
-489
20
-361.5
10
-489
20
-364.5
10
-492
20
-364.5
10
-492
20
-379.49999999999994
10
-489
20
-379.49999999999994
10
-489
20
-382.50000000000006
10
-492
20
-382.50000000000006
10
-492
20
-397.5
10
-489
20
-397.5
10
-489
20
-400.50000000000006
10
-492
20
-400.50000000000006
10
-492
20
-415.5
10
-489
20
-415.5
10
-489
20
-418.50000000000011
10
-492
20
-418.50000000000011
10
-492
20
-433.5
10
-489
20
-433.5
10
-489
20
-436.50000000000006
10
-492
20
-436.50000000000006
10
-492
20
-451.5
10
-489
20
-451.5
10
-489
20
-454.5
10
-492
20
-454.5
10
-492
20
-469.5
10
-489
20
-469.5
10
-489
20
-472.50000000000006
10
-492
20
-472.50000000000006
10
-492
20
-477
10
-496.5
20
-477
10
-496.5
20
-480.00000000000006
10
-499.5
20
-480.00000000000006
10
-499.5
20
-477
10
-514.5
20
-477
10
-514.5
20
-480.00000000000006
10
-517.50000000000011
20
-480.00000000000006
10
-517.50000000000011
20
-477
10
-532.5
20
-477
10
-532.5
20
-480.00000000000006
10
-535.5
20
-480.00000000000006
10
-535.5
20
-477
10
-550.5
20
-477
10
-550.5
20
-480.00000000000006
10
-553.50000000000011
20
-480.00000000000006
10
-553.50000000000011
20
-477
10
-568.5
20
-477
10
-568.5
20
-480.00000000000006
10
-571.5
20
-480.00000000000006
10
-571.5
20
-477
10
-586.5
20
-477
10
-586.5
20
-480.00000000000006
10
-589.5
20
-480.00000000000006
10
-589.5
20
-477
10
-604.5
20
-477
10
-604.5
20
-480.00000000000006
10
-607.50000000000011
20
-480.00000000000006
10
-607.50000000000011
20
-477
10
-622.5
20
-477
10
-622.5
20
-480.00000000000006
10
-625.5
20
-480.00000000000006
10
-625.5
20
-477
10
-640.5
20
-477
10
-640.5
20
-480.00000000000006
10
-643.50000000000011
20
-480.00000000000006
10
-643.50000000000011
20
-477
10
-658.5
20
-477
10
-658.5
20
-480.00000000000006
10
-661.5
20
-480.00000000000006
10
-661.5
20
-477
10
-676.5
20
-477
10
-676.5
20
-480.00000000000006
10
-679.5
20
-480.00000000000006
10
-679.5
20
-477
10
-694.5
20
-477
10
-694.5
20
-480.00000000000006
10
-697.5
20
-480.00000000000006
10
-697.5
20
-477
10
-712.5
20
-477
10
-712.5
20
-480.00000000000006
10
-715.50000000000011
20
-480.00000000000006
10
-715.50000000000011
20
-477
10
-720
20
-477
10
-720
20
-472.50000000000006
10
-723.00000000000011
20
-472.50000000000006
10
-723.00000000000011
20
-469.5
10
-720
20
-469.5
10
-720
20
-454.5
10
-723.00000000000011
20
-454.5
10
-723.00000000000011
20
-451.5
10
-720
20
-451.5
10
-720
20
-436.50000000000006
10
-723.00000000000011
20
-436.50000000000006
10
-723.00000000000011
20
-433.5
10
-720
20
-433.5
10
-720
20
-418.50000000000011
10
-723.00000000000011
20
-418.50000000000011
10
-723.00000000000011
20
-415.5
10
-720
20
-415.5
10
-720
20
-400.50000000000006
10
-723.00000000000011
20
-400.50000000000006
10
-723.00000000000011
20
-397.5
10
-720
20
-397.5
10
-720
20
-382.50000000000006
10
-723.00000000000011
20
-382.50000000000006
10
-723.00000000000011
20
-379.49999999999994
10
-720
20
-379.49999999999994
10
-720
20
-364.5
10
-723.00000000000011
20
-364.5
10
-723.00000000000011
20
-361.5
10
-720
20
-361.5
10
-720
20
-346.50000000000006
10
-723.00000000000011
20
-346.50000000000006
10
-723.00000000000011
20
-343.5
10
-720
20
-343.5
10
-720
20
-328.5
10
-723.00000000000011
20
-328.5
10
-723.00000000000011
20
-325.5
0
LWPOLYLINE
5
101
100
AcDbEntity
8
0
100
AcDbPolyline
90
212
70
1
43
0.0
10
-718.50000000000011
20
-480
10
-718.50000000000011
20
-483.00000000000006
10
-709.5
20
-483.00000000000006
10
-709.5
20
-480
10
-700.5
20
-480
10
-700.5
20
-483.00000000000006
10
-691.5
20
-483.00000000000006
10
-691.5
20
-480
10
-682.5
20
-480
10
-682.5
20
-483.00000000000006
10
-673.50000000000011
20
-483.00000000000006
10
-673.50000000000011
20
-480
10
-664.5
20
-480
10
-664.5
20
-483.00000000000006
10
-655.5
20
-483.00000000000006
10
-655.5
20
-480
10
-646.5
20
-480
10
-646.5
20
-483.00000000000006
10
-637.5
20
-483.00000000000006
10
-637.5
20
-480
10
-628.5
20
-480
10
-628.5
20
-483.00000000000006
10
-619.5
20
-483.00000000000006
10
-619.5
20
-480
10
-610.5
20
-480
10
-610.5
20
-483.00000000000006
10
-601.5
20
-483.00000000000006
10
-601.5
20
-480
10
-592.5
20
-480
10
-592.5
20
-483.00000000000006
10
-583.5
20
-483.00000000000006
10
-583.5
20
-480
10
-574.5
20
-480
10
-574.5
20
-483.00000000000006
10
-565.5
20
-483.00000000000006
10
-565.5
20
-480
10
-556.5
20
-480
10
-556.5
20
-483.00000000000006
10
-547.5
20
-483.00000000000006
10
-547.5
20
-480
10
-538.5
20
-480
10
-538.5
20
-483.00000000000006
10
-529.5
20
-483.00000000000006
10
-529.5
20
-480
10
-520.5
20
-480
10
-520.5
20
-483.00000000000006
10
-511.50000000000006
20
-483.00000000000006
10
-511.50000000000006
20
-480
10
-502.5
20
-480
10
-502.5
20
-483.00000000000006
10
-493.5
20
-483.00000000000006
10
-493.5
20
-480
10
-489.00000000000006
20
-480
10
-489.00000000000006
20
-475.50000000000006
10
-486
20
-475.50000000000006
10
-486
20
-466.50000000000006
10
-489.00000000000006
20
-466.50000000000006
10
-489.00000000000006
20
-457.5
10
-486
20
-457.5
10
-486
20
-448.5
10
-489.00000000000006
20
-448.5
10
-489.00000000000006
20
-439.5
10
-486
20
-439.5
10
-486
20
-430.50000000000006
10
-489.00000000000006
20
-430.50000000000006
10
-489.00000000000006
20
-421.50000000000006
10
-486
20
-421.50000000000006
10
-486
20
-412.5
10
-489.00000000000006
20
-412.5
10
-489.00000000000006
20
-403.5
10
-486
20
-403.5
10
-486
20
-394.5
10
-489.00000000000006
20
-394.5
10
-489.00000000000006
20
-385.50000000000006
10
-486
20
-385.50000000000006
10
-486
20
-376.5
10
-489.00000000000006
20
-376.5
10
-489.00000000000006
20
-367.5
10
-486
20
-367.5
10
-486
20
-358.5
10
-489.00000000000006
20
-358.5
10
-489.00000000000006
20
-349.5
10
-486
20
-349.5
10
-486
20
-340.50000000000006
10
-489.00000000000006
20
-340.50000000000006
10
-489.00000000000006
20
-331.5
10
-486
20
-331.5
10
-486
20
-322.5
10
-489.00000000000006
20
-322.5
10
-489.00000000000006
20
-313.5
10
-486
20
-313.5
10
-486
20
-304.5
10
-489.00000000000006
20
-304.5
10
-489.00000000000006
20
-295.5
10
-486
20
-295.5
10
-486
20
-286.5
10
-489.00000000000006
20
-286.5
10
-489.00000000000006
20
-277.5
10
-486
20
-277.5
10
-486
20
-268.5
10
-489.00000000000006
20
-268.5
10
-489.00000000000006
20
-259.5
10
-486
20
-259.5
10
-486
20
-250.5
10
-489.00000000000006
20
-250.5
10
-489.00000000000006
20
-246
10
-493.5
20
-246
10
-493.5
20
-243
10
-502.5
20
-243
10
-502.5
20
-246
10
-511.50000000000006
20
-246
10
-511.50000000000006
20
-243
10
-520.5
20
-243
10
-520.5
20
-246
10
-529.5
20
-246
10
-529.5
20
-243
10
-538.5
20
-243
10
-538.5
20
-246
10
-547.5
20
-246
10
-547.5
20
-243
10
-556.5
20
-243
10
-556.5
20
-246
10
-565.5
20
-246
10
-565.5
20
-243
10
-574.5
20
-243
10
-574.5
20
-246
10
-583.5
20
-246
10
-583.5
20
-243
10
-592.5
20
-243
10
-592.5
20
-246
10
-601.5
20
-246
10
-601.5
20
-243
10
-610.5
20
-243
10
-610.5
20
-246
10
-619.5
20
-246
10
-619.5
20
-243
10
-628.5
20
-243
10
-628.5
20
-246
10
-637.5
20
-246
10
-637.5
20
-243
10
-646.5
20
-243
10
-646.5
20
-246
10
-655.5
20
-246
10
-655.5
20
-243
10
-664.5
20
-243
10
-664.5
20
-246
10
-673.50000000000011
20
-246
10
-673.50000000000011
20
-243
10
-682.5
20
-243
10
-682.5
20
-246
10
-691.5
20
-246
10
-691.5
20
-243
10
-700.5
20
-243
10
-700.5
20
-246
10
-709.5
20
-246
10
-709.5
20
-243
10
-718.50000000000011
20
-243
10
-718.50000000000011
20
-246
10
-723
20
-246
10
-723
20
-250.5
10
-726.00000000000011
20
-250.5
10
-726.00000000000011
20
-259.5
10
-723
20
-259.5
10
-723
20
-268.5
10
-726.00000000000011
20
-268.5
10
-726.00000000000011
20
-277.5
10
-723
20
-277.5
10
-723
20
-286.5
10
-726.00000000000011
20
-286.5
10
-726.00000000000011
20
-295.5
10
-723
20
-295.5
10
-723
20
-304.5
10
-726.00000000000011
20
-304.5
10
-726.00000000000011
20
-313.5
10
-723
20
-313.5
10
-723
20
-322.5
10
-726.00000000000011
20
-322.5
10
-726.00000000000011
20
-331.5
10
-723
20
-331.5
10
-723
20
-340.50000000000006
10
-726.00000000000011
20
-340.50000000000006
10
-726.00000000000011
20
-349.5
10
-723
20
-349.5
10
-723
20
-358.5
10
-726.00000000000011
20
-358.5
10
-726.00000000000011
20
-367.5
10
-723
20
-367.5
10
-723
20
-376.5
10
-726.00000000000011
20
-376.5
10
-726.00000000000011
20
-385.50000000000006
10
-723
20
-385.50000000000006
10
-723
20
-394.5
10
-726.00000000000011
20
-394.5
10
-726.00000000000011
20
-403.5
10
-723
20
-403.5
10
-723
20
-412.5
10
-726.00000000000011
20
-412.5
10
-726.00000000000011
20
-421.50000000000006
10
-723
20
-421.50000000000006
10
-723
20
-430.50000000000006
10
-726.00000000000011
20
-430.50000000000006
10
-726.00000000000011
20
-439.5
10
-723
20
-439.5
10
-723
20
-448.5
10
-726.00000000000011
20
-448.5
10
-726.00000000000011
20
-457.5
10
-723
20
-457.5
10
-723
20
-466.50000000000006
10
-726.00000000000011
20
-466.50000000000006
10
-726.00000000000011
20
-475.50000000000006
10
-723
20
-475.50000000000006
10
-723
20
-480
0
ENDSEC
0
SECTION
2
OBJECTS
0
DICTIONARY
5
C
100
AcDbDictionary
3
ACAD_GROUP
350
D
3
ACAD_MLINESTYLE
350
17
0
DICTIONARY
5
D
100
AcDbDictionary
0
DICTIONARY
5
1A
330
C
100
AcDbDictionary
0
DICTIONARY
5
17
100
AcDbDictionary
0
ENDSEC
0
EOF
