0
SECTION
2
HEADER
9
$INSUNITS
70
4
9
$ACADVER
1
AC1014
9
$HANDSEED
5
FFFF
0
ENDSEC
0
SECTION
2
TABLES
0
TABLE
2
VPORT
5
8
100
AcDbSymbolTable
0
ENDTAB
0
TABLE
2
LTYPE
5
5
100
AcDbSymbolTable
0
LTYPE
5
14
100
AcDbSymbolTableRecord
100
AcDbLinetypeTableRecord
2
BYBLOCK
70
0
0
LTYPE
5
15
100
AcDbSymbolTableRecord
100
AcDbLinetypeTableRecord
2
BYLAYER
70
0
0
LTYPE
5
16
100
AcDbSymbolTableRecord
100
AcDbLinetypeTableRecord
2
DASHED
70
0
3
Dashed __ __ __ __ __ __ __ __ __ __ __ __ __ _
72
65
73
2
40
0.75
49
0.5
74
0
49
-0.25
74
0
0
ENDTAB
0
TABLE
2
LAYER
5
2
100
AcDbSymbolTable
70
2
0
LAYER
5
50
100
AcDbSymbolTableRecord
100
AcDbLayerTableRecord
2
0
70
0
62
7
6
CONTINUOUS
0
ENDTAB
0
TABLE
2
STYLE
5
3
100
AcDbSymbolTable
70
1
0
STYLE
5
11
100
AcDbSymbolTableRecord
100
AcDbTextStyleTableRecord
2
STANDARD
70
0
0
ENDTAB
0
TABLE
2
VIEW
5
6
100
AcDbSymbolTable
70
0
0
ENDTAB
0
TABLE
2
UCS
5
7
100
AcDbSymbolTable
70
0
0
ENDTAB
0
TABLE
2
APPID
5
9
100
AcDbSymbolTable
70
2
0
APPID
5
12
100
AcDbSymbolTableRecord
100
AcDbRegAppTableRecord
2
ACAD
70
0
0
ENDTAB
0
TABLE
2
DIMSTYLE
5
A
100
AcDbSymbolTable
70
1
0
ENDTAB
0
TABLE
2
BLOCK_RECORD
5
1
100
AcDbSymbolTable
70
1
0
BLOCK_RECORD
5
1F
100
AcDbSymbolTableRecord
100
AcDbBlockTableRecord
2
*MODEL_SPACE
0
BLOCK_RECORD
5
1B
100
AcDbSymbolTableRecord
100
AcDbBlockTableRecord
2
*PAPER_SPACE
0
ENDTAB
0
ENDSEC
0
SECTION
2
BLOCKS
0
BLOCK
5
20
100
AcDbEntity
100
AcDbBlockBegin
2
*MODEL_SPACE
0
ENDBLK
5
21
100
AcDbEntity
100
AcDbBlockEnd
0
BLOCK
5
1C
100
AcDbEntity
100
AcDbBlockBegin
2
*PAPER_SPACE
0
ENDBLK
5
1D
100
AcDbEntity
100
AcDbBlockEnd
0
ENDSEC
0
SECTION
2
ENTITIES
0
LWPOLYLINE
5
100
100
AcDbEntity
8
0
100
AcDbPolyline
90
212
70
1
43
0.0
10
-720
20
-172.5
10
-720
20
-157.5
10
-723.00000000000011
20
-157.5
10
-723.00000000000011
20
-154.5
10
-720
20
-154.5
10
-720
20
-139.5
10
-723.00000000000011
20
-139.5
10
-723.00000000000011
20
-136.50000000000003
10
-720
20
-136.50000000000003
10
-720
20
-121.5
10
-723.00000000000011
20
-121.5
10
-723.00000000000011
20
-118.50000000000001
10
-720
20
-118.50000000000001
10
-720
20
-103.5
10
-723.00000000000011
20
-103.5
10
-723.00000000000011
20
-100.5
10
-720
20
-100.5
10
-720
20
-85.499999999999986
10
-723.00000000000011
20
-85.499999999999986
10
-723.00000000000011
20
-82.5
10
-720
20
-82.5
10
-720
20
-67.500000000000014
10
-723.00000000000011
20
-67.500000000000014
10
-723.00000000000011
20
-64.5
10
-720
20
-64.5
10
-720
20
-49.5
10
-723.00000000000011
20
-49.5
10
-723.00000000000011
20
-46.5
10
-720
20
-46.5
10
-720
20
-31.500000000000014
10
-723.00000000000011
20
-31.500000000000014
10
-723.00000000000011
20
-28.500000000000007
10
-720
20
-28.500000000000007
10
-720
20
-13.500000000000004
10
-723.00000000000011
20
-13.500000000000004
10
-723.00000000000011
20
-10.5
10
-720
20
-10.5
10
-720
20
-6.0000000000000071
10
-715.50000000000011
20
-6.0000000000000071
10
-715.50000000000011
20
-3.0000000000000004
10
-712.5
20
-3.0000000000000004
10
-712.5
20
-6.0000000000000071
10
-697.5
20
-6.0000000000000071
10
-697.5
20
-3.0000000000000004
10
-694.5
20
-3.0000000000000004
10
-694.5
20
-6.0000000000000071
10
-679.5
20
-6.0000000000000071
10
-679.5
20
-3.0000000000000004
10
-676.5
20
-3.0000000000000004
10
-676.5
20
-6.0000000000000071
10
-661.5
20
-6.0000000000000071
10
-661.5
20
-3.0000000000000004
10
-658.5
20
-3.0000000000000004
10
-658.5
20
-6.0000000000000071
10
-643.50000000000011
20
-6.0000000000000071
10
-643.50000000000011
20
-3.0000000000000004
10
-640.5
20
-3.0000000000000004
10
-640.5
20
-6.0000000000000071
10
-625.5
20
-6.0000000000000071
10
-625.5
20
-3.0000000000000004
10
-622.5
20
-3.0000000000000004
10
-622.5
20
-6.0000000000000071
10
-607.50000000000011
20
-6.0000000000000071
10
-607.50000000000011
20
-3.0000000000000004
10
-604.5
20
-3.0000000000000004
10
-604.5
20
-6.0000000000000071
10
-589.5
20
-6.0000000000000071
10
-589.5
20
-3.0000000000000004
10
-586.5
20
-3.0000000000000004
10
-586.5
20
-6.0000000000000071
10
-571.5
20
-6.0000000000000071
10
-571.5
20
-3.0000000000000004
10
-568.5
20
-3.0000000000000004
10
-568.5
20
-6.0000000000000071
10
-553.50000000000011
20
-6.0000000000000071
10
-553.50000000000011
20
-3.0000000000000004
10
-550.5
20
-3.0000000000000004
10
-550.5
20
-6.0000000000000071
10
-535.5
20
-6.0000000000000071
10
-535.5
20
-3.0000000000000004
10
-532.5
20
-3.0000000000000004
10
-532.5
20
-6.0000000000000071
10
-517.50000000000011
20
-6.0000000000000071
10
-517.50000000000011
20
-3.0000000000000004
10
-514.5
20
-3.0000000000000004
10
-514.5
20
-6.0000000000000071
10
-499.5
20
-6.0000000000000071
10
-499.5
20
-3.0000000000000004
10
-496.5
20
-3.0000000000000004
10
-496.5
20
-6.0000000000000071
10
-492
20
-6.0000000000000071
10
-492
20
-10.5
10
-489
20
-10.5
10
-489
20
-13.500000000000004
10
-492
20
-13.500000000000004
10
-492
20
-28.500000000000007
10
-489
20
-28.500000000000007
10
-489
20
-31.500000000000014
10
-492
20
-31.500000000000014
10
-492
20
-46.5
10
-489
20
-46.5
10
-489
20
-49.5
10
-492
20
-49.5
10
-492
20
-64.5
10
-489
20
-64.5
10
-489
20
-67.500000000000014
10
-492
20
-67.500000000000014
10
-492
20
-82.5
10
-489
20
-82.5
10
-489
20
-85.499999999999986
10
-492
20
-85.499999999999986
10
-492
20
-100.5
10
-489
20
-100.5
10
-489
20
-103.5
10
-492
20
-103.5
10
-492
20
-118.50000000000001
10
-489
20
-118.50000000000001
10
-489
20
-121.5
10
-492
20
-121.5
10
-492
20
-136.50000000000003
10
-489
20
-136.50000000000003
10
-489
20
-139.5
10
-492
20
-139.5
10
-492
20
-154.5
10
-489
20
-154.5
10
-489
20
-157.5
10
-492
20
-157.5
10
-492
20
-172.5
10
-489
20
-172.5
10
-489
20
-175.5
10
-492
20
-175.5
10
-492
20
-190.5
10
-489
20
-190.5
10
-489
20
-193.5
10
-492
20
-193.5
10
-492
20
-208.5
10
-489
20
-208.5
10
-489
20
-211.50000000000003
10
-492
20
-211.50000000000003
10
-492
20
-226.50000000000003
10
-489
20
-226.50000000000003
10
-489
20
-229.5
10
-492
20
-229.5
10
-492
20
-234.00000000000003
10
-496.5
20
-234.00000000000003
10
-496.5
20
-237
10
-499.5
20
-237
10
-499.5
20
-234.00000000000003
10
-514.5
20
-234.00000000000003
10
-514.5
20
-237
10
-517.50000000000011
20
-237
10
-517.50000000000011
20
-234.00000000000003
10
-532.5
20
-234.00000000000003
10
-532.5
20
-237
10
-535.5
20
-237
10
-535.5
20
-234.00000000000003
10
-550.5
20
-234.00000000000003
10
-550.5
20
-237
10
-553.50000000000011
20
-237
10
-553.50000000000011
20
-234.00000000000003
10
-568.5
20
-234.00000000000003
10
-568.5
20
-237
10
-571.5
20
-237
10
-571.5
20
-234.00000000000003
10
-586.5
20
-234.00000000000003
10
-586.5
20
-237
10
-589.5
20
-237
10
-589.5
20
-234.00000000000003
10
-604.5
20
-234.00000000000003
10
-604.5
20
-237
10
-607.50000000000011
20
-237
10
-607.50000000000011
20
-234.00000000000003
10
-622.5
20
-234.00000000000003
10
-622.5
20
-237
10
-625.5
20
-237
10
-625.5
20
-234.00000000000003
10
-640.5
20
-234.00000000000003
10
-640.5
20
-237
10
-643.50000000000011
20
-237
10
-643.50000000000011
20
-234.00000000000003
10
-658.5
20
-234.00000000000003
10
-658.5
20
-237
10
-661.5
20
-237
10
-661.5
20
-234.00000000000003
10
-676.5
20
-234.00000000000003
10
-676.5
20
-237
10
-679.5
20
-237
10
-679.5
20
-234.00000000000003
10
-694.5
20
-234.00000000000003
10
-694.5
20
-237
10
-697.5
20
-237
10
-697.5
20
-234.00000000000003
10
-712.5
20
-234.00000000000003
10
-712.5
20
-237
10
-715.50000000000011
20
-237
10
-715.50000000000011
20
-234.00000000000003
10
-720
20
-234.00000000000003
10
-720
20
-229.5
10
-723.00000000000011
20
-229.5
10
-723.00000000000011
20
-226.50000000000003
10
-720
20
-226.50000000000003
10
-720
20
-211.50000000000003
10
-723.00000000000011
20
-211.50000000000003
10
-723.00000000000011
20
-208.5
10
-720
20
-208.5
10
-720
20
-193.5
10
-723.00000000000011
20
-193.5
10
-723.00000000000011
20
-190.5
10
-720
20
-190.5
10
-720
20
-175.5
10
-723.00000000000011
20
-175.5
10
-723.00000000000011
20
-172.5
0
LWPOLYLINE
5
101
100
AcDbEntity
8
0
100
AcDbPolyline
90
212
70
1
43
0.0
10
-718.50000000000011
20
-237.00000000000003
10
-718.50000000000011
20
-240
10
-709.5
20
-240
10
-709.5
20
-237.00000000000003
10
-700.5
20
-237.00000000000003
10
-700.5
20
-240
10
-691.5
20
-240
10
-691.5
20
-237.00000000000003
10
-682.5
20
-237.00000000000003
10
-682.5
20
-240
10
-673.50000000000011
20
-240
10
-673.50000000000011
20
-237.00000000000003
10
-664.5
20
-237.00000000000003
10
-664.5
20
-240
10
-655.5
20
-240
10
-655.5
20
-237.00000000000003
10
-646.5
20
-237.00000000000003
10
-646.5
20
-240
10
-637.5
20
-240
10
-637.5
20
-237.00000000000003
10
-628.5
20
-237.00000000000003
10
-628.5
20
-240
10
-619.5
20
-240
10
-619.5
20
-237.00000000000003
10
-610.5
20
-237.00000000000003
10
-610.5
20
-240
10
-601.5
20
-240
10
-601.5
20
-237.00000000000003
10
-592.5
20
-237.00000000000003
10
-592.5
20
-240
10
-583.5
20
-240
10
-583.5
20
-237.00000000000003
10
-574.5
20
-237.00000000000003
10
-574.5
20
-240
10
-565.5
20
-240
10
-565.5
20
-237.00000000000003
10
-556.5
20
-237.00000000000003
10
-556.5
20
-240
10
-547.5
20
-240
10
-547.5
20
-237.00000000000003
10
-538.5
20
-237.00000000000003
10
-538.5
20
-240
10
-529.5
20
-240
10
-529.5
20
-237.00000000000003
10
-520.5
20
-237.00000000000003
10
-520.5
20
-240
10
-511.50000000000006
20
-240
10
-511.50000000000006
20
-237.00000000000003
10
-502.5
20
-237.00000000000003
10
-502.5
20
-240
10
-493.5
20
-240
10
-493.5
20
-237.00000000000003
10
-489.00000000000006
20
-237.00000000000003
10
-489.00000000000006
20
-232.5
10
-486
20
-232.5
10
-486
20
-223.5
10
-489.00000000000006
20
-223.5
10
-489.00000000000006
20
-214.50000000000003
10
-486
20
-214.50000000000003
10
-486
20
-205.5
10
-489.00000000000006
20
-205.5
10
-489.00000000000006
20
-196.50000000000003
10
-486
20
-196.50000000000003
10
-486
20
-187.5
10
-489.00000000000006
20
-187.5
10
-489.00000000000006
20
-178.5
10
-486
20
-178.5
10
-486
20
-169.5
10
-489.00000000000006
20
-169.5
10
-489.00000000000006
20
-160.5
10
-486
20
-160.5
10
-486
20
-151.5
10
-489.00000000000006
20
-151.5
10
-489.00000000000006
20
-142.5
10
-486
20
-142.5
10
-486
20
-133.5
10
-489.00000000000006
20
-133.5
10
-489.00000000000006
20
-124.50000000000001
10
-486
20
-124.50000000000001
10
-486
20
-115.5
10
-489.00000000000006
20
-115.5
10
-489.00000000000006
20
-106.5
10
-486
20
-106.5
10
-486
20
-97.5
10
-489.00000000000006
20
-97.5
10
-489.00000000000006
20
-88.5
10
-486
20
-88.5
10
-486
20
-79.5
10
-489.00000000000006
20
-79.5
10
-489.00000000000006
20
-70.5
10
-486
20
-70.5
10
-486
20
-61.5
10
-489.00000000000006
20
-61.5
10
-489.00000000000006
20
-52.5
10
-486
20
-52.5
10
-486
20
-43.500000000000007
10
-489.00000000000006
20
-43.500000000000007
10
-489.00000000000006
20
-34.500000000000014
10
-486
20
-34.500000000000014
10
-486
20
-25.500000000000007
10
-489.00000000000006
20
-25.500000000000007
10
-489.00000000000006
20
-16.500000000000004
10
-486
20
-16.500000000000004
10
-486
20
-7.5
10
-489.00000000000006
20
-7.5
10
-489.00000000000006
20
-3.0000000000000071
10
-493.5
20
-3.0000000000000071
10
-493.5
20
0
10
-502.5
20
0
10
-502.5
20
-3.0000000000000071
10
-511.50000000000006
20
-3.0000000000000071
10
-511.50000000000006
20
0
10
-520.5
20
0
10
-520.5
20
-3.0000000000000071
10
-529.5
20
-3.0000000000000071
10
-529.5
20
0
10
-538.5
20
0
10
-538.5
20
-3.0000000000000071
10
-547.5
20
-3.0000000000000071
10
-547.5
20
0
10
-556.5
20
0
10
-556.5
20
-3.0000000000000071
10
-565.5
20
-3.0000000000000071
10
-565.5
20
0
10
-574.5
20
0
10
-574.5
20
-3.0000000000000071
10
-583.5
20
-3.0000000000000071
10
-583.5
20
0
10
-592.5
20
0
10
-592.5
20
-3.0000000000000071
10
-601.5
20
-3.0000000000000071
10
-601.5
20
0
10
-610.5
20
0
10
-610.5
20
-3.0000000000000071
10
-619.5
20
-3.0000000000000071
10
-619.5
20
0
10
-628.5
20
0
10
-628.5
20
-3.0000000000000071
10
-637.5
20
-3.0000000000000071
10
-637.5
20
0
10
-646.5
20
0
10
-646.5
20
-3.0000000000000071
10
-655.5
20
-3.0000000000000071
10
-655.5
20
0
10
-664.5
20
0
10
-664.5
20
-3.0000000000000071
10
-673.50000000000011
20
-3.0000000000000071
10
-673.50000000000011
20
0
10
-682.5
20
0
10
-682.5
20
-3.0000000000000071
10
-691.5
20
-3.0000000000000071
10
-691.5
20
0
10
-700.5
20
0
10
-700.5
20
-3.0000000000000071
10
-709.5
20
-3.0000000000000071
10
-709.5
20
0
10
-718.50000000000011
20
0
10
-718.50000000000011
20
-3.0000000000000071
10
-723
20
-3.0000000000000071
10
-723
20
-7.5
10
-726.00000000000011
20
-7.5
10
-726.00000000000011
20
-16.500000000000004
10
-723
20
-16.500000000000004
10
-723
20
-25.500000000000007
10
-726.00000000000011
20
-25.500000000000007
10
-726.00000000000011
20
-34.500000000000014
10
-723
20
-34.500000000000014
10
-723
20
-43.500000000000007
10
-726.00000000000011
20
-43.500000000000007
10
-726.00000000000011
20
-52.5
10
-723
20
-52.5
10
-723
20
-61.5
10
-726.00000000000011
20
-61.5
10
-726.00000000000011
20
-70.5
10
-723
20
-70.5
10
-723
20
-79.5
10
-726.00000000000011
20
-79.5
10
-726.00000000000011
20
-88.5
10
-723
20
-88.5
10
-723
20
-97.5
10
-726.00000000000011
20
-97.5
10
-726.00000000000011
20
-106.5
10
-723
20
-106.5
10
-723
20
-115.5
10
-726.00000000000011
20
-115.5
10
-726.00000000000011
20
-124.50000000000001
10
-723
20
-124.50000000000001
10
-723
20
-133.5
10
-726.00000000000011
20
-133.5
10
-726.00000000000011
20
-142.5
10
-723
20
-142.5
10
-723
20
-151.5
10
-726.00000000000011
20
-151.5
10
-726.00000000000011
20
-160.5
10
-723
20
-160.5
10
-723
20
-169.5
10
-726.00000000000011
20
-169.5
10
-726.00000000000011
20
-178.5
10
-723
20
-178.5
10
-723
20
-187.5
10
-726.00000000000011
20
-187.5
10
-726.00000000000011
20
-196.50000000000003
10
-723
20
-196.50000000000003
10
-723
20
-205.5
10
-726.00000000000011
20
-205.5
10
-726.00000000000011
20
-214.50000000000003
10
-723
20
-214.50000000000003
10
-723
20
-223.5
10
-726.00000000000011
20
-223.5
10
-726.00000000000011
20
-232.5
10
-723
20
-232.5
10
-723
20
-237.00000000000003
0
ENDSEC
0
SECTION
2
OBJECTS
0
DICTIONARY
5
C
100
AcDbDictionary
3
ACAD_GROUP
350
D
3
ACAD_MLINESTYLE
350
17
0
DICTIONARY
5
D
100
AcDbDictionary
0
DICTIONARY
5
1A
330
C
100
AcDbDictionary
0
DICTIONARY
5
17
100
AcDbDictionary
0
ENDSEC
0
EOF
