0
SECTION
2
HEADER
9
$INSUNITS
70
4
9
$ACADVER
1
AC1014
9
$HANDSEED
5
FFFF
0
ENDSEC
0
SECTION
2
TABLES
0
TABLE
2
VPORT
5
8
100
AcDbSymbolTable
0
ENDTAB
0
TABLE
2
LTYPE
5
5
100
AcDbSymbolTable
0
LTYPE
5
14
100
AcDbSymbolTableRecord
100
AcDbLinetypeTableRecord
2
BYBLOCK
70
0
0
LTYPE
5
15
100
AcDbSymbolTableRecord
100
AcDbLinetypeTableRecord
2
BYLAYER
70
0
0
LTYPE
5
16
100
AcDbSymbolTableRecord
100
AcDbLinetypeTableRecord
2
DASHED
70
0
3
Dashed __ __ __ __ __ __ __ __ __ __ __ __ __ _
72
65
73
2
40
0.75
49
0.5
74
0
49
-0.25
74
0
0
ENDTAB
0
TABLE
2
LAYER
5
2
100
AcDbSymbolTable
70
2
0
LAYER
5
50
100
AcDbSymbolTableRecord
100
AcDbLayerTableRecord
2
0
70
0
62
7
6
CONTINUOUS
0
ENDTAB
0
TABLE
2
STYLE
5
3
100
AcDbSymbolTable
70
1
0
STYLE
5
11
100
AcDbSymbolTableRecord
100
AcDbTextStyleTableRecord
2
STANDARD
70
0
0
ENDTAB
0
TABLE
2
VIEW
5
6
100
AcDbSymbolTable
70
0
0
ENDTAB
0
TABLE
2
UCS
5
7
100
AcDbSymbolTable
70
0
0
ENDTAB
0
TABLE
2
APPID
5
9
100
AcDbSymbolTable
70
2
0
APPID
5
12
100
AcDbSymbolTableRecord
100
AcDbRegAppTableRecord
2
ACAD
70
0
0
ENDTAB
0
TABLE
2
DIMSTYLE
5
A
100
AcDbSymbolTable
70
1
0
ENDTAB
0
TABLE
2
BLOCK_RECORD
5
1
100
AcDbSymbolTable
70
1
0
BLOCK_RECORD
5
1F
100
AcDbSymbolTableRecord
100
AcDbBlockTableRecord
2
*MODEL_SPACE
0
BLOCK_RECORD
5
1B
100
AcDbSymbolTableRecord
100
AcDbBlockTableRecord
2
*PAPER_SPACE
0
ENDTAB
0
ENDSEC
0
SECTION
2
BLOCKS
0
BLOCK
5
20
100
AcDbEntity
100
AcDbBlockBegin
2
*MODEL_SPACE
0
ENDBLK
5
21
100
AcDbEntity
100
AcDbBlockEnd
0
BLOCK
5
1C
100
AcDbEntity
100
AcDbBlockBegin
2
*PAPER_SPACE
0
ENDBLK
5
1D
100
AcDbEntity
100
AcDbBlockEnd
0
ENDSEC
0
SECTION
2
ENTITIES
0
LWPOLYLINE
5
100
100
AcDbEntity
8
0
100
AcDbPolyline
90
345
70
1
43
0.0
10
-364.50300000000004
20
-229.01800000000003
10
-364.49400000000003
20
-228.929
10
-364.49343248066634
20
-228.91102855443188
10
-364.54599999999999
20
-228.84299999999999
10
-364.61099999999999
20
-228.75
10
-364.67000000000007
20
-228.65400000000005
10
-364.72300000000007
20
-228.55400000000003
10
-364.76999999999998
20
-228.45200000000003
10
-364.81099999999998
20
-228.34599999999998
10
-364.84500000000003
20
-228.23700000000002
10
-364.87300000000005
20
-228.125
10
-364.89499999999998
20
-228.01000000000002
10
-364.91100000000006
20
-227.892
10
-364.92000000000007
20
-227.77000000000001
10
-364.923
20
-227.64600000000002
10
-364.92000000000007
20
-227.52300000000002
10
-364.91100000000006
20
-227.40200000000002
10
-364.89499999999998
20
-227.285
10
-364.87300000000005
20
-227.17100000000002
10
-364.84500000000003
20
-227.05900000000003
10
-364.81099999999998
20
-226.95099999999999
10
-364.76999999999998
20
-226.846
10
-364.72300000000007
20
-226.74400000000006
10
-364.67000000000007
20
-226.64400000000001
10
-364.61099999999999
20
-226.548
10
-364.54599999999999
20
-226.45500000000001
10
-364.47800000000001
20
-226.36700000000005
10
-364.40499999999997
20
-226.28200000000004
10
-364.32700000000006
20
-226.202
10
-364.24599999999998
20
-226.126
10
-364.16000000000003
20
-226.05500000000004
10
-364.07000000000005
20
-225.98700000000002
10
-363.97500000000002
20
-225.92400000000001
10
-363.87699999999995
20
-225.86500000000001
10
-363.774
20
-225.81000000000003
10
-363.66800000000006
20
-225.75999999999999
10
-363.55900000000008
20
-225.715
10
-363.44800000000009
20
-225.67500000000001
10
-363.33500000000004
20
-225.64099999999999
10
-363.22000000000003
20
-225.61199999999999
10
-363.10200000000003
20
-225.58800000000002
10
-362.98200000000003
20
-225.57000000000002
10
-362.85900000000004
20
-225.55700000000002
10
-362.73400000000004
20
-225.54900000000004
10
-362.60699999999997
20
-225.54599999999999
10
-362.476
20
-225.54900000000004
10
-362.34800000000001
20
-225.55700000000002
10
-362.22300000000007
20
-225.57000000000002
10
-362.10000000000002
20
-225.58800000000002
10
-361.97900000000004
20
-225.61199999999999
10
-361.86100000000005
20
-225.64099999999999
10
-361.74599999999998
20
-225.67500000000001
10
-361.63400000000001
20
-225.715
10
-361.52300000000002
20
-225.75999999999999
10
-361.41600000000005
20
-225.81000000000003
10
-361.38159681505613
20
-225.82819399203765
10
-361.37
20
-225.82599999999999
10
-361.334
20
-225.81700000000001
10
-361.298
20
-225.80600000000001
10
-361.26100000000002
20
-225.79400000000004
10
-361.22500000000002
20
-225.78000000000003
10
-361.1880000000001
20
-225.76499999999999
10
-361.15200000000004
20
-225.74799999999999
10
-361.11699999999996
20
-225.72900000000004
10
-361.08400000000006
20
-225.709
10
-361.05099999999999
20
-225.68799999999999
10
-361.01999999999998
20
-225.66500000000002
10
-360.99000000000001
20
-225.63999999999999
10
-360.96100000000001
20
-225.61300000000003
10
-360.93400000000003
20
-225.58500000000004
10
-360.90699999999998
20
-225.55599999999998
10
-360.88199999999995
20
-225.52500000000003
10
-360.85900000000004
20
-225.49200000000002
10
-360.83800000000002
20
-225.458
10
-360.81900000000007
20
-225.42200000000003
10
-360.80300000000011
20
-225.38499999999999
10
-360.79000000000002
20
-225.34599999999998
10
-360.779
20
-225.30500000000004
10
-360.76999999999998
20
-225.26300000000003
10
-360.76400000000001
20
-225.21900000000002
10
-360.75999999999999
20
-225.17300000000003
10
-360.75900000000001
20
-225.12599999999998
10
-360.76099999999997
20
-225.072
10
-360.76800000000003
20
-225.01900000000003
10
-360.77999999999997
20
-224.96900000000005
10
-360.79500000000002
20
-224.92000000000002
10
-360.81600000000003
20
-224.87300000000002
10
-360.84100000000001
20
-224.827
10
-360.87099999999998
20
-224.78400000000005
10
-360.90499999999997
20
-224.74200000000002
10
-360.94400000000002
20
-224.70200000000003
10
-360.98700000000002
20
-224.66400000000004
10
-361.036
20
-224.62900000000005
10
-361.09300000000007
20
-224.59700000000001
10
-361.15699999999998
20
-224.56900000000005
10
-361.2290000000001
20
-224.54499999999999
10
-361.30800000000011
20
-224.524
10
-361.39499999999998
20
-224.50800000000001
10
-361.48800000000006
20
-224.495
10
-361.58999999999997
20
-224.48500000000001
10
-361.69900000000007
20
-224.48000000000002
10
-361.815
20
-224.47800000000001
10
-364.04699999999997
20
-224.47800000000001
10
-364.20600000000002
20
-224.47500000000002
10
-364.35699999999997
20
-224.46400000000006
10
-364.50199999999995
20
-224.447
10
-364.63999999999999
20
-224.42300000000003
10
-364.77100000000002
20
-224.39300000000003
10
-364.89499999999998
20
-224.35500000000002
10
-365.01199999999994
20
-224.31
10
-365.12200000000001
20
-224.25900000000001
10
-365.22600000000006
20
-224.20100000000002
10
-365.32199999999995
20
-224.13600000000002
10
-365.41000000000003
20
-224.065
10
-365.48900000000003
20
-223.988
10
-365.55900000000003
20
-223.90600000000001
10
-365.62000000000006
20
-223.81900000000002
10
-365.67100000000005
20
-223.72600000000003
10
-365.71300000000002
20
-223.62799999999999
10
-365.745
20
-223.52500000000003
10
-365.76800000000003
20
-223.416
10
-365.78200000000004
20
-223.30200000000005
10
-365.78699999999998
20
-223.18200000000004
10
-365.78300000000007
20
-223.07000000000002
10
-365.77099999999996
20
-222.958
10
-365.75099999999998
20
-222.84800000000001
10
-365.72300000000007
20
-222.738
10
-365.68700000000001
20
-222.62900000000002
10
-365.642
20
-222.52099999999999
10
-365.58999999999997
20
-222.41400000000002
10
-365.52999999999997
20
-222.30800000000002
10
-365.46100000000001
20
-222.20300000000003
10
-365.38499999999999
20
-222.09900000000005
10
-365.30099999999999
20
-221.99700000000004
10
-365.21000000000004
20
-221.899
10
-365.11199999999997
20
-221.80400000000003
10
-365.00800000000004
20
-221.71400000000006
10
-364.89599999999996
20
-221.62599999999998
10
-364.77699999999999
20
-221.54300000000003
10
-364.65200000000004
20
-221.46400000000003
10
-364.51900000000001
20
-221.38800000000003
10
-364.38
20
-221.31500000000003
10
-364.23300000000006
20
-221.24700000000004
10
-364.08000000000004
20
-221.18400000000005
10
-363.92099999999999
20
-221.12700000000004
10
-363.75699999999995
20
-221.077
10
-363.58600000000001
20
-221.03400000000005
10
-363.40899999999999
20
-220.99700000000001
10
-363.22699999999998
20
-220.96700000000001
10
-363.03899999999999
20
-220.94400000000005
10
-362.84500000000003
20
-220.92700000000005
10
-362.64499999999998
20
-220.91700000000003
10
-362.43900000000002
20
-220.91400000000004
10
-362.26499999999999
20
-220.916
10
-362.096
20
-220.92400000000001
10
-361.93100000000004
20
-220.93599999999998
10
-361.77099999999996
20
-220.95400000000001
10
-361.61500000000001
20
-220.976
10
-361.46499999999997
20
-221.00400000000005
10
-361.31900000000002
20
-221.036
10
-361.17800000000011
20
-221.07299999999998
10
-361.04100000000005
20
-221.11599999999999
10
-360.90899999999999
20
-221.16299999999998
10
-360.78200000000004
20
-221.21400000000006
10
-360.661
20
-221.26900000000003
10
-360.54599999999999
20
-221.32800000000003
10
-360.43699999999995
20
-221.38900000000004
10
-360.334
20
-221.45400000000001
10
-360.23599999999999
20
-221.52200000000005
10
-360.14400000000001
20
-221.59400000000005
10
-360.05800000000011
20
-221.66900000000001
10
-359.97800000000007
20
-221.74700000000001
10
-359.904
20
-221.82900000000004
10
-359.83600000000001
20
-221.91299999999998
10
-359.77499999999998
20
-221.99900000000002
10
-359.72199999999998
20
-222.08700000000005
10
-359.67599999999999
20
-222.17700000000005
10
-359.63599999999997
20
-222.268
10
-359.60400000000004
20
-222.36099999999999
10
-359.57900000000001
20
-222.45500000000004
10
-359.56099999999998
20
-222.55200000000002
10
-359.55100000000004
20
-222.65000000000001
10
-359.54699999999997
20
-222.75000000000003
10
-359.55199999999996
20
-222.88
10
-359.56700000000001
20
-223.00400000000002
10
-359.59100000000001
20
-223.12100000000001
10
-359.625
20
-223.232
10
-359.66900000000004
20
-223.33700000000005
10
-359.72300000000007
20
-223.43599999999998
10
-359.78699999999998
20
-223.52800000000002
10
-359.86000000000001
20
-223.61400000000003
10
-359.94300000000004
20
-223.69400000000002
10
-360.036
20
-223.767
10
-360.13699999999994
20
-223.834
10
-360.24300000000005
20
-223.89300000000003
10
-360.35500000000008
20
-223.946
10
-360.47300000000001
20
-223.99200000000005
10
-360.596
20
-224.03000000000003
10
-360.65287996755887
20
-224.04410975939444
10
-360.649
20
-224.04600000000002
10
-360.57400000000001
20
-224.08700000000005
10
-360.50300000000004
20
-224.13
10
-360.43599999999998
20
-224.17599999999999
10
-360.3730000000001
20
-224.22300000000001
10
-360.3130000000001
20
-224.27300000000002
10
-360.25800000000004
20
-224.32500000000002
10
-360.20699999999999
20
-224.38000000000002
10
-360.15899999999999
20
-224.43600000000001
10
-360.11599999999999
20
-224.49400000000003
10
-360.077
20
-224.553
10
-360.04300000000001
20
-224.614
10
-360.01300000000009
20
-224.67500000000001
10
-359.98800000000011
20
-224.738
10
-359.96699999999998
20
-224.80099999999999
10
-359.95200000000006
20
-224.86599999999999
10
-359.94
20
-224.93099999999998
10
-359.93300000000005
20
-224.99799999999999
10
-359.93099999999998
20
-225.06599999999997
10
-359.93300000000005
20
-225.137
10
-359.93900000000002
20
-225.20600000000002
10
-359.94900000000001
20
-225.27200000000005
10
-359.964
20
-225.33700000000005
10
-359.98199999999997
20
-225.39900000000003
10
-360.00400000000008
20
-225.45900000000003
10
-360.03100000000006
20
-225.517
10
-360.06200000000001
20
-225.57299999999998
10
-360.096
20
-225.62700000000004
10
-360.13499999999999
20
-225.67800000000003
10
-360.17699999999996
20
-225.727
10
-360.22199999999998
20
-225.774
10
-360.26800000000003
20
-225.81800000000001
10
-360.31800000000004
20
-225.86000000000001
10
-360.37
20
-225.90000000000003
10
-360.42400000000009
20
-225.93700000000001
10
-360.48099999999999
20
-225.97200000000001
10
-360.54000000000002
20
-226.00400000000005
10
-360.60200000000003
20
-226.03400000000005
10
-360.666
20
-226.06200000000001
10
-360.73199999999997
20
-226.08700000000002
10
-360.79900000000004
20
-226.11000000000004
10
-360.86700000000002
20
-226.12900000000002
10
-360.92228545536926
20
-226.14262105422142
10
-360.85900000000004
20
-226.202
10
-360.78100000000001
20
-226.28200000000004
10
-360.70800000000008
20
-226.36700000000005
10
-360.63999999999999
20
-226.45500000000001
10
-360.57600000000002
20
-226.548
10
-360.51700000000005
20
-226.64400000000001
10
-360.46500000000003
20
-226.74400000000006
10
-360.41800000000001
20
-226.846
10
-360.37800000000004
20
-226.95099999999999
10
-360.34399999999999
20
-227.05900000000003
10
-360.31599999999997
20
-227.17100000000002
10
-360.29500000000007
20
-227.285
10
-360.279
20
-227.40200000000002
10
-360.26999999999998
20
-227.52300000000002
10
-360.267
20
-227.64600000000002
10
-360.26999999999998
20
-227.77000000000001
10
-360.279
20
-227.892
10
-360.29500000000007
20
-228.01000000000002
10
-360.31599999999997
20
-228.125
10
-360.34399999999999
20
-228.23700000000002
10
-360.37800000000004
20
-228.34599999999998
10
-360.41800000000001
20
-228.45200000000003
10
-360.46500000000003
20
-228.55400000000003
10
-360.51700000000005
20
-228.65400000000005
10
-360.57600000000002
20
-228.75
10
-360.63999999999999
20
-228.84299999999999
10
-360.70800000000008
20
-228.93100000000001
10
-360.78100000000001
20
-229.01499999999999
10
-360.85900000000004
20
-229.09500000000003
10
-360.94
20
-229.17100000000002
10
-361.02699999999999
20
-229.24200000000002
10
-361.11699999999996
20
-229.30900000000005
10
-361.21199999999999
20
-229.37200000000004
10
-361.31200000000001
20
-229.43100000000001
10
-361.41600000000005
20
-229.48500000000001
10
-361.52300000000002
20
-229.53500000000003
10
-361.63400000000001
20
-229.57900000000001
10
-361.74599999999998
20
-229.61799999999999
10
-361.86100000000005
20
-229.65200000000004
10
-361.97900000000004
20
-229.68099999999998
10
-362.10000000000002
20
-229.70400000000001
10
-362.22300000000007
20
-229.72300000000001
10
-362.34800000000001
20
-229.73600000000002
10
-362.476
20
-229.74299999999999
10
-362.60699999999997
20
-229.74599999999998
10
-362.73400000000004
20
-229.74299999999999
10
-362.85900000000004
20
-229.73600000000002
10
-362.98200000000003
20
-229.72300000000001
10
-363.10200000000003
20
-229.70400000000001
10
-363.22000000000003
20
-229.68099999999998
10
-363.33500000000004
20
-229.65200000000004
10
-363.44800000000009
20
-229.61799999999999
10
-363.55900000000008
20
-229.57900000000001
10
-363.66800000000006
20
-229.53500000000003
10
-363.774
20
-229.48500000000001
10
-363.87699999999995
20
-229.43100000000001
10
-363.97500000000002
20
-229.37200000000004
10
-364.06600133786151
20
-229.31165174436561
10
-364.07900000000006
20
-229.39800000000002
10
-364.09600000000006
20
-229.48700000000002
10
-364.11800000000005
20
-229.57499999999999
10
-364.14400000000001
20
-229.65900000000005
10
-364.17400000000009
20
-229.74200000000002
10
-364.20700000000005
20
-229.82200000000003
10
-364.245
20
-229.89900000000003
10
-364.28600000000006
20
-229.97400000000002
10
-364.33099999999996
20
-230.04500000000002
10
-364.37900000000008
20
-230.11200000000002
10
-364.43000000000006
20
-230.17700000000005
10
-364.48500000000001
20
-230.238
10
-364.54300000000001
20
-230.29600000000002
10
-364.60500000000002
20
-230.34999999999999
10
-364.66900000000004
20
-230.40099999999998
10
-364.73700000000002
20
-230.44900000000001
10
-364.80900000000008
20
-230.49300000000002
10
-364.88400000000007
20
-230.53300000000002
10
-364.96100000000007
20
-230.57000000000002
10
-365.041
20
-230.60200000000003
10
-365.12400000000008
20
-230.62900000000002
10
-365.20900000000006
20
-230.65300000000002
10
-365.298
20
-230.672
10
-365.38900000000007
20
-230.68700000000004
10
-365.48300000000006
20
-230.697
10
-365.57999999999998
20
-230.70400000000004
10
-365.67900000000003
20
-230.70599999999999
10
-365.60699999999997
20
-229.78200000000001
10
-365.50199999999995
20
-229.78000000000003
10
-365.40100000000001
20
-229.773
10
-365.30599999999998
20
-229.76100000000002
10
-365.21499999999997
20
-229.74500000000003
10
-365.13
20
-229.72400000000005
10
-365.05000000000001
20
-229.69900000000001
10
-364.97399999999999
20
-229.66900000000004
10
-364.904
20
-229.63400000000004
10
-364.839
20
-229.59500000000003
10
-364.779
20
-229.55100000000002
10
-364.72399999999999
20
-229.50200000000001
10
-364.67500000000001
20
-229.44800000000001
10
-364.63199999999995
20
-229.38900000000004
10
-364.59500000000003
20
-229.32500000000002
10
-364.56300000000005
20
-229.256
10
-364.53699999999998
20
-229.18200000000002
10
-364.51700000000005
20
-229.10300000000001
0
LWPOLYLINE
5
101
100
AcDbEntity
8
0
100
AcDbPolyline
90
4
70
1
43
0.0
10
-356.89500000000004
20
-229.614
10
-357.83099999999996
20
-229.614
10
-357.83099999999996
20
-223.86600000000001
10
-356.89500000000004
20
-223.86600000000001
0
LWPOLYLINE
5
102
100
AcDbEntity
8
0
100
AcDbPolyline
90
46
70
1
43
0.0
10
-353.04500000000007
20
-227.04800000000003
10
-352.83099999999996
20
-227.00500000000002
10
-352.76797714488134
20
-226.99667098831031
10
-354.92099999999999
20
-223.86600000000001
10
-353.709
20
-223.86600000000001
10
-351.76121052631584
20
-226.94999999999999
10
-350.42099999999999
20
-226.94999999999999
10
-350.42099999999999
20
-223.86600000000001
10
-349.48500000000001
20
-223.86600000000001
10
-349.48500000000001
20
-231.40200000000004
10
-352.11300000000006
20
-231.40200000000004
10
-352.36500000000001
20
-231.39600000000002
10
-352.60400000000004
20
-231.37700000000001
10
-352.83099999999996
20
-231.34700000000004
10
-353.04500000000007
20
-231.30400000000003
10
-353.24599999999998
20
-231.24799999999999
10
-353.435
20
-231.18099999999998
10
-353.61199999999997
20
-231.10100000000003
10
-353.77600000000001
20
-231.00799999999998
10
-353.92699999999996
20
-230.90400000000002
10
-354.06599999999997
20
-230.78700000000001
10
-354.19199999999995
20
-230.66000000000003
10
-354.30500000000001
20
-230.52599999999998
10
-354.40400000000005
20
-230.38299999999998
10
-354.49000000000007
20
-230.23300000000003
10
-354.56300000000005
20
-230.07499999999999
10
-354.62300000000005
20
-229.91
10
-354.66900000000004
20
-229.73600000000002
10
-354.702
20
-229.55500000000001
10
-354.72199999999998
20
-229.36700000000002
10
-354.72900000000004
20
-229.17000000000002
10
-354.72199999999998
20
-228.976
10
-354.702
20
-228.78900000000002
10
-354.66900000000004
20
-228.61000000000004
10
-354.62300000000005
20
-228.43800000000002
10
-354.56300000000005
20
-228.274
10
-354.49000000000007
20
-228.11700000000002
10
-354.40400000000005
20
-227.96800000000002
10
-354.30500000000001
20
-227.82600000000002
10
-354.19199999999995
20
-227.69200000000001
10
-354.06599999999997
20
-227.56500000000003
10
-353.92699999999996
20
-227.44799999999998
10
-353.77600000000001
20
-227.34400000000005
10
-353.61199999999997
20
-227.25099999999998
10
-353.435
20
-227.17100000000002
10
-353.24599999999998
20
-227.10400000000004
0
LWPOLYLINE
5
103
100
AcDbEntity
8
0
100
AcDbPolyline
90
89
70
1
43
0.0
10
-375.471
20
-229.602
10
-377.28300000000002
20
-229.602
10
-377.28300000000002
20
-228.95400000000001
10
-375.471
20
-228.95400000000001
10
-375.471
20
-225.36599999999999
10
-375.47900000000004
20
-225.197
10
-375.50400000000002
20
-225.04599999999999
10
-375.54599999999999
20
-224.91299999999998
10
-375.60300000000007
20
-224.798
10
-375.67800000000005
20
-224.69999999999999
10
-375.76900000000001
20
-224.62000000000003
10
-375.87699999999995
20
-224.55799999999999
10
-376.00099999999998
20
-224.51400000000004
10
-376.14200000000005
20
-224.48700000000002
10
-376.29900000000009
20
-224.47800000000001
10
-376.39699999999999
20
-224.48000000000002
10
-376.44499999999999
20
-224.48300000000003
10
-376.49300000000005
20
-224.48700000000002
10
-376.58900000000006
20
-224.49700000000004
10
-376.63599999999997
20
-224.50400000000002
10
-376.73000000000002
20
-224.52200000000005
10
-376.77600000000007
20
-224.53200000000004
10
-376.82300000000004
20
-224.54300000000003
10
-376.87099999999998
20
-224.55600000000001
10
-376.92000000000002
20
-224.56900000000005
10
-376.97000000000003
20
-224.584
10
-377.02099999999996
20
-224.60000000000002
10
-377.07400000000001
20
-224.61600000000001
10
-377.12699999999995
20
-224.63400000000004
10
-377.18199999999996
20
-224.65299999999999
10
-377.23800000000006
20
-224.673
10
-377.29500000000002
20
-224.69400000000005
10
-377.42700000000002
20
-224.02200000000005
10
-377.36600000000004
20
-223.99599999999998
10
-377.30500000000001
20
-223.97099999999998
10
-377.24400000000003
20
-223.947
10
-377.18300000000005
20
-223.92400000000004
10
-377.12199999999996
20
-223.90200000000004
10
-377.06099999999998
20
-223.88099999999997
10
-377
20
-223.86099999999999
10
-376.93900000000008
20
-223.84200000000004
10
-376.87900000000008
20
-223.82300000000001
10
-376.81800000000004
20
-223.80600000000001
10
-376.75700000000001
20
-223.79000000000002
10
-376.69599999999997
20
-223.77600000000001
10
-376.63400000000001
20
-223.76300000000001
10
-376.57199999999995
20
-223.75200000000004
10
-376.51000000000005
20
-223.74300000000002
10
-376.44699999999995
20
-223.73500000000004
10
-376.38400000000001
20
-223.73000000000002
10
-376.31999999999999
20
-223.72500000000002
10
-376.25599999999997
20
-223.72299999999998
10
-376.19099999999997
20
-223.72200000000004
10
-376.09800000000001
20
-223.72400000000002
10
-376.00800000000004
20
-223.72900000000001
10
-375.91900000000004
20
-223.73800000000003
10
-375.83199999999999
20
-223.751
10
-375.74700000000001
20
-223.767
10
-375.66399999999999
20
-223.78700000000003
10
-375.58300000000003
20
-223.81
10
-375.50400000000002
20
-223.83700000000005
10
-375.42599999999999
20
-223.86799999999999
10
-375.351
20
-223.90200000000004
10
-375.27800000000008
20
-223.94000000000003
10
-375.20800000000003
20
-223.98099999999999
10
-375.14200000000005
20
-224.02600000000001
10
-375.07800000000003
20
-224.07499999999999
10
-375.01800000000003
20
-224.12700000000001
10
-374.96100000000007
20
-224.18300000000002
10
-374.90699999999998
20
-224.24200000000002
10
-374.85599999999999
20
-224.30500000000001
10
-374.80800000000011
20
-224.37200000000004
10
-374.76300000000003
20
-224.44200000000001
10
-374.72199999999998
20
-224.51599999999999
10
-374.685
20
-224.59299999999999
10
-374.65300000000008
20
-224.67400000000001
10
-374.625
20
-224.75900000000001
10
-374.60100000000006
20
-224.84700000000004
10
-374.58199999999999
20
-224.93900000000002
10
-374.56600000000003
20
-225.03400000000002
10
-374.55599999999998
20
-225.13300000000001
10
-374.54900000000004
20
-225.23600000000002
10
-374.54699999999997
20
-225.34200000000001
10
-374.54699999999997
20
-228.95400000000001
10
-373.62300000000005
20
-228.95400000000001
10
-373.62300000000005
20
-229.602
10
-374.54699999999997
20
-229.602
10
-374.54699999999997
20
-231.19799999999998
10
-375.471
20
-231.19799999999998
0
LWPOLYLINE
5
104
100
AcDbEntity
8
0
100
AcDbPolyline
90
80
70
1
43
0.0
10
-357.47300000000001
20
-230.96500000000003
10
-357.4190000000001
20
-230.96000000000004
10
-357.36300000000006
20
-230.958
10
-357.30700000000002
20
-230.96000000000004
10
-357.25300000000004
20
-230.96500000000003
10
-357.20099999999996
20
-230.97300000000001
10
-357.15200000000004
20
-230.98400000000001
10
-357.10500000000002
20
-230.99900000000005
10
-357.06099999999998
20
-231.017
10
-357.01900000000001
20
-231.03900000000004
10
-356.97900000000004
20
-231.06400000000005
10
-356.94199999999995
20
-231.09200000000001
10
-356.90699999999998
20
-231.12300000000002
10
-356.875
20
-231.15700000000004
10
-356.84699999999998
20
-231.19299999999998
10
-356.82099999999997
20
-231.23099999999999
10
-356.79900000000004
20
-231.27200000000002
10
-356.78100000000001
20
-231.31400000000002
10
-356.76600000000002
20
-231.35900000000004
10
-356.75400000000002
20
-231.40500000000003
10
-356.74599999999998
20
-231.45400000000001
10
-356.74100000000004
20
-231.505
10
-356.73900000000003
20
-231.55799999999999
10
-356.74100000000004
20
-231.61000000000001
10
-356.74599999999998
20
-231.65900000000005
10
-356.75400000000002
20
-231.70699999999999
10
-356.76600000000002
20
-231.75200000000004
10
-356.78100000000001
20
-231.79500000000002
10
-356.79900000000004
20
-231.83599999999998
10
-356.82099999999997
20
-231.875
10
-356.84699999999998
20
-231.911
10
-356.875
20
-231.94600000000003
10
-356.90699999999998
20
-231.97800000000001
10
-356.94199999999995
20
-232.00800000000001
10
-356.97900000000004
20
-232.03400000000002
10
-357.01900000000001
20
-232.05799999999999
10
-357.06099999999998
20
-232.07800000000003
10
-357.10500000000002
20
-232.09500000000003
10
-357.15200000000004
20
-232.10900000000004
10
-357.20099999999996
20
-232.12000000000003
10
-357.25300000000004
20
-232.12800000000001
10
-357.30700000000002
20
-232.13200000000001
10
-357.36300000000006
20
-232.13400000000004
10
-357.4190000000001
20
-232.13200000000001
10
-357.47300000000001
20
-232.12800000000001
10
-357.52499999999998
20
-232.12000000000003
10
-357.57400000000007
20
-232.10900000000004
10
-357.62099999999998
20
-232.09500000000003
10
-357.66500000000002
20
-232.07800000000003
10
-357.70699999999999
20
-232.05799999999999
10
-357.74699999999996
20
-232.03400000000002
10
-357.78399999999999
20
-232.00800000000001
10
-357.81900000000002
20
-231.97800000000001
10
-357.851
20
-231.94600000000003
10
-357.87900000000002
20
-231.911
10
-357.90500000000003
20
-231.875
10
-357.92699999999996
20
-231.83599999999998
10
-357.94499999999999
20
-231.79500000000002
10
-357.95999999999998
20
-231.75200000000004
10
-357.97199999999998
20
-231.70699999999999
10
-357.98000000000002
20
-231.65900000000005
10
-357.98500000000001
20
-231.61000000000001
10
-357.98699999999997
20
-231.55799999999999
10
-357.98500000000001
20
-231.505
10
-357.98000000000002
20
-231.45400000000001
10
-357.97199999999998
20
-231.40500000000003
10
-357.95999999999998
20
-231.35900000000004
10
-357.94499999999999
20
-231.31400000000002
10
-357.92699999999996
20
-231.27200000000002
10
-357.90500000000003
20
-231.23099999999999
10
-357.87900000000002
20
-231.19299999999998
10
-357.851
20
-231.15700000000004
10
-357.81900000000002
20
-231.12300000000002
10
-357.78399999999999
20
-231.09200000000001
10
-357.74699999999996
20
-231.06400000000005
10
-357.70699999999999
20
-231.03900000000004
10
-357.66500000000002
20
-231.017
10
-357.62099999999998
20
-230.99900000000005
10
-357.57400000000007
20
-230.98400000000001
10
-357.52499999999998
20
-230.97300000000001
0
LWPOLYLINE
5
105
100
AcDbEntity
8
0
100
AcDbPolyline
90
107
70
1
43
0.0
10
-367.185
20
-232.05000000000001
10
-368.12099999999998
20
-232.05000000000001
10
-368.12099999999998
20
-228.51620000000003
10
-368.13999999999999
20
-228.55800000000002
10
-368.20500000000004
20
-228.68300000000002
10
-368.27499999999998
20
-228.80099999999999
10
-368.35000000000002
20
-228.91300000000001
10
-368.42900000000009
20
-229.01800000000003
10
-368.51400000000007
20
-229.11599999999999
10
-368.60300000000001
20
-229.208
10
-368.69699999999995
20
-229.29300000000001
10
-368.79600000000005
20
-229.37100000000001
10
-368.89999999999998
20
-229.44200000000001
10
-369.00800000000004
20
-229.50599999999997
10
-369.12
20
-229.56200000000001
10
-369.23699999999997
20
-229.61100000000002
10
-369.358
20
-229.65200000000004
10
-369.48300000000006
20
-229.68599999999998
10
-369.61300000000006
20
-229.71200000000005
10
-369.74699999999996
20
-229.73100000000002
10
-369.88599999999997
20
-229.74200000000002
10
-370.02900000000005
20
-229.74599999999998
10
-370.16300000000001
20
-229.74299999999999
10
-370.29199999999997
20
-229.73400000000001
10
-370.41800000000001
20
-229.71900000000005
10
-370.54000000000002
20
-229.69799999999998
10
-370.65800000000002
20
-229.66999999999999
10
-370.77199999999999
20
-229.63700000000003
10
-370.88300000000004
20
-229.59800000000001
10
-370.98900000000009
20
-229.55200000000005
10
-371.09100000000007
20
-229.50099999999998
10
-371.19
20
-229.44299999999998
10
-371.28399999999999
20
-229.38000000000002
10
-371.37400000000008
20
-229.31100000000001
10
-371.46000000000004
20
-229.238
10
-371.54000000000002
20
-229.15900000000005
10
-371.61699999999996
20
-229.07499999999999
10
-371.68900000000002
20
-228.98500000000001
10
-371.75599999999997
20
-228.89099999999999
10
-371.81900000000007
20
-228.791
10
-371.87700000000001
20
-228.68600000000001
10
-371.93100000000004
20
-228.57600000000002
10
-371.98000000000002
20
-228.46100000000001
10
-372.02400000000006
20
-228.34200000000004
10
-372.06300000000005
20
-228.21900000000002
10
-372.096
20
-228.09100000000001
10
-372.125
20
-227.95900000000003
10
-372.14800000000002
20
-227.82400000000001
10
-372.166
20
-227.68400000000003
10
-372.17900000000009
20
-227.53900000000002
10
-372.18600000000004
20
-227.39100000000002
10
-372.18900000000008
20
-227.238
10
-372.18900000000008
20
-223.86600000000001
10
-371.26499999999999
20
-223.86600000000001
10
-371.26499999999999
20
-227.238
10
-371.26100000000002
20
-227.39800000000002
10
-371.24900000000002
20
-227.55099999999999
10
-371.23000000000002
20
-227.696
10
-371.20200000000006
20
-227.833
10
-371.16700000000003
20
-227.96200000000002
10
-371.12400000000002
20
-228.08300000000003
10
-371.072
20
-228.19600000000003
10
-371.01300000000003
20
-228.30200000000005
10
-370.94699999999995
20
-228.399
10
-370.87199999999996
20
-228.489
10
-370.79100000000005
20
-228.57100000000003
10
-370.70300000000003
20
-228.643
10
-370.61100000000005
20
-228.70800000000003
10
-370.51199999999994
20
-228.76400000000004
10
-370.40800000000002
20
-228.81100000000001
10
-370.298
20
-228.84900000000002
10
-370.18200000000002
20
-228.87900000000002
10
-370.06099999999998
20
-228.90100000000001
10
-369.93400000000003
20
-228.91400000000004
10
-369.80099999999999
20
-228.91800000000003
10
-369.69900000000001
20
-228.91500000000002
10
-369.60000000000002
20
-228.90700000000004
10
-369.50400000000002
20
-228.89300000000003
10
-369.41000000000003
20
-228.87299999999999
10
-369.32000000000005
20
-228.84700000000004
10
-369.23099999999999
20
-228.81599999999997
10
-369.14600000000002
20
-228.78
10
-369.06400000000008
20
-228.73800000000003
10
-368.98400000000004
20
-228.69
10
-368.90700000000004
20
-228.63600000000002
10
-368.83300000000008
20
-228.577
10
-368.76300000000009
20
-228.51300000000003
10
-368.69599999999997
20
-228.44499999999999
10
-368.63200000000001
20
-228.37200000000001
10
-368.572
20
-228.29300000000003
10
-368.51599999999996
20
-228.21000000000001
10
-368.46300000000008
20
-228.12200000000004
10
-368.41399999999999
20
-228.02900000000005
10
-368.36800000000005
20
-227.93200000000002
10
-368.32500000000005
20
-227.82900000000001
10
-368.286
20
-227.72200000000001
10
-368.25199999999995
20
-227.61099999999999
10
-368.221
20
-227.49600000000001
10
-368.19400000000002
20
-227.37700000000004
10
-368.17200000000003
20
-227.25400000000005
10
-368.15400000000005
20
-227.12700000000001
10
-368.13900000000001
20
-226.99600000000001
10
-368.12900000000008
20
-226.86000000000004
10
-368.12300000000005
20
-226.721
10
-368.12099999999998
20
-226.57800000000003
10
-368.12099999999998
20
-223.86600000000001
10
-367.185
20
-223.86600000000001
0
LWPOLYLINE
5
106
100
AcDbEntity
8
0
100
AcDbPolyline
90
172
70
1
43
0.0
10
-483.00000000000006
20
-295.5
10
-483.00000000000006
20
-303
10
-475.50000000000006
20
-303
10
-475.50000000000006
20
-300
10
-466.50000000000006
20
-300
10
-466.50000000000006
20
-303
10
-457.5
20
-303
10
-457.5
20
-300
10
-448.5
20
-300
10
-448.5
20
-303
10
-439.5
20
-303
10
-439.5
20
-300
10
-430.50000000000006
20
-300
10
-430.50000000000006
20
-303
10
-421.50000000000006
20
-303
10
-421.50000000000006
20
-300
10
-412.5
20
-300
10
-412.5
20
-303
10
-403.5
20
-303
10
-403.5
20
-300
10
-394.5
20
-300
10
-394.5
20
-303
10
-385.50000000000006
20
-303
10
-385.50000000000006
20
-300
10
-376.5
20
-300
10
-376.5
20
-303
10
-367.5
20
-303
10
-367.5
20
-300
10
-358.5
20
-300
10
-358.5
20
-303
10
-349.5
20
-303
10
-349.5
20
-300
10
-340.50000000000006
20
-300
10
-340.50000000000006
20
-303
10
-331.5
20
-303
10
-331.5
20
-300
10
-322.5
20
-300
10
-322.5
20
-303
10
-313.5
20
-303
10
-313.5
20
-300
10
-304.5
20
-300
10
-304.5
20
-303
10
-295.5
20
-303
10
-295.5
20
-300
10
-286.5
20
-300
10
-286.5
20
-303
10
-277.5
20
-303
10
-277.5
20
-300
10
-268.5
20
-300
10
-268.5
20
-303
10
-259.5
20
-303
10
-259.5
20
-300
10
-250.5
20
-300
10
-250.5
20
-303
10
-243
20
-303
10
-243
20
-295.5
10
-246
20
-295.5
10
-246
20
-286.5
10
-243
20
-286.5
10
-243
20
-277.5
10
-246
20
-277.5
10
-246
20
-268.5
10
-243
20
-268.5
10
-243
20
-259.5
10
-246
20
-259.5
10
-246
20
-250.5
10
-243
20
-250.5
10
-243
20
-241.50000000000003
10
-246
20
-241.50000000000003
10
-246
20
-232.5
10
-243
20
-232.5
10
-243
20
-223.5
10
-246
20
-223.5
10
-246
20
-214.50000000000003
10
-243
20
-214.50000000000003
10
-243
20
-205.5
10
-246
20
-205.5
10
-246
20
-196.50000000000003
10
-243
20
-196.50000000000003
10
-243
20
-187.5
10
-246
20
-187.5
10
-246
20
-178.5
10
-243
20
-178.5
10
-243
20
-169.5
10
-246
20
-169.5
10
-246
20
-160.5
10
-243
20
-160.5
10
-243
20
-153
10
-250.5
20
-153
10
-250.5
20
-156
10
-259.5
20
-156
10
-259.5
20
-153
10
-268.5
20
-153
10
-268.5
20
-156
10
-277.5
20
-156
10
-277.5
20
-153
10
-286.5
20
-153
10
-286.5
20
-156
10
-295.5
20
-156
10
-295.5
20
-153
10
-304.5
20
-153
10
-304.5
20
-156
10
-313.5
20
-156
10
-313.5
20
-153
10
-322.5
20
-153
10
-322.5
20
-156
10
-331.5
20
-156
10
-331.5
20
-153
10
-340.50000000000006
20
-153
10
-340.50000000000006
20
-156
10
-349.5
20
-156
10
-349.5
20
-153
10
-358.5
20
-153
10
-358.5
20
-156
10
-367.5
20
-156
10
-367.5
20
-153
10
-376.5
20
-153
10
-376.5
20
-156
10
-385.50000000000006
20
-156
10
-385.50000000000006
20
-153
10
-394.5
20
-153
10
-394.5
20
-156
10
-403.5
20
-156
10
-403.5
20
-153
10
-412.5
20
-153
10
-412.5
20
-156
10
-421.50000000000006
20
-156
10
-421.50000000000006
20
-153
10
-430.50000000000006
20
-153
10
-430.50000000000006
20
-156
10
-439.5
20
-156
10
-439.5
20
-153
10
-448.5
20
-153
10
-448.5
20
-156
10
-457.5
20
-156
10
-457.5
20
-153
10
-466.50000000000006
20
-153
10
-466.50000000000006
20
-156
10
-475.50000000000006
20
-156
10
-475.50000000000006
20
-153
10
-483.00000000000006
20
-153
10
-483.00000000000006
20
-160.5
10
-480
20
-160.5
10
-480
20
-169.5
10
-483.00000000000006
20
-169.5
10
-483.00000000000006
20
-178.5
10
-480
20
-178.5
10
-480
20
-187.5
10
-483.00000000000006
20
-187.5
10
-483.00000000000006
20
-196.50000000000003
10
-480
20
-196.50000000000003
10
-480
20
-205.5
10
-483.00000000000006
20
-205.5
10
-483.00000000000006
20
-214.50000000000003
10
-480
20
-214.50000000000003
10
-480
20
-223.5
10
-483.00000000000006
20
-223.5
10
-483.00000000000006
20
-232.5
10
-480
20
-232.5
10
-480
20
-241.50000000000003
10
-483.00000000000006
20
-241.50000000000003
10
-483.00000000000006
20
-250.5
10
-480
20
-250.5
10
-480
20
-259.5
10
-483.00000000000006
20
-259.5
10
-483.00000000000006
20
-268.5
10
-480
20
-268.5
10
-480
20
-277.5
10
-483.00000000000006
20
-277.5
10
-483.00000000000006
20
-286.5
10
-480
20
-286.5
10
-480
20
-295.5
0
ENDSEC
0
SECTION
2
OBJECTS
0
DICTIONARY
5
C
100
AcDbDictionary
3
ACAD_GROUP
350
D
3
ACAD_MLINESTYLE
350
17
0
DICTIONARY
5
D
100
AcDbDictionary
0
DICTIONARY
5
1A
330
C
100
AcDbDictionary
0
DICTIONARY
5
17
100
AcDbDictionary
0
ENDSEC
0
EOF
