0
SECTION
2
HEADER
9
$INSUNITS
70
4
9
$ACADVER
1
AC1014
9
$HANDSEED
5
FFFF
0
ENDSEC
0
SECTION
2
TABLES
0
TABLE
2
VPORT
5
8
100
AcDbSymbolTable
0
ENDTAB
0
TABLE
2
LTYPE
5
5
100
AcDbSymbolTable
0
LTYPE
5
14
100
AcDbSymbolTableRecord
100
AcDbLinetypeTableRecord
2
BYBLOCK
70
0
0
LTYPE
5
15
100
AcDbSymbolTableRecord
100
AcDbLinetypeTableRecord
2
BYLAYER
70
0
0
LTYPE
5
16
100
AcDbSymbolTableRecord
100
AcDbLinetypeTableRecord
2
DASHED
70
0
3
Dashed __ __ __ __ __ __ __ __ __ __ __ __ __ _
72
65
73
2
40
0.75
49
0.5
74
0
49
-0.25
74
0
0
ENDTAB
0
TABLE
2
LAYER
5
2
100
AcDbSymbolTable
70
2
0
LAYER
5
50
100
AcDbSymbolTableRecord
100
AcDbLayerTableRecord
2
0
70
0
62
7
6
CONTINUOUS
0
ENDTAB
0
TABLE
2
STYLE
5
3
100
AcDbSymbolTable
70
1
0
STYLE
5
11
100
AcDbSymbolTableRecord
100
AcDbTextStyleTableRecord
2
STANDARD
70
0
0
ENDTAB
0
TABLE
2
VIEW
5
6
100
AcDbSymbolTable
70
0
0
ENDTAB
0
TABLE
2
UCS
5
7
100
AcDbSymbolTable
70
0
0
ENDTAB
0
TABLE
2
APPID
5
9
100
AcDbSymbolTable
70
2
0
APPID
5
12
100
AcDbSymbolTableRecord
100
AcDbRegAppTableRecord
2
ACAD
70
0
0
ENDTAB
0
TABLE
2
DIMSTYLE
5
A
100
AcDbSymbolTable
70
1
0
ENDTAB
0
TABLE
2
BLOCK_RECORD
5
1
100
AcDbSymbolTable
70
1
0
BLOCK_RECORD
5
1F
100
AcDbSymbolTableRecord
100
AcDbBlockTableRecord
2
*MODEL_SPACE
0
BLOCK_RECORD
5
1B
100
AcDbSymbolTableRecord
100
AcDbBlockTableRecord
2
*PAPER_SPACE
0
ENDTAB
0
ENDSEC
0
SECTION
2
BLOCKS
0
BLOCK
5
20
100
AcDbEntity
100
AcDbBlockBegin
2
*MODEL_SPACE
0
ENDBLK
5
21
100
AcDbEntity
100
AcDbBlockEnd
0
BLOCK
5
1C
100
AcDbEntity
100
AcDbBlockBegin
2
*PAPER_SPACE
0
ENDBLK
5
1D
100
AcDbEntity
100
AcDbBlockEnd
0
ENDSEC
0
SECTION
2
ENTITIES
0
LWPOLYLINE
5
100
100
AcDbEntity
8
0
100
AcDbPolyline
90
12
70
1
43
0.0
10
-131.679
20
-139.64400000000001
10
-132.98699999999999
20
-139.64400000000001
10
-130.34717526545359
20
-137.49774022998633
10
-133.11900000000003
20
-133.90799999999999
10
-131.96700000000001
20
-133.90799999999999
10
-129.67781228494079
20
-136.95352726849291
10
-128.89500000000001
20
-136.31707648725214
10
-128.89500000000001
20
-133.90799999999999
10
-127.95900000000002
20
-133.90799999999999
10
-127.95900000000002
20
-142.09200000000004
10
-128.89500000000001
20
-142.09200000000004
10
-128.89500000000001
20
-137.31639344262294
0
LWPOLYLINE
5
101
100
AcDbEntity
8
0
100
AcDbPolyline
90
123
70
1
43
0.0
10
-110.809
20
-133.91500000000002
10
-110.66800000000001
20
-133.91
10
-110.52300000000001
20
-133.90799999999999
10
-107.70299999999999
20
-133.90799999999999
10
-107.70299999999999
20
-141.44399999999999
10
-110.52300000000001
20
-141.44399999999999
10
-110.68600000000002
20
-141.44100000000003
10
-110.84299999999999
20
-141.43299999999999
10
-110.99400000000001
20
-141.41899999999998
10
-111.14000000000001
20
-141.40000000000001
10
-111.28100000000002
20
-141.376
10
-111.41500000000001
20
-141.346
10
-111.54400000000001
20
-141.31
10
-111.667
20
-141.26900000000001
10
-111.785
20
-141.22299999999998
10
-111.89700000000002
20
-141.17099999999999
10
-112.00299999999999
20
-141.11500000000001
10
-112.104
20
-141.05500000000001
10
-112.2
20
-140.99200000000002
10
-112.29000000000001
20
-140.92500000000001
10
-112.37400000000001
20
-140.85499999999999
10
-112.453
20
-140.78100000000001
10
-112.52600000000001
20
-140.70400000000001
10
-112.59399999999999
20
-140.62299999999999
10
-112.65600000000001
20
-140.53899999999999
10
-112.71299999999999
20
-140.45099999999999
10
-112.76400000000001
20
-140.36099999999999
10
-112.81
20
-140.26900000000001
10
-112.851
20
-140.17600000000002
10
-112.88600000000002
20
-140.08000000000004
10
-112.91500000000001
20
-139.98400000000001
10
-112.94
20
-139.88499999999999
10
-112.95900000000002
20
-139.786
10
-112.97200000000002
20
-139.684
10
-112.98000000000002
20
-139.58100000000002
10
-112.98299999999999
20
-139.476
10
-112.979
20
-139.34799999999998
10
-112.96900000000001
20
-139.22399999999999
10
-112.95100000000002
20
-139.10300000000001
10
-112.926
20
-138.98500000000001
10
-112.89400000000001
20
-138.87100000000001
10
-112.85400000000001
20
-138.75999999999999
10
-112.80799999999999
20
-138.65299999999999
10
-112.75500000000001
20
-138.54900000000001
10
-112.69400000000002
20
-138.44799999999998
10
-112.626
20
-138.351
10
-112.551
20
-138.25899999999999
10
-112.46899999999999
20
-138.172
10
-112.38
20
-138.09200000000001
10
-112.28299999999999
20
-138.018
10
-112.18000000000002
20
-137.94999999999999
10
-112.06900000000002
20
-137.88800000000003
10
-111.95100000000002
20
-137.83199999999999
10
-111.82600000000001
20
-137.78200000000001
10
-111.69400000000002
20
-137.738
10
-111.55500000000002
20
-137.69999999999999
10
-111.646
20
-137.684
10
-111.73500000000001
20
-137.66399999999999
10
-111.82200000000002
20
-137.63999999999999
10
-111.90700000000001
20
-137.613
10
-111.989
20
-137.58199999999999
10
-112.06900000000002
20
-137.548
10
-112.14700000000001
20
-137.50999999999999
10
-112.22300000000001
20
-137.46800000000002
10
-112.29700000000001
20
-137.422
10
-112.36800000000001
20
-137.37299999999999
10
-112.43700000000003
20
-137.321
10
-112.50200000000001
20
-137.26599999999999
10
-112.56500000000001
20
-137.21000000000001
10
-112.624
20
-137.15100000000001
10
-112.68100000000001
20
-137.089
10
-112.73400000000001
20
-137.02600000000001
10
-112.78399999999999
20
-136.96000000000001
10
-112.83200000000001
20
-136.892
10
-112.876
20
-136.822
10
-112.917
20
-136.74900000000002
10
-112.95500000000001
20
-136.67500000000001
10
-112.988
20
-136.59899999999999
10
-113.018
20
-136.523
10
-113.04400000000001
20
-136.446
10
-113.06600000000002
20
-136.36700000000002
10
-113.08300000000001
20
-136.28799999999998
10
-113.09700000000001
20
-136.20699999999999
10
-113.10700000000003
20
-136.126
10
-113.11300000000001
20
-136.04300000000001
10
-113.11500000000001
20
-135.96000000000001
10
-113.11399999999999
20
-135.88299999999998
10
-113.11
20
-135.80700000000002
10
-113.10299999999999
20
-135.73099999999999
10
-113.09399999999999
20
-135.65600000000001
10
-113.08300000000001
20
-135.58100000000002
10
-113.069
20
-135.506
10
-113.05200000000001
20
-135.43100000000004
10
-113.03200000000002
20
-135.357
10
-113.01100000000002
20
-135.28299999999999
10
-112.986
20
-135.21000000000001
10
-112.958
20
-135.13800000000001
10
-112.928
20
-135.066
10
-112.89299999999999
20
-134.99700000000001
10
-112.855
20
-134.929
10
-112.81399999999999
20
-134.86199999999999
10
-112.77000000000001
20
-134.79700000000003
10
-112.72200000000001
20
-134.733
10
-112.67000000000002
20
-134.66999999999999
10
-112.61499999999999
20
-134.61000000000001
10
-112.55700000000002
20
-134.55000000000001
10
-112.495
20
-134.49200000000002
10
-112.429
20
-134.43700000000001
10
-112.35900000000001
20
-134.38399999999999
10
-112.285
20
-134.334
10
-112.20700000000001
20
-134.286
10
-112.12600000000002
20
-134.24000000000001
10
-112.04000000000001
20
-134.197
10
-111.95
20
-134.15600000000001
10
-111.85700000000003
20
-134.11799999999999
10
-111.759
20
-134.08199999999999
10
-111.65700000000001
20
-134.04900000000001
10
-111.55000000000001
20
-134.01900000000001
10
-111.43900000000001
20
-133.99299999999999
10
-111.322
20
-133.971
10
-111.20100000000001
20
-133.952
10
-111.07500000000002
20
-133.93600000000001
10
-110.944
20
-133.92400000000004
0
LWPOLYLINE
5
102
100
AcDbEntity
8
0
100
AcDbPolyline
90
214
70
1
43
0.0
10
-117.00700000000001
20
-133.77600000000001
10
-116.88400000000001
20
-133.767
10
-116.75700000000001
20
-133.76400000000001
10
-116.61799999999999
20
-133.767
10
-116.48400000000001
20
-133.774
10
-116.35400000000001
20
-133.78700000000003
10
-116.23000000000002
20
-133.80400000000003
10
-116.111
20
-133.827
10
-115.99600000000002
20
-133.85500000000002
10
-115.88600000000001
20
-133.887
10
-115.78200000000002
20
-133.92500000000001
10
-115.68200000000002
20
-133.96799999999999
10
-115.58700000000002
20
-134.01599999999999
10
-115.49700000000001
20
-134.06799999999998
10
-115.41200000000002
20
-134.12299999999999
10
-115.33100000000002
20
-134.18100000000004
10
-115.25500000000001
20
-134.24200000000002
10
-115.18299999999999
20
-134.30500000000001
10
-115.11700000000002
20
-134.37200000000001
10
-115.05500000000001
20
-134.44200000000001
10
-114.998
20
-134.51499999999999
10
-114.94500000000001
20
-134.59100000000001
10
-114.89700000000001
20
-134.66999999999999
10
-114.854
20
-134.751
10
-114.815
20
-134.83199999999999
10
-114.78100000000001
20
-134.91499999999999
10
-114.751
20
-134.99799999999999
10
-114.726
20
-135.083
10
-114.70500000000001
20
-135.16800000000001
10
-114.69000000000001
20
-135.25299999999999
10
-114.678
20
-135.34
10
-114.67100000000002
20
-135.428
10
-114.66900000000001
20
-135.51600000000002
10
-114.67200000000003
20
-135.63
10
-114.681
20
-135.74000000000001
10
-114.69499999999999
20
-135.846
10
-114.71600000000002
20
-135.947
10
-114.74200000000002
20
-136.04399999999998
10
-114.77400000000002
20
-136.137
10
-114.81200000000001
20
-136.22499999999999
10
-114.85500000000002
20
-136.309
10
-114.905
20
-136.38900000000001
10
-114.96000000000001
20
-136.464
10
-115.02000000000001
20
-136.53500000000003
10
-115.08499999999999
20
-136.60300000000001
10
-115.154
20
-136.666
10
-115.227
20
-136.726
10
-115.304
20
-136.78100000000001
10
-115.38600000000002
20
-136.833
10
-115.47200000000002
20
-136.881
10
-115.56200000000003
20
-136.92500000000001
10
-115.65600000000002
20
-136.965
10
-115.755
20
-137.001
10
-115.85700000000003
20
-137.03299999999999
10
-115.96200000000002
20
-137.06299999999999
10
-116.06900000000002
20
-137.08799999999999
10
-116.17800000000001
20
-137.11000000000001
10
-116.29000000000002
20
-137.12899999999999
10
-116.40500000000002
20
-137.14500000000001
10
-116.52200000000001
20
-137.15700000000001
10
-116.64200000000001
20
-137.16499999999999
10
-116.76400000000001
20
-137.16999999999999
10
-116.88900000000001
20
-137.172
10
-116.97900000000001
20
-137.17099999999999
10
-117.06900000000002
20
-137.16800000000001
10
-117.15899999999999
20
-137.16399999999999
10
-117.249
20
-137.15799999999999
10
-117.34000000000002
20
-137.149
10
-117.43000000000002
20
-137.13999999999999
10
-117.52000000000001
20
-137.12799999999999
10
-117.611
20
-137.114
10
-117.70100000000001
20
-137.09899999999999
10
-117.79200000000002
20
-137.08199999999999
10
-117.88200000000002
20
-137.06299999999999
10
-117.97200000000002
20
-137.04300000000001
10
-118.06200000000003
20
-137.02200000000002
10
-118.23999999999999
20
-136.976
10
-118.416
20
-136.92400000000001
10
-118.50299999999999
20
-136.89600000000002
10
-118.59000000000002
20
-136.86700000000002
10
-118.59299999999999
20
-136.86593103448277
10
-118.59299999999999
20
-137.62799999999999
10
-118.59000000000002
20
-137.77799999999999
10
-118.58000000000001
20
-137.91999999999999
10
-118.56299999999999
20
-138.053
10
-118.54000000000001
20
-138.178
10
-118.51000000000001
20
-138.29300000000001
10
-118.474
20
-138.40000000000001
10
-118.431
20
-138.49799999999999
10
-118.38200000000001
20
-138.58799999999999
10
-118.32600000000001
20
-138.66899999999998
10
-118.26300000000001
20
-138.74100000000001
10
-118.19400000000002
20
-138.80500000000001
10
-118.11799999999999
20
-138.863
10
-118.035
20
-138.91399999999999
10
-117.94600000000001
20
-138.95800000000003
10
-117.84999999999999
20
-138.995
10
-117.74799999999999
20
-139.02600000000001
10
-117.639
20
-139.04900000000001
10
-117.52400000000002
20
-139.066
10
-117.40200000000002
20
-139.077
10
-117.273
20
-139.08000000000001
10
-117.19900000000001
20
-139.07900000000001
10
-117.12700000000001
20
-139.07599999999999
10
-117.05600000000001
20
-139.06999999999999
10
-116.986
20
-139.06299999999999
10
-116.91800000000001
20
-139.053
10
-116.851
20
-139.041
10
-116.78600000000002
20
-139.02700000000004
10
-116.72200000000002
20
-139.011
10
-116.65900000000001
20
-138.99299999999999
10
-116.59800000000001
20
-138.97200000000001
10
-116.539
20
-138.94900000000001
10
-116.48200000000003
20
-138.92400000000004
10
-116.42800000000001
20
-138.89700000000002
10
-116.376
20
-138.86700000000002
10
-116.32600000000002
20
-138.83500000000001
10
-116.28
20
-138.80000000000001
10
-116.23600000000002
20
-138.76300000000001
10
-116.194
20
-138.72399999999999
10
-116.155
20
-138.68299999999999
10
-116.11800000000001
20
-138.63900000000001
10
-116.08400000000002
20
-138.59299999999999
10
-116.05400000000002
20
-138.54399999999998
10
-116.02800000000001
20
-138.49200000000002
10
-116.005
20
-138.43799999999999
10
-115.98500000000001
20
-138.38200000000001
10
-115.96899999999999
20
-138.32299999999998
10
-115.95700000000001
20
-138.261
10
-115.94799999999999
20
-138.19600000000003
10
-115.94300000000001
20
-138.13
10
-115.941
20
-138.06
10
-114.89700000000001
20
-138.06
10
-114.90000000000002
20
-138.18200000000002
10
-114.90899999999999
20
-138.30000000000001
10
-114.925
20
-138.41299999999998
10
-114.946
20
-138.52000000000001
10
-114.97399999999999
20
-138.62299999999999
10
-115.00700000000002
20
-138.721
10
-115.04700000000001
20
-138.815
10
-115.09299999999999
20
-138.90299999999999
10
-115.145
20
-138.98599999999999
10
-115.20299999999999
20
-139.065
10
-115.26700000000002
20
-139.13900000000001
10
-115.33500000000001
20
-139.209
10
-115.40700000000001
20
-139.27500000000003
10
-115.48500000000001
20
-139.33600000000001
10
-115.56700000000001
20
-139.393
10
-115.65300000000001
20
-139.447
10
-115.745
20
-139.495
10
-115.84000000000002
20
-139.54000000000002
10
-115.941
20
-139.58100000000002
10
-116.04600000000002
20
-139.61700000000002
10
-116.155
20
-139.649
10
-116.26700000000001
20
-139.679
10
-116.38200000000001
20
-139.70400000000001
10
-116.5
20
-139.726
10
-116.62100000000002
20
-139.745
10
-116.74500000000002
20
-139.761
10
-116.873
20
-139.773
10
-117.00299999999999
20
-139.78100000000001
10
-117.13700000000001
20
-139.786
10
-117.273
20
-139.78800000000001
10
-117.40299999999999
20
-139.786
10
-117.53100000000002
20
-139.779
10
-117.65600000000001
20
-139.768
10
-117.77700000000002
20
-139.75200000000001
10
-117.89500000000001
20
-139.732
10
-118.01100000000002
20
-139.708
10
-118.123
20
-139.679
10
-118.233
20
-139.64600000000002
10
-118.34000000000002
20
-139.608
10
-118.44300000000001
20
-139.56600000000003
10
-118.54300000000001
20
-139.51900000000001
10
-118.63799999999999
20
-139.46700000000001
10
-118.72900000000001
20
-139.40899999999999
10
-118.81500000000001
20
-139.34700000000001
10
-118.89700000000002
20
-139.279
10
-118.97500000000001
20
-139.20600000000002
10
-119.048
20
-139.12700000000001
10
-119.11700000000002
20
-139.04399999999998
10
-119.18100000000001
20
-138.95500000000001
10
-119.24100000000001
20
-138.86099999999999
10
-119.29600000000001
20
-138.76100000000002
10
-119.345
20
-138.65600000000001
10
-119.38800000000001
20
-138.54499999999999
10
-119.42500000000001
20
-138.428
10
-119.45700000000002
20
-138.30500000000001
10
-119.483
20
-138.17700000000002
10
-119.50299999999999
20
-138.04200000000003
10
-119.51700000000002
20
-137.90200000000002
10
-119.52600000000002
20
-137.756
10
-119.529
20
-137.60399999999998
10
-119.529
20
-133.90799999999999
10
-118.71299999999999
20
-133.90799999999999
10
-118.61424050632911
20
-134.9449746835443
10
-118.572
20
-134.85599999999999
10
-118.52000000000001
20
-134.75999999999999
10
-118.46400000000001
20
-134.667
10
-118.40299999999999
20
-134.578
10
-118.339
20
-134.49299999999999
10
-118.27
20
-134.41200000000003
10
-118.197
20
-134.33500000000004
10
-118.11900000000001
20
-134.261
10
-118.03700000000001
20
-134.19200000000001
10
-117.95100000000002
20
-134.126
10
-117.86100000000002
20
-134.06399999999999
10
-117.76700000000002
20
-134.00700000000001
10
-117.669
20
-133.95600000000002
10
-117.568
20
-133.911
10
-117.46299999999999
20
-133.87200000000001
10
-117.354
20
-133.839
10
-117.24200000000002
20
-133.81200000000001
10
-117.12600000000002
20
-133.791
0
LWPOLYLINE
5
103
100
AcDbEntity
8
0
100
AcDbPolyline
90
232
70
1
43
0.0
10
-124.056
20
-133.77500000000001
10
-123.92200000000003
20
-133.767
10
-123.78299999999999
20
-133.76400000000001
10
-123.64600000000002
20
-133.768
10
-123.51100000000002
20
-133.779
10
-123.37700000000001
20
-133.797
10
-123.24600000000002
20
-133.82399999999998
10
-123.116
20
-133.857
10
-122.988
20
-133.89800000000002
10
-122.863
20
-133.946
10
-122.73899999999999
20
-134.00200000000001
10
-122.61600000000001
20
-134.065
10
-122.49600000000001
20
-134.136
10
-122.37899999999999
20
-134.21299999999999
10
-122.26600000000002
20
-134.297
10
-122.15899999999999
20
-134.387
10
-122.05500000000001
20
-134.483
10
-121.95700000000002
20
-134.584
10
-121.86300000000001
20
-134.69299999999998
10
-121.77300000000001
20
-134.80700000000002
10
-121.68900000000001
20
-134.92700000000002
10
-121.60899999999999
20
-135.053
10
-121.533
20
-135.18600000000001
10
-121.46299999999999
20
-135.32399999999998
10
-121.40100000000002
20
-135.46700000000001
10
-121.346
20
-135.61500000000001
10
-121.29899999999999
20
-135.768
10
-121.258
20
-135.92500000000001
10
-121.226
20
-136.08799999999999
10
-121.20000000000002
20
-136.256
10
-121.18200000000002
20
-136.428
10
-121.17100000000001
20
-136.60599999999999
10
-121.16700000000002
20
-136.78799999999998
10
-121.17100000000001
20
-136.97499999999999
10
-121.18200000000002
20
-137.15600000000001
10
-121.20000000000002
20
-137.33199999999999
10
-121.226
20
-137.50200000000001
10
-121.258
20
-137.667
10
-121.29899999999999
20
-137.82599999999999
10
-121.346
20
-137.97999999999999
10
-121.40100000000002
20
-138.12799999999999
10
-121.46299999999999
20
-138.27100000000002
10
-121.533
20
-138.40799999999999
10
-121.60899999999999
20
-138.53899999999999
10
-121.68900000000001
20
-138.66399999999999
10
-121.77300000000001
20
-138.78299999999999
10
-121.86300000000001
20
-138.89500000000001
10
-121.95700000000002
20
-139
10
-122.05500000000001
20
-139.09999999999999
10
-122.15899999999999
20
-139.19299999999998
10
-122.26600000000002
20
-139.28
10
-122.37899999999999
20
-139.36000000000001
10
-122.49600000000001
20
-139.434
10
-122.61600000000001
20
-139.501
10
-122.73899999999999
20
-139.56100000000001
10
-122.863
20
-139.61500000000001
10
-122.988
20
-139.661
10
-123.116
20
-139.69999999999999
10
-123.24600000000002
20
-139.73099999999999
10
-123.37700000000001
20
-139.756
10
-123.51100000000002
20
-139.774
10
-123.64600000000002
20
-139.78399999999999
10
-123.78299999999999
20
-139.78800000000001
10
-123.879
20
-139.78700000000001
10
-123.97300000000001
20
-139.78200000000001
10
-124.066
20
-139.77500000000001
10
-124.15600000000001
20
-139.76400000000001
10
-124.244
20
-139.751
10
-124.33100000000002
20
-139.73500000000001
10
-124.41500000000002
20
-139.71600000000001
10
-124.49700000000001
20
-139.69400000000002
10
-124.57799999999999
20
-139.66899999999998
10
-124.65600000000002
20
-139.64099999999999
10
-124.73200000000003
20
-139.61000000000001
10
-124.807
20
-139.578
10
-124.87899999999999
20
-139.54300000000001
10
-124.95000000000002
20
-139.50600000000003
10
-125.018
20
-139.46600000000001
10
-125.08499999999999
20
-139.42500000000001
10
-125.149
20
-139.381
10
-125.212
20
-139.33500000000004
10
-125.27200000000001
20
-139.286
10
-125.33100000000002
20
-139.23599999999999
10
-125.38800000000001
20
-139.184
10
-125.44200000000002
20
-139.13
10
-125.49500000000002
20
-139.07499999999999
10
-125.54600000000001
20
-139.01900000000001
10
-125.59399999999999
20
-138.96100000000001
10
-125.64100000000002
20
-138.90200000000002
10
-125.68600000000002
20
-138.84100000000001
10
-125.72800000000001
20
-138.779
10
-125.76900000000001
20
-138.71600000000001
10
-125.80799999999999
20
-138.65100000000001
10
-125.845
20
-138.58500000000001
10
-125.88000000000001
20
-138.51900000000001
10
-125.91200000000001
20
-138.452
10
-125.94300000000001
20
-138.38400000000001
10
-125.97200000000001
20
-138.31600000000003
10
-125.999
20
-138.24700000000001
10
-126.02400000000002
20
-138.17700000000002
10
-126.04700000000001
20
-138.107
10
-126.068
20
-138.036
10
-126.087
20
-137.964
10
-125.12700000000002
20
-137.88
10
-125.09500000000001
20
-137.97799999999998
10
-125.059
20
-138.071
10
-125.01899999999999
20
-138.16
10
-124.97500000000001
20
-138.245
10
-124.92700000000001
20
-138.32599999999999
10
-124.875
20
-138.40299999999999
10
-124.81900000000002
20
-138.476
10
-124.758
20
-138.54399999999998
10
-124.694
20
-138.60900000000001
10
-124.62600000000002
20
-138.66899999999998
10
-124.554
20
-138.72399999999999
10
-124.47900000000001
20
-138.774
10
-124.40200000000002
20
-138.81700000000001
10
-124.321
20
-138.85500000000002
10
-124.23700000000002
20
-138.887
10
-124.15000000000001
20
-138.91299999999998
10
-124.06
20
-138.934
10
-123.96600000000001
20
-138.94799999999998
10
-123.87
20
-138.95699999999999
10
-123.771
20
-138.96000000000001
10
-123.68600000000001
20
-138.95800000000003
10
-123.60300000000001
20
-138.94999999999999
10
-123.52000000000001
20
-138.93799999999999
10
-123.438
20
-138.92099999999999
10
-123.35799999999999
20
-138.899
10
-123.27799999999999
20
-138.87299999999999
10
-123.2
20
-138.84100000000001
10
-123.12200000000003
20
-138.80400000000003
10
-123.04600000000001
20
-138.76300000000001
10
-122.97
20
-138.71700000000001
10
-122.896
20
-138.666
10
-122.82600000000002
20
-138.61000000000001
10
-122.75800000000001
20
-138.55000000000001
10
-122.69300000000001
20
-138.48400000000001
10
-122.63
20
-138.41399999999999
10
-122.57100000000001
20
-138.339
10
-122.51400000000001
20
-138.25899999999999
10
-122.46000000000001
20
-138.17500000000001
10
-122.40899999999999
20
-138.08500000000004
10
-122.361
20
-137.99100000000004
10
-122.31700000000002
20
-137.892
10
-122.277
20
-137.78799999999998
10
-122.24200000000002
20
-137.68000000000001
10
-122.211
20
-137.56700000000001
10
-122.18600000000002
20
-137.44899999999998
10
-122.164
20
-137.32599999999999
10
-122.148
20
-137.19899999999998
10
-122.13600000000001
20
-137.06700000000001
10
-122.12899999999999
20
-136.93000000000001
10
-122.12700000000001
20
-136.78799999999998
10
-122.12899999999999
20
-136.65700000000001
10
-122.13600000000001
20
-136.529
10
-122.14600000000002
20
-136.404
10
-122.161
20
-136.28399999999999
10
-122.18000000000002
20
-136.166
10
-122.20399999999999
20
-136.053
10
-122.23100000000002
20
-135.94200000000001
10
-122.26300000000001
20
-135.83600000000001
10
-122.30000000000001
20
-135.733
10
-122.34000000000002
20
-135.63299999999998
10
-122.384
20
-135.53700000000001
10
-122.43200000000002
20
-135.446
10
-122.48200000000003
20
-135.35900000000001
10
-122.536
20
-135.27700000000004
10
-122.59299999999999
20
-135.19900000000001
10
-122.65299999999999
20
-135.125
10
-122.71600000000001
20
-135.05600000000001
10
-122.783
20
-134.99100000000001
10
-122.85200000000002
20
-134.93000000000001
10
-122.92500000000001
20
-134.87400000000002
10
-123
20
-134.82299999999998
10
-123.078
20
-134.77700000000002
10
-123.15700000000001
20
-134.73599999999999
10
-123.239
20
-134.70099999999999
10
-123.32300000000001
20
-134.672
10
-123.408
20
-134.64700000000002
10
-123.49600000000002
20
-134.62799999999999
10
-123.58499999999999
20
-134.61500000000001
10
-123.67700000000001
20
-134.607
10
-123.771
20
-134.60399999999998
10
-123.90100000000002
20
-134.607
10
-124.02500000000002
20
-134.61700000000002
10
-124.14200000000001
20
-134.63299999999998
10
-124.25200000000002
20
-134.65600000000001
10
-124.35700000000003
20
-134.68600000000004
10
-124.45500000000001
20
-134.72200000000001
10
-124.54600000000001
20
-134.76400000000001
10
-124.631
20
-134.81299999999999
10
-124.71000000000001
20
-134.869
10
-124.78200000000001
20
-134.93100000000001
10
-124.848
20
-134.999
10
-124.90600000000001
20
-135.072
10
-124.95800000000001
20
-135.15000000000001
10
-125.00299999999999
20
-135.233
10
-125.04100000000001
20
-135.322
10
-125.072
20
-135.41499999999999
10
-125.096
20
-135.51400000000001
10
-125.113
20
-135.61700000000002
10
-125.124
20
-135.726
10
-125.12700000000002
20
-135.84
10
-126.087
20
-135.84
10
-126.08400000000002
20
-135.721
10
-126.07600000000002
20
-135.60499999999999
10
-126.06200000000001
20
-135.49200000000002
10
-126.042
20
-135.381
10
-126.01600000000002
20
-135.273
10
-125.98500000000001
20
-135.16800000000001
10
-125.94900000000001
20
-135.065
10
-125.90700000000001
20
-134.964
10
-125.85900000000001
20
-134.86700000000002
10
-125.80500000000001
20
-134.77200000000005
10
-125.74600000000002
20
-134.68000000000001
10
-125.68300000000001
20
-134.59299999999999
10
-125.61399999999999
20
-134.50899999999999
10
-125.541
20
-134.42900000000003
10
-125.464
20
-134.35299999999998
10
-125.381
20
-134.28200000000001
10
-125.29400000000001
20
-134.214
10
-125.20200000000003
20
-134.15000000000001
10
-125.105
20
-134.09
10
-125.00399999999999
20
-134.03399999999999
10
-124.89800000000001
20
-133.983
10
-124.78900000000002
20
-133.93700000000001
10
-124.67600000000002
20
-133.89600000000002
10
-124.56000000000002
20
-133.86099999999999
10
-124.43899999999999
20
-133.83199999999999
10
-124.315
20
-133.80700000000002
10
-124.18799999999999
20
-133.78799999999998
0
LWPOLYLINE
5
104
100
AcDbEntity
8
0
100
AcDbPolyline
90
140
70
1
43
0.0
10
-237.00000000000003
20
-169.5
10
-237.00000000000003
20
-183
10
-232.5
20
-183
10
-232.5
20
-180
10
-223.5
20
-180
10
-223.5
20
-183
10
-214.50000000000003
20
-183
10
-214.50000000000003
20
-180
10
-205.5
20
-180
10
-205.5
20
-183
10
-196.50000000000003
20
-183
10
-196.50000000000003
20
-180
10
-187.5
20
-180
10
-187.5
20
-183
10
-178.5
20
-183
10
-178.5
20
-180
10
-169.5
20
-180
10
-169.5
20
-183
10
-160.5
20
-183
10
-160.5
20
-180
10
-151.5
20
-180
10
-151.5
20
-183
10
-142.5
20
-183
10
-142.5
20
-180
10
-133.5
20
-180
10
-133.5
20
-183
10
-124.50000000000001
20
-183
10
-124.50000000000001
20
-180
10
-115.5
20
-180
10
-115.5
20
-183
10
-106.5
20
-183
10
-106.5
20
-180
10
-97.5
20
-180
10
-97.5
20
-183
10
-88.5
20
-183
10
-88.5
20
-180
10
-79.5
20
-180
10
-79.5
20
-183
10
-70.5
20
-183
10
-70.5
20
-180
10
-61.5
20
-180
10
-61.5
20
-183
10
-52.5
20
-183
10
-52.5
20
-180
10
-43.5
20
-180
10
-43.5
20
-183
10
-34.500000000000014
20
-183
10
-34.500000000000014
20
-180
10
-25.500000000000007
20
-180
10
-25.500000000000007
20
-183
10
-16.500000000000004
20
-183
10
-16.500000000000004
20
-180
10
-7.5
20
-180
10
-7.5
20
-183
10
-3.0000000000000071
20
-183
10
-3.0000000000000071
20
-169.5
10
0
20
-169.5
10
0
20
-160.5
10
-3.0000000000000071
20
-160.5
10
-3.0000000000000071
20
-151.5
10
0
20
-151.5
10
0
20
-142.5
10
-3.0000000000000071
20
-142.5
10
-3.0000000000000071
20
-133.5
10
0
20
-133.5
10
0
20
-124.50000000000001
10
-3.0000000000000071
20
-124.50000000000001
10
-3.0000000000000071
20
-115.5
10
0
20
-115.5
10
0
20
-106.5
10
-3.0000000000000071
20
-106.5
10
-3.0000000000000071
20
-93
10
-7.5
20
-93
10
-7.5
20
-96.000000000000014
10
-16.500000000000004
20
-96.000000000000014
10
-16.500000000000004
20
-93
10
-25.500000000000007
20
-93
10
-25.500000000000007
20
-96.000000000000014
10
-34.500000000000014
20
-96.000000000000014
10
-34.500000000000014
20
-93
10
-43.5
20
-93
10
-43.5
20
-96.000000000000014
10
-52.5
20
-96.000000000000014
10
-52.5
20
-93
10
-61.5
20
-93
10
-61.5
20
-96.000000000000014
10
-70.5
20
-96.000000000000014
10
-70.5
20
-93
10
-79.5
20
-93
10
-79.5
20
-96.000000000000014
10
-88.5
20
-96.000000000000014
10
-88.5
20
-93
10
-97.5
20
-93
10
-97.5
20
-96.000000000000014
10
-106.5
20
-96.000000000000014
10
-106.5
20
-93
10
-115.5
20
-93
10
-115.5
20
-96.000000000000014
10
-124.50000000000001
20
-96.000000000000014
10
-124.50000000000001
20
-93
10
-133.5
20
-93
10
-133.5
20
-96.000000000000014
10
-142.5
20
-96.000000000000014
10
-142.5
20
-93
10
-151.5
20
-93
10
-151.5
20
-96.000000000000014
10
-160.5
20
-96.000000000000014
10
-160.5
20
-93
10
-169.5
20
-93
10
-169.5
20
-96.000000000000014
10
-178.5
20
-96.000000000000014
10
-178.5
20
-93
10
-187.5
20
-93
10
-187.5
20
-96.000000000000014
10
-196.50000000000003
20
-96.000000000000014
10
-196.50000000000003
20
-93
10
-205.5
20
-93
10
-205.5
20
-96.000000000000014
10
-214.50000000000003
20
-96.000000000000014
10
-214.50000000000003
20
-93
10
-223.5
20
-93
10
-223.5
20
-96.000000000000014
10
-232.5
20
-96.000000000000014
10
-232.5
20
-93
10
-237.00000000000003
20
-93
10
-237.00000000000003
20
-106.5
10
-240
20
-106.5
10
-240
20
-115.5
10
-237.00000000000003
20
-115.5
10
-237.00000000000003
20
-124.50000000000001
10
-240
20
-124.50000000000001
10
-240
20
-133.5
10
-237.00000000000003
20
-133.5
10
-237.00000000000003
20
-142.5
10
-240
20
-142.5
10
-240
20
-151.5
10
-237.00000000000003
20
-151.5
10
-237.00000000000003
20
-160.5
10
-240
20
-160.5
10
-240
20
-169.5
0
ENDSEC
0
SECTION
2
OBJECTS
0
DICTIONARY
5
C
100
AcDbDictionary
3
ACAD_GROUP
350
D
3
ACAD_MLINESTYLE
350
17
0
DICTIONARY
5
D
100
AcDbDictionary
0
DICTIONARY
5
1A
330
C
100
AcDbDictionary
0
DICTIONARY
5
17
100
AcDbDictionary
0
ENDSEC
0
EOF
