0
SECTION
2
HEADER
9
$INSUNITS
70
4
9
$ACADVER
1
AC1014
9
$HANDSEED
5
FFFF
0
ENDSEC
0
SECTION
2
TABLES
0
TABLE
2
VPORT
5
8
100
AcDbSymbolTable
0
ENDTAB
0
TABLE
2
LTYPE
5
5
100
AcDbSymbolTable
0
LTYPE
5
14
100
AcDbSymbolTableRecord
100
AcDbLinetypeTableRecord
2
BYBLOCK
70
0
0
LTYPE
5
15
100
AcDbSymbolTableRecord
100
AcDbLinetypeTableRecord
2
BYLAYER
70
0
0
LTYPE
5
16
100
AcDbSymbolTableRecord
100
AcDbLinetypeTableRecord
2
DASHED
70
0
3
Dashed __ __ __ __ __ __ __ __ __ __ __ __ __ _
72
65
73
2
40
0.75
49
0.5
74
0
49
-0.25
74
0
0
ENDTAB
0
TABLE
2
LAYER
5
2
100
AcDbSymbolTable
70
2
0
LAYER
5
50
100
AcDbSymbolTableRecord
100
AcDbLayerTableRecord
2
0
70
0
62
7
6
CONTINUOUS
0
ENDTAB
0
TABLE
2
STYLE
5
3
100
AcDbSymbolTable
70
1
0
STYLE
5
11
100
AcDbSymbolTableRecord
100
AcDbTextStyleTableRecord
2
STANDARD
70
0
0
ENDTAB
0
TABLE
2
VIEW
5
6
100
AcDbSymbolTable
70
0
0
ENDTAB
0
TABLE
2
UCS
5
7
100
AcDbSymbolTable
70
0
0
ENDTAB
0
TABLE
2
APPID
5
9
100
AcDbSymbolTable
70
2
0
APPID
5
12
100
AcDbSymbolTableRecord
100
AcDbRegAppTableRecord
2
ACAD
70
0
0
ENDTAB
0
TABLE
2
DIMSTYLE
5
A
100
AcDbSymbolTable
70
1
0
ENDTAB
0
TABLE
2
BLOCK_RECORD
5
1
100
AcDbSymbolTable
70
1
0
BLOCK_RECORD
5
1F
100
AcDbSymbolTableRecord
100
AcDbBlockTableRecord
2
*MODEL_SPACE
0
BLOCK_RECORD
5
1B
100
AcDbSymbolTableRecord
100
AcDbBlockTableRecord
2
*PAPER_SPACE
0
ENDTAB
0
ENDSEC
0
SECTION
2
BLOCKS
0
BLOCK
5
20
100
AcDbEntity
100
AcDbBlockBegin
2
*MODEL_SPACE
0
ENDBLK
5
21
100
AcDbEntity
100
AcDbBlockEnd
0
BLOCK
5
1C
100
AcDbEntity
100
AcDbBlockBegin
2
*PAPER_SPACE
0
ENDBLK
5
1D
100
AcDbEntity
100
AcDbBlockEnd
0
ENDSEC
0
SECTION
2
ENTITIES
0
LWPOLYLINE
5
100
100
AcDbEntity
8
0
100
AcDbPolyline
90
108
70
1
43
0.0
10
-367.03500000000008
20
-46.601999999999997
10
-368.22300000000007
20
-46.601999999999997
10
-368.22300000000007
20
-45.953999999999994
10
-367.03500000000008
20
-45.953999999999994
10
-367.03500000000008
20
-40.866
10
-366.09900000000005
20
-40.866
10
-366.09900000000005
20
-45.953999999999994
10
-365.16300000000001
20
-45.953999999999994
10
-365.16300000000001
20
-46.601999999999997
10
-366.09900000000005
20
-46.601999999999997
10
-366.09900000000005
20
-47.490000000000009
10
-366.101
20
-47.602000000000004
10
-366.10800000000006
20
-47.710000000000001
10
-366.11900000000003
20
-47.813000000000009
10
-366.13400000000007
20
-47.913000000000004
10
-366.154
20
-48.00800000000001
10
-366.17800000000011
20
-48.098999999999997
10
-366.20599999999996
20
-48.186999999999998
10
-366.23900000000003
20
-48.27000000000001
10
-366.27600000000001
20
-48.348000000000006
10
-366.31800000000004
20
-48.423000000000009
10
-366.36300000000006
20
-48.494
10
-366.41199999999998
20
-48.561000000000014
10
-366.46300000000002
20
-48.624000000000002
10
-366.517
20
-48.683000000000007
10
-366.57499999999999
20
-48.738999999999997
10
-366.63499999999999
20
-48.791000000000011
10
-366.69800000000004
20
-48.839000000000006
10
-366.76400000000001
20
-48.88300000000001
10
-366.834
20
-48.923000000000002
10
-366.90600000000006
20
-48.960000000000008
10
-366.98100000000005
20
-48.993000000000002
10
-367.05700000000002
20
-49.023000000000003
10
-367.13500000000005
20
-49.049000000000007
10
-367.21499999999997
20
-49.071000000000005
10
-367.29700000000003
20
-49.090000000000003
10
-367.38
20
-49.106000000000009
10
-367.46499999999997
20
-49.118000000000002
10
-367.55199999999996
20
-49.127000000000002
10
-367.64099999999996
20
-49.131999999999998
10
-367.73099999999999
20
-49.133999999999993
10
-367.77999999999997
20
-49.133999999999993
10
-367.83000000000004
20
-49.133000000000003
10
-367.87900000000002
20
-49.131
10
-367.97900000000004
20
-49.125000000000007
10
-368.029
20
-49.121000000000009
10
-368.07999999999998
20
-49.116000000000007
10
-368.13
20
-49.111000000000011
10
-368.18100000000004
20
-49.104999999999997
10
-368.23199999999997
20
-49.098000000000006
10
-368.33400000000006
20
-49.082000000000008
10
-368.38500000000005
20
-49.073
10
-368.43600000000004
20
-49.063000000000009
10
-368.48599999999999
20
-49.053000000000004
10
-368.53699999999998
20
-49.042000000000002
10
-368.58800000000002
20
-49.030000000000001
10
-368.63800000000003
20
-49.016999999999996
10
-368.68900000000002
20
-49.004000000000005
10
-368.73900000000003
20
-48.990000000000009
10
-368.55900000000008
20
-48.246000000000002
10
-368.52300000000008
20
-48.260000000000005
10
-368.45099999999996
20
-48.286000000000008
10
-368.41500000000002
20
-48.298000000000002
10
-368.38
20
-48.308999999999997
10
-368.30800000000005
20
-48.328999999999994
10
-368.27300000000002
20
-48.338000000000001
10
-368.23699999999997
20
-48.346000000000011
10
-368.202
20
-48.353999999999999
10
-368.16699999999997
20
-48.361000000000011
10
-368.13199999999995
20
-48.367000000000004
10
-368.09699999999998
20
-48.372
10
-368.0630000000001
20
-48.376999999999995
10
-368.029
20
-48.381000000000007
10
-367.995
20
-48.384
10
-367.96199999999999
20
-48.387
10
-367.92800000000005
20
-48.388999999999996
10
-367.89600000000002
20
-48.390000000000001
10
-367.86300000000006
20
-48.390000000000001
10
-367.82499999999999
20
-48.388999999999996
10
-367.78600000000006
20
-48.387
10
-367.74800000000005
20
-48.384
10
-367.70900000000006
20
-48.378000000000007
10
-367.67099999999999
20
-48.372
10
-367.6330000000001
20
-48.364000000000004
10
-367.59399999999999
20
-48.354999999999997
10
-367.55600000000004
20
-48.343999999999994
10
-367.517
20
-48.332000000000008
10
-367.4790000000001
20
-48.318000000000012
10
-367.44099999999997
20
-48.302000000000007
10
-367.40499999999997
20
-48.284000000000006
10
-367.37
20
-48.263000000000005
10
-367.33600000000001
20
-48.240000000000009
10
-367.30300000000005
20
-48.215000000000003
10
-367.27200000000005
20
-48.186000000000007
10
-367.24300000000005
20
-48.155000000000001
10
-367.21400000000006
20
-48.122000000000007
10
-367.18700000000001
20
-48.086000000000013
10
-367.16100000000006
20
-48.048000000000002
10
-367.13699999999994
20
-48.006999999999998
10
-367.11599999999999
20
-47.961999999999996
10
-367.09699999999998
20
-47.913999999999994
10
-367.07999999999998
20
-47.862000000000002
10
-367.06700000000001
20
-47.806000000000004
10
-367.05500000000001
20
-47.748000000000005
10
-367.04599999999999
20
-47.686000000000007
10
-367.04000000000002
20
-47.619999999999997
10
-367.036
20
-47.551000000000002
10
-367.03500000000008
20
-47.478000000000009
0
LWPOLYLINE
5
101
100
AcDbEntity
8
0
100
AcDbPolyline
90
6
70
1
43
0.0
10
-358.31099999999998
20
-40.866
10
-354.01499999999999
20
-40.866
10
-354.01499999999999
20
-48.402000000000001
10
-354.95100000000002
20
-48.402000000000001
10
-354.95100000000002
20
-41.681999999999995
10
-358.31099999999998
20
-41.681999999999995
0
LWPOLYLINE
5
102
100
AcDbEntity
8
0
100
AcDbPolyline
90
182
70
1
43
0.0
10
-361.85900000000004
20
-40.731000000000002
10
-361.73900000000003
20
-40.724000000000011
10
-361.61699999999996
20
-40.722000000000008
10
-361.47000000000003
20
-40.726000000000006
10
-361.32599999999996
20
-40.736999999999995
10
-361.18500000000006
20
-40.756000000000007
10
-361.04700000000003
20
-40.783000000000001
10
-360.91300000000001
20
-40.817000000000007
10
-360.78100000000001
20
-40.859000000000009
10
-360.65300000000002
20
-40.909000000000006
10
-360.52800000000002
20
-40.966000000000008
10
-360.40700000000004
20
-41.031000000000006
10
-360.28800000000001
20
-41.103000000000009
10
-360.173
20
-41.182000000000002
10
-360.06400000000008
20
-41.266999999999996
10
-359.959
20
-41.358000000000004
10
-359.85900000000009
20
-41.454999999999998
10
-359.76400000000007
20
-41.558
10
-359.67500000000001
20
-41.667000000000002
10
-359.58999999999997
20
-41.781999999999996
10
-359.50900000000001
20
-41.902999999999999
10
-359.43400000000003
20
-42.028999999999996
10
-359.36400000000003
20
-42.161999999999999
10
-359.30000000000001
20
-42.299999999999997
10
-359.24199999999996
20
-42.441000000000003
10
-359.19100000000003
20
-42.587000000000003
10
-359.14700000000005
20
-42.736999999999995
10
-359.11000000000001
20
-42.891000000000005
10
-359.07900000000006
20
-43.048999999999999
10
-359.05599999999998
20
-43.211000000000006
10
-359.03899999999999
20
-43.376999999999995
10
-359.02800000000008
20
-43.548000000000002
10
-359.02499999999998
20
-43.722000000000001
10
-359.02800000000008
20
-43.908000000000001
10
-359.03800000000001
20
-44.088000000000001
10
-359.05500000000006
20
-44.263000000000005
10
-359.07900000000006
20
-44.433
10
-359.10900000000004
20
-44.598000000000006
10
-359.14600000000002
20
-44.756999999999998
10
-359.19000000000005
20
-44.911000000000001
10
-359.24000000000001
20
-45.060000000000002
10
-359.29699999999997
20
-45.203999999999994
10
-359.36100000000005
20
-45.341999999999999
10
-359.43100000000004
20
-45.473999999999997
10
-359.505
20
-45.601000000000013
10
-359.58500000000004
20
-45.719999999999999
10
-359.67000000000007
20
-45.834000000000003
10
-359.75900000000001
20
-45.941000000000003
10
-359.85400000000004
20
-46.042000000000002
10
-359.95300000000009
20
-46.137000000000008
10
-360.05800000000011
20
-46.225000000000009
10
-360.16700000000003
20
-46.307000000000002
10
-360.28199999999998
20
-46.383000000000003
10
-360.40100000000001
20
-46.451999999999998
10
-360.52300000000002
20
-46.513999999999996
10
-360.64800000000002
20
-46.568000000000005
10
-360.77600000000007
20
-46.615000000000002
10
-360.90800000000002
20
-46.655000000000008
10
-361.04300000000001
20
-46.688000000000002
10
-361.18199999999996
20
-46.713000000000008
10
-361.32400000000007
20
-46.731000000000009
10
-361.46900000000005
20
-46.741999999999997
10
-361.61699999999996
20
-46.746000000000009
10
-361.74599999999998
20
-46.743000000000009
10
-361.87099999999998
20
-46.734999999999999
10
-361.99199999999996
20
-46.722000000000001
10
-362.10900000000004
20
-46.704000000000001
10
-362.22300000000007
20
-46.68
10
-362.33300000000008
20
-46.65100000000001
10
-362.43900000000002
20
-46.616999999999997
10
-362.541
20
-46.576999999999998
10
-362.63900000000001
20
-46.531999999999996
10
-362.733
20
-46.481999999999999
10
-362.82400000000001
20
-46.427000000000007
10
-362.911
20
-46.369
10
-362.99400000000003
20
-46.307000000000002
10
-363.07400000000001
20
-46.241000000000014
10
-363.14999999999998
20
-46.171999999999997
10
-363.22300000000007
20
-46.097999999999999
10
-363.29200000000003
20
-46.021000000000001
10
-363.35699999999997
20
-45.941000000000003
10
-363.41900000000004
20
-45.856000000000002
10
-363.47699999999998
20
-45.768000000000001
10
-363.53200000000004
20
-45.677000000000007
10
-363.58300000000008
20
-45.582999999999998
10
-363.63099999999997
20
-45.486999999999995
10
-363.67500000000001
20
-45.388999999999996
10
-363.71600000000001
20
-45.288999999999994
10
-363.75400000000008
20
-45.186000000000007
10
-363.78800000000007
20
-45.081000000000003
10
-363.81900000000002
20
-44.972999999999999
10
-363.846
20
-44.863
10
-363.87
20
-44.751000000000005
10
-363.89099999999996
20
-44.637
10
-363.90800000000007
20
-44.523000000000003
10
-363.92199999999997
20
-44.406999999999996
10
-363.93300000000005
20
-44.291000000000011
10
-363.94100000000003
20
-44.173999999999999
10
-363.94599999999997
20
-44.056999999999995
10
-363.94699999999995
20
-43.938000000000002
10
-363.94599999999997
20
-43.819000000000003
10
-363.94100000000003
20
-43.699000000000005
10
-363.93300000000005
20
-43.578000000000003
10
-359.96120168067227
20
-43.578000000000003
10
-359.96300000000008
20
-43.471000000000004
10
-359.96800000000002
20
-43.354999999999997
10
-359.97700000000003
20
-43.241000000000007
10
-359.99000000000001
20
-43.13000000000001
10
-360.00699999999995
20
-43.021999999999998
10
-360.02699999999999
20
-42.914999999999999
10
-360.05099999999999
20
-42.811999999999998
10
-360.07800000000003
20
-42.711000000000006
10
-360.10900000000004
20
-42.611999999999995
10
-360.14400000000001
20
-42.516000000000005
10
-360.18200000000002
20
-42.423000000000002
10
-360.22500000000002
20
-42.333999999999996
10
-360.26999999999998
20
-42.248999999999995
10
-360.32000000000005
20
-42.167999999999999
10
-360.3730000000001
20
-42.091000000000001
10
-360.42900000000003
20
-42.018000000000001
10
-360.49000000000001
20
-41.948999999999998
10
-360.55400000000009
20
-41.884
10
-360.62199999999996
20
-41.823000000000008
10
-360.69300000000004
20
-41.766000000000005
10
-360.76800000000003
20
-41.713999999999999
10
-360.84699999999998
20
-41.667000000000002
10
-360.93000000000006
20
-41.625000000000007
10
-361.017
20
-41.588999999999999
10
-361.10700000000003
20
-41.558999999999997
10
-361.20100000000002
20
-41.534000000000006
10
-361.29900000000009
20
-41.515000000000001
10
-361.40100000000007
20
-41.501000000000012
10
-361.50699999999995
20
-41.493000000000002
10
-361.61699999999996
20
-41.490000000000002
10
-361.72699999999998
20
-41.493000000000002
10
-361.83199999999999
20
-41.501000000000012
10
-361.93400000000003
20
-41.513999999999996
10
-362.03200000000004
20
-41.533000000000008
10
-362.125
20
-41.556999999999995
10
-362.21499999999997
20
-41.586999999999996
10
-362.30099999999999
20
-41.622
10
-362.38300000000004
20
-41.663000000000004
10
-362.46100000000007
20
-41.708999999999996
10
-362.53500000000003
20
-41.760000000000005
10
-362.60400000000004
20
-41.817
10
-362.66800000000001
20
-41.878
10
-362.72600000000006
20
-41.945000000000007
10
-362.77800000000008
20
-42.016999999999996
10
-362.82499999999999
20
-42.093999999999994
10
-362.86500000000001
20
-42.177
10
-362.90100000000001
20
-42.263999999999996
10
-362.93100000000004
20
-42.357000000000006
10
-362.95499999999998
20
-42.454999999999998
10
-362.97300000000001
20
-42.558
10
-363.94499999999999
20
-42.558
10
-363.92500000000007
20
-42.446000000000012
10
-363.89999999999998
20
-42.336000000000013
10
-363.87
20
-42.229999999999997
10
-363.83699999999999
20
-42.126999999999995
10
-363.798
20
-42.027999999999999
10
-363.755
20
-41.931000000000004
10
-363.70699999999999
20
-41.838000000000008
10
-363.65499999999997
20
-41.748000000000005
10
-363.59800000000001
20
-41.661000000000001
10
-363.53699999999998
20
-41.576999999999998
10
-363.47199999999998
20
-41.497
10
-363.40300000000008
20
-41.420000000000002
10
-363.33099999999996
20
-41.347000000000008
10
-363.255
20
-41.277999999999999
10
-363.17500000000001
20
-41.213000000000008
10
-363.09300000000002
20
-41.152000000000008
10
-363.00700000000001
20
-41.094000000000001
10
-362.91699999999997
20
-41.039999999999999
10
-362.82400000000001
20
-40.990000000000002
10
-362.72699999999998
20
-40.944000000000003
10
-362.62699999999995
20
-40.902000000000001
10
-362.52499999999998
20
-40.864000000000004
10
-362.42000000000007
20
-40.831000000000003
10
-362.31300000000005
20
-40.802000000000007
10
-362.20400000000006
20
-40.777999999999999
10
-362.09100000000001
20
-40.758000000000003
10
-361.976
20
-40.742000000000004
0
LWPOLYLINE
5
103
100
AcDbEntity
8
0
100
AcDbPolyline
90
89
70
1
43
0.0
10
-370.94099999999997
20
-46.601999999999997
10
-372.7530000000001
20
-46.601999999999997
10
-372.7530000000001
20
-45.953999999999994
10
-370.94099999999997
20
-45.953999999999994
10
-370.94099999999997
20
-42.366000000000014
10
-370.94900000000001
20
-42.196999999999996
10
-370.97399999999999
20
-42.046000000000006
10
-371.01599999999996
20
-41.913000000000011
10
-371.07300000000004
20
-41.798000000000002
10
-371.14800000000002
20
-41.70000000000001
10
-371.23900000000003
20
-41.619999999999997
10
-371.34700000000004
20
-41.558
10
-371.471
20
-41.513999999999996
10
-371.61200000000002
20
-41.486999999999995
10
-371.76900000000001
20
-41.478000000000002
10
-371.86699999999996
20
-41.479999999999997
10
-371.91500000000008
20
-41.483000000000004
10
-371.96300000000002
20
-41.486999999999995
10
-372.05900000000008
20
-41.497
10
-372.10599999999999
20
-41.504000000000005
10
-372.19999999999999
20
-41.521999999999998
10
-372.24600000000004
20
-41.531999999999996
10
-372.29300000000001
20
-41.542999999999999
10
-372.34100000000007
20
-41.556000000000004
10
-372.38999999999999
20
-41.568999999999996
10
-372.44
20
-41.583999999999996
10
-372.49099999999999
20
-41.598999999999997
10
-372.54400000000004
20
-41.616000000000007
10
-372.59700000000004
20
-41.633999999999993
10
-372.65199999999999
20
-41.653000000000006
10
-372.70800000000003
20
-41.673000000000002
10
-372.76499999999999
20
-41.693999999999996
10
-372.89700000000005
20
-41.021999999999998
10
-372.83600000000001
20
-40.996000000000009
10
-372.77499999999998
20
-40.971000000000004
10
-372.714
20
-40.946999999999996
10
-372.65300000000002
20
-40.924000000000007
10
-372.59199999999998
20
-40.902000000000001
10
-372.53100000000006
20
-40.881
10
-372.47000000000008
20
-40.861000000000004
10
-372.40900000000005
20
-40.841999999999999
10
-372.34900000000005
20
-40.823
10
-372.28800000000001
20
-40.805999999999997
10
-372.22699999999998
20
-40.789999999999999
10
-372.166
20
-40.775999999999996
10
-372.10400000000004
20
-40.763000000000005
10
-372.04200000000003
20
-40.751999999999995
10
-371.98000000000002
20
-40.743000000000002
10
-371.91699999999997
20
-40.734999999999999
10
-371.8540000000001
20
-40.729999999999997
10
-371.79000000000002
20
-40.725000000000009
10
-371.726
20
-40.722999999999999
10
-371.661
20
-40.722000000000008
10
-371.56800000000004
20
-40.724000000000011
10
-371.47800000000007
20
-40.728999999999999
10
-371.38900000000001
20
-40.738
10
-371.30199999999996
20
-40.750999999999998
10
-371.21699999999998
20
-40.766999999999996
10
-371.13400000000007
20
-40.787000000000006
10
-371.05300000000005
20
-40.810000000000002
10
-370.97399999999999
20
-40.836999999999996
10
-370.89599999999996
20
-40.868000000000002
10
-370.82099999999997
20
-40.902000000000001
10
-370.74800000000005
20
-40.940000000000005
10
-370.67800000000005
20
-40.981000000000009
10
-370.61199999999997
20
-41.02600000000001
10
-370.548
20
-41.07500000000001
10
-370.48800000000006
20
-41.126999999999995
10
-370.43100000000004
20
-41.183000000000007
10
-370.37699999999995
20
-41.242000000000004
10
-370.32599999999996
20
-41.305000000000007
10
-370.27800000000008
20
-41.372
10
-370.233
20
-41.442000000000007
10
-370.19200000000001
20
-41.516000000000012
10
-370.15499999999997
20
-41.593000000000011
10
-370.12300000000005
20
-41.673999999999999
10
-370.09500000000003
20
-41.758999999999993
10
-370.07100000000003
20
-41.847000000000001
10
-370.05199999999996
20
-41.938999999999993
10
-370.036
20
-42.034000000000006
10
-370.02600000000001
20
-42.133000000000003
10
-370.01900000000001
20
-42.236000000000004
10
-370.017
20
-42.342000000000006
10
-370.017
20
-45.953999999999994
10
-369.09300000000002
20
-45.953999999999994
10
-369.09300000000002
20
-46.601999999999997
10
-370.017
20
-46.601999999999997
10
-370.017
20
-48.198000000000008
10
-370.94099999999997
20
-48.198000000000008
0
LWPOLYLINE
5
104
100
AcDbEntity
8
0
100
AcDbPolyline
90
140
70
1
43
0.0
10
-483.00000000000006
20
-76.5
10
-483.00000000000006
20
-90
10
-475.50000000000006
20
-90
10
-475.50000000000006
20
-87.000000000000014
10
-466.50000000000006
20
-87.000000000000014
10
-466.50000000000006
20
-90
10
-457.5
20
-90
10
-457.5
20
-87.000000000000014
10
-448.5
20
-87.000000000000014
10
-448.5
20
-90
10
-439.5
20
-90
10
-439.5
20
-87.000000000000014
10
-430.50000000000006
20
-87.000000000000014
10
-430.50000000000006
20
-90
10
-421.50000000000006
20
-90
10
-421.50000000000006
20
-87.000000000000014
10
-412.5
20
-87.000000000000014
10
-412.5
20
-90
10
-403.5
20
-90
10
-403.5
20
-87.000000000000014
10
-394.5
20
-87.000000000000014
10
-394.5
20
-90
10
-385.50000000000006
20
-90
10
-385.50000000000006
20
-87.000000000000014
10
-376.5
20
-87.000000000000014
10
-376.5
20
-90
10
-367.5
20
-90
10
-367.5
20
-87.000000000000014
10
-358.5
20
-87.000000000000014
10
-358.5
20
-90
10
-349.5
20
-90
10
-349.5
20
-87.000000000000014
10
-340.50000000000006
20
-87.000000000000014
10
-340.50000000000006
20
-90
10
-331.5
20
-90
10
-331.5
20
-87.000000000000014
10
-322.5
20
-87.000000000000014
10
-322.5
20
-90
10
-313.5
20
-90
10
-313.5
20
-87.000000000000014
10
-304.5
20
-87.000000000000014
10
-304.5
20
-90
10
-295.5
20
-90
10
-295.5
20
-87.000000000000014
10
-286.5
20
-87.000000000000014
10
-286.5
20
-90
10
-277.5
20
-90
10
-277.5
20
-87.000000000000014
10
-268.5
20
-87.000000000000014
10
-268.5
20
-90
10
-259.5
20
-90
10
-259.5
20
-87.000000000000014
10
-250.5
20
-87.000000000000014
10
-250.5
20
-90
10
-243
20
-90
10
-243
20
-76.5
10
-246
20
-76.5
10
-246
20
-67.5
10
-243
20
-67.5
10
-243
20
-58.500000000000007
10
-246
20
-58.500000000000007
10
-246
20
-49.5
10
-243
20
-49.5
10
-243
20
-40.5
10
-246
20
-40.5
10
-246
20
-31.500000000000004
10
-243
20
-31.500000000000004
10
-243
20
-22.5
10
-246
20
-22.5
10
-246
20
-13.5
10
-243
20
-13.5
10
-243
20
0
10
-250.5
20
0
10
-250.5
20
-2.9999999999999982
10
-259.5
20
-2.9999999999999982
10
-259.5
20
0
10
-268.5
20
0
10
-268.5
20
-2.9999999999999982
10
-277.5
20
-2.9999999999999982
10
-277.5
20
0
10
-286.5
20
0
10
-286.5
20
-2.9999999999999982
10
-295.5
20
-2.9999999999999982
10
-295.5
20
0
10
-304.5
20
0
10
-304.5
20
-2.9999999999999982
10
-313.5
20
-2.9999999999999982
10
-313.5
20
0
10
-322.5
20
0
10
-322.5
20
-2.9999999999999982
10
-331.5
20
-2.9999999999999982
10
-331.5
20
0
10
-340.50000000000006
20
0
10
-340.50000000000006
20
-2.9999999999999982
10
-349.5
20
-2.9999999999999982
10
-349.5
20
0
10
-358.5
20
0
10
-358.5
20
-2.9999999999999982
10
-367.5
20
-2.9999999999999982
10
-367.5
20
0
10
-376.5
20
0
10
-376.5
20
-2.9999999999999982
10
-385.50000000000006
20
-2.9999999999999982
10
-385.50000000000006
20
0
10
-394.5
20
0
10
-394.5
20
-2.9999999999999982
10
-403.5
20
-2.9999999999999982
10
-403.5
20
0
10
-412.5
20
0
10
-412.5
20
-2.9999999999999982
10
-421.50000000000006
20
-2.9999999999999982
10
-421.50000000000006
20
0
10
-430.50000000000006
20
0
10
-430.50000000000006
20
-2.9999999999999982
10
-439.5
20
-2.9999999999999982
10
-439.5
20
0
10
-448.5
20
0
10
-448.5
20
-2.9999999999999982
10
-457.5
20
-2.9999999999999982
10
-457.5
20
0
10
-466.50000000000006
20
0
10
-466.50000000000006
20
-2.9999999999999982
10
-475.50000000000006
20
-2.9999999999999982
10
-475.50000000000006
20
0
10
-483.00000000000006
20
0
10
-483.00000000000006
20
-13.5
10
-480
20
-13.5
10
-480
20
-22.5
10
-483.00000000000006
20
-22.5
10
-483.00000000000006
20
-31.500000000000004
10
-480
20
-31.500000000000004
10
-480
20
-40.5
10
-483.00000000000006
20
-40.5
10
-483.00000000000006
20
-49.5
10
-480
20
-49.5
10
-480
20
-58.500000000000007
10
-483.00000000000006
20
-58.500000000000007
10
-483.00000000000006
20
-67.5
10
-480
20
-67.5
10
-480
20
-76.5
0
ENDSEC
0
SECTION
2
OBJECTS
0
DICTIONARY
5
C
100
AcDbDictionary
3
ACAD_GROUP
350
D
3
ACAD_MLINESTYLE
350
17
0
DICTIONARY
5
D
100
AcDbDictionary
0
DICTIONARY
5
1A
330
C
100
AcDbDictionary
0
DICTIONARY
5
17
100
AcDbDictionary
0
ENDSEC
0
EOF
