0
SECTION
2
HEADER
9
$INSUNITS
70
4
9
$ACADVER
1
AC1014
9
$HANDSEED
5
FFFF
0
ENDSEC
0
SECTION
2
TABLES
0
TABLE
2
VPORT
5
8
100
AcDbSymbolTable
0
ENDTAB
0
TABLE
2
LTYPE
5
5
100
AcDbSymbolTable
0
LTYPE
5
14
100
AcDbSymbolTableRecord
100
AcDbLinetypeTableRecord
2
BYBLOCK
70
0
0
LTYPE
5
15
100
AcDbSymbolTableRecord
100
AcDbLinetypeTableRecord
2
BYLAYER
70
0
0
LTYPE
5
16
100
AcDbSymbolTableRecord
100
AcDbLinetypeTableRecord
2
DASHED
70
0
3
Dashed __ __ __ __ __ __ __ __ __ __ __ __ __ _
72
65
73
2
40
0.75
49
0.5
74
0
49
-0.25
74
0
0
ENDTAB
0
TABLE
2
LAYER
5
2
100
AcDbSymbolTable
70
2
0
LAYER
5
50
100
AcDbSymbolTableRecord
100
AcDbLayerTableRecord
2
0
70
0
62
7
6
CONTINUOUS
0
ENDTAB
0
TABLE
2
STYLE
5
3
100
AcDbSymbolTable
70
1
0
STYLE
5
11
100
AcDbSymbolTableRecord
100
AcDbTextStyleTableRecord
2
STANDARD
70
0
0
ENDTAB
0
TABLE
2
VIEW
5
6
100
AcDbSymbolTable
70
0
0
ENDTAB
0
TABLE
2
UCS
5
7
100
AcDbSymbolTable
70
0
0
ENDTAB
0
TABLE
2
APPID
5
9
100
AcDbSymbolTable
70
2
0
APPID
5
12
100
AcDbSymbolTableRecord
100
AcDbRegAppTableRecord
2
ACAD
70
0
0
ENDTAB
0
TABLE
2
DIMSTYLE
5
A
100
AcDbSymbolTable
70
1
0
ENDTAB
0
TABLE
2
BLOCK_RECORD
5
1
100
AcDbSymbolTable
70
1
0
BLOCK_RECORD
5
1F
100
AcDbSymbolTableRecord
100
AcDbBlockTableRecord
2
*MODEL_SPACE
0
BLOCK_RECORD
5
1B
100
AcDbSymbolTableRecord
100
AcDbBlockTableRecord
2
*PAPER_SPACE
0
ENDTAB
0
ENDSEC
0
SECTION
2
BLOCKS
0
BLOCK
5
20
100
AcDbEntity
100
AcDbBlockBegin
2
*MODEL_SPACE
0
ENDBLK
5
21
100
AcDbEntity
100
AcDbBlockEnd
0
BLOCK
5
1C
100
AcDbEntity
100
AcDbBlockBegin
2
*PAPER_SPACE
0
ENDBLK
5
1D
100
AcDbEntity
100
AcDbBlockEnd
0
ENDSEC
0
SECTION
2
ENTITIES
0
LWPOLYLINE
5
100
100
AcDbEntity
8
0
100
AcDbPolyline
90
212
70
1
43
0.0
10
-3.0000000000000004
20
-250.5
10
-3.0000000000000004
20
-253.5
10
-6.0000000000000071
20
-253.5
10
-6.0000000000000071
20
-268.5
10
-3.0000000000000004
20
-268.5
10
-3.0000000000000004
20
-271.5
10
-6.0000000000000071
20
-271.5
10
-6.0000000000000071
20
-286.5
10
-3.0000000000000004
20
-286.5
10
-3.0000000000000004
20
-289.5
10
-6.0000000000000071
20
-289.5
10
-6.0000000000000071
20
-304.5
10
-3.0000000000000004
20
-304.5
10
-3.0000000000000004
20
-307.5
10
-6.0000000000000071
20
-307.5
10
-6.0000000000000071
20
-322.5
10
-3.0000000000000004
20
-322.5
10
-3.0000000000000004
20
-325.50000000000006
10
-6.0000000000000071
20
-325.50000000000006
10
-6.0000000000000071
20
-340.5
10
-3.0000000000000004
20
-340.5
10
-3.0000000000000004
20
-343.5
10
-6.0000000000000071
20
-343.5
10
-6.0000000000000071
20
-358.5
10
-3.0000000000000004
20
-358.5
10
-3.0000000000000004
20
-361.50000000000006
10
-6.0000000000000071
20
-361.50000000000006
10
-6.0000000000000071
20
-376.5
10
-3.0000000000000004
20
-376.5
10
-3.0000000000000004
20
-379.5
10
-6.0000000000000071
20
-379.5
10
-6.0000000000000071
20
-394.5
10
-3.0000000000000004
20
-394.5
10
-3.0000000000000004
20
-397.50000000000006
10
-6.0000000000000071
20
-397.50000000000006
10
-6.0000000000000071
20
-412.5
10
-3.0000000000000004
20
-412.5
10
-3.0000000000000004
20
-415.50000000000006
10
-6.0000000000000071
20
-415.50000000000006
10
-6.0000000000000071
20
-420.00000000000006
10
-10.5
20
-420.00000000000006
10
-10.5
20
-423.00000000000006
10
-13.500000000000004
20
-423.00000000000006
10
-13.500000000000004
20
-420.00000000000006
10
-28.500000000000007
20
-420.00000000000006
10
-28.500000000000007
20
-423.00000000000006
10
-31.499999999999993
20
-423.00000000000006
10
-31.499999999999993
20
-420.00000000000006
10
-46.500000000000014
20
-420.00000000000006
10
-46.500000000000014
20
-423.00000000000006
10
-49.5
20
-423.00000000000006
10
-49.5
20
-420.00000000000006
10
-64.5
20
-420.00000000000006
10
-64.5
20
-423.00000000000006
10
-67.500000000000014
20
-423.00000000000006
10
-67.500000000000014
20
-420.00000000000006
10
-82.5
20
-420.00000000000006
10
-82.5
20
-423.00000000000006
10
-85.499999999999986
20
-423.00000000000006
10
-85.499999999999986
20
-420.00000000000006
10
-100.5
20
-420.00000000000006
10
-100.5
20
-423.00000000000006
10
-103.5
20
-423.00000000000006
10
-103.5
20
-420.00000000000006
10
-118.50000000000001
20
-420.00000000000006
10
-118.50000000000001
20
-423.00000000000006
10
-121.5
20
-423.00000000000006
10
-121.5
20
-420.00000000000006
10
-136.50000000000003
20
-420.00000000000006
10
-136.50000000000003
20
-423.00000000000006
10
-139.5
20
-423.00000000000006
10
-139.5
20
-420.00000000000006
10
-154.5
20
-420.00000000000006
10
-154.5
20
-423.00000000000006
10
-157.5
20
-423.00000000000006
10
-157.5
20
-420.00000000000006
10
-172.5
20
-420.00000000000006
10
-172.5
20
-423.00000000000006
10
-175.5
20
-423.00000000000006
10
-175.5
20
-420.00000000000006
10
-190.5
20
-420.00000000000006
10
-190.5
20
-423.00000000000006
10
-193.5
20
-423.00000000000006
10
-193.5
20
-420.00000000000006
10
-208.5
20
-420.00000000000006
10
-208.5
20
-423.00000000000006
10
-211.50000000000003
20
-423.00000000000006
10
-211.50000000000003
20
-420.00000000000006
10
-226.50000000000003
20
-420.00000000000006
10
-226.50000000000003
20
-423.00000000000006
10
-229.5
20
-423.00000000000006
10
-229.5
20
-420.00000000000006
10
-234.00000000000003
20
-420.00000000000006
10
-234.00000000000003
20
-415.50000000000006
10
-237
20
-415.50000000000006
10
-237
20
-412.5
10
-234.00000000000003
20
-412.5
10
-234.00000000000003
20
-397.50000000000006
10
-237
20
-397.50000000000006
10
-237
20
-394.5
10
-234.00000000000003
20
-394.5
10
-234.00000000000003
20
-379.5
10
-237
20
-379.5
10
-237
20
-376.5
10
-234.00000000000003
20
-376.5
10
-234.00000000000003
20
-361.50000000000006
10
-237
20
-361.50000000000006
10
-237
20
-358.5
10
-234.00000000000003
20
-358.5
10
-234.00000000000003
20
-343.5
10
-237
20
-343.5
10
-237
20
-340.5
10
-234.00000000000003
20
-340.5
10
-234.00000000000003
20
-325.50000000000006
10
-237
20
-325.50000000000006
10
-237
20
-322.5
10
-234.00000000000003
20
-322.5
10
-234.00000000000003
20
-307.5
10
-237
20
-307.5
10
-237
20
-304.5
10
-234.00000000000003
20
-304.5
10
-234.00000000000003
20
-289.5
10
-237
20
-289.5
10
-237
20
-286.5
10
-234.00000000000003
20
-286.5
10
-234.00000000000003
20
-271.5
10
-237
20
-271.5
10
-237
20
-268.5
10
-234.00000000000003
20
-268.5
10
-234.00000000000003
20
-253.5
10
-237
20
-253.5
10
-237
20
-250.5
10
-234.00000000000003
20
-250.5
10
-234.00000000000003
20
-235.5
10
-237
20
-235.5
10
-237
20
-232.50000000000003
10
-234.00000000000003
20
-232.50000000000003
10
-234.00000000000003
20
-217.5
10
-237
20
-217.5
10
-237
20
-214.50000000000003
10
-234.00000000000003
20
-214.50000000000003
10
-234.00000000000003
20
-199.5
10
-237
20
-199.5
10
-237
20
-196.50000000000003
10
-234.00000000000003
20
-196.50000000000003
10
-234.00000000000003
20
-192.00000000000003
10
-229.5
20
-192.00000000000003
10
-229.5
20
-189.00000000000003
10
-226.50000000000003
20
-189.00000000000003
10
-226.50000000000003
20
-192.00000000000003
10
-211.50000000000003
20
-192.00000000000003
10
-211.50000000000003
20
-189.00000000000003
10
-208.5
20
-189.00000000000003
10
-208.5
20
-192.00000000000003
10
-193.5
20
-192.00000000000003
10
-193.5
20
-189.00000000000003
10
-190.5
20
-189.00000000000003
10
-190.5
20
-192.00000000000003
10
-175.5
20
-192.00000000000003
10
-175.5
20
-189.00000000000003
10
-172.5
20
-189.00000000000003
10
-172.5
20
-192.00000000000003
10
-157.5
20
-192.00000000000003
10
-157.5
20
-189.00000000000003
10
-154.5
20
-189.00000000000003
10
-154.5
20
-192.00000000000003
10
-139.5
20
-192.00000000000003
10
-139.5
20
-189.00000000000003
10
-136.50000000000003
20
-189.00000000000003
10
-136.50000000000003
20
-192.00000000000003
10
-121.5
20
-192.00000000000003
10
-121.5
20
-189.00000000000003
10
-118.50000000000001
20
-189.00000000000003
10
-118.50000000000001
20
-192.00000000000003
10
-103.5
20
-192.00000000000003
10
-103.5
20
-189.00000000000003
10
-100.5
20
-189.00000000000003
10
-100.5
20
-192.00000000000003
10
-85.499999999999986
20
-192.00000000000003
10
-85.499999999999986
20
-189.00000000000003
10
-82.5
20
-189.00000000000003
10
-82.5
20
-192.00000000000003
10
-67.500000000000014
20
-192.00000000000003
10
-67.500000000000014
20
-189.00000000000003
10
-64.5
20
-189.00000000000003
10
-64.5
20
-192.00000000000003
10
-49.5
20
-192.00000000000003
10
-49.5
20
-189.00000000000003
10
-46.500000000000014
20
-189.00000000000003
10
-46.500000000000014
20
-192.00000000000003
10
-31.499999999999993
20
-192.00000000000003
10
-31.499999999999993
20
-189.00000000000003
10
-28.500000000000007
20
-189.00000000000003
10
-28.500000000000007
20
-192.00000000000003
10
-13.500000000000004
20
-192.00000000000003
10
-13.500000000000004
20
-189.00000000000003
10
-10.5
20
-189.00000000000003
10
-10.5
20
-192.00000000000003
10
-6.0000000000000071
20
-192.00000000000003
10
-6.0000000000000071
20
-196.50000000000003
10
-3.0000000000000004
20
-196.50000000000003
10
-3.0000000000000004
20
-199.5
10
-6.0000000000000071
20
-199.5
10
-6.0000000000000071
20
-214.50000000000003
10
-3.0000000000000004
20
-214.50000000000003
10
-3.0000000000000004
20
-217.5
10
-6.0000000000000071
20
-217.5
10
-6.0000000000000071
20
-232.50000000000003
10
-3.0000000000000004
20
-232.50000000000003
10
-3.0000000000000004
20
-235.5
10
-6.0000000000000071
20
-235.5
10
-6.0000000000000071
20
-250.5
0
LWPOLYLINE
5
101
100
AcDbEntity
8
0
100
AcDbPolyline
90
212
70
1
43
0.0
10
-232.5
20
-423.00000000000006
10
-232.5
20
-426
10
-223.5
20
-426
10
-223.5
20
-423.00000000000006
10
-214.50000000000003
20
-423.00000000000006
10
-214.50000000000003
20
-426
10
-205.5
20
-426
10
-205.5
20
-423.00000000000006
10
-196.50000000000003
20
-423.00000000000006
10
-196.50000000000003
20
-426
10
-187.5
20
-426
10
-187.5
20
-423.00000000000006
10
-178.5
20
-423.00000000000006
10
-178.5
20
-426
10
-169.5
20
-426
10
-169.5
20
-423.00000000000006
10
-160.5
20
-423.00000000000006
10
-160.5
20
-426
10
-151.5
20
-426
10
-151.5
20
-423.00000000000006
10
-142.5
20
-423.00000000000006
10
-142.5
20
-426
10
-133.5
20
-426
10
-133.5
20
-423.00000000000006
10
-124.50000000000001
20
-423.00000000000006
10
-124.50000000000001
20
-426
10
-115.5
20
-426
10
-115.5
20
-423.00000000000006
10
-106.5
20
-423.00000000000006
10
-106.5
20
-426
10
-97.5
20
-426
10
-97.5
20
-423.00000000000006
10
-88.5
20
-423.00000000000006
10
-88.5
20
-426
10
-79.5
20
-426
10
-79.5
20
-423.00000000000006
10
-70.5
20
-423.00000000000006
10
-70.5
20
-426
10
-61.5
20
-426
10
-61.5
20
-423.00000000000006
10
-52.5
20
-423.00000000000006
10
-52.5
20
-426
10
-43.500000000000014
20
-426
10
-43.500000000000014
20
-423.00000000000006
10
-34.499999999999993
20
-423.00000000000006
10
-34.499999999999993
20
-426
10
-25.500000000000007
20
-426
10
-25.500000000000007
20
-423.00000000000006
10
-16.500000000000004
20
-423.00000000000006
10
-16.500000000000004
20
-426
10
-7.5
20
-426
10
-7.5
20
-423.00000000000006
10
-3.0000000000000071
20
-423.00000000000006
10
-3.0000000000000071
20
-418.5
10
0
20
-418.5
10
0
20
-409.5
10
-3.0000000000000071
20
-409.5
10
-3.0000000000000071
20
-400.50000000000006
10
0
20
-400.50000000000006
10
0
20
-391.50000000000006
10
-3.0000000000000071
20
-391.50000000000006
10
-3.0000000000000071
20
-382.5
10
0
20
-382.5
10
0
20
-373.5
10
-3.0000000000000071
20
-373.5
10
-3.0000000000000071
20
-364.5
10
0
20
-364.5
10
0
20
-355.50000000000006
10
-3.0000000000000071
20
-355.50000000000006
10
-3.0000000000000071
20
-346.5
10
0
20
-346.5
10
0
20
-337.5
10
-3.0000000000000071
20
-337.5
10
-3.0000000000000071
20
-328.5
10
0
20
-328.5
10
0
20
-319.5
10
-3.0000000000000071
20
-319.5
10
-3.0000000000000071
20
-310.5
10
0
20
-310.5
10
0
20
-301.5
10
-3.0000000000000071
20
-301.5
10
-3.0000000000000071
20
-292.5
10
0
20
-292.5
10
0
20
-283.5
10
-3.0000000000000071
20
-283.5
10
-3.0000000000000071
20
-274.5
10
0
20
-274.5
10
0
20
-265.5
10
-3.0000000000000071
20
-265.5
10
-3.0000000000000071
20
-256.5
10
0
20
-256.5
10
0
20
-247.5
10
-3.0000000000000071
20
-247.5
10
-3.0000000000000071
20
-238.5
10
0
20
-238.5
10
0
20
-229.50000000000003
10
-3.0000000000000071
20
-229.50000000000003
10
-3.0000000000000071
20
-220.5
10
0
20
-220.5
10
0
20
-211.50000000000003
10
-3.0000000000000071
20
-211.50000000000003
10
-3.0000000000000071
20
-202.5
10
0
20
-202.5
10
0
20
-193.5
10
-3.0000000000000071
20
-193.5
10
-3.0000000000000071
20
-189.00000000000003
10
-7.5
20
-189.00000000000003
10
-7.5
20
-186
10
-16.500000000000004
20
-186
10
-16.500000000000004
20
-189.00000000000003
10
-25.500000000000007
20
-189.00000000000003
10
-25.500000000000007
20
-186
10
-34.499999999999993
20
-186
10
-34.499999999999993
20
-189.00000000000003
10
-43.500000000000014
20
-189.00000000000003
10
-43.500000000000014
20
-186
10
-52.5
20
-186
10
-52.5
20
-189.00000000000003
10
-61.5
20
-189.00000000000003
10
-61.5
20
-186
10
-70.5
20
-186
10
-70.5
20
-189.00000000000003
10
-79.5
20
-189.00000000000003
10
-79.5
20
-186
10
-88.5
20
-186
10
-88.5
20
-189.00000000000003
10
-97.5
20
-189.00000000000003
10
-97.5
20
-186
10
-106.5
20
-186
10
-106.5
20
-189.00000000000003
10
-115.5
20
-189.00000000000003
10
-115.5
20
-186
10
-124.50000000000001
20
-186
10
-124.50000000000001
20
-189.00000000000003
10
-133.5
20
-189.00000000000003
10
-133.5
20
-186
10
-142.5
20
-186
10
-142.5
20
-189.00000000000003
10
-151.5
20
-189.00000000000003
10
-151.5
20
-186
10
-160.5
20
-186
10
-160.5
20
-189.00000000000003
10
-169.5
20
-189.00000000000003
10
-169.5
20
-186
10
-178.5
20
-186
10
-178.5
20
-189.00000000000003
10
-187.5
20
-189.00000000000003
10
-187.5
20
-186
10
-196.50000000000003
20
-186
10
-196.50000000000003
20
-189.00000000000003
10
-205.5
20
-189.00000000000003
10
-205.5
20
-186
10
-214.50000000000003
20
-186
10
-214.50000000000003
20
-189.00000000000003
10
-223.5
20
-189.00000000000003
10
-223.5
20
-186
10
-232.5
20
-186
10
-232.5
20
-189.00000000000003
10
-237.00000000000003
20
-189.00000000000003
10
-237.00000000000003
20
-193.5
10
-240
20
-193.5
10
-240
20
-202.5
10
-237.00000000000003
20
-202.5
10
-237.00000000000003
20
-211.50000000000003
10
-240
20
-211.50000000000003
10
-240
20
-220.5
10
-237.00000000000003
20
-220.5
10
-237.00000000000003
20
-229.50000000000003
10
-240
20
-229.50000000000003
10
-240
20
-238.5
10
-237.00000000000003
20
-238.5
10
-237.00000000000003
20
-247.5
10
-240
20
-247.5
10
-240
20
-256.5
10
-237.00000000000003
20
-256.5
10
-237.00000000000003
20
-265.5
10
-240
20
-265.5
10
-240
20
-274.5
10
-237.00000000000003
20
-274.5
10
-237.00000000000003
20
-283.5
10
-240
20
-283.5
10
-240
20
-292.5
10
-237.00000000000003
20
-292.5
10
-237.00000000000003
20
-301.5
10
-240
20
-301.5
10
-240
20
-310.5
10
-237.00000000000003
20
-310.5
10
-237.00000000000003
20
-319.5
10
-240
20
-319.5
10
-240
20
-328.5
10
-237.00000000000003
20
-328.5
10
-237.00000000000003
20
-337.5
10
-240
20
-337.5
10
-240
20
-346.5
10
-237.00000000000003
20
-346.5
10
-237.00000000000003
20
-355.50000000000006
10
-240
20
-355.50000000000006
10
-240
20
-364.5
10
-237.00000000000003
20
-364.5
10
-237.00000000000003
20
-373.5
10
-240
20
-373.5
10
-240
20
-382.5
10
-237.00000000000003
20
-382.5
10
-237.00000000000003
20
-391.50000000000006
10
-240
20
-391.50000000000006
10
-240
20
-400.50000000000006
10
-237.00000000000003
20
-400.50000000000006
10
-237.00000000000003
20
-409.5
10
-240
20
-409.5
10
-240
20
-418.5
10
-237.00000000000003
20
-418.5
10
-237.00000000000003
20
-423.00000000000006
0
ENDSEC
0
SECTION
2
OBJECTS
0
DICTIONARY
5
C
100
AcDbDictionary
3
ACAD_GROUP
350
D
3
ACAD_MLINESTYLE
350
17
0
DICTIONARY
5
D
100
AcDbDictionary
0
DICTIONARY
5
1A
330
C
100
AcDbDictionary
0
DICTIONARY
5
17
100
AcDbDictionary
0
ENDSEC
0
EOF
