0
SECTION
2
HEADER
9
$INSUNITS
70
4
9
$ACADVER
1
AC1014
9
$HANDSEED
5
FFFF
0
ENDSEC
0
SECTION
2
TABLES
0
TABLE
2
VPORT
5
8
100
AcDbSymbolTable
0
ENDTAB
0
TABLE
2
LTYPE
5
5
100
AcDbSymbolTable
0
LTYPE
5
14
100
AcDbSymbolTableRecord
100
AcDbLinetypeTableRecord
2
BYBLOCK
70
0
0
LTYPE
5
15
100
AcDbSymbolTableRecord
100
AcDbLinetypeTableRecord
2
BYLAYER
70
0
0
LTYPE
5
16
100
AcDbSymbolTableRecord
100
AcDbLinetypeTableRecord
2
DASHED
70
0
3
Dashed __ __ __ __ __ __ __ __ __ __ __ __ __ _
72
65
73
2
40
0.75
49
0.5
74
0
49
-0.25
74
0
0
ENDTAB
0
TABLE
2
LAYER
5
2
100
AcDbSymbolTable
70
2
0
LAYER
5
50
100
AcDbSymbolTableRecord
100
AcDbLayerTableRecord
2
0
70
0
62
7
6
CONTINUOUS
0
ENDTAB
0
TABLE
2
STYLE
5
3
100
AcDbSymbolTable
70
1
0
STYLE
5
11
100
AcDbSymbolTableRecord
100
AcDbTextStyleTableRecord
2
STANDARD
70
0
0
ENDTAB
0
TABLE
2
VIEW
5
6
100
AcDbSymbolTable
70
0
0
ENDTAB
0
TABLE
2
UCS
5
7
100
AcDbSymbolTable
70
0
0
ENDTAB
0
TABLE
2
APPID
5
9
100
AcDbSymbolTable
70
2
0
APPID
5
12
100
AcDbSymbolTableRecord
100
AcDbRegAppTableRecord
2
ACAD
70
0
0
ENDTAB
0
TABLE
2
DIMSTYLE
5
A
100
AcDbSymbolTable
70
1
0
ENDTAB
0
TABLE
2
BLOCK_RECORD
5
1
100
AcDbSymbolTable
70
1
0
BLOCK_RECORD
5
1F
100
AcDbSymbolTableRecord
100
AcDbBlockTableRecord
2
*MODEL_SPACE
0
BLOCK_RECORD
5
1B
100
AcDbSymbolTableRecord
100
AcDbBlockTableRecord
2
*PAPER_SPACE
0
ENDTAB
0
ENDSEC
0
SECTION
2
BLOCKS
0
BLOCK
5
20
100
AcDbEntity
100
AcDbBlockBegin
2
*MODEL_SPACE
0
ENDBLK
5
21
100
AcDbEntity
100
AcDbBlockEnd
0
BLOCK
5
1C
100
AcDbEntity
100
AcDbBlockBegin
2
*PAPER_SPACE
0
ENDBLK
5
1D
100
AcDbEntity
100
AcDbBlockEnd
0
ENDSEC
0
SECTION
2
ENTITIES
0
LWPOLYLINE
5
100
100
AcDbEntity
8
0
100
AcDbPolyline
90
108
70
1
43
0.0
10
-124.03500000000001
20
-274.60200000000003
10
-125.22300000000001
20
-274.60200000000003
10
-125.22300000000001
20
-273.95400000000001
10
-124.03500000000001
20
-273.95400000000001
10
-124.03500000000001
20
-268.86599999999999
10
-123.09899999999999
20
-268.86599999999999
10
-123.09899999999999
20
-273.95400000000001
10
-122.16300000000001
20
-273.95400000000001
10
-122.16300000000001
20
-274.60200000000003
10
-123.09899999999999
20
-274.60200000000003
10
-123.09899999999999
20
-275.49000000000001
10
-123.101
20
-275.60200000000003
10
-123.108
20
-275.70999999999998
10
-123.11900000000001
20
-275.81299999999999
10
-123.13400000000001
20
-275.91300000000001
10
-123.154
20
-276.00799999999998
10
-123.178
20
-276.09899999999999
10
-123.206
20
-276.18700000000001
10
-123.239
20
-276.26999999999998
10
-123.27600000000002
20
-276.34800000000001
10
-123.31800000000001
20
-276.423
10
-123.36300000000001
20
-276.49400000000003
10
-123.41200000000001
20
-276.56099999999998
10
-123.46299999999999
20
-276.62400000000002
10
-123.51700000000001
20
-276.68299999999999
10
-123.57500000000002
20
-276.73900000000003
10
-123.63500000000002
20
-276.791
10
-123.69799999999999
20
-276.839
10
-123.76400000000001
20
-276.88299999999998
10
-123.83400000000002
20
-276.923
10
-123.90600000000001
20
-276.95999999999998
10
-123.98100000000001
20
-276.99299999999999
10
-124.05700000000002
20
-277.02299999999997
10
-124.13500000000001
20
-277.04900000000004
10
-124.21500000000002
20
-277.07099999999997
10
-124.29700000000003
20
-277.09100000000001
10
-124.38000000000001
20
-277.10599999999999
10
-124.465
20
-277.11799999999999
10
-124.55200000000002
20
-277.12700000000001
10
-124.64100000000002
20
-277.13200000000001
10
-124.73100000000002
20
-277.13400000000001
10
-124.78000000000002
20
-277.13400000000001
10
-124.83000000000001
20
-277.13299999999998
10
-124.87899999999999
20
-277.13099999999997
10
-124.97900000000001
20
-277.125
10
-125.029
20
-277.12099999999998
10
-125.08000000000001
20
-277.11599999999999
10
-125.13
20
-277.11099999999999
10
-125.18100000000001
20
-277.10500000000002
10
-125.23200000000003
20
-277.09800000000001
10
-125.334
20
-277.08199999999999
10
-125.38500000000001
20
-277.07299999999998
10
-125.43600000000001
20
-277.06299999999999
10
-125.486
20
-277.053
10
-125.53700000000001
20
-277.04200000000003
10
-125.58799999999999
20
-277.02999999999997
10
-125.63800000000001
20
-277.01700000000005
10
-125.68899999999999
20
-277.00400000000002
10
-125.739
20
-276.99000000000001
10
-125.55900000000001
20
-276.24599999999998
10
-125.52300000000001
20
-276.25999999999999
10
-125.45100000000002
20
-276.286
10
-125.41500000000001
20
-276.298
10
-125.38
20
-276.30900000000003
10
-125.30799999999999
20
-276.32900000000001
10
-125.273
20
-276.33799999999997
10
-125.23700000000002
20
-276.346
10
-125.20200000000003
20
-276.35400000000004
10
-125.167
20
-276.36099999999999
10
-125.13200000000001
20
-276.36700000000008
10
-125.09700000000002
20
-276.37200000000001
10
-125.06299999999999
20
-276.37700000000001
10
-125.029
20
-276.38099999999997
10
-124.995
20
-276.38400000000001
10
-124.96200000000002
20
-276.387
10
-124.92800000000001
20
-276.38900000000001
10
-124.89600000000002
20
-276.38999999999999
10
-124.863
20
-276.38999999999999
10
-124.82500000000002
20
-276.38900000000001
10
-124.786
20
-276.387
10
-124.748
20
-276.38400000000001
10
-124.709
20
-276.37799999999999
10
-124.67100000000002
20
-276.37200000000001
10
-124.63300000000001
20
-276.36400000000003
10
-124.59400000000001
20
-276.35500000000002
10
-124.55600000000001
20
-276.34399999999999
10
-124.51700000000002
20
-276.33199999999999
10
-124.47900000000001
20
-276.31799999999998
10
-124.441
20
-276.30200000000002
10
-124.405
20
-276.28399999999999
10
-124.37
20
-276.26300000000003
10
-124.336
20
-276.24000000000001
10
-124.30300000000001
20
-276.214
10
-124.27200000000001
20
-276.18600000000004
10
-124.24300000000001
20
-276.15499999999997
10
-124.214
20
-276.12200000000001
10
-124.18700000000001
20
-276.08600000000001
10
-124.161
20
-276.048
10
-124.137
20
-276.00700000000006
10
-124.116
20
-275.96199999999999
10
-124.09700000000001
20
-275.91399999999999
10
-124.08000000000001
20
-275.86200000000008
10
-124.06700000000001
20
-275.80700000000002
10
-124.05500000000002
20
-275.74799999999999
10
-124.04600000000002
20
-275.68599999999998
10
-124.04000000000002
20
-275.62
10
-124.036
20
-275.55099999999999
10
-124.03500000000001
20
-275.47800000000001
0
LWPOLYLINE
5
101
100
AcDbEntity
8
0
100
AcDbPolyline
90
182
70
1
43
0.0
10
-118.85899999999999
20
-268.73099999999999
10
-118.73899999999999
20
-268.72399999999999
10
-118.617
20
-268.72199999999998
10
-118.47000000000001
20
-268.726
10
-118.32600000000001
20
-268.73700000000002
10
-118.185
20
-268.75599999999997
10
-118.04700000000003
20
-268.78300000000002
10
-117.913
20
-268.81700000000001
10
-117.78100000000002
20
-268.85900000000004
10
-117.65299999999999
20
-268.90899999999999
10
-117.52800000000001
20
-268.96600000000001
10
-117.40700000000002
20
-269.03100000000001
10
-117.288
20
-269.10300000000001
10
-117.173
20
-269.18200000000002
10
-117.06400000000001
20
-269.267
10
-116.95900000000002
20
-269.358
10
-116.85900000000001
20
-269.45499999999998
10
-116.76400000000001
20
-269.55799999999999
10
-116.67500000000001
20
-269.66700000000003
10
-116.59
20
-269.78200000000004
10
-116.509
20
-269.90300000000002
10
-116.434
20
-270.029
10
-116.364
20
-270.16200000000003
10
-116.30000000000001
20
-270.30000000000001
10
-116.24200000000002
20
-270.44100000000003
10
-116.19100000000002
20
-270.58699999999999
10
-116.14700000000001
20
-270.73700000000002
10
-116.11000000000001
20
-270.89099999999996
10
-116.07900000000001
20
-271.04900000000004
10
-116.05600000000001
20
-271.21100000000001
10
-116.03900000000002
20
-271.37700000000001
10
-116.02800000000001
20
-271.548
10
-116.02500000000001
20
-271.72199999999998
10
-116.02800000000001
20
-271.90800000000002
10
-116.038
20
-272.08799999999997
10
-116.05500000000001
20
-272.26299999999998
10
-116.07900000000001
20
-272.43299999999999
10
-116.10900000000001
20
-272.59800000000001
10
-116.14600000000002
20
-272.75700000000001
10
-116.19
20
-272.911
10
-116.24000000000001
20
-273.06
10
-116.29700000000001
20
-273.20400000000001
10
-116.361
20
-273.34199999999998
10
-116.43100000000001
20
-273.47399999999999
10
-116.50500000000001
20
-273.601
10
-116.58500000000001
20
-273.72000000000003
10
-116.67000000000002
20
-273.834
10
-116.759
20
-273.94099999999997
10
-116.85400000000001
20
-274.04200000000003
10
-116.953
20
-274.137
10
-117.05799999999999
20
-274.22500000000002
10
-117.16700000000002
20
-274.30700000000002
10
-117.28200000000001
20
-274.38299999999998
10
-117.40100000000001
20
-274.452
10
-117.523
20
-274.51400000000001
10
-117.64800000000001
20
-274.56799999999998
10
-117.77600000000001
20
-274.61500000000001
10
-117.90799999999999
20
-274.65499999999997
10
-118.04299999999999
20
-274.68799999999999
10
-118.18200000000002
20
-274.71299999999997
10
-118.324
20
-274.73099999999999
10
-118.46899999999999
20
-274.74200000000002
10
-118.617
20
-274.74599999999998
10
-118.74600000000001
20
-274.74299999999999
10
-118.87100000000002
20
-274.73500000000001
10
-118.992
20
-274.72199999999998
10
-119.10899999999999
20
-274.70400000000001
10
-119.223
20
-274.68000000000006
10
-119.33300000000001
20
-274.65100000000001
10
-119.43899999999999
20
-274.61700000000002
10
-119.541
20
-274.577
10
-119.63900000000001
20
-274.53199999999998
10
-119.733
20
-274.48200000000003
10
-119.824
20
-274.42700000000002
10
-119.91100000000002
20
-274.36900000000003
10
-119.99400000000001
20
-274.30700000000002
10
-120.07400000000001
20
-274.24099999999999
10
-120.15000000000001
20
-274.17099999999999
10
-120.22300000000001
20
-274.09800000000007
10
-120.29200000000002
20
-274.02099999999996
10
-120.35700000000003
20
-273.94099999999997
10
-120.419
20
-273.85599999999999
10
-120.477
20
-273.76799999999997
10
-120.53200000000002
20
-273.67700000000002
10
-120.58300000000001
20
-273.58299999999997
10
-120.631
20
-273.48700000000002
10
-120.67500000000001
20
-273.38900000000001
10
-120.71600000000002
20
-273.28899999999999
10
-120.754
20
-273.18599999999998
10
-120.78800000000001
20
-273.08099999999996
10
-120.81900000000002
20
-272.97300000000001
10
-120.84600000000002
20
-272.863
10
-120.87000000000002
20
-272.75099999999998
10
-120.89100000000002
20
-272.637
10
-120.908
20
-272.52299999999997
10
-120.92200000000003
20
-272.40699999999998
10
-120.93299999999999
20
-272.29100000000005
10
-120.941
20
-272.17400000000004
10
-120.946
20
-272.05700000000002
10
-120.94700000000002
20
-271.93799999999999
10
-120.946
20
-271.81900000000002
10
-120.941
20
-271.69900000000001
10
-120.93299999999999
20
-271.57799999999997
10
-116.96120168067227
20
-271.57799999999997
10
-116.96300000000001
20
-271.471
10
-116.96799999999999
20
-271.35500000000002
10
-116.977
20
-271.24099999999999
10
-116.98999999999999
20
-271.13
10
-117.00700000000001
20
-271.02199999999999
10
-117.027
20
-270.91500000000002
10
-117.05100000000002
20
-270.81200000000001
10
-117.07799999999999
20
-270.71100000000001
10
-117.10900000000001
20
-270.61200000000002
10
-117.14399999999999
20
-270.51599999999996
10
-117.18200000000002
20
-270.423
10
-117.22499999999999
20
-270.334
10
-117.27000000000001
20
-270.24900000000002
10
-117.31999999999999
20
-270.16800000000001
10
-117.37299999999999
20
-270.09100000000001
10
-117.429
20
-270.01799999999997
10
-117.49000000000001
20
-269.94900000000001
10
-117.55400000000002
20
-269.88400000000001
10
-117.62200000000001
20
-269.82299999999998
10
-117.69300000000001
20
-269.76599999999996
10
-117.768
20
-269.71400000000006
10
-117.84700000000001
20
-269.66700000000003
10
-117.93000000000001
20
-269.625
10
-118.01700000000002
20
-269.589
10
-118.10700000000003
20
-269.55900000000003
10
-118.20100000000002
20
-269.53399999999999
10
-118.29900000000001
20
-269.51499999999999
10
-118.40100000000001
20
-269.50099999999998
10
-118.50700000000002
20
-269.49299999999999
10
-118.617
20
-269.49000000000001
10
-118.72700000000002
20
-269.49299999999999
10
-118.83200000000002
20
-269.50099999999998
10
-118.934
20
-269.51400000000001
10
-119.03200000000001
20
-269.53300000000002
10
-119.126
20
-269.55799999999999
10
-119.21500000000002
20
-269.58699999999999
10
-119.30100000000002
20
-269.62200000000001
10
-119.383
20
-269.66300000000001
10
-119.46100000000001
20
-269.709
10
-119.535
20
-269.75999999999999
10
-119.604
20
-269.81700000000001
10
-119.66799999999999
20
-269.87799999999999
10
-119.726
20
-269.94500000000005
10
-119.77800000000001
20
-270.017
10
-119.82500000000002
20
-270.09399999999999
10
-119.86499999999999
20
-270.17700000000002
10
-119.90100000000001
20
-270.26400000000001
10
-119.931
20
-270.35700000000008
10
-119.955
20
-270.45499999999998
10
-119.97300000000001
20
-270.55799999999999
10
-120.94499999999999
20
-270.55799999999999
10
-120.92500000000001
20
-270.44599999999997
10
-120.90000000000002
20
-270.33600000000001
10
-120.87000000000002
20
-270.23000000000002
10
-120.837
20
-270.12700000000001
10
-120.79799999999999
20
-270.02800000000002
10
-120.755
20
-269.93099999999998
10
-120.70700000000002
20
-269.83799999999997
10
-120.655
20
-269.74800000000005
10
-120.59800000000001
20
-269.661
10
-120.53700000000001
20
-269.577
10
-120.47200000000002
20
-269.49700000000001
10
-120.40300000000001
20
-269.42000000000002
10
-120.33100000000002
20
-269.34699999999998
10
-120.25500000000001
20
-269.27800000000002
10
-120.175
20
-269.21299999999997
10
-120.09299999999999
20
-269.15199999999999
10
-120.00700000000002
20
-269.09399999999999
10
-119.91700000000002
20
-269.04000000000002
10
-119.824
20
-268.99000000000001
10
-119.72700000000002
20
-268.94400000000007
10
-119.62700000000001
20
-268.90199999999999
10
-119.52500000000001
20
-268.86400000000003
10
-119.42
20
-268.83100000000002
10
-119.313
20
-268.80200000000002
10
-119.20400000000001
20
-268.77699999999999
10
-119.09100000000002
20
-268.75799999999998
10
-118.976
20
-268.74200000000002
0
LWPOLYLINE
5
102
100
AcDbEntity
8
0
100
AcDbPolyline
90
89
70
1
43
0.0
10
-127.941
20
-274.60200000000003
10
-129.75299999999999
20
-274.60200000000003
10
-129.75299999999999
20
-273.95400000000001
10
-127.941
20
-273.95400000000001
10
-127.941
20
-270.36599999999999
10
-127.949
20
-270.197
10
-127.97399999999999
20
-270.04599999999999
10
-128.01600000000002
20
-269.91300000000001
10
-128.07299999999998
20
-269.798
10
-128.148
20
-269.69999999999999
10
-128.23900000000003
20
-269.62
10
-128.34700000000001
20
-269.55799999999999
10
-128.471
20
-269.51400000000001
10
-128.61199999999999
20
-269.48700000000002
10
-128.76900000000001
20
-269.47800000000001
10
-128.86700000000002
20
-269.48000000000002
10
-128.91500000000002
20
-269.48300000000006
10
-129.011
20
-269.49099999999999
10
-129.059
20
-269.49700000000001
10
-129.10599999999999
20
-269.50400000000002
10
-129.19999999999999
20
-269.52199999999999
10
-129.24600000000001
20
-269.53199999999998
10
-129.29300000000001
20
-269.54300000000001
10
-129.34100000000001
20
-269.55599999999998
10
-129.38999999999999
20
-269.56900000000007
10
-129.44
20
-269.584
10
-129.49100000000001
20
-269.59899999999999
10
-129.54399999999998
20
-269.61599999999999
10
-129.59700000000001
20
-269.63400000000001
10
-129.65200000000004
20
-269.65300000000002
10
-129.708
20
-269.673
10
-129.76499999999999
20
-269.69400000000002
10
-129.89700000000002
20
-269.02199999999999
10
-129.83600000000001
20
-268.99599999999998
10
-129.77500000000001
20
-268.971
10
-129.714
20
-268.947
10
-129.65299999999999
20
-268.92400000000004
10
-129.59200000000004
20
-268.90199999999999
10
-129.53100000000001
20
-268.88099999999997
10
-129.47
20
-268.86099999999999
10
-129.40899999999999
20
-268.84199999999998
10
-129.34899999999999
20
-268.82299999999998
10
-129.28799999999998
20
-268.80600000000004
10
-129.227
20
-268.79000000000008
10
-129.166
20
-268.77600000000001
10
-129.10399999999998
20
-268.76300000000003
10
-129.042
20
-268.75200000000001
10
-128.97999999999999
20
-268.74299999999999
10
-128.917
20
-268.73500000000001
10
-128.85399999999998
20
-268.73000000000002
10
-128.78999999999999
20
-268.72500000000002
10
-128.726
20
-268.72300000000001
10
-128.661
20
-268.72199999999998
10
-128.56799999999998
20
-268.72399999999999
10
-128.47800000000001
20
-268.72900000000004
10
-128.38900000000001
20
-268.73800000000006
10
-128.30200000000002
20
-268.75099999999998
10
-128.21700000000001
20
-268.767
10
-128.13399999999999
20
-268.78700000000003
10
-128.053
20
-268.81
10
-127.97399999999999
20
-268.83699999999999
10
-127.896
20
-268.86799999999999
10
-127.821
20
-268.90199999999999
10
-127.74799999999999
20
-268.94
10
-127.67800000000001
20
-268.98099999999999
10
-127.61200000000002
20
-269.02600000000001
10
-127.548
20
-269.07499999999999
10
-127.48800000000001
20
-269.12700000000001
10
-127.431
20
-269.18299999999999
10
-127.37700000000002
20
-269.24200000000002
10
-127.32600000000002
20
-269.30500000000001
10
-127.27800000000001
20
-269.37200000000007
10
-127.233
20
-269.44200000000001
10
-127.19200000000001
20
-269.51599999999996
10
-127.155
20
-269.59300000000002
10
-127.12299999999999
20
-269.67400000000004
10
-127.095
20
-269.75900000000001
10
-127.071
20
-269.84699999999998
10
-127.05200000000002
20
-269.93900000000002
10
-127.03600000000002
20
-270.03399999999999
10
-127.02600000000002
20
-270.13300000000004
10
-127.01900000000001
20
-270.23599999999999
10
-127.01700000000002
20
-270.34199999999998
10
-127.01700000000002
20
-273.95400000000001
10
-126.09299999999999
20
-273.95400000000001
10
-126.09299999999999
20
-274.60200000000003
10
-127.01700000000002
20
-274.60200000000003
10
-127.01700000000002
20
-276.19799999999998
10
-127.941
20
-276.19799999999998
0
LWPOLYLINE
5
103
100
AcDbEntity
8
0
100
AcDbPolyline
90
6
70
1
43
0.0
10
-115.31100000000002
20
-268.86599999999999
10
-111.01500000000001
20
-268.86599999999999
10
-111.01500000000001
20
-276.40199999999999
10
-111.95100000000002
20
-276.40199999999999
10
-111.95100000000002
20
-269.68200000000002
10
-115.31100000000002
20
-269.68200000000002
0
LWPOLYLINE
5
104
100
AcDbEntity
8
0
100
AcDbPolyline
90
180
70
1
43
0.0
10
-240
20
-349.5
10
-240
20
-363.00000000000006
10
-232.5
20
-363.00000000000006
10
-232.5
20
-360
10
-223.5
20
-360
10
-223.5
20
-363.00000000000006
10
-214.50000000000003
20
-363.00000000000006
10
-214.50000000000003
20
-360
10
-205.5
20
-360
10
-205.5
20
-363.00000000000006
10
-196.50000000000003
20
-363.00000000000006
10
-196.50000000000003
20
-360
10
-187.5
20
-360
10
-187.5
20
-363.00000000000006
10
-178.5
20
-363.00000000000006
10
-178.5
20
-360
10
-169.5
20
-360
10
-169.5
20
-363.00000000000006
10
-160.5
20
-363.00000000000006
10
-160.5
20
-360
10
-151.5
20
-360
10
-151.5
20
-363.00000000000006
10
-142.5
20
-363.00000000000006
10
-142.5
20
-360
10
-133.5
20
-360
10
-133.5
20
-363.00000000000006
10
-124.50000000000001
20
-363.00000000000006
10
-124.50000000000001
20
-360
10
-115.5
20
-360
10
-115.5
20
-363.00000000000006
10
-106.5
20
-363.00000000000006
10
-106.5
20
-360
10
-97.5
20
-360
10
-97.5
20
-363.00000000000006
10
-88.5
20
-363.00000000000006
10
-88.5
20
-360
10
-79.5
20
-360
10
-79.5
20
-363.00000000000006
10
-70.5
20
-363.00000000000006
10
-70.5
20
-360
10
-61.5
20
-360
10
-61.5
20
-363.00000000000006
10
-52.5
20
-363.00000000000006
10
-52.5
20
-360
10
-43.500000000000014
20
-360
10
-43.500000000000014
20
-363.00000000000006
10
-34.499999999999993
20
-363.00000000000006
10
-34.499999999999993
20
-360
10
-25.500000000000007
20
-360
10
-25.500000000000007
20
-363.00000000000006
10
-16.500000000000004
20
-363.00000000000006
10
-16.500000000000004
20
-360
10
-7.5
20
-360
10
-7.5
20
-363.00000000000006
10
0
20
-363.00000000000006
10
0
20
-349.5
10
-3.0000000000000071
20
-349.5
10
-3.0000000000000071
20
-340.50000000000006
10
0
20
-340.50000000000006
10
0
20
-331.5
10
-3.0000000000000071
20
-331.5
10
-3.0000000000000071
20
-322.5
10
0
20
-322.5
10
0
20
-313.5
10
-3.0000000000000071
20
-313.5
10
-3.0000000000000071
20
-304.5
10
0
20
-304.5
10
0
20
-295.5
10
-3.0000000000000071
20
-295.5
10
-3.0000000000000071
20
-286.5
10
0
20
-286.5
10
0
20
-277.5
10
-3.0000000000000071
20
-277.5
10
-3.0000000000000071
20
-268.5
10
0
20
-268.5
10
0
20
-259.5
10
-3.0000000000000071
20
-259.5
10
-3.0000000000000071
20
-250.5
10
0
20
-250.5
10
0
20
-241.50000000000003
10
-3.0000000000000071
20
-241.50000000000003
10
-3.0000000000000071
20
-232.5
10
0
20
-232.5
10
0
20
-223.5
10
-3.0000000000000071
20
-223.5
10
-3.0000000000000071
20
-214.50000000000003
10
0
20
-214.50000000000003
10
0
20
-205.5
10
-3.0000000000000071
20
-205.5
10
-3.0000000000000071
20
-196.50000000000003
10
0
20
-196.50000000000003
10
0
20
-183
10
-7.5
20
-183
10
-7.5
20
-186
10
-16.500000000000004
20
-186
10
-16.500000000000004
20
-183
10
-25.500000000000007
20
-183
10
-25.500000000000007
20
-186
10
-34.499999999999993
20
-186
10
-34.499999999999993
20
-183
10
-43.500000000000014
20
-183
10
-43.500000000000014
20
-186
10
-52.5
20
-186
10
-52.5
20
-183
10
-61.5
20
-183
10
-61.5
20
-186
10
-70.5
20
-186
10
-70.5
20
-183
10
-79.5
20
-183
10
-79.5
20
-186
10
-88.5
20
-186
10
-88.5
20
-183
10
-97.5
20
-183
10
-97.5
20
-186
10
-106.5
20
-186
10
-106.5
20
-183
10
-115.5
20
-183
10
-115.5
20
-186
10
-124.50000000000001
20
-186
10
-124.50000000000001
20
-183
10
-133.5
20
-183
10
-133.5
20
-186
10
-142.5
20
-186
10
-142.5
20
-183
10
-151.5
20
-183
10
-151.5
20
-186
10
-160.5
20
-186
10
-160.5
20
-183
10
-169.5
20
-183
10
-169.5
20
-186
10
-178.5
20
-186
10
-178.5
20
-183
10
-187.5
20
-183
10
-187.5
20
-186
10
-196.50000000000003
20
-186
10
-196.50000000000003
20
-183
10
-205.5
20
-183
10
-205.5
20
-186
10
-214.50000000000003
20
-186
10
-214.50000000000003
20
-183
10
-223.5
20
-183
10
-223.5
20
-186
10
-232.5
20
-186
10
-232.5
20
-183
10
-240
20
-183
10
-240
20
-196.50000000000003
10
-237.00000000000003
20
-196.50000000000003
10
-237.00000000000003
20
-205.5
10
-240
20
-205.5
10
-240
20
-214.50000000000003
10
-237.00000000000003
20
-214.50000000000003
10
-237.00000000000003
20
-223.5
10
-240
20
-223.5
10
-240
20
-232.5
10
-237.00000000000003
20
-232.5
10
-237.00000000000003
20
-241.50000000000003
10
-240
20
-241.50000000000003
10
-240
20
-250.5
10
-237.00000000000003
20
-250.5
10
-237.00000000000003
20
-259.5
10
-240
20
-259.5
10
-240
20
-268.5
10
-237.00000000000003
20
-268.5
10
-237.00000000000003
20
-277.5
10
-240
20
-277.5
10
-240
20
-286.5
10
-237.00000000000003
20
-286.5
10
-237.00000000000003
20
-295.5
10
-240
20
-295.5
10
-240
20
-304.5
10
-237.00000000000003
20
-304.5
10
-237.00000000000003
20
-313.5
10
-240
20
-313.5
10
-240
20
-322.5
10
-237.00000000000003
20
-322.5
10
-237.00000000000003
20
-331.5
10
-240
20
-331.5
10
-240
20
-340.50000000000006
10
-237.00000000000003
20
-340.50000000000006
10
-237.00000000000003
20
-349.5
0
ENDSEC
0
SECTION
2
OBJECTS
0
DICTIONARY
5
C
100
AcDbDictionary
3
ACAD_GROUP
350
D
3
ACAD_MLINESTYLE
350
17
0
DICTIONARY
5
D
100
AcDbDictionary
0
DICTIONARY
5
1A
330
C
100
AcDbDictionary
0
DICTIONARY
5
17
100
AcDbDictionary
0
ENDSEC
0
EOF
